<svg width="35" height="56" viewBox="0 0 35 56" fill="none" xmlns="http://www.w3.org/2000/svg">
<path d="M17.6514 11.6798C20.8521 11.6798 23.4468 9.0652 23.4468 5.83991C23.4468 2.61461 20.8521 0 17.6514 0C14.4507 0 11.856 2.61461 11.856 5.83991C11.856 9.0652 14.4507 11.6798 17.6514 11.6798Z" fill="#2D3E7A"/>
<path d="M11.5785 27.6392L6.33025 22.3506L2.40411 26.3069C-0.734637 29.4697 -0.734637 34.5974 2.40411 37.7618L6.33025 41.7181L11.5274 36.4811L7.1657 32.0859L11.5785 27.6392Z" fill="#A93349"/>
<path d="M13.1998 38.1648L8.0011 43.4018L17.6111 53.0855L27.2211 43.4018L21.9728 38.1132L17.5615 42.5599L13.1998 38.1648Z" fill="#A93349"/>
<path d="M21.9233 26.0055L27.1204 20.7685L23.5198 17.1402C20.2012 13.7962 14.8212 13.7962 11.5026 17.1402L7.90198 20.7685L13.1503 26.057L17.5631 21.6103L21.9233 26.0055Z" fill="#A93349"/>
<path d="M33.0164 51.4098H2.75134V55.0819H33.0164V51.4098Z" fill="#A93349"/>
<path d="M6.33013 22.3506L11.5784 27.6392L2.07849 26.6552L6.33013 22.3506Z" fill="#A93349"/>
<path d="M7.16558 32.0843L11.5784 27.6392L2.07849 26.6552L7.16558 32.0843Z" fill="#2D3E7A"/>
<path d="M2.07863 26.6552L7.16573 32.0843L0.215537 33.6728C0.215537 33.6728 -0.934561 30.2757 2.07863 26.6552Z" fill="#A93349"/>
<path d="M0.21553 33.6728C0.00628009 36.228 6.33027 41.7181 6.33027 41.7181L7.16572 32.0859L0.21553 33.6728Z" fill="#2D3E7A"/>
<path d="M7.16565 32.0844L11.5273 36.4811L6.3302 41.7181L7.16565 32.0844Z" fill="#A93349"/>
<path d="M22.861 27.5189L28.1093 22.2303L32.0354 26.1866C35.1741 29.3494 35.1741 34.4771 32.0354 37.6415L28.1093 41.5978L22.9121 36.3608L27.2738 31.9656L22.861 27.5189Z" fill="#A93349"/>
<path d="M28.1093 22.2303L22.861 27.5189L32.3609 26.5349L28.1093 22.2303Z" fill="#2D3E7A"/>
<path d="M27.2723 31.9641L22.861 27.519L32.3609 26.535L27.2723 31.9641Z" fill="#A93349"/>
<path d="M32.3609 26.535L27.2738 31.9641L34.224 33.551C34.2224 33.5525 35.3741 30.1539 32.3609 26.535Z" fill="#2D3E7A"/>
<path d="M34.2224 33.5525C34.4317 36.1078 28.1077 41.5978 28.1077 41.5978L27.2722 31.9656L34.2224 33.5525Z" fill="#A93349"/>
<path d="M27.2722 31.9641L22.9105 36.3592L28.1092 41.5962L27.2722 31.9641Z" fill="#2D3E7A"/>
</svg>
