<svg width="43" height="43" viewBox="0 0 43 43" fill="none" xmlns="http://www.w3.org/2000/svg">
<path d="M11.602 38.1091V36.9191C14.304 34.3431 16.082 32.5791 16.082 31.0811C16.082 30.0591 15.522 29.4431 14.528 29.4431C13.772 29.4431 13.156 29.9471 12.624 30.5211L11.504 29.4011C12.456 28.3791 13.38 27.8191 14.794 27.8191C16.754 27.8191 18.056 29.0651 18.056 30.9691C18.056 32.7331 16.432 34.5531 14.584 36.4851C15.102 36.4291 15.788 36.3731 16.278 36.3731H18.546V38.1091H11.602ZM21.9181 38.1091V27.7351H24.7601C27.9241 27.7351 29.8841 29.3871 29.8841 32.8871C29.8841 36.3731 27.9241 38.1091 24.8721 38.1091H21.9181ZM23.9901 36.4431H24.6341C26.5661 36.4431 27.7701 35.4071 27.7701 32.8871C27.7701 30.3531 26.5661 29.4011 24.6341 29.4011H23.9901V36.4431Z" fill="#247BA0"/>
<g clip-path="url(#clip0_939_1372)">
<path d="M12.46 15.8432C11.8539 13.6252 12.0817 11.4915 13.1945 9.47994C15.1674 5.91171 19.4038 4.29111 23.2752 5.59631C24.0754 5.86665 24.8012 6.23874 25.4569 6.70675L25.7168 6.35501C24.626 5.5716 23.3584 5.05563 21.9127 4.82017C20.0814 4.52075 18.3232 4.80563 16.6526 5.62393C13.0543 7.38842 11.0902 11.3447 11.8744 15.2574C11.9313 15.5437 12.0131 15.8257 12.089 16.1077C12.1241 16.237 12.2234 16.2937 12.3519 16.2632C12.4848 16.2312 12.5257 16.1266 12.5023 15.9987C12.4936 15.9463 12.4731 15.8955 12.46 15.8432Z" fill="#247BA0" stroke="#247BA0"/>
<path d="M28.6698 10.2704C28.4975 9.79658 28.2288 9.35764 28.001 8.90562C27.9338 8.7719 27.8184 8.72684 27.687 8.80387C27.56 8.878 27.5614 8.99573 27.6286 9.11637C27.6578 9.16869 27.6899 9.21956 27.7191 9.27043C28.9283 11.4201 29.1955 13.6831 28.4493 16.0304C27.2299 19.8646 23.4243 22.3079 19.4128 21.8065C17.7889 21.603 16.3475 20.9809 15.0814 19.9533C14.8901 19.7978 14.7134 19.6263 14.5294 19.462C14.7602 19.4213 14.969 19.4257 15.1764 19.4213C15.3531 19.417 15.4509 19.3356 15.4436 19.2004C15.4334 19.0275 15.3166 18.9911 15.1676 18.9911C14.7952 18.994 14.4243 18.9911 14.0519 18.9926C13.8329 18.994 13.7715 19.0536 13.7715 19.2687C13.7701 19.6394 13.773 20.01 13.7701 20.3806C13.7686 20.5274 13.8037 20.6466 13.976 20.6582C14.1205 20.6684 14.1994 20.5681 14.2023 20.3792C14.2052 20.1844 14.2023 19.9896 14.2023 19.7556C14.2593 19.8021 14.2783 19.8167 14.2958 19.8327C16.3373 21.7236 18.7439 22.5506 21.5157 22.2294C23.8697 21.9576 25.8236 20.885 27.2913 19.0405C29.3941 16.3953 29.8249 13.4418 28.6698 10.2704Z" fill="#247BA0" stroke="#247BA0"/>
<path d="M20.5 19.1296C17.3958 19.1296 14.8704 16.6042 14.8704 13.5C14.8704 10.3958 17.3958 7.87036 20.5 7.87036C23.6042 7.87036 26.1296 10.3958 26.1296 13.5C26.1296 16.6042 23.6042 19.1296 20.5 19.1296ZM20.5 8.2103C17.583 8.2103 15.2103 10.583 15.2103 13.5C15.2103 16.417 17.583 18.7897 20.5 18.7897C23.417 18.7897 25.7897 16.417 25.7897 13.5C25.7897 10.583 23.417 8.2103 20.5 8.2103Z" fill="#247BA0" stroke="#247BA0"/>
</g>
<defs>
<clipPath id="clip0_939_1372">
<rect width="19" height="19" fill="white" transform="translate(11 4)"/>
</clipPath>
</defs>
</svg>
