<svg width="68" height="68" viewBox="0 0 68 68" fill="none" xmlns="http://www.w3.org/2000/svg">
<rect width="68" height="68" rx="10" fill="#1E1E1E" fill-opacity="0.7"/>
<path d="M40.0825 16.875C39.0537 12.7962 36.94 10 34.5 10C31.0488 10 28.25 15.5963 28.25 22.5C28.25 29.4037 31.0488 35 34.5 35C34.9275 35 35.3462 34.9137 35.75 34.75M38.4925 24.6337L43.26 26.9588L40.935 31.7263" stroke="#FCF7F7" stroke-width="2" stroke-linecap="round" stroke-linejoin="round"/>
<path d="M43.25 26.9625C40.995 28.0687 37.9075 28.75 34.5 28.75C27.5963 28.75 22 25.9512 22 22.5C22 19.0488 27.5963 16.25 34.5 16.25C40.5475 16.25 45.5912 18.3975 46.75 21.25" stroke="#FCF7F7" stroke-width="2" stroke-linecap="round" stroke-linejoin="round"/>
<path d="M28.5241 54.1392C27.8414 54.1392 27.2315 54.0215 26.6946 53.7862C26.161 53.5509 25.7384 53.2244 25.4268 52.8068C25.1186 52.3859 24.9529 51.8987 24.9297 51.3452H26.4908C26.5107 51.6468 26.6117 51.9086 26.794 52.1307C26.9796 52.3494 27.2216 52.5185 27.5199 52.6378C27.8182 52.7571 28.1496 52.8168 28.5142 52.8168C28.9152 52.8168 29.2699 52.7472 29.5781 52.608C29.8897 52.4687 30.1333 52.2749 30.3089 52.0263C30.4846 51.7744 30.5724 51.4844 30.5724 51.1562C30.5724 50.8149 30.4846 50.5149 30.3089 50.2564C30.1366 49.9946 29.883 49.7891 29.5483 49.6399C29.2169 49.4908 28.8158 49.4162 28.3452 49.4162H27.4851V48.1634H28.3452C28.723 48.1634 29.0545 48.0954 29.3395 47.9595C29.6278 47.8236 29.8532 47.6347 30.0156 47.3928C30.178 47.1475 30.2592 46.8608 30.2592 46.5327C30.2592 46.2178 30.188 45.9444 30.0455 45.7124C29.9063 45.477 29.7074 45.2931 29.4489 45.1605C29.1937 45.0279 28.892 44.9616 28.544 44.9616C28.2126 44.9616 27.9027 45.023 27.6143 45.1456C27.3293 45.2649 27.0973 45.4373 26.9183 45.6626C26.7393 45.8847 26.6432 46.1515 26.63 46.4631H25.1435C25.16 45.9129 25.3224 45.429 25.6307 45.0114C25.9422 44.5937 26.3532 44.2673 26.8636 44.032C27.3741 43.7966 27.9408 43.679 28.5639 43.679C29.2169 43.679 29.7803 43.8066 30.2543 44.0618C30.7315 44.3137 31.0994 44.6501 31.358 45.071C31.6198 45.492 31.7491 45.9527 31.7457 46.4531C31.7491 47.0232 31.59 47.5071 31.2685 47.9048C30.9503 48.3026 30.526 48.5694 29.9957 48.7053V48.7848C30.6719 48.8875 31.1955 49.156 31.5668 49.5902C31.9413 50.0244 32.1269 50.563 32.1236 51.206C32.1269 51.7661 31.9711 52.2682 31.6562 52.7124C31.3447 53.1565 30.9188 53.5062 30.3786 53.7614C29.8383 54.0133 29.2202 54.1392 28.5241 54.1392ZM37.4382 54H34.142V43.8182H37.5426C38.5402 43.8182 39.397 44.022 40.1129 44.4297C40.8288 44.834 41.3774 45.4157 41.7585 46.1747C42.143 46.9304 42.3352 47.8369 42.3352 48.8942C42.3352 49.9548 42.1413 50.8662 41.7536 51.6286C41.3691 52.3909 40.8123 52.9775 40.0831 53.3885C39.3539 53.7962 38.4723 54 37.4382 54ZM35.6783 52.6577H37.3537C38.1293 52.6577 38.7739 52.5118 39.2876 52.2202C39.8014 51.9252 40.1858 51.4993 40.4411 50.9425C40.6963 50.3823 40.8239 49.6996 40.8239 48.8942C40.8239 48.0954 40.6963 47.4176 40.4411 46.8608C40.1892 46.304 39.813 45.8814 39.3125 45.593C38.812 45.3047 38.1906 45.1605 37.4482 45.1605H35.6783V52.6577Z" fill="white"/>
<path opacity="0.26" d="M26.6496 5.64714C25.2002 5.27796 23.7782 5.71551 22.3698 5.55143C22.0416 5.51041 21.6314 5.6198 21.4674 5.20959C21.3169 4.86776 21.6314 4.66265 21.8092 4.44388C22.4655 3.59612 23.1492 2.76204 23.7918 1.90061C24.2567 1.27163 24.7353 1.1349 25.2276 1.81857C25.9112 2.76204 26.5539 3.71918 27.1829 4.69C27.6341 5.37367 27.511 5.74286 26.6496 5.64714Z" fill="white"/>
<path opacity="0.26" d="M34.9494 5.64714C33.5 5.27796 32.078 5.71551 30.6696 5.55143C30.3414 5.51041 29.9312 5.6198 29.7672 5.20959C29.6167 4.86776 29.9312 4.66265 30.109 4.44388C30.7653 3.59612 31.449 2.76204 32.0916 1.90061C32.5565 1.27163 33.0351 1.1349 33.5274 1.81857C34.211 2.76204 34.8537 3.71918 35.4827 4.69C35.9339 5.37367 35.8108 5.74286 34.9494 5.64714Z" fill="white"/>
<path opacity="0.26" d="M44.4661 5.64714C42.9757 5.27796 41.499 5.71551 40.0359 5.55143C39.6941 5.51041 39.2839 5.6198 39.1061 5.20959C38.9557 4.86776 39.2839 4.66265 39.4616 4.44388C40.1453 3.59612 40.8427 2.76204 41.5127 1.90061C41.9912 1.27163 42.4835 1.1349 42.9894 1.81857C43.6867 2.76204 44.3567 3.71918 45.0131 4.69C45.478 5.37367 45.3412 5.74286 44.4661 5.64714Z" fill="white"/>
<path opacity="0.26" d="M54.0375 5.64714C52.5471 5.27796 51.0704 5.71551 49.6073 5.55143C49.2655 5.51041 48.8553 5.6198 48.6775 5.20959C48.5271 4.86776 48.8553 4.66265 49.033 4.44388C49.7167 3.59612 50.4141 2.76204 51.0841 1.90061C51.5626 1.27163 52.0549 1.1349 52.5608 1.81857C53.2581 2.76204 53.9281 3.71918 54.5845 4.69C55.0494 5.37367 54.9126 5.74286 54.0375 5.64714Z" fill="white"/>
<path opacity="0.26" d="M63.6089 5.64714C62.1185 5.27796 60.6418 5.71551 59.1787 5.55143C58.8369 5.51041 58.4267 5.6198 58.2489 5.20959C58.0985 4.86776 58.4267 4.66265 58.6045 4.44388C59.2881 3.59612 59.9855 2.76204 60.6555 1.90061C61.1341 1.27163 61.6263 1.1349 62.1322 1.81857C62.8296 2.76204 63.4996 3.71918 64.1559 4.69C64.6208 5.37367 64.4841 5.74286 63.6089 5.64714Z" fill="white"/>
<path opacity="0.26" d="M17.3243 5.64714C15.8749 5.27796 14.4528 5.71551 13.0445 5.55143C12.7163 5.52408 12.3061 5.6198 12.1284 5.22327C11.9916 4.86776 12.3061 4.67633 12.4839 4.44388C13.1402 3.59612 13.8239 2.76204 14.4665 1.90061C14.9314 1.27163 15.41 1.1349 15.9022 1.81857C16.5859 2.76204 17.2286 3.71918 17.8575 4.69C18.2951 5.37367 18.172 5.74286 17.3243 5.64714Z" fill="white"/>
<path opacity="0.26" d="M7.98535 5.64714C6.53596 5.27796 5.11392 5.71551 3.70555 5.55143C3.37739 5.52408 2.96719 5.6198 2.8031 5.22327C2.6527 4.86776 2.96719 4.67633 3.14494 4.44388C3.80127 3.59612 4.48494 2.76204 5.12759 1.90061C5.59249 1.27163 6.07106 1.1349 6.56331 1.81857C7.24698 2.76204 7.88964 3.71918 8.51862 4.69C8.95617 5.37367 8.83311 5.74286 7.98535 5.64714Z" fill="white"/>
<path opacity="0.26" d="M26.6496 65.8104C25.2002 65.4412 23.7782 65.8788 22.3698 65.7147C22.0416 65.6737 21.6314 65.7831 21.4674 65.3729C21.3169 65.031 21.6314 64.8259 21.8092 64.6071C22.4655 63.7594 23.1492 62.9253 23.7918 62.0639C24.2567 61.4349 24.7353 61.2982 25.2276 61.9818C25.9112 62.9253 26.5539 63.8825 27.1829 64.8533C27.6341 65.5369 27.511 65.9061 26.6496 65.8104Z" fill="white"/>
<path opacity="0.26" d="M34.9494 65.8104C33.5 65.4412 32.078 65.8788 30.6696 65.7147C30.3414 65.6737 29.9312 65.7831 29.7672 65.3729C29.6167 65.031 29.9312 64.8259 30.109 64.6071C30.7653 63.7594 31.449 62.9253 32.0916 62.0639C32.5565 61.4349 33.0351 61.2982 33.5274 61.9818C34.211 62.9253 34.8537 63.8825 35.4827 64.8533C35.9339 65.5369 35.8108 65.9061 34.9494 65.8104Z" fill="white"/>
<path opacity="0.26" d="M44.4661 65.8104C42.9757 65.4412 41.499 65.8788 40.0359 65.7147C39.6941 65.6737 39.2839 65.7831 39.1061 65.3729C38.9557 65.031 39.2839 64.8259 39.4616 64.6071C40.1453 63.7594 40.8427 62.9253 41.5127 62.0639C41.9912 61.4349 42.4835 61.2982 42.9894 61.9818C43.6867 62.9253 44.3567 63.8825 45.0131 64.8533C45.478 65.5369 45.3412 65.9061 44.4661 65.8104Z" fill="white"/>
<path opacity="0.26" d="M54.0375 65.8104C52.5471 65.4412 51.0704 65.8788 49.6073 65.7147C49.2655 65.6737 48.8553 65.7831 48.6775 65.3729C48.5271 65.031 48.8553 64.8259 49.033 64.6071C49.7167 63.7594 50.4141 62.9253 51.0841 62.0639C51.5626 61.4349 52.0549 61.2982 52.5608 61.9818C53.2581 62.9253 53.9281 63.8825 54.5845 64.8533C55.0494 65.5369 54.9126 65.9061 54.0375 65.8104Z" fill="white"/>
<path opacity="0.26" d="M63.6089 65.8104C62.1185 65.4412 60.6418 65.8788 59.1787 65.7147C58.8369 65.6737 58.4267 65.7831 58.2489 65.3729C58.0985 65.031 58.4267 64.8259 58.6045 64.6071C59.2881 63.7594 59.9855 62.9253 60.6555 62.0639C61.1341 61.4349 61.6263 61.2982 62.1322 61.9818C62.8296 62.9253 63.4996 63.8825 64.1559 64.8533C64.6208 65.5369 64.4841 65.9061 63.6089 65.8104Z" fill="white"/>
<path opacity="0.26" d="M17.3243 65.8104C15.8749 65.4412 14.4529 65.8788 13.0445 65.7147C12.7163 65.6874 12.3061 65.7831 12.1284 65.3865C11.978 65.0447 12.2924 64.8396 12.4702 64.6208C13.1265 63.7731 13.8102 62.939 14.4529 62.0776C14.9177 61.4486 15.3963 61.3118 15.8886 61.9955C16.5722 62.939 17.2149 63.8961 17.8439 64.8669C18.2951 65.5369 18.172 65.9061 17.3243 65.8104Z" fill="white"/>
<path opacity="0.26" d="M7.98535 65.8104C6.53596 65.4412 5.11392 65.8788 3.70555 65.7147C3.37739 65.6737 2.96719 65.7831 2.8031 65.3729C2.6527 65.031 2.96719 64.8259 3.14494 64.6071C3.80127 63.7594 4.48494 62.9253 5.12759 62.0639C5.59249 61.4349 6.07106 61.2982 6.56331 61.9818C7.24698 62.9253 7.88964 63.8825 8.51862 64.8533C8.95617 65.5369 8.83311 65.9061 7.98535 65.8104Z" fill="white"/>
<path opacity="0.26" d="M5.64714 44.7259C5.27796 46.1753 5.71551 47.5973 5.55143 49.0057C5.51041 49.3339 5.6198 49.7441 5.20959 49.9082C4.86776 50.0586 4.66265 49.7441 4.44388 49.5663C3.59612 48.91 2.76204 48.2263 1.90061 47.5837C1.27163 47.1188 1.1349 46.6402 1.81857 46.148C2.76204 45.4643 3.71918 44.8216 4.69 44.1927C5.36 43.7414 5.72918 43.8782 5.64714 44.7259Z" fill="white"/>
<path opacity="0.26" d="M5.64715 35.4827C5.27796 36.932 5.71552 38.3541 5.55143 39.7624C5.51041 40.0906 5.6198 40.5008 5.2096 40.6649C4.86776 40.8153 4.66266 40.5008 4.44388 40.3231C3.59613 39.6667 2.76205 38.9831 1.90062 38.3404C1.25796 37.8755 1.1349 37.3969 1.8049 36.9184C2.74837 36.2347 3.70552 35.592 4.67633 34.9631C5.36001 34.4982 5.72919 34.6349 5.64715 35.4827Z" fill="white"/>
<path opacity="0.26" d="M5.64714 26.171C5.27796 27.6614 5.71551 29.1382 5.55143 30.6012C5.51041 30.9431 5.6198 31.3533 5.20959 31.531C4.86776 31.6814 4.66265 31.3533 4.44388 31.1755C3.59612 30.4918 2.76204 29.7945 1.90061 29.1245C1.27163 28.6459 1.1349 28.1537 1.81857 27.6478C2.76204 26.9504 3.71918 26.2804 4.69 25.6241C5.36 25.1592 5.72918 25.2959 5.64714 26.171Z" fill="white"/>
<path opacity="0.26" d="M5.64714 16.9278C5.27796 18.4182 5.71551 19.8949 5.55143 21.358C5.51041 21.6998 5.6198 22.11 5.20959 22.2877C4.86776 22.4382 4.66265 22.11 4.44388 21.9322C3.59612 21.2486 2.76204 20.5512 1.90061 19.8812C1.27163 19.4026 1.1349 18.9104 1.81857 18.4045C2.76204 17.7071 3.71918 17.0371 4.69 16.3808C5.36 15.9159 5.72918 16.0526 5.64714 16.9278Z" fill="white"/>
<path opacity="0.26" d="M5.64715 7.68449C5.26429 9.17489 5.71552 10.6516 5.55143 12.101C5.51041 12.4429 5.60613 12.8667 5.2096 13.0445C4.86776 13.1949 4.66266 12.8667 4.44388 12.689C3.59613 12.0053 2.76205 11.308 1.90062 10.638C1.25796 10.1457 1.1349 9.66714 1.8049 9.16122C2.74837 8.46387 3.70552 7.79387 4.67633 7.13755C5.36001 6.67265 5.72919 6.80938 5.64715 7.68449Z" fill="white"/>
<path opacity="0.26" d="M5.64714 53.9692C5.27796 55.4186 5.71551 56.8406 5.55143 58.249C5.51041 58.5771 5.6198 58.9873 5.20959 59.1514C4.86776 59.3018 4.66265 58.9873 4.44388 58.8096C3.59612 58.1533 2.76204 57.4696 1.90061 56.8269C1.27163 56.362 1.1349 55.8835 1.81857 55.3912C2.76204 54.7075 3.71918 54.0649 4.69 53.4359C5.36 52.9847 5.72918 53.1214 5.64714 53.9692Z" fill="white"/>
<path opacity="0.26" d="M61.5306 46.0933C61.8998 47.5427 61.4622 48.9647 61.6263 50.3731C61.6673 50.7012 61.558 51.1114 61.9682 51.2755C62.31 51.4259 62.5151 51.1114 62.7339 50.9337C63.5816 50.2774 64.4157 49.5937 65.2771 48.951C65.9061 48.4861 66.0429 48.0076 65.3592 47.5153C64.4157 46.8316 63.4586 46.189 62.4878 45.56C61.8178 45.1088 61.4349 45.2455 61.5306 46.0933Z" fill="white"/>
<path opacity="0.26" d="M61.5306 36.85C61.8998 38.2994 61.4622 39.7214 61.6263 41.1298C61.6673 41.458 61.558 41.8682 61.9682 42.0322C62.31 42.1827 62.5151 41.8682 62.7339 41.6904C63.5816 41.0341 64.4157 40.3504 65.2771 39.7078C65.9061 39.2429 66.0429 38.7643 65.3592 38.272C64.4157 37.5884 63.4586 36.9457 62.4878 36.3167C61.8178 35.8655 61.4349 36.0022 61.5306 36.85Z" fill="white"/>
<path opacity="0.26" d="M61.5306 27.5384C61.8998 29.0288 61.4622 30.5055 61.6263 31.9686C61.6673 32.3104 61.558 32.7206 61.9682 32.8984C62.31 33.0488 62.5151 32.7206 62.7339 32.5429C63.5816 31.8592 64.4157 31.1618 65.2771 30.4918C65.9061 30.0133 66.0429 29.521 65.3592 29.0151C64.4157 28.3177 63.4586 27.6477 62.4878 26.9914C61.8178 26.5265 61.4349 26.6633 61.5306 27.5384Z" fill="white"/>
<path opacity="0.26" d="M61.5306 18.2951C61.8998 19.7855 61.4622 21.2622 61.6263 22.7253C61.6673 23.0671 61.558 23.4773 61.9682 23.6551C62.31 23.8055 62.5151 23.4774 62.7339 23.2996C63.5816 22.6159 64.4157 21.9186 65.2771 21.2486C65.9061 20.77 66.0429 20.2778 65.3592 19.7718C64.4157 19.0745 63.4586 18.4045 62.4878 17.7482C61.8178 17.2833 61.4349 17.42 61.5306 18.2951Z" fill="white"/>
<path opacity="0.26" d="M61.5306 9.05183C61.8998 10.5422 61.4622 12.019 61.6263 13.482C61.6673 13.8239 61.558 14.2341 61.9682 14.4118C62.31 14.5622 62.5151 14.2341 62.7339 14.0563C63.5816 13.3727 64.4157 12.6753 65.2771 12.0053C65.9061 11.5267 66.0429 11.0345 65.3592 10.5286C64.4157 9.83122 63.4586 9.16122 62.4878 8.5049C61.8178 8.04 61.4349 8.17673 61.5306 9.05183Z" fill="white"/>
<path opacity="0.26" d="M61.5306 55.3365C61.8998 56.7859 61.4622 58.208 61.6263 59.6163C61.6673 59.9445 61.558 60.3547 61.9682 60.5188C62.31 60.6692 62.5151 60.3547 62.7339 60.1769C63.5816 59.5206 64.4157 58.8369 65.2771 58.1943C65.9061 57.7294 66.0429 57.2508 65.3592 56.7586C64.4157 56.0749 63.4586 55.4322 62.4878 54.8033C61.8178 54.352 61.4349 54.4888 61.5306 55.3365Z" fill="white"/>
</svg>
