<svg width="43" height="43" viewBox="0 0 43 43" fill="none" xmlns="http://www.w3.org/2000/svg">
<path d="M26.6412 6.375C25.8651 3.18616 24.2705 1 22.4298 1C19.8262 1 17.7149 5.37525 17.7149 10.7727C17.7149 16.1702 19.8262 20.5455 22.4298 20.5455C22.7523 20.5455 23.0682 20.478 23.3728 20.35M25.4417 12.4409L29.0382 14.2587L27.2843 17.986" stroke="#4D4D4D" stroke-width="2" stroke-linecap="round" stroke-linejoin="round"/>
<path d="M29.0307 14.2616C27.3296 15.1265 25.0004 15.6591 22.4298 15.6591C17.2217 15.6591 13 13.471 13 10.7727C13 8.07447 17.2217 5.88635 22.4298 5.88635C26.992 5.88635 30.7969 7.56531 31.6711 9.79544" stroke="#4D4D4D" stroke-width="2" stroke-linecap="round" stroke-linejoin="round"/>
<path d="M15.288 40.3171C13.432 40.3171 12.232 39.5811 11.448 38.7011L12.344 37.5171C13.032 38.2211 13.912 38.8131 15.128 38.8131C16.456 38.8131 17.368 38.0931 17.368 36.9411C17.368 35.6771 16.536 34.8611 13.88 34.8611V33.5011C16.2 33.5011 16.968 32.6531 16.968 31.5491C16.968 30.5251 16.28 29.9011 15.16 29.9011C14.248 29.9011 13.48 30.3491 12.808 31.0211L11.848 29.8691C12.776 29.0211 13.864 28.4291 15.224 28.4291C17.336 28.4291 18.824 29.5171 18.824 31.4051C18.824 32.7331 18.04 33.6131 16.792 34.0771V34.1571C18.152 34.4931 19.224 35.4851 19.224 37.0371C19.224 39.1011 17.448 40.3171 15.288 40.3171ZM23.277 40.1091V28.3171H26.333C29.949 28.3171 32.013 30.3331 32.013 34.1731C32.013 37.9971 29.949 40.1091 26.429 40.1091H23.277ZM25.133 38.5891H26.205C28.733 38.5891 30.093 37.1011 30.093 34.1731C30.093 31.2291 28.733 29.8371 26.205 29.8371H25.133V38.5891Z" fill="#4D4D4D"/>
</svg>
