<svg width="15" height="16" viewBox="0 0 15 16" fill="none" xmlns="http://www.w3.org/2000/svg">
<g clip-path="url(#clip0_380_273)">
<path d="M14.08 5.33329V4.66663H9.97333V5.33329H11.7333V5.99996H11.1467V7.33329H9.21067L8.33008 5.59996H5.7816L4.9016 7.33329H2.93333V5.99996H2.34667V5.33329H4.10667V4.66663H0V5.33329H1.76V5.99996H1.17333V9.33329H2.93333V8.66663H4.79131L4.91803 8.91596C4.14544 9.36115 3.49632 10.0406 3.04249 10.879C2.58867 11.7175 2.34784 12.6823 2.34667 13.6666C2.34667 13.755 2.37757 13.8398 2.43258 13.9023C2.48759 13.9648 2.5622 14 2.64 14C2.7178 14 2.79241 13.9648 2.84742 13.9023C2.90243 13.8398 2.93333 13.755 2.93333 13.6666C2.93435 12.7993 3.14804 11.9494 3.55042 11.2123C3.9528 10.4753 4.52796 9.88025 5.21136 9.49396L5.7816 10.616H8.33008L8.89328 9.50729C9.57026 9.8965 10.1392 10.4912 10.5369 11.2253C10.9346 11.9595 11.1457 12.8045 11.1467 13.6666C11.1467 13.755 11.1776 13.8398 11.2326 13.9023C11.2876 13.9648 11.3622 14 11.44 14C11.5178 14 11.5924 13.9648 11.6474 13.9023C11.7024 13.8398 11.7333 13.755 11.7333 13.6666C11.7323 12.6875 11.4942 11.7276 11.0451 10.892C10.596 10.0565 9.95326 9.37743 9.1872 8.92929L9.32037 8.66663H11.1467V9.33329H12.9067V5.99996H12.32V5.33329H14.08Z" fill="white"/>
</g>
<defs>
<clipPath id="clip0_380_273">
<rect width="14.08" height="16" fill="white"/>
</clipPath>
</defs>
</svg>
