<svg width="15" height="16" viewBox="0 0 15 16" fill="none" xmlns="http://www.w3.org/2000/svg">
<path d="M2.44444 5.11106L4.69333 5.84884L7.16515 3.80884L3.61777 3.92439C3.58304 3.92655 3.54938 3.93879 3.52 3.95995L2.39751 4.69328C2.36259 4.71527 2.33428 4.74865 2.31624 4.78911C2.2982 4.82958 2.29126 4.87526 2.29631 4.92026C2.30137 4.96525 2.31819 5.00749 2.3446 5.0415C2.371 5.07552 2.40578 5.09975 2.44444 5.11106V5.11106Z" fill="white"/>
<path d="M13.5012 2.82665L11.0372 2.2222C10.8299 2.17108 10.6155 2.17121 10.4083 2.22259C10.2011 2.27397 10.0061 2.3754 9.83645 2.51998L2.3936 8.66665L0.606224 8.57776C0.503845 8.5738 0.402959 8.60649 0.317811 8.67121C0.232663 8.73593 0.167556 8.8294 0.131682 8.93844C0.0958083 9.04747 0.0909807 9.16656 0.117881 9.27888C0.144781 9.3912 0.20205 9.49109 0.281602 9.56443L2.02205 11.1333C2.0507 11.1596 2.0848 11.1771 2.1211 11.1841C2.15739 11.1911 2.19466 11.1874 2.22933 11.1733C2.72605 10.9555 4.576 9.83998 6.76231 8.47554L7.20036 13.5911C7.20407 13.6354 7.21837 13.6777 7.24169 13.7135C7.26501 13.7492 7.29648 13.7771 7.3327 13.794C7.36893 13.8109 7.40853 13.8163 7.44724 13.8095C7.48595 13.8027 7.52229 13.7841 7.55236 13.7555L8.53013 12.8311C8.58366 12.7801 8.61966 12.7093 8.63182 12.6311L9.55876 6.72443C11.1232 5.73776 12.6172 4.7822 13.6693 4.10665C13.7785 4.03914 13.8668 3.93512 13.9222 3.80868C13.9776 3.68225 13.9975 3.53951 13.9792 3.39981C13.9608 3.26011 13.9051 3.1302 13.8196 3.02768C13.7341 2.92515 13.6229 2.85497 13.5012 2.82665V2.82665Z" fill="white"/>
</svg>
