<svg width="60" height="60" viewBox="0 0 60 60" fill="none" xmlns="http://www.w3.org/2000/svg">
<rect width="60" height="60" rx="30" fill="#1E1E1E" fill-opacity="0.9"/>
<path d="M25.4166 11.3333L22.5 13.8333L25.4166 16.75" stroke="white" stroke-opacity="0.8" stroke-width="2" stroke-linecap="round" stroke-linejoin="round"/>
<path d="M22.5 13.8333H32.0807C34.9487 13.8333 37.3842 16.1752 37.496 19.0417C37.6141 22.0707 35.1113 24.6667 32.0807 24.6667H24.9993" stroke="white" stroke-opacity="0.8" stroke-width="2" stroke-linecap="round" stroke-linejoin="round"/>
<path d="M26.032 41.86C25.78 42.644 25.444 43.358 25.024 44.002C24.394 43.456 23.75 42.966 23.176 42.518L22.294 43.288C22.938 43.778 23.624 44.352 24.296 44.94C23.428 45.906 22.378 46.62 21.23 47.04C21.482 47.306 21.804 47.782 21.958 48.118C23.19 47.6 24.296 46.83 25.206 45.794C26.018 46.578 26.732 47.334 27.18 47.936L28.174 47.04C27.67 46.396 26.872 45.598 25.976 44.814C26.676 43.764 27.208 42.476 27.544 40.978L26.746 40.712L26.508 40.754H21.986V39.074H27.908V37.898H20.796V40.908C20.796 42.77 20.642 45.43 19.214 47.32C19.522 47.446 20.054 47.754 20.278 47.964C21.524 46.242 21.888 43.82 21.972 41.86H26.032ZM18.934 39.424C18.528 38.878 17.758 38.01 17.114 37.338L16.148 37.926C16.778 38.612 17.562 39.564 17.926 40.152L18.934 39.424ZM18.822 43.862L18.612 43.89H17.254C18.01 42.938 18.962 41.566 19.508 40.782L18.682 40.404L18.514 40.474H15.7V41.524H17.716C17.156 42.336 16.456 43.302 16.176 43.582C15.924 43.862 15.686 43.96 15.49 44.016C15.616 44.254 15.854 44.828 15.924 45.122C16.036 45.01 16.414 44.912 16.764 44.912H18.15C17.702 46.97 16.75 48.44 15.434 49.252C15.672 49.434 16.106 49.882 16.274 50.134C16.974 49.658 17.59 49.028 18.094 48.188C19.172 49.63 20.838 49.896 23.484 49.896C25.052 49.896 26.802 49.854 28.16 49.77C28.23 49.42 28.398 48.832 28.58 48.552C27.11 48.692 24.968 48.762 23.498 48.762C21.118 48.762 19.494 48.566 18.598 47.194C18.99 46.312 19.284 45.29 19.466 44.1L18.822 43.862ZM38.814 45.038H35.832V42.182H38.814V45.038ZM34.6 41.034V46.172H40.116V41.034H34.6ZM32.906 48.132V39.116H41.852V48.132H32.906ZM31.562 37.786V50.106H32.906V49.35H41.852V50.106H43.252V37.786H31.562Z" fill="white" fill-opacity="0.8"/>
</svg>
