<svg width="68" height="68" viewBox="0 0 68 68" fill="none" xmlns="http://www.w3.org/2000/svg">
<rect width="68" height="68" rx="10" fill="#1E1E1E" fill-opacity="0.9"/>
<path d="M27.2237 20.375L22 23.1875L27.2237 26M27.2237 20.375L34.1875 24.125L41.1512 20.375M27.2237 20.375L22 17.5625L34.1875 11L46.375 17.5625L41.1512 20.375M41.1512 20.375L46.375 23.1875L41.1512 26M41.1512 26L46.375 28.8125L34.1875 35.375L22 28.8125L27.2237 26M41.1512 26L34.1875 29.75L27.2237 26" stroke="#FFFCFC" stroke-opacity="0.9" stroke-width="1.5" stroke-linecap="round" stroke-linejoin="round"/>
<path d="M7.288 43.973V44.869H18.754V43.973H7.288ZM7.736 54.235V55.117H18.334V54.235H7.736ZM10.046 45.793V46.591H15.94V45.793H10.046ZM10.046 47.557V48.355H15.94V47.557H10.046ZM6.63 49.363V50.245H19.356V49.363H6.63ZM9.57 51.869V52.737H16.444V51.869H9.57ZM9.416 42.629V49.853H10.466V42.629H9.416ZM15.576 42.629V49.853H16.626V42.629H15.576ZM12.426 50.693V54.725H13.504V50.693H12.426ZM10.158 49.601C9.402 50.833 7.904 52.037 6.49 52.597C6.728 52.793 7.022 53.157 7.176 53.395C8.646 52.709 10.186 51.379 11.04 49.937L10.158 49.601ZM15.884 49.601L15.058 49.923C15.87 51.295 17.354 52.597 18.838 53.227C18.992 52.975 19.3 52.611 19.538 52.415C18.082 51.897 16.626 50.791 15.884 49.601ZM20.63 43.455V44.435H25.474V43.455H20.63ZM22.03 47.669V48.607H24.144V52.723H22.03V53.647H25.04V47.669H22.03ZM22.268 43.931C21.974 46.521 21.428 49.013 20.392 50.609C20.588 50.833 20.896 51.309 21.022 51.533C22.212 49.713 22.87 46.969 23.262 44.085L22.268 43.931ZM21.61 47.669V54.809H22.492V47.669H21.61ZM25.446 44.197V45.037H29.1V44.197H25.446ZM25.418 48.915V49.797H32.628V48.915H25.418ZM29.268 51.463V52.331H32.544V51.463H29.268ZM26.972 42.629V48.481H27.854V42.629H26.972ZM26.874 44.659C26.51 45.681 25.74 46.843 25.04 47.431C25.222 47.599 25.446 47.921 25.544 48.145C26.314 47.403 27.112 46.115 27.518 45.023L26.874 44.659ZM31.802 44.687L31.228 44.897C31.564 46.073 32.25 47.403 33.006 48.075C33.146 47.865 33.398 47.599 33.594 47.445C32.852 46.899 32.166 45.737 31.802 44.687ZM27.826 45.345L27.364 45.695C27.672 45.989 28.428 46.787 28.68 47.137L29.198 46.521C28.988 46.297 28.092 45.541 27.826 45.345ZM29.38 44.197V45.037H33.384V44.197H29.38ZM30.78 42.629V48.481H31.69V42.629H30.78ZM30.654 44.659C30.276 45.737 29.506 46.871 28.736 47.431C28.904 47.599 29.128 47.907 29.226 48.117C30.052 47.417 30.878 46.157 31.27 44.995L30.654 44.659ZM32.334 48.915V49.041C32.18 49.643 31.914 50.343 31.704 50.791L32.516 51.099C32.782 50.567 33.09 49.797 33.328 49.083L32.67 48.873L32.502 48.915H32.334ZM27.21 51.659L26.496 51.925C27.224 54.669 28.54 55.257 30.78 55.257H33.258C33.3 55.005 33.426 54.571 33.566 54.347C33.104 54.361 31.144 54.361 30.836 54.361C29.016 54.361 27.798 53.913 27.21 51.659ZM26.538 50.483C26.398 52.191 26.006 53.885 24.564 54.809C24.788 54.963 25.082 55.299 25.208 55.495C26.846 54.417 27.308 52.527 27.49 50.483H26.538ZM28.82 49.195V54.347L29.8 54.767V49.195H28.82ZM39.068 45.373H42.862V46.297H39.068V45.373ZM38.2 44.743V46.927H43.772V44.743H38.2ZM38.578 49.489H43.352V52.611H38.578V49.489ZM37.738 48.831V53.283H44.234V48.831H37.738ZM40.132 50.637H41.77V51.463H40.132V50.637ZM39.474 50.091V52.023H42.456V50.091H39.474ZM36.786 47.571V48.229H45.228V47.571H36.786ZM40.482 46.507V47.865H41.406V46.507H40.482ZM35.148 43.189V55.481H36.142V44.085H45.844V55.481H46.88V43.189H35.148ZM35.764 54.039V54.935H46.39V54.039H35.764ZM49.974 43.287V47.361C49.974 49.615 49.848 52.709 48.448 54.893C48.714 55.005 49.176 55.271 49.372 55.439C50.814 53.157 51.024 49.727 51.024 47.361V43.287H49.974ZM50.548 43.287V44.127H59.382V45.289H50.548V46.143H60.418V43.287H50.548ZM52.942 46.269C53.292 46.619 53.642 47.123 53.768 47.459L54.608 47.137C54.468 46.787 54.104 46.311 53.754 45.975L52.942 46.269ZM58.052 45.947C57.842 46.297 57.45 46.829 57.142 47.179L57.898 47.431C58.22 47.137 58.612 46.703 58.976 46.241L58.052 45.947ZM52.354 51.379V55.509H53.362V52.093H58.808V55.481H59.858V51.379H52.354ZM52.704 49.237H59.382V50.091H52.704V49.237ZM52.704 47.739H59.382V48.593H52.704V47.739ZM51.724 47.081V50.763H60.39V47.081H51.724ZM55.504 47.333V50.385H56.484V47.333H55.504ZM52.97 52.877V53.521H59.2V52.877H52.97ZM52.97 54.361V55.075H59.2V54.361H52.97Z" fill="white"/>
</svg>
