<svg width="68" height="68" viewBox="0 0 68 68" fill="none" xmlns="http://www.w3.org/2000/svg">
<rect width="68" height="68" rx="10" fill="#1E1E1E" fill-opacity="0.9"/>
<path d="M27.2237 20.375L22 23.1875L27.2237 26M27.2237 20.375L34.1875 24.125L41.1512 20.375M27.2237 20.375L22 17.5625L34.1875 11L46.375 17.5625L41.1512 20.375M41.1512 20.375L46.375 23.1875L41.1512 26M41.1512 26L46.375 28.8125L34.1875 35.375L22 28.8125L27.2237 26M41.1512 26L34.1875 29.75L27.2237 26" stroke="#FFFCFC" stroke-opacity="0.9" stroke-width="1.5" stroke-linecap="round" stroke-linejoin="round"/>
<path d="M7.288 43.973V44.869H18.754V43.973H7.288ZM7.736 54.235V55.117H18.334V54.235H7.736ZM10.046 45.793V46.591H15.94V45.793H10.046ZM10.046 47.557V48.355H15.94V47.557H10.046ZM6.63 49.363V50.245H19.356V49.363H6.63ZM9.57 51.869V52.737H16.444V51.869H9.57ZM9.416 42.629V49.853H10.466V42.629H9.416ZM15.576 42.629V49.853H16.626V42.629H15.576ZM12.426 50.693V54.725H13.504V50.693H12.426ZM10.158 49.601C9.402 50.833 7.904 52.037 6.49 52.597C6.728 52.793 7.022 53.157 7.176 53.395C8.646 52.709 10.186 51.379 11.04 49.937L10.158 49.601ZM15.884 49.601L15.058 49.923C15.87 51.295 17.354 52.597 18.838 53.227C18.992 52.975 19.3 52.611 19.538 52.415C18.082 51.897 16.626 50.791 15.884 49.601ZM20.63 43.455V44.435H25.474V43.455H20.63ZM22.03 47.669V48.607H24.144V52.723H22.03V53.647H25.04V47.669H22.03ZM22.268 43.931C21.974 46.521 21.428 49.013 20.392 50.609C20.588 50.833 20.896 51.309 21.022 51.533C22.212 49.713 22.87 46.969 23.262 44.085L22.268 43.931ZM21.61 47.669V54.809H22.492V47.669H21.61ZM25.446 44.197V45.037H29.1V44.197H25.446ZM25.418 48.915V49.797H32.628V48.915H25.418ZM29.268 51.463V52.331H32.544V51.463H29.268ZM26.972 42.629V48.481H27.854V42.629H26.972ZM26.874 44.659C26.51 45.681 25.74 46.843 25.04 47.431C25.222 47.599 25.446 47.921 25.544 48.145C26.314 47.403 27.112 46.115 27.518 45.023L26.874 44.659ZM31.802 44.687L31.228 44.897C31.564 46.073 32.25 47.403 33.006 48.075C33.146 47.865 33.398 47.599 33.594 47.445C32.852 46.899 32.166 45.737 31.802 44.687ZM27.826 45.345L27.364 45.695C27.672 45.989 28.428 46.787 28.68 47.137L29.198 46.521C28.988 46.297 28.092 45.541 27.826 45.345ZM29.38 44.197V45.037H33.384V44.197H29.38ZM30.78 42.629V48.481H31.69V42.629H30.78ZM30.654 44.659C30.276 45.737 29.506 46.871 28.736 47.431C28.904 47.599 29.128 47.907 29.226 48.117C30.052 47.417 30.878 46.157 31.27 44.995L30.654 44.659ZM32.334 48.915V49.041C32.18 49.643 31.914 50.343 31.704 50.791L32.516 51.099C32.782 50.567 33.09 49.797 33.328 49.083L32.67 48.873L32.502 48.915H32.334ZM27.21 51.659L26.496 51.925C27.224 54.669 28.54 55.257 30.78 55.257H33.258C33.3 55.005 33.426 54.571 33.566 54.347C33.104 54.361 31.144 54.361 30.836 54.361C29.016 54.361 27.798 53.913 27.21 51.659ZM26.538 50.483C26.398 52.191 26.006 53.885 24.564 54.809C24.788 54.963 25.082 55.299 25.208 55.495C26.846 54.417 27.308 52.527 27.49 50.483H26.538ZM28.82 49.195V54.347L29.8 54.767V49.195H28.82ZM39.068 45.373H42.862V46.297H39.068V45.373ZM38.2 44.743V46.927H43.772V44.743H38.2ZM38.578 49.489H43.352V52.611H38.578V49.489ZM37.738 48.831V53.283H44.234V48.831H37.738ZM40.132 50.637H41.77V51.463H40.132V50.637ZM39.474 50.091V52.023H42.456V50.091H39.474ZM36.786 47.571V48.229H45.228V47.571H36.786ZM40.482 46.507V47.865H41.406V46.507H40.482ZM35.148 43.189V55.481H36.142V44.085H45.844V55.481H46.88V43.189H35.148ZM35.764 54.039V54.935H46.39V54.039H35.764ZM49.974 43.287V47.361C49.974 49.615 49.848 52.709 48.448 54.893C48.714 55.005 49.176 55.271 49.372 55.439C50.814 53.157 51.024 49.727 51.024 47.361V43.287H49.974ZM50.548 43.287V44.127H59.382V45.289H50.548V46.143H60.418V43.287H50.548ZM52.942 46.269C53.292 46.619 53.642 47.123 53.768 47.459L54.608 47.137C54.468 46.787 54.104 46.311 53.754 45.975L52.942 46.269ZM58.052 45.947C57.842 46.297 57.45 46.829 57.142 47.179L57.898 47.431C58.22 47.137 58.612 46.703 58.976 46.241L58.052 45.947ZM52.354 51.379V55.509H53.362V52.093H58.808V55.481H59.858V51.379H52.354ZM52.704 49.237H59.382V50.091H52.704V49.237ZM52.704 47.739H59.382V48.593H52.704V47.739ZM51.724 47.081V50.763H60.39V47.081H51.724ZM55.504 47.333V50.385H56.484V47.333H55.504ZM52.97 52.877V53.521H59.2V52.877H52.97ZM52.97 54.361V55.075H59.2V54.361H52.97Z" fill="white"/>
<path opacity="0.26" d="M26.6496 5.64714C25.2002 5.27796 23.7782 5.71551 22.3698 5.55143C22.0416 5.51041 21.6314 5.6198 21.4674 5.20959C21.3169 4.86776 21.6314 4.66265 21.8092 4.44388C22.4655 3.59612 23.1492 2.76204 23.7918 1.90061C24.2567 1.27163 24.7353 1.1349 25.2276 1.81857C25.9112 2.76204 26.5539 3.71918 27.1829 4.69C27.6341 5.37367 27.511 5.74286 26.6496 5.64714Z" fill="white"/>
<path opacity="0.26" d="M34.9494 5.64714C33.5 5.27796 32.078 5.71551 30.6696 5.55143C30.3414 5.51041 29.9312 5.6198 29.7672 5.20959C29.6167 4.86776 29.9312 4.66265 30.109 4.44388C30.7653 3.59612 31.449 2.76204 32.0916 1.90061C32.5565 1.27163 33.0351 1.1349 33.5274 1.81857C34.211 2.76204 34.8537 3.71918 35.4827 4.69C35.9339 5.37367 35.8108 5.74286 34.9494 5.64714Z" fill="white"/>
<path opacity="0.26" d="M44.4661 5.64714C42.9757 5.27796 41.499 5.71551 40.0359 5.55143C39.6941 5.51041 39.2839 5.6198 39.1061 5.20959C38.9557 4.86776 39.2839 4.66265 39.4616 4.44388C40.1453 3.59612 40.8427 2.76204 41.5127 1.90061C41.9912 1.27163 42.4835 1.1349 42.9894 1.81857C43.6867 2.76204 44.3567 3.71918 45.0131 4.69C45.478 5.37367 45.3412 5.74286 44.4661 5.64714Z" fill="white"/>
<path opacity="0.26" d="M54.0375 5.64714C52.5471 5.27796 51.0704 5.71551 49.6073 5.55143C49.2655 5.51041 48.8553 5.6198 48.6775 5.20959C48.5271 4.86776 48.8553 4.66265 49.033 4.44388C49.7167 3.59612 50.4141 2.76204 51.0841 1.90061C51.5626 1.27163 52.0549 1.1349 52.5608 1.81857C53.2581 2.76204 53.9281 3.71918 54.5845 4.69C55.0494 5.37367 54.9126 5.74286 54.0375 5.64714Z" fill="white"/>
<path opacity="0.26" d="M63.6089 5.64714C62.1185 5.27796 60.6418 5.71551 59.1787 5.55143C58.8369 5.51041 58.4267 5.6198 58.2489 5.20959C58.0985 4.86776 58.4267 4.66265 58.6045 4.44388C59.2881 3.59612 59.9855 2.76204 60.6555 1.90061C61.1341 1.27163 61.6263 1.1349 62.1322 1.81857C62.8296 2.76204 63.4996 3.71918 64.1559 4.69C64.6208 5.37367 64.4841 5.74286 63.6089 5.64714Z" fill="white"/>
<path opacity="0.26" d="M17.3243 5.64714C15.8749 5.27796 14.4528 5.71551 13.0445 5.55143C12.7163 5.52408 12.3061 5.6198 12.1284 5.22327C11.9916 4.86776 12.3061 4.67633 12.4839 4.44388C13.1402 3.59612 13.8239 2.76204 14.4665 1.90061C14.9314 1.27163 15.41 1.1349 15.9022 1.81857C16.5859 2.76204 17.2286 3.71918 17.8575 4.69C18.2951 5.37367 18.172 5.74286 17.3243 5.64714Z" fill="white"/>
<path opacity="0.26" d="M7.98535 5.64714C6.53596 5.27796 5.11392 5.71551 3.70555 5.55143C3.37739 5.52408 2.96719 5.6198 2.8031 5.22327C2.6527 4.86776 2.96719 4.67633 3.14494 4.44388C3.80127 3.59612 4.48494 2.76204 5.12759 1.90061C5.59249 1.27163 6.07106 1.1349 6.56331 1.81857C7.24698 2.76204 7.88964 3.71918 8.51862 4.69C8.95617 5.37367 8.83311 5.74286 7.98535 5.64714Z" fill="white"/>
<path opacity="0.26" d="M26.6496 65.8104C25.2002 65.4412 23.7782 65.8788 22.3698 65.7147C22.0416 65.6737 21.6314 65.7831 21.4674 65.3729C21.3169 65.031 21.6314 64.8259 21.8092 64.6071C22.4655 63.7594 23.1492 62.9253 23.7918 62.0639C24.2567 61.4349 24.7353 61.2982 25.2276 61.9818C25.9112 62.9253 26.5539 63.8825 27.1829 64.8533C27.6341 65.5369 27.511 65.9061 26.6496 65.8104Z" fill="white"/>
<path opacity="0.26" d="M34.9494 65.8104C33.5 65.4412 32.078 65.8788 30.6696 65.7147C30.3414 65.6737 29.9312 65.7831 29.7672 65.3729C29.6167 65.031 29.9312 64.8259 30.109 64.6071C30.7653 63.7594 31.449 62.9253 32.0916 62.0639C32.5565 61.4349 33.0351 61.2982 33.5274 61.9818C34.211 62.9253 34.8537 63.8825 35.4827 64.8533C35.9339 65.5369 35.8108 65.9061 34.9494 65.8104Z" fill="white"/>
<path opacity="0.26" d="M44.4661 65.8104C42.9757 65.4412 41.499 65.8788 40.0359 65.7147C39.6941 65.6737 39.2839 65.7831 39.1061 65.3729C38.9557 65.031 39.2839 64.8259 39.4616 64.6071C40.1453 63.7594 40.8427 62.9253 41.5127 62.0639C41.9912 61.4349 42.4835 61.2982 42.9894 61.9818C43.6867 62.9253 44.3567 63.8825 45.0131 64.8533C45.478 65.5369 45.3412 65.9061 44.4661 65.8104Z" fill="white"/>
<path opacity="0.26" d="M54.0375 65.8104C52.5471 65.4412 51.0704 65.8788 49.6073 65.7147C49.2655 65.6737 48.8553 65.7831 48.6775 65.3729C48.5271 65.031 48.8553 64.8259 49.033 64.6071C49.7167 63.7594 50.4141 62.9253 51.0841 62.0639C51.5626 61.4349 52.0549 61.2982 52.5608 61.9818C53.2581 62.9253 53.9281 63.8825 54.5845 64.8533C55.0494 65.5369 54.9126 65.9061 54.0375 65.8104Z" fill="white"/>
<path opacity="0.26" d="M63.6089 65.8104C62.1185 65.4412 60.6418 65.8788 59.1787 65.7147C58.8369 65.6737 58.4267 65.7831 58.2489 65.3729C58.0985 65.031 58.4267 64.8259 58.6045 64.6071C59.2881 63.7594 59.9855 62.9253 60.6555 62.0639C61.1341 61.4349 61.6263 61.2982 62.1322 61.9818C62.8296 62.9253 63.4996 63.8825 64.1559 64.8533C64.6208 65.5369 64.4841 65.9061 63.6089 65.8104Z" fill="white"/>
<path opacity="0.26" d="M17.3243 65.8104C15.8749 65.4412 14.4529 65.8788 13.0445 65.7147C12.7163 65.6874 12.3061 65.7831 12.1284 65.3865C11.978 65.0447 12.2924 64.8396 12.4702 64.6208C13.1265 63.7731 13.8102 62.939 14.4529 62.0776C14.9177 61.4486 15.3963 61.3118 15.8886 61.9955C16.5722 62.939 17.2149 63.8961 17.8439 64.8669C18.2951 65.5369 18.172 65.9061 17.3243 65.8104Z" fill="white"/>
<path opacity="0.26" d="M7.98535 65.8104C6.53596 65.4412 5.11392 65.8788 3.70555 65.7147C3.37739 65.6737 2.96719 65.7831 2.8031 65.3729C2.6527 65.031 2.96719 64.8259 3.14494 64.6071C3.80127 63.7594 4.48494 62.9253 5.12759 62.0639C5.59249 61.4349 6.07106 61.2982 6.56331 61.9818C7.24698 62.9253 7.88964 63.8825 8.51862 64.8533C8.95617 65.5369 8.83311 65.9061 7.98535 65.8104Z" fill="white"/>
<path opacity="0.26" d="M5.64714 44.7259C5.27796 46.1753 5.71551 47.5973 5.55143 49.0057C5.51041 49.3339 5.6198 49.7441 5.20959 49.9082C4.86776 50.0586 4.66265 49.7441 4.44388 49.5663C3.59612 48.91 2.76204 48.2263 1.90061 47.5837C1.27163 47.1188 1.1349 46.6402 1.81857 46.148C2.76204 45.4643 3.71918 44.8216 4.69 44.1927C5.36 43.7414 5.72918 43.8782 5.64714 44.7259Z" fill="white"/>
<path opacity="0.26" d="M5.64715 35.4827C5.27796 36.932 5.71552 38.3541 5.55143 39.7624C5.51041 40.0906 5.6198 40.5008 5.2096 40.6649C4.86776 40.8153 4.66266 40.5008 4.44388 40.3231C3.59613 39.6667 2.76205 38.9831 1.90062 38.3404C1.25796 37.8755 1.1349 37.3969 1.8049 36.9184C2.74837 36.2347 3.70552 35.592 4.67633 34.9631C5.36001 34.4982 5.72919 34.6349 5.64715 35.4827Z" fill="white"/>
<path opacity="0.26" d="M5.64714 26.171C5.27796 27.6614 5.71551 29.1382 5.55143 30.6012C5.51041 30.9431 5.6198 31.3533 5.20959 31.531C4.86776 31.6814 4.66265 31.3533 4.44388 31.1755C3.59612 30.4918 2.76204 29.7945 1.90061 29.1245C1.27163 28.6459 1.1349 28.1537 1.81857 27.6478C2.76204 26.9504 3.71918 26.2804 4.69 25.6241C5.36 25.1592 5.72918 25.2959 5.64714 26.171Z" fill="white"/>
<path opacity="0.26" d="M5.64714 16.9278C5.27796 18.4182 5.71551 19.8949 5.55143 21.358C5.51041 21.6998 5.6198 22.11 5.20959 22.2877C4.86776 22.4382 4.66265 22.11 4.44388 21.9322C3.59612 21.2486 2.76204 20.5512 1.90061 19.8812C1.27163 19.4026 1.1349 18.9104 1.81857 18.4045C2.76204 17.7071 3.71918 17.0371 4.69 16.3808C5.36 15.9159 5.72918 16.0526 5.64714 16.9278Z" fill="white"/>
<path opacity="0.26" d="M5.64715 7.68449C5.26429 9.1749 5.71552 10.6516 5.55143 12.101C5.51041 12.4429 5.60613 12.8667 5.2096 13.0445C4.86776 13.1949 4.66266 12.8667 4.44388 12.689C3.59613 12.0053 2.76205 11.308 1.90062 10.638C1.25796 10.1457 1.1349 9.66715 1.8049 9.16123C2.74837 8.46388 3.70552 7.79388 4.67633 7.13756C5.36001 6.67266 5.72919 6.80939 5.64715 7.68449Z" fill="white"/>
<path opacity="0.26" d="M5.64714 53.9692C5.27796 55.4186 5.71551 56.8406 5.55143 58.249C5.51041 58.5771 5.6198 58.9873 5.20959 59.1514C4.86776 59.3018 4.66265 58.9873 4.44388 58.8096C3.59612 58.1533 2.76204 57.4696 1.90061 56.8269C1.27163 56.362 1.1349 55.8835 1.81857 55.3912C2.76204 54.7075 3.71918 54.0649 4.69 53.4359C5.36 52.9847 5.72918 53.1214 5.64714 53.9692Z" fill="white"/>
<path opacity="0.26" d="M61.5306 46.0933C61.8998 47.5427 61.4622 48.9647 61.6263 50.3731C61.6673 50.7012 61.558 51.1114 61.9682 51.2755C62.31 51.4259 62.5151 51.1114 62.7339 50.9337C63.5816 50.2774 64.4157 49.5937 65.2771 48.951C65.9061 48.4861 66.0429 48.0076 65.3592 47.5153C64.4157 46.8316 63.4586 46.189 62.4878 45.56C61.8178 45.1088 61.4349 45.2455 61.5306 46.0933Z" fill="white"/>
<path opacity="0.26" d="M61.5306 36.85C61.8998 38.2994 61.4622 39.7214 61.6263 41.1298C61.6673 41.458 61.558 41.8682 61.9682 42.0322C62.31 42.1827 62.5151 41.8682 62.7339 41.6904C63.5816 41.0341 64.4157 40.3504 65.2771 39.7078C65.9061 39.2429 66.0429 38.7643 65.3592 38.272C64.4157 37.5884 63.4586 36.9457 62.4878 36.3167C61.8178 35.8655 61.4349 36.0022 61.5306 36.85Z" fill="white"/>
<path opacity="0.26" d="M61.5306 27.5384C61.8998 29.0288 61.4622 30.5055 61.6263 31.9686C61.6673 32.3104 61.558 32.7206 61.9682 32.8984C62.31 33.0488 62.5151 32.7206 62.7339 32.5429C63.5816 31.8592 64.4157 31.1618 65.2771 30.4918C65.9061 30.0133 66.0429 29.521 65.3592 29.0151C64.4157 28.3177 63.4586 27.6477 62.4878 26.9914C61.8178 26.5265 61.4349 26.6633 61.5306 27.5384Z" fill="white"/>
<path opacity="0.26" d="M61.5306 18.2951C61.8998 19.7855 61.4622 21.2622 61.6263 22.7253C61.6673 23.0671 61.558 23.4773 61.9682 23.6551C62.31 23.8055 62.5151 23.4774 62.7339 23.2996C63.5816 22.6159 64.4157 21.9186 65.2771 21.2486C65.9061 20.77 66.0429 20.2778 65.3592 19.7718C64.4157 19.0745 63.4586 18.4045 62.4878 17.7482C61.8178 17.2833 61.4349 17.42 61.5306 18.2951Z" fill="white"/>
<path opacity="0.26" d="M61.5306 9.05183C61.8998 10.5422 61.4622 12.019 61.6263 13.482C61.6673 13.8239 61.558 14.2341 61.9682 14.4118C62.31 14.5622 62.5151 14.2341 62.7339 14.0563C63.5816 13.3727 64.4157 12.6753 65.2771 12.0053C65.9061 11.5267 66.0429 11.0345 65.3592 10.5286C64.4157 9.83122 63.4586 9.16122 62.4878 8.5049C61.8178 8.04 61.4349 8.17673 61.5306 9.05183Z" fill="white"/>
<path opacity="0.26" d="M61.5306 55.3365C61.8998 56.7859 61.4622 58.208 61.6263 59.6163C61.6673 59.9445 61.558 60.3547 61.9682 60.5188C62.31 60.6692 62.5151 60.3547 62.7339 60.1769C63.5816 59.5206 64.4157 58.8369 65.2771 58.1943C65.9061 57.7294 66.0429 57.2508 65.3592 56.7586C64.4157 56.0749 63.4586 55.4322 62.4878 54.8033C61.8178 54.352 61.4349 54.4888 61.5306 55.3365Z" fill="white"/>
</svg>
