<svg width="1920" height="135" viewBox="0 0 1920 135" fill="none" xmlns="http://www.w3.org/2000/svg">
<g clip-path="url(#clip0_1176_4079)">
<rect width="1920" height="135" fill="#2D3E7A"/>
<g clip-path="url(#clip1_1176_4079)">
<path d="M-401.97 10.14L-383.63 26.39L-366.09 10.85L-348.55 26.39L-331.02 10.85L-313.48 26.39L-295.94 10.85L-278.41 26.39L-260.87 10.85L-243.33 26.39L-225.79 10.85L-208.25 26.39L-190.72 10.85L-173.18 26.39L-155.64 10.85L-138.1 26.39L-120.56 10.85L-103.02 26.39L-85.48 10.85L-67.95 26.39L-50.41 10.85L-32.87 26.39L-15.33 10.85L2.21002 26.39L19.75 10.85L37.3 26.39L53.84 11.74L70.37 26.39L87.91 10.85L105.45 26.39L122.98 10.85L140.52 26.39L158.06 10.85L175.59 26.39L193.13 10.85L210.67 26.39L228.21 10.85L245.75 26.39L263.28 10.85L280.82 26.39L298.36 10.85L315.9 26.39L333.44 10.85L350.98 26.39L368.52 10.85L386.05 26.39L403.59 10.85L421.13 26.39L438.67 10.85L456.21 26.39L473.75 10.85L491.3 26.39L507.84 11.74L524.37 26.39L541.91 10.85L559.45 26.39L576.98 10.85L594.52 26.39L612.06 10.85L629.59 26.39L647.13 10.85L664.67 26.39L682.21 10.85L699.75 26.39L717.28 10.85L734.82 26.39L752.36 10.85L769.9 26.39L787.44 10.85L804.98 26.39L822.52 10.85L840.05 26.39L857.59 10.85L875.13 26.39L892.67 10.85L910.21 26.39L927.75 10.85L945.3 26.39L961.84 11.74L978.37 26.39L995.91 10.85L1013.45 26.39L1030.98 10.85L1048.52 26.39L1066.06 10.85L1083.59 26.39L1101.13 10.85L1118.67 26.39L1136.21 10.85L1153.75 26.39L1171.28 10.85L1188.82 26.39L1206.36 10.85L1223.9 26.39L1241.44 10.85L1258.98 26.39L1276.52 10.85L1294.05 26.39L1311.59 10.85L1329.13 26.39L1346.67 10.85L1364.21 26.39L1381.75 10.85L1399.3 26.39L1415.84 11.74L1432.37 26.39L1449.91 10.85L1467.45 26.39L1484.98 10.85L1502.52 26.39L1520.06 10.85L1537.59 26.39L1555.13 10.85L1572.67 26.39L1590.21 10.85L1607.75 26.39L1625.28 10.85L1642.82 26.39L1660.36 10.85L1677.9 26.39L1695.44 10.85L1712.98 26.39L1730.52 10.85L1748.05 26.39L1765.59 10.85L1783.13 26.39L1800.67 10.85L1818.21 26.39L1835.75 10.85L1853.3 26.39L1869.84 11.74L1886.37 26.39L1903.91 10.85L1921.45 26.39L1938.98 10.85L1956.52 26.39L1974.06 10.85L1991.59 26.39L2009.13 10.85L2026.67 26.39L2044.21 10.85L2061.75 26.39L2079.28 10.85L2096.82 26.39L2114.36 10.85L2131.9 26.39L2149.44 10.85L2166.98 26.39L2184.52 10.85L2202.05 26.39L2219.59 10.85L2237.13 26.39L2254.67 10.85L2272.21 26.39L2289.75 10.85L2307.3 26.39L2325.65 10.14L2324.04 8.32L2307.3 23.15L2289.75 7.61L2272.21 23.15L2254.67 7.61L2237.13 23.15L2219.59 7.61L2202.05 23.15L2184.52 7.61L2166.98 23.15L2149.44 7.61L2131.9 23.15L2114.36 7.61L2096.82 23.15L2079.28 7.61L2061.75 23.15L2044.21 7.61L2026.67 23.15L2009.13 7.61L1991.59 23.15L1974.06 7.61L1956.52 23.15L1938.98 7.61L1921.45 23.15L1903.91 7.61L1886.37 23.15L1871.48 9.95L1870.04 8.32L1869.84 8.49L1869.64 8.32L1868.2 9.95L1853.3 23.15L1835.75 7.61L1818.21 23.15L1800.67 7.61L1783.13 23.15L1765.59 7.61L1748.05 23.15L1730.52 7.61L1712.98 23.15L1695.44 7.61L1677.9 23.15L1660.36 7.61L1642.82 23.15L1625.28 7.61L1607.75 23.15L1590.21 7.61L1572.67 23.15L1555.13 7.61L1537.59 23.15L1520.06 7.61L1502.52 23.15L1484.98 7.61L1467.45 23.15L1449.91 7.61L1432.37 23.15L1417.48 9.95L1416.04 8.32L1415.84 8.49L1415.64 8.32L1414.2 9.95L1399.3 23.15L1381.75 7.61L1364.21 23.15L1346.67 7.61L1329.13 23.15L1311.59 7.61L1294.05 23.15L1276.52 7.61L1258.98 23.15L1241.44 7.61L1223.9 23.15L1206.36 7.61L1188.82 23.15L1171.28 7.61L1153.75 23.15L1136.21 7.61L1118.67 23.15L1101.13 7.61L1083.59 23.15L1066.06 7.61L1048.52 23.15L1030.98 7.61L1013.45 23.15L995.91 7.61L978.37 23.15L963.48 9.95L962.04 8.32L961.84 8.49L961.64 8.32L960.2 9.95L945.3 23.15L927.75 7.61L910.21 23.15L892.67 7.61L875.13 23.15L857.59 7.61L840.05 23.15L822.52 7.61L804.98 23.15L787.44 7.61L769.9 23.15L752.36 7.61L734.82 23.15L717.28 7.61L699.75 23.15L682.21 7.61L664.67 23.15L647.13 7.61L629.59 23.15L612.06 7.61L594.52 23.15L576.98 7.61L559.45 23.15L541.91 7.61L524.37 23.15L509.48 9.95L508.04 8.32L507.84 8.49L507.64 8.32L506.2 9.95L491.3 23.15L473.75 7.61L456.21 23.15L438.67 7.61L421.13 23.15L403.59 7.61L386.05 23.15L368.52 7.61L350.98 23.15L333.44 7.61L315.9 23.15L298.36 7.61L280.82 23.15L263.28 7.61L245.75 23.15L228.21 7.61L210.67 23.15L193.13 7.61L175.59 23.15L158.06 7.61L140.52 23.15L122.98 7.61L105.45 23.15L87.91 7.61L70.37 23.15L55.48 9.95L54.04 8.32L53.84 8.49L53.64 8.32L52.2 9.95L37.3 23.15L19.75 7.61L2.21002 23.15L-15.33 7.61L-32.87 23.15L-50.41 7.61L-67.95 23.15L-85.48 7.61L-103.02 23.15L-120.56 7.61L-138.1 23.15L-155.64 7.61L-173.18 23.15L-190.72 7.61L-208.25 23.15L-225.79 7.61L-243.33 23.15L-260.87 7.61L-278.41 23.15L-295.94 7.61L-313.48 23.15L-331.02 7.61L-348.55 23.15L-366.09 7.61L-383.63 23.15L-400.36 8.32L-401.97 10.14Z" fill="white"/>
<path d="M29.6299 26.23L19.9099 17.59L10.2 26.23H29.6299Z" fill="white"/>
<path d="M-7.53003 7.77L2.17996 16.41L11.89 7.77H-7.53003Z" fill="white"/>
<path d="M47.3499 7.77H27.9199L37.6399 16.41L47.3499 7.77Z" fill="white"/>
<path d="M78.0901 26.23H97.5101L87.8001 17.59L78.0901 26.23Z" fill="white"/>
<path d="M132.97 26.23L123.26 17.59L113.54 26.23H132.97Z" fill="white"/>
<path d="M168.43 26.23L158.71 17.59L149 26.23H168.43Z" fill="white"/>
<path d="M203.89 26.23L194.17 17.59L184.46 26.23H203.89Z" fill="white"/>
<path d="M218.46 26.23H237.89L228.17 17.59L218.46 26.23Z" fill="white"/>
<path d="M273.34 26.23L263.63 17.59L253.91 26.23H273.34Z" fill="white"/>
<path d="M288.4 26.23H307.83L298.11 17.59L288.4 26.23Z" fill="white"/>
<path d="M343.29 26.23L333.57 17.59L323.86 26.23H343.29Z" fill="white"/>
<path d="M378.26 26.23L368.54 17.59L358.83 26.23H378.26Z" fill="white"/>
<path d="M413.71 26.23L404 17.59L394.29 26.23H413.71Z" fill="white"/>
<path d="M449.17 26.23L439.46 17.59L429.74 26.23H449.17Z" fill="white"/>
<path d="M484.63 26.23L474.91 17.59L465.2 26.23H484.63Z" fill="white"/>
<path d="M94.8101 7.77L104.52 16.41L114.24 7.77H94.8101Z" fill="white"/>
<path d="M60.3201 7.77L70.0401 16.41L79.7501 7.77H60.3201Z" fill="white"/>
<path d="M130.27 7.77L139.98 16.41L149.7 7.77H130.27Z" fill="white"/>
<path d="M165.72 7.77L175.44 16.41L185.15 7.77H165.72Z" fill="white"/>
<path d="M220.61 7.77H201.18L210.89 16.41L220.61 7.77Z" fill="white"/>
<path d="M235.18 7.77L244.89 16.41L254.61 7.77H235.18Z" fill="white"/>
<path d="M270.64 7.77L280.35 16.41L290.07 7.77H270.64Z" fill="white"/>
<path d="M305.12 7.77L314.84 16.41L324.55 7.77H305.12Z" fill="white"/>
<path d="M340.58 7.77L350.29 16.41L360.01 7.77H340.58Z" fill="white"/>
<path d="M375.55 7.77L385.27 16.41L394.98 7.77H375.55Z" fill="white"/>
<path d="M411.01 7.77L420.72 16.41L430.44 7.77H411.01Z" fill="white"/>
<path d="M446.47 7.77L456.18 16.41L465.89 7.77H446.47Z" fill="white"/>
<path d="M501.35 7.77H481.92L491.64 16.41L501.35 7.77Z" fill="white"/>
<path d="M531.09 26.23H550.51L540.8 17.59L531.09 26.23Z" fill="white"/>
<path d="M566.54 26.23H585.97L576.26 17.59L566.54 26.23Z" fill="white"/>
<path d="M602 26.23H621.43L611.71 17.59L602 26.23Z" fill="white"/>
<path d="M656.89 26.23L647.17 17.59L637.46 26.23H656.89Z" fill="white"/>
<path d="M671.46 26.23H690.89L681.17 17.59L671.46 26.23Z" fill="white"/>
<path d="M706.91 26.23H726.34L716.63 17.59L706.91 26.23Z" fill="white"/>
<path d="M741.4 26.23H760.83L751.11 17.59L741.4 26.23Z" fill="white"/>
<path d="M776.86 26.23H796.29L786.57 17.59L776.86 26.23Z" fill="white"/>
<path d="M811.83 26.23H831.26L821.54 17.59L811.83 26.23Z" fill="white"/>
<path d="M847.29 26.23H866.71L857 17.59L847.29 26.23Z" fill="white"/>
<path d="M882.74 26.23H902.17L892.46 17.59L882.74 26.23Z" fill="white"/>
<path d="M937.63 26.23L927.91 17.59L918.2 26.23H937.63Z" fill="white"/>
<path d="M548.81 7.77L558.52 16.41L568.24 7.77H548.81Z" fill="white"/>
<path d="M514.32 7.77L524.04 16.41L533.75 7.77H514.32Z" fill="white"/>
<path d="M584.27 7.77L593.98 16.41L603.7 7.77H584.27Z" fill="white"/>
<path d="M619.72 7.77L629.44 16.41L639.15 7.77H619.72Z" fill="white"/>
<path d="M674.61 7.77H655.18L664.9 16.41L674.61 7.77Z" fill="white"/>
<path d="M689.18 7.77L698.9 16.41L708.61 7.77H689.18Z" fill="white"/>
<path d="M724.64 7.77L734.35 16.41L744.07 7.77H724.64Z" fill="white"/>
<path d="M759.12 7.77L768.84 16.41L778.55 7.77H759.12Z" fill="white"/>
<path d="M794.58 7.77L804.29 16.41L814.01 7.77H794.58Z" fill="white"/>
<path d="M829.55 7.77L839.27 16.41L848.98 7.77H829.55Z" fill="white"/>
<path d="M865.01 7.77L874.72 16.41L884.44 7.77H865.01Z" fill="white"/>
<path d="M900.47 7.77L910.18 16.41L919.9 7.77H900.47Z" fill="white"/>
<path d="M955.35 7.77H935.92L945.64 16.41L955.35 7.77Z" fill="white"/>
<path d="M985.09 26.23H1004.51L994.8 17.59L985.09 26.23Z" fill="white"/>
<path d="M1020.54 26.23H1039.97L1030.26 17.59L1020.54 26.23Z" fill="white"/>
<path d="M1056 26.23H1075.43L1065.71 17.59L1056 26.23Z" fill="white"/>
<path d="M1110.89 26.23L1101.17 17.59L1091.46 26.23H1110.89Z" fill="white"/>
<path d="M1125.46 26.23H1144.89L1135.17 17.59L1125.46 26.23Z" fill="white"/>
<path d="M1160.91 26.23H1180.34L1170.63 17.59L1160.91 26.23Z" fill="white"/>
<path d="M1195.4 26.23H1214.83L1205.11 17.59L1195.4 26.23Z" fill="white"/>
<path d="M1230.86 26.23H1250.29L1240.57 17.59L1230.86 26.23Z" fill="white"/>
<path d="M1265.83 26.23H1285.26L1275.54 17.59L1265.83 26.23Z" fill="white"/>
<path d="M1301.29 26.23H1320.71L1311 17.59L1301.29 26.23Z" fill="white"/>
<path d="M1336.74 26.23H1356.17L1346.46 17.59L1336.74 26.23Z" fill="white"/>
<path d="M1391.63 26.23L1381.91 17.59L1372.2 26.23H1391.63Z" fill="white"/>
<path d="M1002.81 7.77L1012.52 16.41L1022.24 7.77H1002.81Z" fill="white"/>
<path d="M968.32 7.77L978.04 16.41L987.75 7.77H968.32Z" fill="white"/>
<path d="M1038.27 7.77L1047.98 16.41L1057.7 7.77H1038.27Z" fill="white"/>
<path d="M1073.72 7.77L1083.44 16.41L1093.15 7.77H1073.72Z" fill="white"/>
<path d="M1128.61 7.77H1109.18L1118.9 16.41L1128.61 7.77Z" fill="white"/>
<path d="M1143.18 7.77L1152.9 16.41L1162.61 7.77H1143.18Z" fill="white"/>
<path d="M1178.64 7.77L1188.35 16.41L1198.07 7.77H1178.64Z" fill="white"/>
<path d="M1213.12 7.77L1222.84 16.41L1232.55 7.77H1213.12Z" fill="white"/>
<path d="M1248.58 7.77L1258.29 16.41L1268.01 7.77H1248.58Z" fill="white"/>
<path d="M1283.55 7.77L1293.27 16.41L1302.98 7.77H1283.55Z" fill="white"/>
<path d="M1319.01 7.77L1328.72 16.41L1338.44 7.77H1319.01Z" fill="white"/>
<path d="M1354.47 7.77L1364.18 16.41L1373.9 7.77H1354.47Z" fill="white"/>
<path d="M1409.35 7.77H1389.92L1399.64 16.41L1409.35 7.77Z" fill="white"/>
<path d="M1460.51 26.23L1450.8 17.59L1441.09 26.23H1460.51Z" fill="white"/>
<path d="M1495.97 26.23L1486.26 17.59L1476.54 26.23H1495.97Z" fill="white"/>
<path d="M1529.43 26.23L1519.71 17.59L1510 26.23H1529.43Z" fill="white"/>
<path d="M1564.89 26.23L1555.17 17.59L1545.46 26.23H1564.89Z" fill="white"/>
<path d="M1598.89 26.23L1589.17 17.59L1579.46 26.23H1598.89Z" fill="white"/>
<path d="M1634.34 26.23L1624.63 17.59L1614.91 26.23H1634.34Z" fill="white"/>
<path d="M1668.83 26.23L1659.11 17.59L1649.4 26.23H1668.83Z" fill="white"/>
<path d="M1704.29 26.23L1694.57 17.59L1684.86 26.23H1704.29Z" fill="white"/>
<path d="M1739.26 26.23L1729.54 17.59L1719.83 26.23H1739.26Z" fill="white"/>
<path d="M1774.71 26.23L1765 17.59L1755.29 26.23H1774.71Z" fill="white"/>
<path d="M1810.17 26.23L1800.46 17.59L1790.74 26.23H1810.17Z" fill="white"/>
<path d="M1845.63 26.23L1835.91 17.59L1826.2 26.23H1845.63Z" fill="white"/>
<path d="M1456.81 7.77L1466.52 16.41L1476.24 7.77H1456.81Z" fill="white"/>
<path d="M1422.32 7.77L1432.04 16.41L1441.75 7.77H1422.32Z" fill="white"/>
<path d="M1492.27 7.77L1501.98 16.41L1511.7 7.77H1492.27Z" fill="white"/>
<path d="M1527.72 7.77L1537.44 16.41L1547.15 7.77H1527.72Z" fill="white"/>
<path d="M1582.61 7.77H1563.18L1572.9 16.41L1582.61 7.77Z" fill="white"/>
<path d="M1597.18 7.77L1606.9 16.41L1616.61 7.77H1597.18Z" fill="white"/>
<path d="M1632.64 7.77L1642.35 16.41L1652.07 7.77H1632.64Z" fill="white"/>
<path d="M1667.12 7.77L1676.84 16.41L1686.55 7.77H1667.12Z" fill="white"/>
<path d="M1702.58 7.77L1712.29 16.41L1722.01 7.77H1702.58Z" fill="white"/>
<path d="M1737.55 7.77L1747.27 16.41L1756.98 7.77H1737.55Z" fill="white"/>
<path d="M1773.01 7.77L1782.72 16.41L1792.44 7.77H1773.01Z" fill="white"/>
<path d="M1808.47 7.77L1818.18 16.41L1827.9 7.77H1808.47Z" fill="white"/>
<path d="M1863.35 7.77H1843.92L1853.64 16.41L1863.35 7.77Z" fill="white"/>
<path d="M1910.81 7.77L1920.52 16.41L1930.24 7.77H1910.81Z" fill="white"/>
<path d="M1876.32 7.77L1886.04 16.41L1895.75 7.77H1876.32Z" fill="white"/>
<path d="M1863.45 33.03H1422.22H1409.45H968.22H955.45H514.22H501.45H60.2199H47.45H-406.55V34H47.45H60.2199H501.45H514.22H955.45H968.22H1409.45H1422.22H1863.45H1876.22H2330.22V33.03H1876.22H1863.45Z" fill="white"/>
<path d="M1876.22 0H1863.45H1422.22H1409.45H968.22H955.45H514.22H501.45H60.2199H47.45H-406.55V0.97H47.45H60.2199H501.45H514.22H955.45H968.22H1409.45H1422.22H1863.45H1876.22H2330.22V0H1876.22Z" fill="white"/>
<path d="M63.3399 26L53.6299 17.37L43.9099 26H63.3399Z" fill="white"/>
<path d="M516.63 26L506.91 17.37L497.2 26H516.63Z" fill="white"/>
<path d="M971.02 26L961.3 17.37L951.59 26H971.02Z" fill="white"/>
<path d="M1425.41 27L1415.7 18.37L1405.98 27H1425.41Z" fill="white"/>
<path d="M1879.61 27L1869.9 18.37L1860.18 27H1879.61Z" fill="white"/>
<path d="M1913.42 27L1903.71 18.37L1893.99 27H1913.42Z" fill="white"/>
</g>
<g clip-path="url(#clip2_1176_4079)">
<path d="M-401.97 111.14L-383.63 127.39L-366.09 111.85L-348.55 127.39L-331.02 111.85L-313.48 127.39L-295.94 111.85L-278.41 127.39L-260.87 111.85L-243.33 127.39L-225.79 111.85L-208.25 127.39L-190.72 111.85L-173.18 127.39L-155.64 111.85L-138.1 127.39L-120.56 111.85L-103.02 127.39L-85.48 111.85L-67.95 127.39L-50.41 111.85L-32.87 127.39L-15.33 111.85L2.21002 127.39L19.75 111.85L37.3 127.39L53.84 112.74L70.37 127.39L87.91 111.85L105.45 127.39L122.98 111.85L140.52 127.39L158.06 111.85L175.59 127.39L193.13 111.85L210.67 127.39L228.21 111.85L245.75 127.39L263.28 111.85L280.82 127.39L298.36 111.85L315.9 127.39L333.44 111.85L350.98 127.39L368.52 111.85L386.05 127.39L403.59 111.85L421.13 127.39L438.67 111.85L456.21 127.39L473.75 111.85L491.3 127.39L507.84 112.74L524.37 127.39L541.91 111.85L559.45 127.39L576.98 111.85L594.52 127.39L612.06 111.85L629.59 127.39L647.13 111.85L664.67 127.39L682.21 111.85L699.75 127.39L717.28 111.85L734.82 127.39L752.36 111.85L769.9 127.39L787.44 111.85L804.98 127.39L822.52 111.85L840.05 127.39L857.59 111.85L875.13 127.39L892.67 111.85L910.21 127.39L927.75 111.85L945.3 127.39L961.84 112.74L978.37 127.39L995.91 111.85L1013.45 127.39L1030.98 111.85L1048.52 127.39L1066.06 111.85L1083.59 127.39L1101.13 111.85L1118.67 127.39L1136.21 111.85L1153.75 127.39L1171.28 111.85L1188.82 127.39L1206.36 111.85L1223.9 127.39L1241.44 111.85L1258.98 127.39L1276.52 111.85L1294.05 127.39L1311.59 111.85L1329.13 127.39L1346.67 111.85L1364.21 127.39L1381.75 111.85L1399.3 127.39L1415.84 112.74L1432.37 127.39L1449.91 111.85L1467.45 127.39L1484.98 111.85L1502.52 127.39L1520.06 111.85L1537.59 127.39L1555.13 111.85L1572.67 127.39L1590.21 111.85L1607.75 127.39L1625.28 111.85L1642.82 127.39L1660.36 111.85L1677.9 127.39L1695.44 111.85L1712.98 127.39L1730.52 111.85L1748.05 127.39L1765.59 111.85L1783.13 127.39L1800.67 111.85L1818.21 127.39L1835.75 111.85L1853.3 127.39L1869.84 112.74L1886.37 127.39L1903.91 111.85L1921.45 127.39L1938.98 111.85L1956.52 127.39L1974.06 111.85L1991.59 127.39L2009.13 111.85L2026.67 127.39L2044.21 111.85L2061.75 127.39L2079.28 111.85L2096.82 127.39L2114.36 111.85L2131.9 127.39L2149.44 111.85L2166.98 127.39L2184.52 111.85L2202.05 127.39L2219.59 111.85L2237.13 127.39L2254.67 111.85L2272.21 127.39L2289.75 111.85L2307.3 127.39L2325.65 111.14L2324.04 109.32L2307.3 124.15L2289.75 108.61L2272.21 124.15L2254.67 108.61L2237.13 124.15L2219.59 108.61L2202.05 124.15L2184.52 108.61L2166.98 124.15L2149.44 108.61L2131.9 124.15L2114.36 108.61L2096.82 124.15L2079.28 108.61L2061.75 124.15L2044.21 108.61L2026.67 124.15L2009.13 108.61L1991.59 124.15L1974.06 108.61L1956.52 124.15L1938.98 108.61L1921.45 124.15L1903.91 108.61L1886.37 124.15L1871.48 110.95L1870.04 109.32L1869.84 109.49L1869.64 109.32L1868.2 110.95L1853.3 124.15L1835.75 108.61L1818.21 124.15L1800.67 108.61L1783.13 124.15L1765.59 108.61L1748.05 124.15L1730.52 108.61L1712.98 124.15L1695.44 108.61L1677.9 124.15L1660.36 108.61L1642.82 124.15L1625.28 108.61L1607.75 124.15L1590.21 108.61L1572.67 124.15L1555.13 108.61L1537.59 124.15L1520.06 108.61L1502.52 124.15L1484.98 108.61L1467.45 124.15L1449.91 108.61L1432.37 124.15L1417.48 110.95L1416.04 109.32L1415.84 109.49L1415.64 109.32L1414.2 110.95L1399.3 124.15L1381.75 108.61L1364.21 124.15L1346.67 108.61L1329.13 124.15L1311.59 108.61L1294.05 124.15L1276.52 108.61L1258.98 124.15L1241.44 108.61L1223.9 124.15L1206.36 108.61L1188.82 124.15L1171.28 108.61L1153.75 124.15L1136.21 108.61L1118.67 124.15L1101.13 108.61L1083.59 124.15L1066.06 108.61L1048.52 124.15L1030.98 108.61L1013.45 124.15L995.91 108.61L978.37 124.15L963.48 110.95L962.04 109.32L961.84 109.49L961.64 109.32L960.2 110.95L945.3 124.15L927.75 108.61L910.21 124.15L892.67 108.61L875.13 124.15L857.59 108.61L840.05 124.15L822.52 108.61L804.98 124.15L787.44 108.61L769.9 124.15L752.36 108.61L734.82 124.15L717.28 108.61L699.75 124.15L682.21 108.61L664.67 124.15L647.13 108.61L629.59 124.15L612.06 108.61L594.52 124.15L576.98 108.61L559.45 124.15L541.91 108.61L524.37 124.15L509.48 110.95L508.04 109.32L507.84 109.49L507.64 109.32L506.2 110.95L491.3 124.15L473.75 108.61L456.21 124.15L438.67 108.61L421.13 124.15L403.59 108.61L386.05 124.15L368.52 108.61L350.98 124.15L333.44 108.61L315.9 124.15L298.36 108.61L280.82 124.15L263.28 108.61L245.75 124.15L228.21 108.61L210.67 124.15L193.13 108.61L175.59 124.15L158.06 108.61L140.52 124.15L122.98 108.61L105.45 124.15L87.91 108.61L70.37 124.15L55.48 110.95L54.04 109.32L53.84 109.49L53.64 109.32L52.2 110.95L37.3 124.15L19.75 108.61L2.21002 124.15L-15.33 108.61L-32.87 124.15L-50.41 108.61L-67.95 124.15L-85.48 108.61L-103.02 124.15L-120.56 108.61L-138.1 124.15L-155.64 108.61L-173.18 124.15L-190.72 108.61L-208.25 124.15L-225.79 108.61L-243.33 124.15L-260.87 108.61L-278.41 124.15L-295.94 108.61L-313.48 124.15L-331.02 108.61L-348.55 124.15L-366.09 108.61L-383.63 124.15L-400.36 109.32L-401.97 111.14Z" fill="white"/>
<path d="M29.6299 127.23L19.9099 118.59L10.2 127.23H29.6299Z" fill="white"/>
<path d="M-7.53003 108.77L2.17996 117.41L11.89 108.77H-7.53003Z" fill="white"/>
<path d="M47.3499 108.77H27.9199L37.6399 117.41L47.3499 108.77Z" fill="white"/>
<path d="M78.0901 127.23H97.5101L87.8001 118.59L78.0901 127.23Z" fill="white"/>
<path d="M132.97 127.23L123.26 118.59L113.54 127.23H132.97Z" fill="white"/>
<path d="M168.43 127.23L158.71 118.59L149 127.23H168.43Z" fill="white"/>
<path d="M203.89 127.23L194.17 118.59L184.46 127.23H203.89Z" fill="white"/>
<path d="M218.46 127.23H237.89L228.17 118.59L218.46 127.23Z" fill="white"/>
<path d="M273.34 127.23L263.63 118.59L253.91 127.23H273.34Z" fill="white"/>
<path d="M288.4 127.23H307.83L298.11 118.59L288.4 127.23Z" fill="white"/>
<path d="M343.29 127.23L333.57 118.59L323.86 127.23H343.29Z" fill="white"/>
<path d="M378.26 127.23L368.54 118.59L358.83 127.23H378.26Z" fill="white"/>
<path d="M413.71 127.23L404 118.59L394.29 127.23H413.71Z" fill="white"/>
<path d="M449.17 127.23L439.46 118.59L429.74 127.23H449.17Z" fill="white"/>
<path d="M484.63 127.23L474.91 118.59L465.2 127.23H484.63Z" fill="white"/>
<path d="M94.8101 108.77L104.52 117.41L114.24 108.77H94.8101Z" fill="white"/>
<path d="M60.3201 108.77L70.0401 117.41L79.7501 108.77H60.3201Z" fill="white"/>
<path d="M130.27 108.77L139.98 117.41L149.7 108.77H130.27Z" fill="white"/>
<path d="M165.72 108.77L175.44 117.41L185.15 108.77H165.72Z" fill="white"/>
<path d="M220.61 108.77H201.18L210.89 117.41L220.61 108.77Z" fill="white"/>
<path d="M235.18 108.77L244.89 117.41L254.61 108.77H235.18Z" fill="white"/>
<path d="M270.64 108.77L280.35 117.41L290.07 108.77H270.64Z" fill="white"/>
<path d="M305.12 108.77L314.84 117.41L324.55 108.77H305.12Z" fill="white"/>
<path d="M340.58 108.77L350.29 117.41L360.01 108.77H340.58Z" fill="white"/>
<path d="M375.55 108.77L385.27 117.41L394.98 108.77H375.55Z" fill="white"/>
<path d="M411.01 108.77L420.72 117.41L430.44 108.77H411.01Z" fill="white"/>
<path d="M446.47 108.77L456.18 117.41L465.89 108.77H446.47Z" fill="white"/>
<path d="M501.35 108.77H481.92L491.64 117.41L501.35 108.77Z" fill="white"/>
<path d="M531.09 127.23H550.51L540.8 118.59L531.09 127.23Z" fill="white"/>
<path d="M566.54 127.23H585.97L576.26 118.59L566.54 127.23Z" fill="white"/>
<path d="M602 127.23H621.43L611.71 118.59L602 127.23Z" fill="white"/>
<path d="M656.89 127.23L647.17 118.59L637.46 127.23H656.89Z" fill="white"/>
<path d="M671.46 127.23H690.89L681.17 118.59L671.46 127.23Z" fill="white"/>
<path d="M706.91 127.23H726.34L716.63 118.59L706.91 127.23Z" fill="white"/>
<path d="M741.4 127.23H760.83L751.11 118.59L741.4 127.23Z" fill="white"/>
<path d="M776.86 127.23H796.29L786.57 118.59L776.86 127.23Z" fill="white"/>
<path d="M811.83 127.23H831.26L821.54 118.59L811.83 127.23Z" fill="white"/>
<path d="M847.29 127.23H866.71L857 118.59L847.29 127.23Z" fill="white"/>
<path d="M882.74 127.23H902.17L892.46 118.59L882.74 127.23Z" fill="white"/>
<path d="M937.63 127.23L927.91 118.59L918.2 127.23H937.63Z" fill="white"/>
<path d="M548.81 108.77L558.52 117.41L568.24 108.77H548.81Z" fill="white"/>
<path d="M514.32 108.77L524.04 117.41L533.75 108.77H514.32Z" fill="white"/>
<path d="M584.27 108.77L593.98 117.41L603.7 108.77H584.27Z" fill="white"/>
<path d="M619.72 108.77L629.44 117.41L639.15 108.77H619.72Z" fill="white"/>
<path d="M674.61 108.77H655.18L664.9 117.41L674.61 108.77Z" fill="white"/>
<path d="M689.18 108.77L698.9 117.41L708.61 108.77H689.18Z" fill="white"/>
<path d="M724.64 108.77L734.35 117.41L744.07 108.77H724.64Z" fill="white"/>
<path d="M759.12 108.77L768.84 117.41L778.55 108.77H759.12Z" fill="white"/>
<path d="M794.58 108.77L804.29 117.41L814.01 108.77H794.58Z" fill="white"/>
<path d="M829.55 108.77L839.27 117.41L848.98 108.77H829.55Z" fill="white"/>
<path d="M865.01 108.77L874.72 117.41L884.44 108.77H865.01Z" fill="white"/>
<path d="M900.47 108.77L910.18 117.41L919.9 108.77H900.47Z" fill="white"/>
<path d="M955.35 108.77H935.92L945.64 117.41L955.35 108.77Z" fill="white"/>
<path d="M985.09 127.23H1004.51L994.8 118.59L985.09 127.23Z" fill="white"/>
<path d="M1020.54 127.23H1039.97L1030.26 118.59L1020.54 127.23Z" fill="white"/>
<path d="M1056 127.23H1075.43L1065.71 118.59L1056 127.23Z" fill="white"/>
<path d="M1110.89 127.23L1101.17 118.59L1091.46 127.23H1110.89Z" fill="white"/>
<path d="M1125.46 127.23H1144.89L1135.17 118.59L1125.46 127.23Z" fill="white"/>
<path d="M1160.91 127.23H1180.34L1170.63 118.59L1160.91 127.23Z" fill="white"/>
<path d="M1195.4 127.23H1214.83L1205.11 118.59L1195.4 127.23Z" fill="white"/>
<path d="M1230.86 127.23H1250.29L1240.57 118.59L1230.86 127.23Z" fill="white"/>
<path d="M1265.83 127.23H1285.26L1275.54 118.59L1265.83 127.23Z" fill="white"/>
<path d="M1301.29 127.23H1320.71L1311 118.59L1301.29 127.23Z" fill="white"/>
<path d="M1336.74 127.23H1356.17L1346.46 118.59L1336.74 127.23Z" fill="white"/>
<path d="M1391.63 127.23L1381.91 118.59L1372.2 127.23H1391.63Z" fill="white"/>
<path d="M1002.81 108.77L1012.52 117.41L1022.24 108.77H1002.81Z" fill="white"/>
<path d="M968.32 108.77L978.04 117.41L987.75 108.77H968.32Z" fill="white"/>
<path d="M1038.27 108.77L1047.98 117.41L1057.7 108.77H1038.27Z" fill="white"/>
<path d="M1073.72 108.77L1083.44 117.41L1093.15 108.77H1073.72Z" fill="white"/>
<path d="M1128.61 108.77H1109.18L1118.9 117.41L1128.61 108.77Z" fill="white"/>
<path d="M1143.18 108.77L1152.9 117.41L1162.61 108.77H1143.18Z" fill="white"/>
<path d="M1178.64 108.77L1188.35 117.41L1198.07 108.77H1178.64Z" fill="white"/>
<path d="M1213.12 108.77L1222.84 117.41L1232.55 108.77H1213.12Z" fill="white"/>
<path d="M1248.58 108.77L1258.29 117.41L1268.01 108.77H1248.58Z" fill="white"/>
<path d="M1283.55 108.77L1293.27 117.41L1302.98 108.77H1283.55Z" fill="white"/>
<path d="M1319.01 108.77L1328.72 117.41L1338.44 108.77H1319.01Z" fill="white"/>
<path d="M1354.47 108.77L1364.18 117.41L1373.9 108.77H1354.47Z" fill="white"/>
<path d="M1409.35 108.77H1389.92L1399.64 117.41L1409.35 108.77Z" fill="white"/>
<path d="M1460.51 127.23L1450.8 118.59L1441.09 127.23H1460.51Z" fill="white"/>
<path d="M1495.97 127.23L1486.26 118.59L1476.54 127.23H1495.97Z" fill="white"/>
<path d="M1529.43 127.23L1519.71 118.59L1510 127.23H1529.43Z" fill="white"/>
<path d="M1564.89 127.23L1555.17 118.59L1545.46 127.23H1564.89Z" fill="white"/>
<path d="M1598.89 127.23L1589.17 118.59L1579.46 127.23H1598.89Z" fill="white"/>
<path d="M1634.34 127.23L1624.63 118.59L1614.91 127.23H1634.34Z" fill="white"/>
<path d="M1668.83 127.23L1659.11 118.59L1649.4 127.23H1668.83Z" fill="white"/>
<path d="M1704.29 127.23L1694.57 118.59L1684.86 127.23H1704.29Z" fill="white"/>
<path d="M1739.26 127.23L1729.54 118.59L1719.83 127.23H1739.26Z" fill="white"/>
<path d="M1774.71 127.23L1765 118.59L1755.29 127.23H1774.71Z" fill="white"/>
<path d="M1810.17 127.23L1800.46 118.59L1790.74 127.23H1810.17Z" fill="white"/>
<path d="M1845.63 127.23L1835.91 118.59L1826.2 127.23H1845.63Z" fill="white"/>
<path d="M1456.81 108.77L1466.52 117.41L1476.24 108.77H1456.81Z" fill="white"/>
<path d="M1422.32 108.77L1432.04 117.41L1441.75 108.77H1422.32Z" fill="white"/>
<path d="M1492.27 108.77L1501.98 117.41L1511.7 108.77H1492.27Z" fill="white"/>
<path d="M1527.72 108.77L1537.44 117.41L1547.15 108.77H1527.72Z" fill="white"/>
<path d="M1582.61 108.77H1563.18L1572.9 117.41L1582.61 108.77Z" fill="white"/>
<path d="M1597.18 108.77L1606.9 117.41L1616.61 108.77H1597.18Z" fill="white"/>
<path d="M1632.64 108.77L1642.35 117.41L1652.07 108.77H1632.64Z" fill="white"/>
<path d="M1667.12 108.77L1676.84 117.41L1686.55 108.77H1667.12Z" fill="white"/>
<path d="M1702.58 108.77L1712.29 117.41L1722.01 108.77H1702.58Z" fill="white"/>
<path d="M1737.55 108.77L1747.27 117.41L1756.98 108.77H1737.55Z" fill="white"/>
<path d="M1773.01 108.77L1782.72 117.41L1792.44 108.77H1773.01Z" fill="white"/>
<path d="M1808.47 108.77L1818.18 117.41L1827.9 108.77H1808.47Z" fill="white"/>
<path d="M1863.35 108.77H1843.92L1853.64 117.41L1863.35 108.77Z" fill="white"/>
<path d="M1910.81 108.77L1920.52 117.41L1930.24 108.77H1910.81Z" fill="white"/>
<path d="M1876.32 108.77L1886.04 117.41L1895.75 108.77H1876.32Z" fill="white"/>
<path d="M1863.45 134.03H1422.22H1409.45H968.22H955.45H514.22H501.45H60.2199H47.45H-406.55V135H47.45H60.2199H501.45H514.22H955.45H968.22H1409.45H1422.22H1863.45H1876.22H2330.22V134.03H1876.22H1863.45Z" fill="white"/>
<path d="M1876.22 101H1863.45H1422.22H1409.45H968.22H955.45H514.22H501.45H60.2199H47.45H-406.55V101.97H47.45H60.2199H501.45H514.22H955.45H968.22H1409.45H1422.22H1863.45H1876.22H2330.22V101H1876.22Z" fill="white"/>
<path d="M63.3399 127L53.6299 118.37L43.9099 127H63.3399Z" fill="white"/>
<path d="M516.63 127L506.91 118.37L497.2 127H516.63Z" fill="white"/>
<path d="M971.02 127L961.3 118.37L951.59 127H971.02Z" fill="white"/>
<path d="M1425.41 128L1415.7 119.37L1405.98 128H1425.41Z" fill="white"/>
<path d="M1879.61 128L1869.9 119.37L1860.18 128H1879.61Z" fill="white"/>
<path d="M1913.42 128L1903.71 119.37L1893.99 128H1913.42Z" fill="white"/>
</g>
<path d="M32.0073 49L1 67.6102L32.0073 86.0346L62.8678 67.5124L32.0073 49Z" fill="white"/>
<path d="M31.9976 51.6223L5.38354 67.5907L31.9976 83.4025L58.4844 67.5124L31.9976 51.6223Z" fill="#2D3E7A"/>
<path d="M31.9875 54.5772L10.3245 67.5809L31.9875 80.4476L53.5429 67.5124L31.9875 54.5772Z" fill="white"/>
<path d="M31.9782 57.4636L15.1389 67.5613L31.9782 77.5709L48.7293 67.5124L31.9782 57.4636Z" fill="#2D3E7A"/>
<path d="M31.9584 61.1524L21.303 67.5515L31.9584 73.8724L42.5551 67.5124L31.9584 61.1524Z" fill="white"/>
<path d="M31.9484 64.6749L27.1833 67.532L31.9484 70.3597L36.6842 67.5124L31.9484 64.6749Z" fill="#2D3E7A"/>
<path d="M93.8752 49L62.8679 67.6102L93.8752 86.0346L124.736 67.5124L93.8752 49Z" fill="white"/>
<path d="M93.8652 51.6223L67.2512 67.5907L93.8652 83.4025L120.352 67.5124L93.8652 51.6223Z" fill="#2D3E7A"/>
<path d="M93.8552 54.5772L72.1921 67.5809L93.8552 80.4476L115.411 67.5124L93.8552 54.5772Z" fill="white"/>
<path d="M93.8458 57.4636L77.0066 67.5613L93.8458 77.5709L110.597 67.5124L93.8458 57.4636Z" fill="#2D3E7A"/>
<path d="M93.826 61.1524L83.1707 67.5515L93.826 73.8724L104.423 67.5124L93.826 61.1524Z" fill="white"/>
<path d="M93.8161 64.6749L89.051 67.532L93.8161 70.3597L98.5518 67.5124L93.8161 64.6749Z" fill="#2D3E7A"/>
<path d="M155.743 49L124.736 67.6102L155.743 86.0346L186.603 67.5124L155.743 49Z" fill="white"/>
<path d="M155.733 51.6223L129.119 67.5907L155.733 83.4025L182.22 67.5124L155.733 51.6223Z" fill="#2D3E7A"/>
<path d="M155.723 54.5772L134.06 67.5809L155.723 80.4476L177.278 67.5124L155.723 54.5772Z" fill="white"/>
<path d="M155.714 57.4636L138.874 67.5613L155.714 77.5709L172.465 67.5124L155.714 57.4636Z" fill="#2D3E7A"/>
<path d="M155.694 61.1524L145.038 67.5515L155.694 73.8724L166.29 67.5124L155.694 61.1524Z" fill="white"/>
<path d="M155.684 64.6749L150.919 67.532L155.684 70.3597L160.42 67.5124L155.684 64.6749Z" fill="#2D3E7A"/>
<path d="M217.611 49L186.604 67.6102L217.611 86.0346L248.471 67.5124L217.611 49Z" fill="white"/>
<path d="M217.601 51.6223L190.987 67.5907L217.601 83.4025L244.088 67.5124L217.601 51.6223Z" fill="#2D3E7A"/>
<path d="M217.591 54.5772L195.928 67.5809L217.591 80.4476L239.146 67.5124L217.591 54.5772Z" fill="white"/>
<path d="M217.581 57.4636L200.742 67.5613L217.581 77.5709L234.333 67.5124L217.581 57.4636Z" fill="#2D3E7A"/>
<path d="M217.562 61.1524L206.906 67.5515L217.562 73.8724L228.158 67.5124L217.562 61.1524Z" fill="white"/>
<path d="M217.552 64.6749L212.787 67.532L217.552 70.3597L222.287 67.5124L217.552 64.6749Z" fill="#2D3E7A"/>
<path d="M279.478 49L248.471 67.6102L279.478 86.0346L310.339 67.5124L279.478 49Z" fill="white"/>
<path d="M279.469 51.6223L252.854 67.5907L279.469 83.4025L305.955 67.5124L279.469 51.6223Z" fill="#2D3E7A"/>
<path d="M279.458 54.5772L257.795 67.5809L279.458 80.4476L301.014 67.5124L279.458 54.5772Z" fill="white"/>
<path d="M279.449 57.4636L262.61 67.5613L279.449 77.5709L296.2 67.5124L279.449 57.4636Z" fill="#2D3E7A"/>
<path d="M279.429 61.1524L268.774 67.5515L279.429 73.8724L290.026 67.5124L279.429 61.1524Z" fill="white"/>
<path d="M279.419 64.6749L274.654 67.532L279.419 70.3597L284.155 67.5124L279.419 64.6749Z" fill="#2D3E7A"/>
<path d="M341.346 49L310.339 67.6102L341.346 86.0346L372.207 67.5124L341.346 49Z" fill="white"/>
<path d="M341.336 51.6223L314.722 67.5907L341.336 83.4025L367.823 67.5124L341.336 51.6223Z" fill="#2D3E7A"/>
<path d="M341.326 54.5772L319.663 67.5809L341.326 80.4476L362.882 67.5124L341.326 54.5772Z" fill="white"/>
<path d="M341.317 57.4636L324.478 67.5613L341.317 77.5709L358.068 67.5124L341.317 57.4636Z" fill="#2D3E7A"/>
<path d="M341.297 61.1524L330.642 67.5515L341.297 73.8724L351.894 67.5124L341.297 61.1524Z" fill="white"/>
<path d="M341.287 64.6749L336.522 67.532L341.287 70.3597L346.023 67.5124L341.287 64.6749Z" fill="#2D3E7A"/>
<path d="M403.214 49L372.207 67.6102L403.214 86.0346L434.075 67.5124L403.214 49Z" fill="white"/>
<path d="M403.204 51.6223L376.59 67.5907L403.204 83.4025L429.691 67.5124L403.204 51.6223Z" fill="#2D3E7A"/>
<path d="M403.194 54.5772L381.531 67.5809L403.194 80.4476L424.75 67.5124L403.194 54.5772Z" fill="white"/>
<path d="M403.185 57.4636L386.346 67.5613L403.185 77.5709L419.936 67.5124L403.185 57.4636Z" fill="#2D3E7A"/>
<path d="M403.165 61.1524L392.51 67.5515L403.165 73.8724L413.762 67.5124L403.165 61.1524Z" fill="white"/>
<path d="M403.155 64.6749L398.39 67.532L403.155 70.3597L407.891 67.5124L403.155 64.6749Z" fill="#2D3E7A"/>
<path d="M465.082 49L434.075 67.6102L465.082 86.0346L495.943 67.5124L465.082 49Z" fill="white"/>
<path d="M465.072 51.6223L438.458 67.5907L465.072 83.4025L491.559 67.5124L465.072 51.6223Z" fill="#2D3E7A"/>
<path d="M465.062 54.5772L443.399 67.5809L465.062 80.4476L486.617 67.5124L465.062 54.5772Z" fill="white"/>
<path d="M465.053 57.4636L448.213 67.5613L465.053 77.5709L481.804 67.5124L465.053 57.4636Z" fill="#2D3E7A"/>
<path d="M465.033 61.1524L454.377 67.5515L465.033 73.8724L475.63 67.5124L465.033 61.1524Z" fill="white"/>
<path d="M465.023 64.6749L460.258 67.532L465.023 70.3597L469.759 67.5124L465.023 64.6749Z" fill="#2D3E7A"/>
<path d="M526.95 49L495.943 67.6102L526.95 86.0346L557.81 67.5124L526.95 49Z" fill="white"/>
<path d="M526.94 51.6223L500.326 67.5907L526.94 83.4025L553.427 67.5124L526.94 51.6223Z" fill="#2D3E7A"/>
<path d="M526.93 54.5772L505.267 67.5809L526.93 80.4476L548.485 67.5124L526.93 54.5772Z" fill="white"/>
<path d="M526.921 57.4636L510.081 67.5613L526.921 77.5709L543.672 67.5124L526.921 57.4636Z" fill="#2D3E7A"/>
<path d="M526.901 61.1524L516.245 67.5515L526.901 73.8724L537.497 67.5124L526.901 61.1524Z" fill="white"/>
<path d="M526.891 64.6749L522.126 67.532L526.891 70.3597L531.627 67.5124L526.891 64.6749Z" fill="#2D3E7A"/>
<path d="M588.818 49L557.81 67.6102L588.818 86.0346L619.678 67.5124L588.818 49Z" fill="white"/>
<path d="M588.808 51.6223L562.194 67.5907L588.808 83.4025L615.294 67.5124L588.808 51.6223Z" fill="#2D3E7A"/>
<path d="M588.798 54.5772L567.135 67.5809L588.798 80.4476L610.353 67.5124L588.798 54.5772Z" fill="white"/>
<path d="M588.788 57.4636L571.949 67.5613L588.788 77.5709L605.539 67.5124L588.788 57.4636Z" fill="#2D3E7A"/>
<path d="M588.768 61.1524L578.113 67.5515L588.768 73.8724L599.365 67.5124L588.768 61.1524Z" fill="white"/>
<path d="M588.758 64.6749L583.993 67.532L588.758 70.3597L593.494 67.5124L588.758 64.6749Z" fill="#2D3E7A"/>
<path d="M650.686 49L619.678 67.6102L650.686 86.0346L681.546 67.5124L650.686 49Z" fill="white"/>
<path d="M650.676 51.6223L624.062 67.5907L650.676 83.4025L677.162 67.5124L650.676 51.6223Z" fill="#2D3E7A"/>
<path d="M650.665 54.5772L629.002 67.5809L650.665 80.4476L672.221 67.5124L650.665 54.5772Z" fill="white"/>
<path d="M650.656 57.4636L633.817 67.5613L650.656 77.5709L667.407 67.5124L650.656 57.4636Z" fill="#2D3E7A"/>
<path d="M650.636 61.1524L639.981 67.5515L650.636 73.8724L661.233 67.5124L650.636 61.1524Z" fill="white"/>
<path d="M650.626 64.6749L645.861 67.532L650.626 70.3597L655.362 67.5124L650.626 64.6749Z" fill="#2D3E7A"/>
<path d="M712.553 49L681.546 67.6102L712.553 86.0346L743.414 67.5124L712.553 49Z" fill="white"/>
<path d="M712.543 51.6223L685.929 67.5907L712.543 83.4025L739.03 67.5124L712.543 51.6223Z" fill="#2D3E7A"/>
<path d="M712.533 54.5772L690.87 67.5809L712.533 80.4476L734.089 67.5124L712.533 54.5772Z" fill="white"/>
<path d="M712.524 57.4636L695.685 67.5613L712.524 77.5709L729.275 67.5124L712.524 57.4636Z" fill="#2D3E7A"/>
<path d="M712.504 61.1524L701.849 67.5515L712.504 73.8724L723.101 67.5124L712.504 61.1524Z" fill="white"/>
<path d="M712.494 64.6749L707.729 67.532L712.494 70.3597L717.23 67.5124L712.494 64.6749Z" fill="#2D3E7A"/>
<path d="M774.421 49L743.414 67.6102L774.421 86.0346L805.282 67.5124L774.421 49Z" fill="white"/>
<path d="M774.411 51.6223L747.797 67.5907L774.411 83.4025L800.898 67.5124L774.411 51.6223Z" fill="#2D3E7A"/>
<path d="M774.401 54.5772L752.738 67.5809L774.401 80.4476L795.956 67.5124L774.401 54.5772Z" fill="white"/>
<path d="M774.392 57.4636L757.552 67.5613L774.392 77.5709L791.143 67.5124L774.392 57.4636Z" fill="#2D3E7A"/>
<path d="M774.372 61.1524L763.717 67.5515L774.372 73.8724L784.969 67.5124L774.372 61.1524Z" fill="white"/>
<path d="M774.362 64.6749L769.597 67.532L774.362 70.3597L779.098 67.5124L774.362 64.6749Z" fill="#2D3E7A"/>
<path d="M836.289 49L805.281 67.6102L836.289 86.0346L867.149 67.5124L836.289 49Z" fill="white"/>
<path d="M836.279 51.6223L809.665 67.5907L836.279 83.4025L862.766 67.5124L836.279 51.6223Z" fill="#2D3E7A"/>
<path d="M836.269 54.5772L814.606 67.5809L836.269 80.4476L857.824 67.5124L836.269 54.5772Z" fill="white"/>
<path d="M836.259 57.4636L819.42 67.5613L836.259 77.5709L853.011 67.5124L836.259 57.4636Z" fill="#2D3E7A"/>
<path d="M836.24 61.1524L825.584 67.5515L836.24 73.8724L846.836 67.5124L836.24 61.1524Z" fill="white"/>
<path d="M836.23 64.6749L831.465 67.532L836.23 70.3597L840.965 67.5124L836.23 64.6749Z" fill="#2D3E7A"/>
<path d="M898.157 49L867.149 67.6102L898.157 86.0346L929.017 67.5124L898.157 49Z" fill="white"/>
<path d="M898.147 51.6223L871.533 67.5907L898.147 83.4025L924.634 67.5124L898.147 51.6223Z" fill="#2D3E7A"/>
<path d="M898.137 54.5772L876.474 67.5809L898.137 80.4476L919.692 67.5124L898.137 54.5772Z" fill="white"/>
<path d="M898.127 57.4636L881.288 67.5613L898.127 77.5709L914.879 67.5124L898.127 57.4636Z" fill="#2D3E7A"/>
<path d="M898.108 61.1524L887.452 67.5515L898.108 73.8724L908.704 67.5124L898.108 61.1524Z" fill="white"/>
<path d="M898.098 64.6749L893.333 67.532L898.098 70.3597L902.833 67.5124L898.098 64.6749Z" fill="#2D3E7A"/>
<path d="M960.024 49L929.017 67.6102L960.024 86.0346L990.885 67.5124L960.024 49Z" fill="white"/>
<path d="M960.014 51.6223L933.4 67.5907L960.014 83.4025L986.501 67.5124L960.014 51.6223Z" fill="#2D3E7A"/>
<path d="M960.004 54.5772L938.341 67.5809L960.004 80.4476L981.56 67.5124L960.004 54.5772Z" fill="white"/>
<path d="M959.995 57.4636L943.156 67.5613L959.995 77.5709L976.746 67.5124L959.995 57.4636Z" fill="#2D3E7A"/>
<path d="M959.975 61.1524L949.32 67.5515L959.975 73.8724L970.572 67.5124L959.975 61.1524Z" fill="white"/>
<path d="M959.965 64.6749L955.2 67.532L959.965 70.3597L964.701 67.5124L959.965 64.6749Z" fill="#2D3E7A"/>
<path d="M1021.89 49L990.885 67.6102L1021.89 86.0346L1052.75 67.5124L1021.89 49Z" fill="white"/>
<path d="M1021.88 51.6223L995.268 67.5907L1021.88 83.4025L1048.37 67.5124L1021.88 51.6223Z" fill="#2D3E7A"/>
<path d="M1021.87 54.5772L1000.21 67.5809L1021.87 80.4476L1043.43 67.5124L1021.87 54.5772Z" fill="white"/>
<path d="M1021.86 57.4636L1005.02 67.5613L1021.86 77.5709L1038.61 67.5124L1021.86 57.4636Z" fill="#2D3E7A"/>
<path d="M1021.84 61.1524L1011.19 67.5515L1021.84 73.8724L1032.44 67.5124L1021.84 61.1524Z" fill="white"/>
<path d="M1021.83 64.6749L1017.07 67.532L1021.83 70.3597L1026.57 67.5124L1021.83 64.6749Z" fill="#2D3E7A"/>
<path d="M1083.76 49L1052.75 67.6102L1083.76 86.0346L1114.62 67.5124L1083.76 49Z" fill="white"/>
<path d="M1083.75 51.6223L1057.14 67.5907L1083.75 83.4025L1110.24 67.5124L1083.75 51.6223Z" fill="#2D3E7A"/>
<path d="M1083.74 54.5772L1062.08 67.5809L1083.74 80.4476L1105.3 67.5124L1083.74 54.5772Z" fill="white"/>
<path d="M1083.73 57.4636L1066.89 67.5613L1083.73 77.5709L1100.48 67.5124L1083.73 57.4636Z" fill="#2D3E7A"/>
<path d="M1083.71 61.1524L1073.06 67.5515L1083.71 73.8724L1094.31 67.5124L1083.71 61.1524Z" fill="white"/>
<path d="M1083.7 64.6749L1078.94 67.532L1083.7 70.3597L1088.44 67.5124L1083.7 64.6749Z" fill="#2D3E7A"/>
<path d="M1145.63 49L1114.62 67.6102L1145.63 86.0346L1176.49 67.5124L1145.63 49Z" fill="white"/>
<path d="M1145.62 51.6223L1119 67.5907L1145.62 83.4025L1172.1 67.5124L1145.62 51.6223Z" fill="#2D3E7A"/>
<path d="M1145.61 54.5772L1123.94 67.5809L1145.61 80.4476L1167.16 67.5124L1145.61 54.5772Z" fill="white"/>
<path d="M1145.6 57.4636L1128.76 67.5613L1145.6 77.5709L1162.35 67.5124L1145.6 57.4636Z" fill="#2D3E7A"/>
<path d="M1145.58 61.1524L1134.92 67.5515L1145.58 73.8724L1156.18 67.5124L1145.58 61.1524Z" fill="white"/>
<path d="M1145.57 64.6749L1140.8 67.532L1145.57 70.3597L1150.3 67.5124L1145.57 64.6749Z" fill="#2D3E7A"/>
<path d="M1207.5 49L1176.49 67.6102L1207.5 86.0346L1238.36 67.5124L1207.5 49Z" fill="white"/>
<path d="M1207.49 51.6223L1180.87 67.5907L1207.49 83.4025L1233.97 67.5124L1207.49 51.6223Z" fill="#2D3E7A"/>
<path d="M1207.48 54.5772L1185.81 67.5809L1207.48 80.4476L1229.03 67.5124L1207.48 54.5772Z" fill="white"/>
<path d="M1207.47 57.4636L1190.63 67.5613L1207.47 77.5709L1224.22 67.5124L1207.47 57.4636Z" fill="#2D3E7A"/>
<path d="M1207.45 61.1524L1196.79 67.5515L1207.45 73.8724L1218.04 67.5124L1207.45 61.1524Z" fill="white"/>
<path d="M1207.44 64.6749L1202.67 67.532L1207.44 70.3597L1212.17 67.5124L1207.44 64.6749Z" fill="#2D3E7A"/>
<path d="M1269.36 49L1238.36 67.6102L1269.36 86.0346L1300.22 67.5124L1269.36 49Z" fill="white"/>
<path d="M1269.35 51.6223L1242.74 67.5907L1269.35 83.4025L1295.84 67.5124L1269.35 51.6223Z" fill="#2D3E7A"/>
<path d="M1269.34 54.5772L1247.68 67.5809L1269.34 80.4476L1290.9 67.5124L1269.34 54.5772Z" fill="white"/>
<path d="M1269.33 57.4636L1252.49 67.5613L1269.33 77.5709L1286.09 67.5124L1269.33 57.4636Z" fill="#2D3E7A"/>
<path d="M1269.31 61.1524L1258.66 67.5515L1269.31 73.8724L1279.91 67.5124L1269.31 61.1524Z" fill="white"/>
<path d="M1269.3 64.6749L1264.54 67.532L1269.3 70.3597L1274.04 67.5124L1269.3 64.6749Z" fill="#2D3E7A"/>
<path d="M1331.23 49L1300.22 67.6102L1331.23 86.0346L1362.09 67.5124L1331.23 49Z" fill="white"/>
<path d="M1331.22 51.6223L1304.61 67.5907L1331.22 83.4025L1357.71 67.5124L1331.22 51.6223Z" fill="#2D3E7A"/>
<path d="M1331.21 54.5772L1309.55 67.5809L1331.21 80.4476L1352.77 67.5124L1331.21 54.5772Z" fill="white"/>
<path d="M1331.2 57.4636L1314.36 67.5613L1331.2 77.5709L1347.95 67.5124L1331.2 57.4636Z" fill="#2D3E7A"/>
<path d="M1331.18 61.1524L1320.53 67.5515L1331.18 73.8724L1341.78 67.5124L1331.18 61.1524Z" fill="white"/>
<path d="M1331.17 64.6749L1326.41 67.532L1331.17 70.3597L1335.91 67.5124L1331.17 64.6749Z" fill="#2D3E7A"/>
<path d="M1393.1 49L1362.09 67.6102L1393.1 86.0346L1423.96 67.5124L1393.1 49Z" fill="white"/>
<path d="M1393.09 51.6223L1366.48 67.5907L1393.09 83.4025L1419.58 67.5124L1393.09 51.6223Z" fill="#2D3E7A"/>
<path d="M1393.08 54.5772L1371.42 67.5809L1393.08 80.4476L1414.63 67.5124L1393.08 54.5772Z" fill="white"/>
<path d="M1393.07 57.4636L1376.23 67.5613L1393.07 77.5709L1409.82 67.5124L1393.07 57.4636Z" fill="#2D3E7A"/>
<path d="M1393.05 61.1524L1382.39 67.5515L1393.05 73.8724L1403.65 67.5124L1393.05 61.1524Z" fill="white"/>
<path d="M1393.04 64.6749L1388.27 67.532L1393.04 70.3597L1397.78 67.5124L1393.04 64.6749Z" fill="#2D3E7A"/>
<path d="M1454.97 49L1423.96 67.6102L1454.97 86.0346L1485.83 67.5124L1454.97 49Z" fill="white"/>
<path d="M1454.96 51.6223L1428.34 67.5907L1454.96 83.4025L1481.44 67.5124L1454.96 51.6223Z" fill="#2D3E7A"/>
<path d="M1454.95 54.5772L1433.28 67.5809L1454.95 80.4476L1476.5 67.5124L1454.95 54.5772Z" fill="white"/>
<path d="M1454.94 57.4636L1438.1 67.5613L1454.94 77.5709L1471.69 67.5124L1454.94 57.4636Z" fill="#2D3E7A"/>
<path d="M1454.92 61.1524L1444.26 67.5515L1454.92 73.8724L1465.51 67.5124L1454.92 61.1524Z" fill="white"/>
<path d="M1454.91 64.6749L1450.14 67.532L1454.91 70.3597L1459.64 67.5124L1454.91 64.6749Z" fill="#2D3E7A"/>
<path d="M1516.83 49L1485.83 67.6102L1516.83 86.0346L1547.69 67.5124L1516.83 49Z" fill="white"/>
<path d="M1516.82 51.6223L1490.21 67.5907L1516.82 83.4025L1543.31 67.5124L1516.82 51.6223Z" fill="#2D3E7A"/>
<path d="M1516.81 54.5772L1495.15 67.5809L1516.81 80.4476L1538.37 67.5124L1516.81 54.5772Z" fill="white"/>
<path d="M1516.81 57.4636L1499.97 67.5613L1516.81 77.5709L1533.56 67.5124L1516.81 57.4636Z" fill="#2D3E7A"/>
<path d="M1516.79 61.1524L1506.13 67.5515L1516.79 73.8724L1527.38 67.5124L1516.79 61.1524Z" fill="white"/>
<path d="M1516.78 64.6749L1512.01 67.532L1516.78 70.3597L1521.51 67.5124L1516.78 64.6749Z" fill="#2D3E7A"/>
<path d="M1578.7 49L1547.7 67.6102L1578.7 86.0346L1609.56 67.5124L1578.7 49Z" fill="white"/>
<path d="M1578.69 51.6223L1552.08 67.5907L1578.69 83.4025L1605.18 67.5124L1578.69 51.6223Z" fill="#2D3E7A"/>
<path d="M1578.68 54.5772L1557.02 67.5809L1578.68 80.4476L1600.24 67.5124L1578.68 54.5772Z" fill="white"/>
<path d="M1578.67 57.4636L1561.83 67.5613L1578.67 77.5709L1595.42 67.5124L1578.67 57.4636Z" fill="#2D3E7A"/>
<path d="M1578.65 61.1524L1568 67.5515L1578.65 73.8724L1589.25 67.5124L1578.65 61.1524Z" fill="white"/>
<path d="M1578.64 64.6749L1573.88 67.532L1578.64 70.3597L1583.38 67.5124L1578.64 64.6749Z" fill="#2D3E7A"/>
<path d="M1640.57 49L1609.56 67.6102L1640.57 86.0346L1671.43 67.5124L1640.57 49Z" fill="white"/>
<path d="M1640.56 51.6223L1613.95 67.5907L1640.56 83.4025L1667.05 67.5124L1640.56 51.6223Z" fill="#2D3E7A"/>
<path d="M1640.55 54.5772L1618.89 67.5809L1640.55 80.4476L1662.11 67.5124L1640.55 54.5772Z" fill="white"/>
<path d="M1640.54 57.4636L1623.7 67.5613L1640.54 77.5709L1657.29 67.5124L1640.54 57.4636Z" fill="#2D3E7A"/>
<path d="M1640.52 61.1524L1629.87 67.5515L1640.52 73.8724L1651.12 67.5124L1640.52 61.1524Z" fill="white"/>
<path d="M1640.51 64.6749L1635.75 67.532L1640.51 70.3597L1645.25 67.5124L1640.51 64.6749Z" fill="#2D3E7A"/>
<path d="M1702.44 49L1671.43 67.6102L1702.44 86.0346L1733.3 67.5124L1702.44 49Z" fill="white"/>
<path d="M1702.43 51.6223L1675.81 67.5907L1702.43 83.4025L1728.91 67.5124L1702.43 51.6223Z" fill="#2D3E7A"/>
<path d="M1702.42 54.5772L1680.75 67.5809L1702.42 80.4476L1723.97 67.5124L1702.42 54.5772Z" fill="white"/>
<path d="M1702.41 57.4636L1685.57 67.5613L1702.41 77.5709L1719.16 67.5124L1702.41 57.4636Z" fill="#2D3E7A"/>
<path d="M1702.39 61.1524L1691.73 67.5515L1702.39 73.8724L1712.99 67.5124L1702.39 61.1524Z" fill="white"/>
<path d="M1702.38 64.6749L1697.61 67.532L1702.38 70.3597L1707.11 67.5124L1702.38 64.6749Z" fill="#2D3E7A"/>
<path d="M1764.31 49L1733.3 67.6102L1764.31 86.0346L1795.17 67.5124L1764.31 49Z" fill="white"/>
<path d="M1764.3 51.6223L1737.68 67.5907L1764.3 83.4025L1790.78 67.5124L1764.3 51.6223Z" fill="#2D3E7A"/>
<path d="M1764.29 54.5772L1742.62 67.5809L1764.29 80.4476L1785.84 67.5124L1764.29 54.5772Z" fill="white"/>
<path d="M1764.28 57.4636L1747.44 67.5613L1764.28 77.5709L1781.03 67.5124L1764.28 57.4636Z" fill="#2D3E7A"/>
<path d="M1764.26 61.1524L1753.6 67.5515L1764.26 73.8724L1774.85 67.5124L1764.26 61.1524Z" fill="white"/>
<path d="M1764.25 64.6749L1759.48 67.532L1764.25 70.3597L1768.98 67.5124L1764.25 64.6749Z" fill="#2D3E7A"/>
<path d="M1826.17 49L1795.17 67.6102L1826.17 86.0346L1857.03 67.5124L1826.17 49Z" fill="white"/>
<path d="M1826.16 51.6223L1799.55 67.5907L1826.16 83.4025L1852.65 67.5124L1826.16 51.6223Z" fill="#2D3E7A"/>
<path d="M1826.15 54.5772L1804.49 67.5809L1826.15 80.4476L1847.71 67.5124L1826.15 54.5772Z" fill="white"/>
<path d="M1826.14 57.4636L1809.31 67.5613L1826.14 77.5709L1842.9 67.5124L1826.14 57.4636Z" fill="#2D3E7A"/>
<path d="M1826.12 61.1524L1815.47 67.5515L1826.12 73.8724L1836.72 67.5124L1826.12 61.1524Z" fill="white"/>
<path d="M1826.11 64.6749L1821.35 67.532L1826.11 70.3597L1830.85 67.5124L1826.11 64.6749Z" fill="#2D3E7A"/>
<path d="M1888.04 49L1857.03 67.6102L1888.04 86.0346L1918.9 67.5124L1888.04 49Z" fill="white"/>
<path d="M1888.03 51.6223L1861.42 67.5907L1888.03 83.4025L1914.52 67.5124L1888.03 51.6223Z" fill="#2D3E7A"/>
<path d="M1888.02 54.5772L1866.36 67.5809L1888.02 80.4476L1909.58 67.5124L1888.02 54.5772Z" fill="white"/>
<path d="M1888.01 57.4636L1871.17 67.5613L1888.01 77.5709L1904.76 67.5124L1888.01 57.4636Z" fill="#2D3E7A"/>
<path d="M1887.99 61.1524L1877.34 67.5515L1887.99 73.8724L1898.59 67.5124L1887.99 61.1524Z" fill="white"/>
<path d="M1887.98 64.6749L1883.22 67.532L1887.98 70.3597L1892.72 67.5124L1887.98 64.6749Z" fill="#2D3E7A"/>
</g>
<defs>
<clipPath id="clip0_1176_4079">
<rect width="1920" height="135" fill="white"/>
</clipPath>
<clipPath id="clip1_1176_4079">
<rect width="2741.22" height="34" fill="white" transform="translate(-411)"/>
</clipPath>
<clipPath id="clip2_1176_4079">
<rect width="2741.22" height="34" fill="white" transform="translate(-411 101)"/>
</clipPath>
</defs>
</svg>
