<svg width="50" height="51" viewBox="0 0 50 51" fill="none" xmlns="http://www.w3.org/2000/svg">
<rect y="0.666687" width="50" height="50" rx="13.4" fill="#1E1E1E" fill-opacity="0.9"/>
<path d="M24.6554 12.1667C24.5053 12.1649 24.3586 12.2114 24.237 12.2995C24.1155 12.3875 24.0255 12.5124 23.9804 12.6556L20.3395 24.2633C20.2647 24.3843 20.2287 24.5252 20.2362 24.6672C20.229 24.8089 20.2651 24.9497 20.3395 25.0705L23.9798 36.6766C24.1845 37.33 25.109 37.33 25.3137 36.6766L28.954 25.0697C29.029 24.9486 29.0648 24.8072 29.0573 24.6653C29.0646 24.5236 29.0285 24.3831 28.954 24.2625L25.314 12.6556C25.2698 12.515 25.1824 12.392 25.0641 12.3042C24.9458 12.2164 24.8027 12.1682 24.6554 12.1667V12.1667ZM21.7034 24.7467H23.427C23.4693 25.3872 23.9959 25.895 24.647 25.895C25.2981 25.895 25.8248 25.3872 25.867 24.7467H27.6618L24.647 34.1327L21.7034 24.7467Z" fill="white"/>
</svg>
