<svg width="54" height="54" viewBox="0 0 54 54" fill="none" xmlns="http://www.w3.org/2000/svg">
<path d="M26.7714 3.3465C21.8917 3.35203 17.2134 5.29293 13.763 8.74339C10.3125 12.1938 8.37162 16.8721 8.36609 21.7518C8.36609 37.5008 25.0982 49.3952 25.8114 49.893C26.0927 50.0901 26.4279 50.1958 26.7714 50.1958C27.1149 50.1958 27.45 50.0901 27.7314 49.893C28.4446 49.3952 45.1766 37.5008 45.1766 21.7518C45.1711 16.8721 43.2302 12.1938 39.7797 8.74339C36.3293 5.29293 31.651 3.35203 26.7714 3.3465ZM26.7714 15.0589C28.0951 15.0589 29.3891 15.4515 30.4897 16.1869C31.5903 16.9223 32.4482 17.9676 32.9547 19.1905C33.4613 20.4135 33.5938 21.7592 33.3356 23.0575C33.0773 24.3558 32.4399 25.5483 31.5039 26.4843C30.5679 27.4203 29.3753 28.0577 28.0771 28.316C26.7788 28.5742 25.4331 28.4417 24.2101 27.9351C22.9872 27.4286 21.9419 26.5707 21.2065 25.4701C20.4711 24.3695 20.0785 23.0755 20.0785 21.7518C20.0785 19.9767 20.7837 18.2744 22.0388 17.0192C23.294 15.7641 24.9963 15.0589 26.7714 15.0589Z" fill="#A93046"/>
</svg>
