<svg width="50" height="50" viewBox="0 0 50 50" fill="none" xmlns="http://www.w3.org/2000/svg">
<g clip-path="url(#clip0_945_1820)">
<path d="M12 5.33333C12 4.44928 12.3512 3.60143 12.9763 2.97631C13.6014 2.35119 14.4493 2 15.3333 2H35.3333C36.2174 2 37.0652 2.35119 37.6904 2.97631C38.3155 3.60143 38.6667 4.44928 38.6667 5.33333V18.6667C38.6667 19.5507 38.3155 20.3986 37.6904 21.0237C37.0652 21.6488 36.2174 22 35.3333 22H15.3333C14.4493 22 13.6014 21.6488 12.9763 21.0237C12.3512 20.3986 12 19.5507 12 18.6667V5.33333ZM15.3333 3.66667C14.8913 3.66667 14.4674 3.84226 14.1548 4.15482C13.8423 4.46738 13.6667 4.89131 13.6667 5.33333V18.6667C13.6667 19.1087 13.8423 19.5326 14.1548 19.8452C14.4674 20.1577 14.8913 20.3333 15.3333 20.3333H24.5V3.66667H15.3333ZM35.3333 20.3333C35.7754 20.3333 36.1993 20.1577 36.5118 19.8452C36.8244 19.5326 37 19.1087 37 18.6667V5.33333C37 4.89131 36.8244 4.46738 36.5118 4.15482C36.1993 3.84226 35.7754 3.66667 35.3333 3.66667H26.1667V20.3333H35.3333ZM27.8333 18.6667C28.0543 18.6667 28.2663 18.5789 28.4226 18.4226C28.5789 18.2663 28.6667 18.0543 28.6667 17.8333C28.6667 17.6123 28.5789 17.4004 28.4226 17.2441C28.2663 17.0878 28.0543 17 27.8333 17C27.6123 17 27.4004 17.0878 27.2441 17.2441C27.0878 17.4004 27 17.6123 27 17.8333C27 18.0543 27.0878 18.2663 27.2441 18.4226C27.4004 18.5789 27.6123 18.6667 27.8333 18.6667ZM32 17.8333C32 18.0543 31.9122 18.2663 31.7559 18.4226C31.5996 18.5789 31.3877 18.6667 31.1667 18.6667C30.9457 18.6667 30.7337 18.5789 30.5774 18.4226C30.4211 18.2663 30.3333 18.0543 30.3333 17.8333C30.3333 17.6123 30.4211 17.4004 30.5774 17.2441C30.7337 17.0878 30.9457 17 31.1667 17C31.3877 17 31.5996 17.0878 31.7559 17.2441C31.9122 17.4004 32 17.6123 32 17.8333ZM34.5 18.6667C34.721 18.6667 34.933 18.5789 35.0893 18.4226C35.2455 18.2663 35.3333 18.0543 35.3333 17.8333C35.3333 17.6123 35.2455 17.4004 35.0893 17.2441C34.933 17.0878 34.721 17 34.5 17C34.279 17 34.067 17.0878 33.9107 17.2441C33.7545 17.4004 33.6667 17.6123 33.6667 17.8333C33.6667 18.0543 33.7545 18.2663 33.9107 18.4226C34.067 18.5789 34.279 18.6667 34.5 18.6667Z" fill="#247BA0"/>
<path d="M3.832 34.08V33.296H2.312V34.08H3.832ZM3.832 35.792V35.008H2.312V35.792H3.832ZM3.832 37.52V36.736H2.312V37.52H3.832ZM10.584 34.096V33.312H9.112V34.096H10.584ZM10.584 35.808V35.024H9.112V35.808H10.584ZM10.584 37.52V36.736H9.112V37.52H10.584ZM1.048 38.496V34.656C0.824 34.944 0.6 35.2 0.36 35.44C0.216 35.184 -0.168 34.64 -0.408 34.416C0.568 33.472 1.4 32.048 1.912 30.592L3.064 30.912C2.888 31.376 2.696 31.872 2.472 32.32H4.056C3.896 31.888 3.688 31.392 3.48 30.992L4.68 30.64C4.968 31.152 5.288 31.824 5.448 32.32H6.84V33.296H5.032V34.08H6.504V34.304C7.4 33.328 8.2 31.952 8.68 30.592L9.88 30.928C9.704 31.392 9.496 31.872 9.288 32.32H10.84C10.68 31.904 10.472 31.424 10.264 31.04L11.48 30.704C11.752 31.2 12.072 31.856 12.232 32.32H13.864V33.312H11.784V34.096H13.512V35.024H11.784V35.808H13.512V36.736H11.784V37.52H14.088V38.512H7.848V34.672C7.608 35.008 7.368 35.28 7.112 35.552C7 35.36 6.728 35.04 6.52 34.784L6.504 35.008H5.032V35.792H6.504V36.736H5.032V37.52H6.984L7 38.496H1.048ZM10.072 40.528H4.248C5.032 41.216 6.056 41.808 7.272 42.288C8.376 41.808 9.336 41.232 10.072 40.528ZM11.512 39.248L12.52 39.856C11.704 41.12 10.536 42.112 9.112 42.88C10.648 43.296 12.344 43.568 14.136 43.728C13.8 44.064 13.4 44.736 13.208 45.136C11 44.896 8.968 44.464 7.16 43.792C5.096 44.56 2.744 45.008 0.408 45.264C0.296 44.864 0.0400001 44.272 -0.2 43.92C1.704 43.76 3.624 43.456 5.352 42.96C4.248 42.352 3.272 41.616 2.488 40.736L2.92 40.528H0.68V39.312H11.24L11.512 39.248ZM23.528 39.248L22.6 40.48C22.28 40.032 21.672 39.312 21.128 38.688V45.264H19.688V39.056C19.032 39.68 18.328 40.24 17.656 40.672C17.544 40.272 17.224 39.488 17.032 39.2C18.712 38.24 20.408 36.48 21.432 34.624H17.48V33.28H20.44C20.136 32.704 19.592 31.92 19.096 31.344L20.216 30.64C20.792 31.232 21.4 32.064 21.672 32.624L20.712 33.28H22.216L22.488 33.216L23.288 33.776C22.808 34.976 22.136 36.112 21.352 37.152C21.992 37.744 23.208 38.928 23.528 39.248ZM25.512 37.408V38.768H29.672V37.408H25.512ZM25.512 34.928V36.272H29.672V34.928H25.512ZM25.512 32.464V33.776H29.672V32.464H25.512ZM29.624 43.904H30.456C30.744 43.904 30.808 43.68 30.856 41.984C31.128 42.224 31.704 42.448 32.088 42.544C31.96 44.672 31.608 45.2 30.6 45.2H29.4C28.2 45.2 27.912 44.784 27.912 43.456V39.968H26.744C26.504 42.576 25.816 44.32 22.936 45.312C22.792 44.976 22.424 44.464 22.152 44.224C24.696 43.44 25.208 42.064 25.4 39.968H24.152V31.264H31.096V39.968H29.304V43.44C29.304 43.84 29.336 43.904 29.624 43.904ZM46.344 37.6H38.152V43.52H39.384C39.192 43.2 38.824 42.832 38.552 42.608C40.008 42.16 41.24 41.584 42.28 40.96C41.928 40.704 41.576 40.464 41.208 40.224C40.632 40.56 39.976 40.88 39.256 41.168C39.064 40.864 38.648 40.48 38.376 40.272C39.016 40.048 39.608 39.808 40.136 39.552C39.688 39.264 39.224 38.992 38.776 38.768L39.64 38.048C40.136 38.32 40.68 38.624 41.208 38.944C41.768 38.592 42.232 38.208 42.568 37.84L43.944 38.08C43.448 38.624 42.888 39.104 42.232 39.584C42.584 39.808 42.952 40.048 43.288 40.288C43.976 39.776 44.52 39.248 44.92 38.752L46.344 39.024C45.768 39.712 45.064 40.384 44.248 40.992C44.904 41.488 45.48 41.984 45.896 42.416L44.952 43.216C44.536 42.768 43.944 42.24 43.256 41.696C42.184 42.368 40.936 43.008 39.496 43.52H46.344V37.6ZM41 35.088L42.52 35.36C42.296 35.712 42.04 36.048 41.784 36.384H47.8V45.248H46.344V44.688H38.152V45.28H36.76V36.384H40.264C40.552 35.952 40.824 35.456 41 35.088ZM49.24 34.096H47.736V32.832H44.344V34.144C44.344 34.496 44.392 34.64 44.808 34.64H46.952C47.32 34.64 48.072 34.608 48.36 34.528C48.392 34.912 48.408 35.184 48.472 35.52C48.184 35.616 47.576 35.632 47.064 35.632H44.424C43.16 35.632 42.92 35.12 42.92 34.128V32.832H41.128C40.76 34.704 39.688 35.616 36.184 36.08C36.072 35.76 35.736 35.216 35.496 34.96C38.504 34.672 39.368 34.096 39.672 32.832H36.792V34.256H35.368V31.664H41.56C41.448 31.344 41.336 31.024 41.24 30.752L42.776 30.512C42.936 30.864 43.112 31.28 43.24 31.664H49.24V34.096Z" fill="#247BA0"/>
</g>
<defs>
<clipPath id="clip0_945_1820">
<rect width="50" height="50" fill="white"/>
</clipPath>
</defs>
</svg>
