<svg width="68" height="68" viewBox="0 0 68 68" fill="none" xmlns="http://www.w3.org/2000/svg">
<rect width="68" height="68" rx="10" fill="#353535"/>
<path d="M16.976 42.144V46.778H17.858V42.144H16.976ZM15.282 43.32V44.034H19.524V43.32H15.282ZM15.282 44.846V45.546H19.524V44.846H15.282ZM14.764 46.386V47.114H19.986V46.386H14.764ZM17.62 40.436C17.466 40.912 17.144 41.612 16.878 42.06L17.564 42.27C17.844 41.864 18.194 41.248 18.502 40.66L17.62 40.436ZM15.562 40.254C15.114 41.57 14.358 42.844 13.476 43.698C13.658 43.866 13.952 44.244 14.064 44.426C15.016 43.46 15.87 41.976 16.416 40.478L15.562 40.254ZM23.038 42.102V46.834H23.92V42.102H23.038ZM21.316 43.32V44.034H25.712V43.32H21.316ZM21.316 44.846V45.546H25.712V44.846H21.316ZM20.798 46.386V47.114H26.23V46.386H20.798ZM23.612 40.436C23.444 40.912 23.094 41.612 22.842 42.06L23.514 42.284C23.808 41.864 24.158 41.234 24.48 40.66L23.612 40.436ZM21.554 40.254C21.078 41.598 20.294 42.928 19.398 43.81C19.594 43.978 19.902 44.356 20.014 44.524C20.966 43.53 21.862 42.004 22.422 40.492L21.554 40.254ZM15.52 41.78L14.862 42.522H19.818V41.78H15.52ZM14.764 42.662V46.764H15.688V41.976L14.764 42.662ZM21.498 41.78L20.84 42.522H26.02V41.78H21.498ZM20.798 42.662V46.764H21.708V41.934L20.798 42.662ZM14.442 47.982V48.878H24.004V47.982H14.442ZM23.64 47.982V48.136C22.002 50.656 17.676 51.832 13.644 52.182C13.826 52.434 14.008 52.868 14.092 53.134C18.334 52.672 22.814 51.384 24.774 48.388L24.074 47.94L23.878 47.982H23.64ZM17.144 48.71L16.192 49.158C18.138 51.44 21.68 52.714 25.67 53.162C25.81 52.868 26.09 52.406 26.328 52.154C22.38 51.804 18.81 50.656 17.144 48.71ZM36.87 48.542V51.734C36.87 52.728 37.094 53.022 38.074 53.022C38.27 53.022 39.18 53.022 39.39 53.022C40.188 53.022 40.454 52.588 40.552 50.824C40.286 50.754 39.88 50.614 39.684 50.446C39.642 51.93 39.586 52.126 39.264 52.126C39.082 52.126 38.354 52.126 38.214 52.126C37.892 52.126 37.836 52.07 37.836 51.734V48.542H36.87ZM34.588 44.132H38.48V45.616H34.588V44.132ZM34.588 46.442H38.48V47.94H34.588V46.442ZM34.588 41.836H38.48V43.292H34.588V41.836ZM33.608 40.968V48.808H39.488V40.968H33.608ZM34.756 48.514C34.56 50.306 34.042 51.622 31.956 52.322C32.166 52.518 32.46 52.896 32.572 53.134C34.896 52.252 35.54 50.698 35.778 48.514H34.756ZM27.77 42.872V43.838H32.138V42.872H27.77ZM29.814 47.058V53.12H30.836V45.826L29.814 47.058ZM29.814 40.254V43.348H30.836V40.254H29.814ZM30.836 45.966L30.22 46.526C30.78 47.03 32.054 48.374 32.53 49.004L33.174 48.122C32.81 47.758 31.284 46.33 30.836 45.966ZM31.788 42.872V43.096C30.976 45.224 29.072 47.352 27.266 48.472C27.434 48.654 27.7 49.144 27.798 49.41C29.716 48.122 31.774 45.784 32.768 43.222L32.18 42.83L31.998 42.872H31.788ZM42.848 45.714V53.106H43.856V46.526H52.186V53.036H53.222V45.714H42.848ZM46.978 44.286C46.782 44.79 46.418 45.504 46.11 45.98L47.02 46.218C47.342 45.784 47.762 45.154 48.112 44.51L46.978 44.286ZM43.478 51.762V52.56H52.578V51.762H43.478ZM50.072 47.436V47.59C49.26 49.354 47.076 50.586 45.046 51.09C45.214 51.258 45.424 51.538 45.522 51.734C47.692 51.104 49.946 49.802 50.926 47.674L50.38 47.408L50.226 47.436H50.072ZM47.706 46.82C47.09 47.702 45.914 48.71 44.318 49.424C44.5 49.55 44.738 49.774 44.864 49.956C46.544 49.13 47.748 48.052 48.532 46.974L47.706 46.82ZM47.51 47.436L46.992 48.052H50.352V47.436H47.51ZM44.752 48.052C46.782 48.892 49.288 50.264 50.534 51.23L51.08 50.642C49.792 49.676 47.272 48.36 45.256 47.548L44.752 48.052ZM47.44 40.24V41.822H48.518V40.24H47.44ZM45.83 42.018C45.508 43.418 44.654 44.174 41.798 44.552C41.994 44.762 42.246 45.168 42.33 45.406C45.48 44.888 46.53 43.88 46.922 42.018H45.83ZM48.714 41.948V43.67C48.714 44.594 49.008 44.832 50.198 44.832C50.436 44.832 51.822 44.832 52.074 44.832C52.97 44.832 53.25 44.524 53.348 43.32C53.068 43.25 52.662 43.124 52.452 42.984C52.41 43.88 52.34 44.006 51.948 44.006C51.654 44.006 50.534 44.006 50.31 44.006C49.834 44.006 49.75 43.95 49.75 43.67V41.948H48.714ZM41.994 41.318V43.558H43.002V42.158H53.11V43.446H54.16V41.318H41.994Z" fill="white"/>
<path d="M21 16.3333C21 15.4493 21.3512 14.6014 21.9763 13.9763C22.6014 13.3512 23.4493 13 24.3333 13H44.3333C45.2174 13 46.0652 13.3512 46.6904 13.9763C47.3155 14.6014 47.6667 15.4493 47.6667 16.3333V29.6667C47.6667 30.5507 47.3155 31.3986 46.6904 32.0237C46.0652 32.6488 45.2174 33 44.3333 33H24.3333C23.4493 33 22.6014 32.6488 21.9763 32.0237C21.3512 31.3986 21 30.5507 21 29.6667V16.3333ZM24.3333 14.6667C23.8913 14.6667 23.4674 14.8423 23.1548 15.1548C22.8423 15.4674 22.6667 15.8913 22.6667 16.3333V29.6667C22.6667 30.1087 22.8423 30.5326 23.1548 30.8452C23.4674 31.1577 23.8913 31.3333 24.3333 31.3333H33.5V14.6667H24.3333ZM44.3333 31.3333C44.7754 31.3333 45.1993 31.1577 45.5118 30.8452C45.8244 30.5326 46 30.1087 46 29.6667V16.3333C46 15.8913 45.8244 15.4674 45.5118 15.1548C45.1993 14.8423 44.7754 14.6667 44.3333 14.6667H35.1667V31.3333H44.3333ZM36.8333 29.6667C37.0543 29.6667 37.2663 29.5789 37.4226 29.4226C37.5789 29.2663 37.6667 29.0543 37.6667 28.8333C37.6667 28.6123 37.5789 28.4004 37.4226 28.2441C37.2663 28.0878 37.0543 28 36.8333 28C36.6123 28 36.4004 28.0878 36.2441 28.2441C36.0878 28.4004 36 28.6123 36 28.8333C36 29.0543 36.0878 29.2663 36.2441 29.4226C36.4004 29.5789 36.6123 29.6667 36.8333 29.6667ZM41 28.8333C41 29.0543 40.9122 29.2663 40.7559 29.4226C40.5996 29.5789 40.3877 29.6667 40.1667 29.6667C39.9457 29.6667 39.7337 29.5789 39.5774 29.4226C39.4211 29.2663 39.3333 29.0543 39.3333 28.8333C39.3333 28.6123 39.4211 28.4004 39.5774 28.2441C39.7337 28.0878 39.9457 28 40.1667 28C40.3877 28 40.5996 28.0878 40.7559 28.2441C40.9122 28.4004 41 28.6123 41 28.8333ZM43.5 29.6667C43.721 29.6667 43.933 29.5789 44.0893 29.4226C44.2455 29.2663 44.3333 29.0543 44.3333 28.8333C44.3333 28.6123 44.2455 28.4004 44.0893 28.2441C43.933 28.0878 43.721 28 43.5 28C43.279 28 43.067 28.0878 42.9107 28.2441C42.7545 28.4004 42.6667 28.6123 42.6667 28.8333C42.6667 29.0543 42.7545 29.2663 42.9107 29.4226C43.067 29.5789 43.279 29.6667 43.5 29.6667Z" fill="white"/>
</svg>
