<svg width="68" height="68" viewBox="0 0 68 68" fill="none" xmlns="http://www.w3.org/2000/svg">
<rect width="68" height="68" rx="10" fill="#2D3E7A"/>
<path d="M16.976 42.144H17.858V46.778H16.976V42.144ZM15.282 43.32H19.524V44.034H15.282V43.32ZM15.282 44.846H19.524V45.546H15.282V44.846ZM14.764 46.386H19.986V47.114H14.764V46.386ZM17.62 40.436L18.502 40.66C18.194 41.248 17.844 41.864 17.564 42.27L16.878 42.06C17.144 41.612 17.466 40.912 17.62 40.436ZM15.562 40.254L16.416 40.478C15.87 41.976 15.016 43.46 14.064 44.426C13.952 44.244 13.658 43.866 13.476 43.698C14.358 42.844 15.114 41.57 15.562 40.254ZM23.038 42.102H23.92V46.834H23.038V42.102ZM21.316 43.32H25.712V44.034H21.316V43.32ZM21.316 44.846H25.712V45.546H21.316V44.846ZM20.798 46.386H26.23V47.114H20.798V46.386ZM23.612 40.436L24.48 40.66C24.158 41.234 23.808 41.864 23.514 42.284L22.842 42.06C23.094 41.612 23.444 40.912 23.612 40.436ZM21.554 40.254L22.422 40.492C21.862 42.004 20.966 43.53 20.014 44.524C19.902 44.356 19.594 43.978 19.398 43.81C20.294 42.928 21.078 41.598 21.554 40.254ZM15.52 41.78H19.818V42.522H14.862L15.52 41.78ZM14.764 42.662L15.688 41.976V46.764H14.764V42.662ZM21.498 41.78H26.02V42.522H20.84L21.498 41.78ZM20.798 42.662L21.708 41.934V46.764H20.798V42.662ZM14.442 47.982H24.004V48.878H14.442V47.982ZM23.64 47.982H23.878L24.074 47.94L24.774 48.388C22.814 51.384 18.334 52.672 14.092 53.134C14.008 52.868 13.826 52.434 13.644 52.182C17.676 51.832 22.002 50.656 23.64 48.136V47.982ZM17.144 48.71C18.81 50.656 22.38 51.804 26.328 52.154C26.09 52.406 25.81 52.868 25.67 53.162C21.68 52.714 18.138 51.44 16.192 49.158L17.144 48.71ZM36.87 48.542H37.836V51.734C37.836 52.07 37.892 52.126 38.214 52.126C38.354 52.126 39.082 52.126 39.264 52.126C39.586 52.126 39.642 51.93 39.684 50.446C39.88 50.614 40.286 50.754 40.552 50.824C40.454 52.588 40.188 53.022 39.39 53.022C39.18 53.022 38.27 53.022 38.074 53.022C37.094 53.022 36.87 52.728 36.87 51.734V48.542ZM34.588 44.132V45.616H38.48V44.132H34.588ZM34.588 46.442V47.94H38.48V46.442H34.588ZM34.588 41.836V43.292H38.48V41.836H34.588ZM33.608 40.968H39.488V48.808H33.608V40.968ZM34.756 48.514H35.778C35.54 50.698 34.896 52.252 32.572 53.134C32.46 52.896 32.166 52.518 31.956 52.322C34.042 51.622 34.56 50.306 34.756 48.514ZM27.77 42.872H32.138V43.838H27.77V42.872ZM29.814 47.058L30.836 45.826V53.12H29.814V47.058ZM29.814 40.254H30.836V43.348H29.814V40.254ZM30.836 45.966C31.284 46.33 32.81 47.758 33.174 48.122L32.53 49.004C32.054 48.374 30.78 47.03 30.22 46.526L30.836 45.966ZM31.788 42.872H31.998L32.18 42.83L32.768 43.222C31.774 45.784 29.716 48.122 27.798 49.41C27.7 49.144 27.434 48.654 27.266 48.472C29.072 47.352 30.976 45.224 31.788 43.096V42.872ZM42.848 45.714H53.222V53.036H52.186V46.526H43.856V53.106H42.848V45.714ZM46.978 44.286L48.112 44.51C47.762 45.154 47.342 45.784 47.02 46.218L46.11 45.98C46.418 45.504 46.782 44.79 46.978 44.286ZM43.478 51.762H52.578V52.56H43.478V51.762ZM50.072 47.436H50.226L50.38 47.408L50.926 47.674C49.946 49.802 47.692 51.104 45.522 51.734C45.424 51.538 45.214 51.258 45.046 51.09C47.076 50.586 49.26 49.354 50.072 47.59V47.436ZM47.706 46.82L48.532 46.974C47.748 48.052 46.544 49.13 44.864 49.956C44.738 49.774 44.5 49.55 44.318 49.424C45.914 48.71 47.09 47.702 47.706 46.82ZM47.51 47.436H50.352V48.052H46.992L47.51 47.436ZM44.752 48.052L45.256 47.548C47.272 48.36 49.792 49.676 51.08 50.642L50.534 51.23C49.288 50.264 46.782 48.892 44.752 48.052ZM47.44 40.24H48.518V41.822H47.44V40.24ZM45.83 42.018H46.922C46.53 43.88 45.48 44.888 42.33 45.406C42.246 45.168 41.994 44.762 41.798 44.552C44.654 44.174 45.508 43.418 45.83 42.018ZM48.714 41.948H49.75V43.67C49.75 43.95 49.834 44.006 50.31 44.006C50.534 44.006 51.654 44.006 51.948 44.006C52.34 44.006 52.41 43.88 52.452 42.984C52.662 43.124 53.068 43.25 53.348 43.32C53.25 44.524 52.97 44.832 52.074 44.832C51.822 44.832 50.436 44.832 50.198 44.832C49.008 44.832 48.714 44.594 48.714 43.67V41.948ZM41.994 41.318H54.16V43.446H53.11V42.158H43.002V43.558H41.994V41.318Z" fill="white"/>
<path d="M21 16.3333C21 15.4493 21.3512 14.6014 21.9763 13.9763C22.6014 13.3512 23.4493 13 24.3333 13H44.3333C45.2174 13 46.0652 13.3512 46.6904 13.9763C47.3155 14.6014 47.6667 15.4493 47.6667 16.3333V29.6667C47.6667 30.5507 47.3155 31.3986 46.6904 32.0237C46.0652 32.6488 45.2174 33 44.3333 33H24.3333C23.4493 33 22.6014 32.6488 21.9763 32.0237C21.3512 31.3986 21 30.5507 21 29.6667V16.3333ZM24.3333 14.6667C23.8913 14.6667 23.4674 14.8423 23.1548 15.1548C22.8423 15.4674 22.6667 15.8913 22.6667 16.3333V29.6667C22.6667 30.1087 22.8423 30.5326 23.1548 30.8452C23.4674 31.1577 23.8913 31.3333 24.3333 31.3333H33.5V14.6667H24.3333ZM44.3333 31.3333C44.7754 31.3333 45.1993 31.1577 45.5118 30.8452C45.8244 30.5326 46 30.1087 46 29.6667V16.3333C46 15.8913 45.8244 15.4674 45.5118 15.1548C45.1993 14.8423 44.7754 14.6667 44.3333 14.6667H35.1667V31.3333H44.3333ZM36.8333 29.6667C37.0543 29.6667 37.2663 29.5789 37.4226 29.4226C37.5789 29.2663 37.6667 29.0543 37.6667 28.8333C37.6667 28.6123 37.5789 28.4004 37.4226 28.2441C37.2663 28.0878 37.0543 28 36.8333 28C36.6123 28 36.4004 28.0878 36.2441 28.2441C36.0878 28.4004 36 28.6123 36 28.8333C36 29.0543 36.0878 29.2663 36.2441 29.4226C36.4004 29.5789 36.6123 29.6667 36.8333 29.6667ZM41 28.8333C41 29.0543 40.9122 29.2663 40.7559 29.4226C40.5996 29.5789 40.3877 29.6667 40.1667 29.6667C39.9457 29.6667 39.7337 29.5789 39.5774 29.4226C39.4211 29.2663 39.3333 29.0543 39.3333 28.8333C39.3333 28.6123 39.4211 28.4004 39.5774 28.2441C39.7337 28.0878 39.9457 28 40.1667 28C40.3877 28 40.5996 28.0878 40.7559 28.2441C40.9122 28.4004 41 28.6123 41 28.8333ZM43.5 29.6667C43.721 29.6667 43.933 29.5789 44.0893 29.4226C44.2455 29.2663 44.3333 29.0543 44.3333 28.8333C44.3333 28.6123 44.2455 28.4004 44.0893 28.2441C43.933 28.0878 43.721 28 43.5 28C43.279 28 43.067 28.0878 42.9107 28.2441C42.7545 28.4004 42.6667 28.6123 42.6667 28.8333C42.6667 29.0543 42.7545 29.2663 42.9107 29.4226C43.067 29.5789 43.279 29.6667 43.5 29.6667Z" fill="white"/>
<path opacity="0.26" d="M27.2926 6.28319C25.8432 5.91401 24.4212 6.35156 23.0128 6.18748C22.6846 6.14646 22.2744 6.25584 22.1104 5.84564C21.9599 5.5038 22.2744 5.2987 22.4522 5.07993C23.1085 4.23217 23.7922 3.39809 24.4348 2.53666C24.8997 1.90768 25.3783 1.77095 25.8706 2.45462C26.5542 3.39809 27.1969 4.35523 27.8259 5.32605C28.2771 6.00972 28.154 6.37891 27.2926 6.28319Z" fill="white"/>
<path opacity="0.26" d="M35.5922 6.28319C34.1428 5.91401 32.7207 6.35156 31.3124 6.18748C30.9842 6.14646 30.574 6.25584 30.4099 5.84564C30.2595 5.5038 30.574 5.2987 30.7518 5.07993C31.4081 4.23217 32.0918 3.39809 32.7344 2.53666C33.1993 1.90768 33.6779 1.77095 34.1701 2.45462C34.8538 3.39809 35.4964 4.35523 36.1254 5.32605C36.5767 6.00972 36.4536 6.37891 35.5922 6.28319Z" fill="white"/>
<path opacity="0.26" d="M45.1091 6.28319C43.6187 5.91401 42.1419 6.35156 40.6789 6.18748C40.337 6.14646 39.9268 6.25584 39.7491 5.84564C39.5987 5.5038 39.9268 5.2987 40.1046 5.07993C40.7883 4.23217 41.4856 3.39809 42.1556 2.53666C42.6342 1.90768 43.1264 1.77095 43.6323 2.45462C44.3297 3.39809 44.9997 4.35523 45.656 5.32605C46.1209 6.00972 45.9842 6.37891 45.1091 6.28319Z" fill="white"/>
<path opacity="0.26" d="M54.6804 6.28319C53.19 5.91401 51.7132 6.35156 50.2502 6.18748C49.9083 6.14646 49.4981 6.25584 49.3204 5.84564C49.17 5.5038 49.4981 5.2987 49.6759 5.07993C50.3595 4.23217 51.0569 3.39809 51.7269 2.53666C52.2055 1.90768 52.6977 1.77095 53.2036 2.45462C53.901 3.39809 54.571 4.35523 55.2273 5.32605C55.6922 6.00972 55.5555 6.37891 54.6804 6.28319Z" fill="white"/>
<path opacity="0.26" d="M64.2519 6.28319C62.7615 5.91401 61.2847 6.35156 59.8217 6.18748C59.4799 6.14646 59.0696 6.25584 58.8919 5.84564C58.7415 5.5038 59.0696 5.2987 59.2474 5.07993C59.9311 4.23217 60.6284 3.39809 61.2984 2.53666C61.777 1.90768 62.2692 1.77095 62.7752 2.45462C63.4725 3.39809 64.1425 4.35523 64.7988 5.32605C65.2637 6.00972 65.127 6.37891 64.2519 6.28319Z" fill="white"/>
<path opacity="0.26" d="M17.9672 6.28319C16.5178 5.91401 15.0958 6.35156 13.6874 6.18748C13.3593 6.16013 12.9491 6.25584 12.7713 5.85931C12.6346 5.5038 12.9491 5.31237 13.1268 5.07993C13.7831 4.23217 14.4668 3.39809 15.1095 2.53666C15.5744 1.90768 16.0529 1.77095 16.5452 2.45462C17.2288 3.39809 17.8715 4.35523 18.5005 5.32605C18.938 6.00972 18.815 6.37891 17.9672 6.28319Z" fill="white"/>
<path opacity="0.26" d="M8.62829 6.28319C7.17891 5.91401 5.75687 6.35156 4.3485 6.18748C4.02033 6.16013 3.61013 6.25584 3.44605 5.85931C3.29564 5.5038 3.61013 5.31237 3.78789 5.07993C4.44421 4.23217 5.12789 3.39809 5.77054 2.53666C6.23544 1.90768 6.71401 1.77095 7.20625 2.45462C7.88993 3.39809 8.53258 4.35523 9.16156 5.32605C9.59911 6.00972 9.47605 6.37891 8.62829 6.28319Z" fill="white"/>
<path opacity="0.26" d="M27.2926 66.4465C25.8432 66.0773 24.4212 66.5148 23.0128 66.3507C22.6846 66.3097 22.2744 66.4191 22.1104 66.0089C21.9599 65.6671 22.2744 65.462 22.4522 65.2432C23.1085 64.3954 23.7922 63.5614 24.4348 62.6999C24.8997 62.0709 25.3783 61.9342 25.8706 62.6179C26.5542 63.5614 27.1969 64.5185 27.8259 65.4893C28.2771 66.173 28.154 66.5422 27.2926 66.4465Z" fill="white"/>
<path opacity="0.26" d="M35.5922 66.4465C34.1428 66.0773 32.7207 66.5148 31.3124 66.3507C30.9842 66.3097 30.574 66.4191 30.4099 66.0089C30.2595 65.6671 30.574 65.462 30.7518 65.2432C31.4081 64.3954 32.0918 63.5614 32.7344 62.6999C33.1993 62.0709 33.6779 61.9342 34.1701 62.6179C34.8538 63.5614 35.4964 64.5185 36.1254 65.4893C36.5767 66.173 36.4536 66.5422 35.5922 66.4465Z" fill="white"/>
<path opacity="0.26" d="M45.1091 66.4465C43.6187 66.0773 42.1419 66.5148 40.6789 66.3507C40.337 66.3097 39.9268 66.4191 39.7491 66.0089C39.5987 65.6671 39.9268 65.462 40.1046 65.2432C40.7883 64.3954 41.4856 63.5614 42.1556 62.6999C42.6342 62.0709 43.1264 61.9342 43.6323 62.6179C44.3297 63.5614 44.9997 64.5185 45.656 65.4893C46.1209 66.173 45.9842 66.5422 45.1091 66.4465Z" fill="white"/>
<path opacity="0.26" d="M54.6804 66.4465C53.19 66.0773 51.7132 66.5148 50.2502 66.3507C49.9083 66.3097 49.4981 66.4191 49.3204 66.0089C49.17 65.6671 49.4981 65.462 49.6759 65.2432C50.3595 64.3954 51.0569 63.5614 51.7269 62.6999C52.2055 62.0709 52.6977 61.9342 53.2036 62.6179C53.901 63.5614 54.571 64.5185 55.2273 65.4893C55.6922 66.173 55.5555 66.5422 54.6804 66.4465Z" fill="white"/>
<path opacity="0.26" d="M64.2519 66.4465C62.7615 66.0773 61.2847 66.5148 59.8217 66.3507C59.4799 66.3097 59.0696 66.4191 58.8919 66.0089C58.7415 65.6671 59.0696 65.462 59.2474 65.2432C59.9311 64.3954 60.6284 63.5614 61.2984 62.6999C61.777 62.0709 62.2692 61.9342 62.7752 62.6179C63.4725 63.5614 64.1425 64.5185 64.7988 65.4893C65.2637 66.173 65.127 66.5422 64.2519 66.4465Z" fill="white"/>
<path opacity="0.26" d="M17.9672 66.4465C16.5178 66.0773 15.0957 66.5148 13.6874 66.3507C13.3592 66.3234 12.949 66.4191 12.7712 66.0226C12.6208 65.6807 12.9353 65.4756 13.1131 65.2569C13.7694 64.4091 14.4531 63.575 15.0957 62.7136C15.5606 62.0846 16.0392 61.9479 16.5314 62.6316C17.2151 63.575 17.8578 64.5322 18.4868 65.503C18.938 66.173 18.8149 66.5422 17.9672 66.4465Z" fill="white"/>
<path opacity="0.26" d="M8.62829 66.4465C7.17891 66.0773 5.75687 66.5148 4.3485 66.3507C4.02033 66.3097 3.61013 66.4191 3.44605 66.0089C3.29564 65.6671 3.61013 65.462 3.78789 65.2432C4.44421 64.3954 5.12789 63.5614 5.77054 62.6999C6.23544 62.0709 6.71401 61.9342 7.20625 62.6179C7.88993 63.5614 8.53258 64.5185 9.16156 65.4893C9.59911 66.173 9.47605 66.5422 8.62829 66.4465Z" fill="white"/>
<path opacity="0.26" d="M6.29003 45.362C5.92084 46.8114 6.35839 48.2334 6.19431 49.6418C6.15329 49.9699 6.26268 50.3801 5.85248 50.5442C5.51064 50.6946 5.30554 50.3801 5.08676 50.2024C4.23901 49.5461 3.40492 48.8624 2.5435 48.2197C1.91452 47.7548 1.77778 47.2763 2.46146 46.784C3.40492 46.1003 4.36207 45.4577 5.33288 44.8287C6.00288 44.3775 6.37207 44.5142 6.29003 45.362Z" fill="white"/>
<path opacity="0.26" d="M6.29003 36.1187C5.92085 37.5681 6.3584 38.9901 6.19432 40.3985C6.1533 40.7267 6.26268 41.1369 5.85248 41.301C5.51064 41.4514 5.30554 41.1369 5.08677 40.9591C4.23901 40.3028 3.40493 39.6191 2.5435 38.9765C1.90085 38.5116 1.77779 38.033 2.44779 37.5544C3.39126 36.8708 4.3484 36.2281 5.31922 35.5991C6.00289 35.1342 6.37207 35.271 6.29003 36.1187Z" fill="white"/>
<path opacity="0.26" d="M6.29003 26.8071C5.92084 28.2975 6.35839 29.7742 6.19431 31.2373C6.15329 31.5791 6.26268 31.9893 5.85248 32.1671C5.51064 32.3175 5.30554 31.9893 5.08676 31.8116C4.23901 31.1279 3.40492 30.4305 2.5435 29.7605C1.91452 29.282 1.77778 28.7897 2.46146 28.2838C3.40492 27.5865 4.36207 26.9165 5.33288 26.2601C6.00288 25.7952 6.37207 25.932 6.29003 26.8071Z" fill="white"/>
<path opacity="0.26" d="M6.29003 17.5638C5.92084 19.0542 6.35839 20.5309 6.19431 21.994C6.15329 22.3358 6.26268 22.746 5.85248 22.9238C5.51064 23.0742 5.30554 22.746 5.08676 22.5683C4.23901 21.8846 3.40492 21.1873 2.5435 20.5173C1.91452 20.0387 1.77778 19.5464 2.46146 19.0405C3.40492 18.3432 4.36207 17.6732 5.33288 17.0168C6.00288 16.5519 6.37207 16.6887 6.29003 17.5638Z" fill="white"/>
<path opacity="0.26" d="M6.29003 8.32056C5.90717 9.81096 6.3584 11.2877 6.19432 12.7371C6.1533 13.0789 6.24901 13.5028 5.85248 13.6806C5.51064 13.831 5.30554 13.5028 5.08677 13.325C4.23901 12.6414 3.40493 11.944 2.5435 11.274C1.90085 10.7818 1.77779 10.3032 2.44779 9.79729C3.39126 9.09994 4.3484 8.42994 5.31922 7.77362C6.00289 7.30872 6.37207 7.44545 6.29003 8.32056Z" fill="white"/>
<path opacity="0.26" d="M6.29003 54.6052C5.92084 56.0546 6.35839 57.4766 6.19431 58.885C6.15329 59.2132 6.26268 59.6234 5.85248 59.7874C5.51064 59.9379 5.30554 59.6234 5.08676 59.4456C4.23901 58.7893 3.40492 58.1056 2.5435 57.463C1.91452 56.9981 1.77778 56.5195 2.46146 56.0272C3.40492 55.3436 4.36207 54.7009 5.33288 54.0719C6.00288 53.6207 6.37207 53.7574 6.29003 54.6052Z" fill="white"/>
<path opacity="0.26" d="M62.1735 46.7293C62.5427 48.1787 62.1051 49.6007 62.2692 51.0091C62.3102 51.3372 62.2008 51.7475 62.611 51.9115C62.9529 52.0619 63.158 51.7475 63.3768 51.5697C64.2245 50.9134 65.0586 50.2297 65.92 49.587C66.549 49.1221 66.6857 48.6436 66.0021 48.1513C65.0586 47.4677 64.1015 46.825 63.1306 46.196C62.4606 45.7448 62.0778 45.8815 62.1735 46.7293Z" fill="white"/>
<path opacity="0.26" d="M62.1735 37.4861C62.5427 38.9355 62.1051 40.3575 62.2692 41.7659C62.3102 42.094 62.2008 42.5042 62.611 42.6683C62.9529 42.8187 63.158 42.5042 63.3768 42.3265C64.2245 41.6701 65.0586 40.9865 65.92 40.3438C66.549 39.8789 66.6857 39.4003 66.0021 38.9081C65.0586 38.2244 64.1015 37.5818 63.1306 36.9528C62.4606 36.5016 62.0778 36.6383 62.1735 37.4861Z" fill="white"/>
<path opacity="0.26" d="M62.1735 28.1744C62.5427 29.6648 62.1051 31.1416 62.2692 32.6046C62.3102 32.9465 62.2008 33.3567 62.611 33.5344C62.9529 33.6848 63.158 33.3567 63.3768 33.1789C64.2245 32.4953 65.0586 31.7979 65.92 31.1279C66.549 30.6493 66.6857 30.1571 66.0021 29.6512C65.0586 28.9538 64.1015 28.2838 63.1306 27.6275C62.4606 27.1626 62.0778 27.2993 62.1735 28.1744Z" fill="white"/>
<path opacity="0.26" d="M62.1735 18.9312C62.5427 20.4216 62.1051 21.8983 62.2692 23.3614C62.3102 23.7032 62.2008 24.1134 62.611 24.2912C62.9529 24.4416 63.158 24.1134 63.3768 23.9356C64.2245 23.252 65.0586 22.5546 65.92 21.8846C66.549 21.4061 66.6857 20.9138 66.0021 20.4079C65.0586 19.7105 64.1015 19.0405 63.1306 18.3842C62.4606 17.9193 62.0778 18.0561 62.1735 18.9312Z" fill="white"/>
<path opacity="0.26" d="M62.1735 9.68787C62.5427 11.1783 62.1051 12.655 62.2692 14.1181C62.3102 14.4599 62.2008 14.8701 62.611 15.0479C62.9529 15.1983 63.158 14.8701 63.3768 14.6924C64.2245 14.0087 65.0586 13.3113 65.92 12.6413C66.549 12.1628 66.6857 11.6705 66.0021 11.1646C65.0586 10.4673 64.1015 9.79725 63.1306 9.14093C62.4606 8.67603 62.0778 8.81276 62.1735 9.68787Z" fill="white"/>
<path opacity="0.26" d="M62.1735 55.9726C62.5427 57.422 62.1051 58.844 62.2692 60.2524C62.3102 60.5805 62.2008 60.9907 62.611 61.1548C62.9529 61.3052 63.158 60.9907 63.3768 60.813C64.2245 60.1567 65.0586 59.473 65.92 58.8303C66.549 58.3654 66.6857 57.8869 66.0021 57.3946C65.0586 56.7109 64.1015 56.0683 63.1306 55.4393C62.4606 54.9881 62.0778 55.1248 62.1735 55.9726Z" fill="white"/>
</svg>
