<svg width="206" height="65" viewBox="0 0 206 65" fill="none" xmlns="http://www.w3.org/2000/svg">
<g clip-path="url(#clip0_1176_5706)">
<path d="M206 53H194V65H206V53Z" fill="#2D3E7A"/>
<path d="M12 0H0V12H12V0Z" fill="#2D3E7A"/>
<path d="M15 3V15H3V63H191V51H203V3H15Z" fill="#2D3E7A"/>
<path d="M150.4 25L149 26.5L156.4 34L149 41.5L150.4 43L159.4 34L150.4 25Z" fill="white"/>
<path d="M57.68 31.68V29.94H54.56V31.68H57.68ZM57.68 34.86V33.12H54.56V34.86H57.68ZM57.68 38.12V36.3H54.56V38.12H57.68ZM52.9 39.66V31.8C52.44 32.42 52 33 51.52 33.5C51.36 33.18 50.86 32.38 50.54 32.02C52.12 30.38 53.54 27.88 54.4 25.34L55.96 25.8C55.64 26.68 55.26 27.58 54.84 28.44H58.34C58.08 27.66 57.64 26.72 57.2 25.96L58.76 25.5C59.28 26.42 59.86 27.62 60.12 28.44H63.48V29.94H59.32V31.68H62.84V33.12H59.32V34.86H62.86V36.3H59.32V38.12H63.86V39.66H52.9ZM50.6 28.24L49.18 29.26C48.64 28.44 47.52 27.06 46.62 26.08L48.02 25.22C48.94 26.18 50.04 27.44 50.6 28.24ZM50.44 34.66L51.36 35C51.08 36.68 50.66 38.14 50.12 39.4C51.4 41.36 53.72 41.66 57.12 41.66C59.22 41.66 62.28 41.56 64.4 41.36C64.12 41.76 63.88 42.6 63.8 43.1C61.86 43.22 59.34 43.28 57.1 43.28C53.32 43.28 50.94 42.88 49.4 40.82C48.66 42.04 47.78 42.94 46.78 43.62C46.54 43.26 45.94 42.62 45.56 42.36C47.46 41.2 48.8 39.1 49.48 36.16H47.52C47.02 36.16 46.48 36.3 46.32 36.46C46.22 36.04 45.86 35.22 45.68 34.88C45.98 34.8 46.32 34.66 46.66 34.26C47.08 33.86 48.12 32.48 48.92 31.32H46V29.82H50.1L50.34 29.72L51.5 30.26C50.72 31.38 49.34 33.34 48.24 34.7H50.14L50.44 34.66ZM72.62 26.38H79.22C79.22 30 79.68 37.42 87.3 41.92C86.88 42.24 86.12 43.04 85.8 43.5C81.26 40.76 79.12 36.68 78.14 33C76.66 37.82 74.16 41.32 70.46 43.54C70.1 43.16 69.24 42.38 68.74 42.04C73.04 39.82 75.46 35.88 76.62 30.46L77.64 30.64C77.5 29.8 77.42 28.98 77.38 28.26H72.62V26.38ZM99.96 36.72V37.66H101.9V36.72H99.96ZM98.88 38.54V35.84H103.02V38.54H98.88ZM97.82 35.12V39.28H104.08V35.12H97.82ZM96.38 40.38V34.04H105.6V40.38H96.38ZM98.54 29.34V30.42H103.36V29.34H98.54ZM101.72 32.22H106.84V33.3H95.2V32.22H100.14V31.44H97.02V28.32H104.94V31.44H101.72V32.22ZM94.4 41.28H107.6V27.52H94.4V41.28ZM92.66 25.96H109.4V43.56H107.6V42.82H94.4V43.56H92.66V25.96ZM126.16 36.96H122.8C122.22 37.34 121.6 37.66 121.02 37.94L127.32 37.84C126.88 37.56 126.42 37.3 126 37.08L126.16 36.96ZM124.88 40.96V41.84H132.7V43.14H115.34V41.84H123V40.96H117.28V39.8H123V39C119.34 39.1 118.76 39.16 118.36 39.28C118.28 39 118.1 38.36 117.94 38.02C118.26 37.98 118.62 37.9 119.02 37.76C119.3 37.66 119.98 37.36 120.7 36.96H117.6V35.88H130.26V36.96H128.36C129.36 37.54 130.3 38.24 130.92 38.74L129.8 39.66C129.54 39.42 129.22 39.16 128.82 38.86L124.88 38.96V39.8H130.92V40.96H124.88ZM115.6 36.82V33.94H132.42V36.82H130.66V35.16H117.28V36.82H115.6ZM128.64 32.22V31.26H119.36V32.22H128.64ZM117.64 30.28H130.46V33.22H117.64V30.28ZM124.88 26.32H132.74V27.54H124.88V28.4H131.2V29.54H116.82V28.4H123V27.54H115.3V26.32H123V25.2H124.88V26.32Z" fill="white"/>
</g>
<defs>
<clipPath id="clip0_1176_5706">
<rect width="206" height="65" fill="white"/>
</clipPath>
</defs>
</svg>
