<svg width="24" height="24" viewBox="0 0 24 24" fill="none" xmlns="http://www.w3.org/2000/svg">
<path d="M12.3333 10C11.8029 10 11.2942 10.2107 10.9191 10.5858C10.544 10.9609 10.3333 11.4696 10.3333 12C10.3333 12.5304 10.544 13.0391 10.9191 13.4142C11.2942 13.7893 11.8029 14 12.3333 14C12.8638 14 13.3725 13.7893 13.7475 13.4142C14.1226 13.0391 14.3333 12.5304 14.3333 12C14.3333 11.4696 14.1226 10.9609 13.7475 10.5858C13.3725 10.2107 12.8638 10 12.3333 10ZM12.3333 15.3333C11.4493 15.3333 10.6014 14.9821 9.97631 14.357C9.35119 13.7319 9 12.8841 9 12C9 11.1159 9.35119 10.2681 9.97631 9.64298C10.6014 9.01786 11.4493 8.66667 12.3333 8.66667C13.2174 8.66667 14.0652 9.01786 14.6904 9.64298C15.3155 10.2681 15.6667 11.1159 15.6667 12C15.6667 12.8841 15.3155 13.7319 14.6904 14.357C14.0652 14.9821 13.2174 15.3333 12.3333 15.3333ZM12.3333 7C9 7 6.15333 9.07333 5 12C6.15333 14.9267 9 17 12.3333 17C15.6667 17 18.5133 14.9267 19.6667 12C18.5133 9.07333 15.6667 7 12.3333 7Z" fill="#808080"/>
</svg>
