<svg width="347" height="39" viewBox="0 0 347 39" fill="none" xmlns="http://www.w3.org/2000/svg">
<g clip-path="url(#clip0_1176_5805)">
<path d="M1.18936 34.2384C2.05111 32.9036 2.77116 31.6757 3.62328 30.533C8.07888 24.5341 12.6817 18.6495 17.0193 12.5503C19.8088 8.62932 22.9754 7.66476 25.9483 11.6481C30.9517 18.3104 35.5871 25.2622 40.0799 32.2914C42.0184 35.3267 41.6882 38.2861 37.1376 37.6031C27.1954 36.0961 17.3162 38.2615 7.41245 37.7125C4.86779 37.5696 2.36456 37.3519 1.18936 34.2384Z" fill="#B3B3B3"/>
<path d="M306.564 26.5965C307.426 25.2617 308.146 24.0337 308.998 22.891C313.453 16.8921 318.056 11.0075 322.394 4.90832C325.183 0.987356 328.35 0.0227869 331.323 4.00612C336.326 10.6684 340.962 17.6202 345.454 24.6494C347.393 27.6848 347.063 30.6441 342.512 29.9612C332.57 28.4541 322.691 30.6195 312.787 30.0706C310.242 29.9277 307.739 29.71 306.564 26.5965Z" fill="#B3B3B3"/>
<path d="M255.673 27.87C256.535 26.5352 257.255 25.3073 258.107 24.1645C262.563 18.1656 267.165 12.2811 271.503 6.18188C274.292 2.26092 277.459 1.29635 280.432 5.27968C285.435 11.9419 290.071 18.8938 294.564 25.9229C296.502 28.9583 296.172 31.9177 291.621 31.2347C281.679 29.7276 271.8 31.8931 261.896 31.3441C259.337 31.2016 256.848 30.9835 255.673 27.87Z" fill="#B3B3B3"/>
<path d="M204.768 29.1439C205.629 27.8091 206.35 26.5811 207.202 25.4384C211.657 19.4395 216.26 13.555 220.598 7.45574C223.387 3.53478 226.554 2.57021 229.527 6.55355C234.53 13.2158 239.165 20.1676 243.658 27.1968C245.597 30.2322 245.267 33.1915 240.716 32.5086C230.774 31.0015 220.895 33.1669 210.991 32.618C208.446 32.4751 205.957 32.257 204.768 29.1439Z" fill="#B3B3B3"/>
<path d="M153.877 30.4175C154.738 29.0827 155.458 27.8547 156.311 26.712C160.766 20.7131 165.369 14.8285 169.707 8.7293C172.496 4.80834 175.663 3.84377 178.636 7.82711C183.639 14.4894 188.274 21.4412 192.767 28.4704C194.706 31.5057 194.375 34.4651 189.825 33.7822C179.883 32.2751 170.003 34.4405 160.1 33.8915C157.555 33.7487 155.052 33.5309 153.877 30.4175Z" fill="#B3B3B3"/>
<path d="M102.986 31.691C103.848 30.3562 104.568 29.1282 105.42 27.9855C109.875 21.9866 114.478 16.102 118.816 10.0028C121.605 6.08184 124.772 5.11727 127.745 9.1006C132.748 15.7629 137.383 22.7147 141.876 29.7439C143.815 32.7792 143.485 35.7386 138.934 35.0557C128.992 33.5486 119.113 35.714 109.209 35.165C106.664 35.0221 104.161 34.8044 102.986 31.691Z" fill="#B3B3B3"/>
<path d="M52.0946 32.9645C52.9564 31.6297 53.6764 30.4018 54.5286 29.259C58.9842 23.2601 63.587 17.3756 67.9246 11.2764C70.7141 7.3554 73.8807 6.39083 76.8536 10.3742C81.857 17.0364 86.4923 23.9883 90.9852 31.0174C92.9237 34.0528 92.5935 37.0121 88.0428 36.3292C78.1006 34.8221 68.2215 36.9876 58.3177 36.4386C55.7586 36.2961 53.2698 36.078 52.0946 32.9645Z" fill="#B3B3B3"/>
</g>
<defs>
<clipPath id="clip0_1176_5805">
<rect width="346" height="30" fill="white" transform="translate(0 8.65588) rotate(-1.43352)"/>
</clipPath>
</defs>
</svg>
