<svg width="600" height="29" viewBox="0 0 600 29" fill="none" xmlns="http://www.w3.org/2000/svg">
<g clip-path="url(#clip0_1176_5792)">
<path d="M254.549 24.6042C255.444 23.2914 256.194 22.0819 257.075 20.9608C261.679 15.0752 266.428 9.3077 270.916 3.31889C273.803 -0.531062 276.993 -1.41611 279.865 2.64035C284.7 9.4257 289.16 16.4913 293.476 23.6307C295.338 26.7136 294.934 29.6637 290.402 28.8672C280.5 27.1119 270.57 29.0295 260.683 28.2329C258.143 28.0264 255.646 27.7462 254.549 24.6042Z" fill="#B3B3B3"/>
<path d="M203.642 24.6042C204.537 23.2914 205.288 22.0819 206.168 20.9608C210.772 15.0752 215.521 9.3077 220.01 3.31889C222.896 -0.531062 226.086 -1.41611 228.958 2.64035C233.794 9.4257 238.254 16.4913 242.569 23.6307C244.431 26.7136 244.027 29.6637 239.495 28.8672C229.593 27.1119 219.663 29.0295 209.776 28.2329C207.236 28.0264 204.739 27.7462 203.642 24.6042Z" fill="#B3B3B3"/>
<path d="M152.735 24.6042C153.63 23.2914 154.381 22.0819 155.261 20.9608C159.865 15.0752 164.614 9.3077 169.103 3.31889C171.989 -0.531062 175.179 -1.41611 178.051 2.64035C182.887 9.4257 187.347 16.4913 191.662 23.6307C193.524 26.7136 193.12 29.6637 188.588 28.8672C178.687 27.1119 168.756 29.0295 158.869 28.2329C156.329 28.0264 153.832 27.7462 152.735 24.6042Z" fill="#B3B3B3"/>
<path d="M101.828 24.6042C102.723 23.2914 103.474 22.0819 104.354 20.9608C108.958 15.0752 113.707 9.3077 118.196 3.31889C121.082 -0.531062 124.272 -1.41611 127.144 2.64035C131.98 9.4257 136.44 16.4913 140.755 23.6307C142.617 26.7136 142.213 29.6637 137.681 28.8672C127.78 27.1119 117.849 29.0295 107.962 28.2329C105.408 28.0264 102.925 27.7462 101.828 24.6042Z" fill="#B3B3B3"/>
<path d="M50.907 24.6042C51.8019 23.2914 52.5524 22.0819 53.4328 20.9608C58.0371 15.0752 62.7857 9.3077 67.2746 3.31889C70.1613 -0.531062 73.3511 -1.41611 76.2233 2.64035C81.0585 9.4257 85.5185 16.4913 89.8341 23.6307C91.696 26.7136 91.2919 29.6637 86.7598 28.8672C76.8584 27.1119 66.9282 29.0295 57.0412 28.2329C54.5009 28.0264 52.0039 27.7462 50.907 24.6042Z" fill="#B3B3B3"/>
<path d="M0 24.6042C0.894876 23.2914 1.64542 22.0819 2.52586 20.9608C7.13014 15.0752 11.8788 9.3077 16.3676 3.31889C19.2543 -0.531062 22.4441 -1.41611 25.3163 2.64035C30.1516 9.4257 34.6115 16.4913 38.9271 23.6307C40.789 26.7136 40.3849 29.6637 35.8528 28.8672C25.9514 27.1119 16.0212 29.0295 6.13423 28.2329C3.59394 28.0264 1.09694 27.7462 0 24.6042Z" fill="#B3B3B3"/>
<path d="M560.019 24.6042C560.914 23.2914 561.665 22.0819 562.545 20.9608C567.149 15.0752 571.898 9.3077 576.387 3.31889C579.274 -0.531062 582.463 -1.41611 585.336 2.64035C590.171 9.4257 594.631 16.4913 598.946 23.6307C600.808 26.7136 600.404 29.6637 595.872 28.8672C585.971 27.1119 576.04 29.0295 566.154 28.2329C563.613 28.0264 561.116 27.7462 560.019 24.6042Z" fill="#B3B3B3"/>
<path d="M509.112 24.6042C510.007 23.2914 510.758 22.0819 511.638 20.9608C516.242 15.0752 520.991 9.3077 525.48 3.31889C528.367 -0.531062 531.556 -1.41611 534.429 2.64035C539.264 9.4257 543.724 16.4913 548.039 23.6307C549.901 26.7136 549.497 29.6637 544.965 28.8672C535.064 27.1119 525.133 29.0295 515.247 28.2329C512.692 28.0264 510.209 27.7462 509.112 24.6042Z" fill="#B3B3B3"/>
<path d="M458.191 24.6042C459.086 23.2914 459.836 22.0819 460.717 20.9608C465.321 15.0752 470.07 9.3077 474.558 3.31889C477.445 -0.531062 480.635 -1.41611 483.507 2.64035C488.342 9.4257 492.802 16.4913 497.118 23.6307C498.98 26.7136 498.576 29.6637 494.044 28.8672C484.142 27.1119 474.212 29.0295 464.325 28.2329C461.785 28.0264 459.302 27.7462 458.191 24.6042Z" fill="#B3B3B3"/>
<path d="M407.284 24.6042C408.179 23.2914 408.93 22.0819 409.81 20.9608C414.414 15.0752 419.163 9.3077 423.652 3.31889C426.538 -0.531062 429.728 -1.41611 432.601 2.64035C437.436 9.4257 441.896 16.4913 446.211 23.6307C448.073 26.7136 447.669 29.6637 443.137 28.8672C433.236 27.1119 423.305 29.0295 413.418 28.2329C410.878 28.0264 408.381 27.7462 407.284 24.6042Z" fill="#B3B3B3"/>
<path d="M356.377 24.6042C357.272 23.2914 358.023 22.0819 358.903 20.9608C363.507 15.0752 368.256 9.3077 372.745 3.31889C375.631 -0.531062 378.821 -1.41611 381.694 2.64035C386.529 9.4257 390.989 16.4913 395.304 23.6307C397.166 26.7136 396.762 29.6637 392.23 28.8672C382.329 27.1119 372.398 29.0295 362.511 28.2329C359.971 28.0264 357.474 27.7462 356.377 24.6042Z" fill="#B3B3B3"/>
<path d="M305.47 24.6042C306.365 23.2914 307.116 22.0819 307.996 20.9608C312.6 15.0752 317.349 9.3077 321.838 3.31889C324.724 -0.531062 327.914 -1.41611 330.787 2.64035C335.622 9.4257 340.082 16.4913 344.397 23.6307C346.259 26.7136 345.855 29.6637 341.323 28.8672C331.422 27.1119 321.491 29.0295 311.604 28.2329C309.05 28.0264 306.567 27.7462 305.47 24.6042Z" fill="#B3B3B3"/>
</g>
<defs>
<clipPath id="clip0_1176_5792">
<rect width="600" height="29" fill="white"/>
</clipPath>
</defs>
</svg>
