<svg width="22" height="12" viewBox="0 0 22 12" fill="none" xmlns="http://www.w3.org/2000/svg">
<path d="M1.99999 12C1.58332 12 1.28332 11.8167 1.09999 11.45C0.916655 11.0833 0.949989 10.7333 1.19999 10.4L5.19999 5.07499C5.39999 4.80832 5.66666 4.67499 5.99999 4.67499C6.33332 4.67499 6.59999 4.80832 6.79999 5.07499L9.89999 9.19999C10.0667 9.43332 10.2833 9.56665 10.55 9.59999C10.8167 9.63332 11.0667 9.56665 11.3 9.39999C11.5167 9.23332 11.646 9.02499 11.688 8.77499C11.7293 8.52499 11.6833 8.28332 11.55 8.04999L9.24999 4.99999L12.2 1.07499C12.4 0.808321 12.6667 0.674988 13 0.674988C13.3333 0.674988 13.6 0.808321 13.8 1.07499L20.8 10.4C21.05 10.7333 21.0833 11.0833 20.9 11.45C20.7167 11.8167 20.4167 12 20 12H1.99999Z" fill="#1E1E1E" fill-opacity="0.7"/>
</svg>
