<svg width="24" height="24" viewBox="0 0 24 24" fill="none" xmlns="http://www.w3.org/2000/svg">
<g clip-path="url(#clip0_380_529)">
<path fill-rule="evenodd" clip-rule="evenodd" d="M4 6.99997V4.98197C4 4.00197 4.554 3.10497 5.431 2.66597L5.715 2.52397C6.73509 2.01389 7.86738 1.76939 9.00705 1.81308C10.1467 1.85678 11.257 2.18728 12.235 2.77397C12.8261 3.12879 13.4869 3.35156 14.1722 3.42699C14.8574 3.50242 15.5509 3.42873 16.205 3.21097L19.494 2.11497C19.6877 2.05052 19.8956 2.04126 20.0943 2.08822C20.293 2.13519 20.4747 2.23653 20.6191 2.38091C20.7634 2.52528 20.8648 2.70699 20.9117 2.90569C20.9587 3.10439 20.9495 3.31224 20.885 3.50597L19.065 8.96897L20.889 13.53C20.9447 13.6691 20.9713 13.8182 20.9673 13.968C20.9633 14.1178 20.9287 14.2652 20.8657 14.4011C20.8027 14.5371 20.7126 14.6588 20.6008 14.7586C20.4891 14.8585 20.3581 14.9345 20.216 14.982L16.838 16.108C15.9102 16.4173 14.9265 16.5222 13.9544 16.4155C12.9822 16.3088 12.0446 15.9931 11.206 15.49C10.5165 15.0762 9.73374 14.843 8.93019 14.8121C8.12665 14.7811 7.32828 14.9534 6.609 15.313L6 15.618V21C6 21.2652 5.89464 21.5195 5.70711 21.7071C5.51957 21.8946 5.26522 22 5 22C4.73478 22 4.48043 21.8946 4.29289 21.7071C4.10536 21.5195 4 21.2652 4 21V6.99997Z" fill="black"/>
</g>
<defs>
<clipPath id="clip0_380_529">
<rect width="24" height="24" fill="white"/>
</clipPath>
</defs>
</svg>
