<svg width="50" height="51" viewBox="0 0 50 51" fill="none" xmlns="http://www.w3.org/2000/svg">
<rect y="0.333374" width="50" height="50" rx="13.4" fill="#1E1E1E" fill-opacity="0.9"/>
<path d="M32.938 26.3334C32.7154 28.0958 31.9129 29.734 30.6568 30.9901C29.4007 32.2462 27.7624 33.0488 26 33.2714V35.3334H24V33.2714C22.2376 33.0488 20.5993 32.2462 19.3432 30.9901C18.0871 29.734 17.2846 28.0958 17.062 26.3334H15V24.3334H17.062C17.2846 22.571 18.0871 20.9327 19.3432 19.6766C20.5993 18.4205 22.2376 17.618 24 17.3954V15.3334H26V17.3954C27.7624 17.618 29.4007 18.4205 30.6568 19.6766C31.9129 20.9327 32.7154 22.571 32.938 24.3334H35V26.3334H32.938ZM25 31.3334C26.5913 31.3334 28.1174 30.7012 29.2426 29.576C30.3679 28.4508 31 26.9247 31 25.3334C31 23.7421 30.3679 22.216 29.2426 21.0907C28.1174 19.9655 26.5913 19.3334 25 19.3334C23.4087 19.3334 21.8826 19.9655 20.7574 21.0907C19.6321 22.216 19 23.7421 19 25.3334C19 26.9247 19.6321 28.4508 20.7574 29.576C21.8826 30.7012 23.4087 31.3334 25 31.3334ZM25 28.3334C25.7956 28.3334 26.5587 28.0173 27.1213 27.4547C27.6839 26.8921 28 26.129 28 25.3334C28 24.5377 27.6839 23.7747 27.1213 23.2121C26.5587 22.6494 25.7956 22.3334 25 22.3334C24.2044 22.3334 23.4413 22.6494 22.8787 23.2121C22.3161 23.7747 22 24.5377 22 25.3334C22 26.129 22.3161 26.8921 22.8787 27.4547C23.4413 28.0173 24.2044 28.3334 25 28.3334Z" fill="white"/>
</svg>
