<svg width="25" height="24" viewBox="0 0 25 24" fill="none" xmlns="http://www.w3.org/2000/svg">
<path d="M8.02381 9.33333H14.881V7.80952C14.881 7.1746 14.6587 6.63492 14.2143 6.19048C13.7698 5.74603 13.2302 5.52381 12.5952 5.52381C11.9603 5.52381 11.4206 5.74603 10.9762 6.19048C10.5317 6.63492 10.3095 7.1746 10.3095 7.80952H8.78571C8.78571 6.75556 9.15727 5.85702 9.90038 5.1139C10.643 4.3713 11.5413 4 12.5952 4C13.6492 4 14.5477 4.3713 15.2909 5.1139C16.0335 5.85702 16.4048 6.75556 16.4048 7.80952V9.33333H17.1667C17.5857 9.33333 17.9446 9.48241 18.2432 9.78057C18.5414 10.0792 18.6905 10.4381 18.6905 10.8571V18.4762C18.6905 18.8952 18.5414 19.2541 18.2432 19.5528C17.9446 19.8509 17.5857 20 17.1667 20H8.02381C7.60476 20 7.24616 19.8509 6.948 19.5528C6.64933 19.2541 6.5 18.8952 6.5 18.4762V10.8571C6.5 10.4381 6.64933 10.0792 6.948 9.78057C7.24616 9.48241 7.60476 9.33333 8.02381 9.33333ZM12.5952 16.1905C13.0143 16.1905 13.3731 16.0414 13.6718 15.7432C13.97 15.4446 14.119 15.0857 14.119 14.6667C14.119 14.2476 13.97 13.8888 13.6718 13.5901C13.3731 13.2919 13.0143 13.1429 12.5952 13.1429C12.1762 13.1429 11.8176 13.2919 11.5194 13.5901C11.2208 13.8888 11.0714 14.2476 11.0714 14.6667C11.0714 15.0857 11.2208 15.4446 11.5194 15.7432C11.8176 16.0414 12.1762 16.1905 12.5952 16.1905Z" fill="#808080"/>
</svg>
