<svg width="241" height="61" viewBox="0 0 241 61" fill="none" xmlns="http://www.w3.org/2000/svg">
<g clip-path="url(#clip0_1176_2443)">
<path d="M147.74 11.585L143.978 15.3721L147.765 19.1844L151.527 15.3973L147.74 11.585Z" fill="#2D3E7A"/>
<path d="M175.095 4.01951L172.079 7.05593L175.115 10.1128L178.132 7.07639L175.095 4.01951Z" fill="#A93349"/>
<path d="M143.995 8.26003H139.958V22.5258H143.995V8.26003Z" fill="#1A1A1A"/>
<path d="M155.599 8.26003H151.562V22.5258H155.599V8.26003Z" fill="#1A1A1A"/>
<path d="M205.583 13.0187L200.717 9.1175L193.812 17.8471L202.722 24.9893L206.455 20.2681L202.413 17.0271L205.583 13.0187Z" fill="#2D3E7A"/>
<path d="M19.2466 12.7227C22.7366 12.7227 25.5658 9.87459 25.5658 6.36133C25.5658 2.84806 22.7366 0 19.2466 0C15.7567 0 12.9275 2.84806 12.9275 6.36133C12.9275 9.87459 15.7567 12.7227 19.2466 12.7227Z" fill="#2D3E7A"/>
<path d="M12.6247 30.107L6.90217 24.3462L2.62123 28.6557C-0.801152 32.101 -0.801152 37.6865 2.62123 41.1334L6.90217 45.4429L12.569 39.7383L7.81311 34.9507L12.6247 30.107Z" fill="#A93349"/>
<path d="M14.3926 41.5723L8.72412 47.277L19.2025 57.8253L29.6809 47.277L23.9584 41.5162L19.1484 46.3599L14.3926 41.5723Z" fill="#A93349"/>
<path d="M23.9043 28.3274L29.5711 22.6228L25.6451 18.6706C22.0266 15.028 16.1604 15.028 12.542 18.6706L8.61597 22.6228L14.3385 28.3835L19.1501 23.5398L23.9043 28.3274Z" fill="#A93349"/>
<path d="M36 56H3V60H36V56Z" fill="#A93349"/>
<path d="M6.90221 24.3462L12.6248 30.107L2.26636 29.0351L6.90221 24.3462Z" fill="#A93349"/>
<path d="M7.81315 34.949L12.6248 30.107L2.26636 29.0351L7.81315 34.949Z" fill="#2D3E7A"/>
<path d="M2.26647 29.0351L7.81327 34.949L0.235014 36.6793C0.235014 36.6793 -1.01901 32.9789 2.26647 29.0351Z" fill="#A93349"/>
<path d="M0.235032 36.6793C0.00687298 39.4627 6.90234 45.4429 6.90234 45.4429L7.81329 34.9507L0.235032 36.6793Z" fill="#2D3E7A"/>
<path d="M7.81329 34.949L12.5691 39.7383L6.90234 45.4429L7.81329 34.949Z" fill="#A93349"/>
<path d="M24.9268 29.976L30.6493 24.2152L34.9303 28.5247C38.3526 31.97 38.3526 37.5555 34.9303 41.0024L30.6493 45.3119L24.9825 39.6073L29.7384 34.8197L24.9268 29.976Z" fill="#A93349"/>
<path d="M30.6493 24.2152L24.9268 29.976L35.2852 28.9041L30.6493 24.2152Z" fill="#2D3E7A"/>
<path d="M29.7367 34.818L24.9268 29.976L35.2852 28.9041L29.7367 34.818Z" fill="#A93349"/>
<path d="M35.2853 28.9041L29.7385 34.818L37.3168 36.5466C37.3151 36.5483 38.5708 32.8462 35.2853 28.9041Z" fill="#2D3E7A"/>
<path d="M37.3151 36.5483C37.5432 39.3317 30.6478 45.3119 30.6478 45.3119L29.7368 34.8197L37.3151 36.5483Z" fill="#A93349"/>
<path d="M29.7368 34.818L24.981 39.6056L30.6494 45.3102L29.7368 34.818Z" fill="#2D3E7A"/>
<path d="M56.7069 20.2868C56.0258 22.2604 54.9087 24.5096 53.9555 25.9081C53.4653 25.4963 52.431 24.7835 51.8311 24.4279C52.7572 23.14 53.6563 21.2753 54.2276 19.5757L56.7069 20.2868ZM60.5197 18.6978V27.8H57.388V18.6978H52.3229V15.9552H57.388V13.8438H52.1589V11.1574H54.8005C54.6636 10.3357 54.3374 9.15664 54.0112 8.30597L56.2438 7.75813H52.5679V5.09893H57.2257C56.9807 4.35885 56.6815 3.59154 56.4094 2.93312L59.651 2.13859C60.06 3.04371 60.5501 4.16659 60.8763 5.09893H64.7702V7.75813H61.3664L63.5719 8.19708C63.1629 9.2383 62.7556 10.3084 62.3466 11.1574H65.1792V13.8438H60.5214V15.9552H64.7432V18.6978H60.5197ZM56.597 7.75813C57.006 8.66325 57.3593 9.84228 57.4962 10.6096L55.5357 11.1574H59.4583C59.8673 10.1706 60.3574 8.77213 60.6295 7.75813H56.597ZM77.324 14.4206H74.7906V27.8816H71.6319V14.4206H69.0985V14.749C69.0985 18.7794 68.7452 24.4262 66.4298 27.9361C65.8856 27.361 64.6046 26.3181 63.9235 25.9897C64.4406 25.1952 64.8496 24.2901 65.1488 23.3305L63.2153 24.5368C62.7793 23.4394 61.8531 21.6853 61.0909 20.4246L63.2153 19.2728C63.9505 20.3702 64.7956 21.8231 65.2586 22.8644C66.0209 20.2324 66.1037 17.2721 66.1037 14.749V4.98834C69.0714 4.44051 72.367 3.58984 74.3563 2.6575L76.8356 5.04279C74.603 5.9479 71.7705 6.60632 69.1001 7.09971V11.4041H77.3257V14.4206H77.324Z" fill="#1A1A1A"/>
<path d="M104.639 10.9379H101.098V24.0706C101.098 25.8519 100.772 26.7843 99.6549 27.3066C98.5648 27.8544 96.8764 27.9089 94.7249 27.9089C94.6168 26.9493 94.1267 25.4691 93.6906 24.4823C95.1069 24.564 96.6871 24.564 97.1502 24.564C97.6133 24.5368 97.7772 24.4262 97.7772 24.0162V10.9379H94.7537C93.9915 12.692 93.1194 14.2828 92.1932 15.5163C91.622 14.9684 90.2057 14.0089 89.4418 13.5427C90.0418 12.8026 90.613 11.9247 91.1572 10.9379H87.8616V27.9633H84.593V10.9379H84.3209C83.5317 12.7193 82.6866 14.3645 81.7605 15.6268C81.1064 15.0518 79.609 14.0922 78.791 13.6261C80.9154 11.0213 82.5768 6.68969 83.4759 2.41251L86.8797 3.09815C86.5264 4.66168 86.0904 6.22352 85.5716 7.70369H91.7538V9.65003C92.7611 7.45699 93.552 4.9339 94.0692 2.41251L97.3108 3.07093C96.9288 4.63446 96.5215 6.22352 96.0026 7.70369H104.635V10.9379H104.639Z" fill="#1A1A1A"/>
<path d="M110.657 20.5607C110.113 22.6721 109.187 25.0302 108.315 26.5376C107.798 26.1531 106.681 25.5236 106.082 25.2207C106.927 23.8767 107.69 21.8487 108.153 19.984L110.657 20.5607ZM126.29 18.3949V25.6597C126.29 26.7843 126.072 27.2232 125.31 27.5516C124.602 27.8527 123.595 27.8799 122.233 27.8799C122.124 27.2215 121.797 26.427 121.497 25.8791C122.233 25.9064 122.995 25.9064 123.213 25.9064C123.485 25.8791 123.566 25.8247 123.566 25.578V18.5872C120.679 18.7794 119.944 18.8883 119.454 19.1078C119.317 18.6144 118.964 17.3537 118.638 16.6408V19.1912H114.171V27.6622H111.447V19.1912H106.517V16.6136H107.607V3.31592H117.712V16.6136H118.638V16.5864C119.4 16.4486 120.162 15.9552 121.252 15.1335C121.824 14.749 122.995 13.8166 124.357 12.5559C120.843 12.7754 120.081 12.9404 119.564 13.131C119.456 12.6104 119.074 11.4041 118.802 10.7729C119.319 10.6912 119.836 10.4156 120.49 9.97839C121.171 9.56666 123.269 8.03205 124.793 6.30518C122.914 7.01805 120.98 7.5931 119.182 8.08649C119.018 7.42807 118.584 6.35963 118.202 5.75565C121.333 4.85053 124.793 3.42481 126.89 2.05523L128.961 4.44051C127.735 5.12615 126.373 5.72843 124.93 6.25074L127.191 7.42977C126.13 8.44377 124.959 9.37611 123.814 10.1996L126.892 10.0907C127.519 9.40503 128.144 8.69217 128.717 7.97931L130.896 9.57006C128.717 11.9553 126.265 14.2317 123.787 16.0675L128.036 15.9025C127.654 15.1896 127.274 14.4495 126.892 13.8455L129.071 12.7771C130.105 14.4223 131.413 16.7259 132.011 18.0955L129.696 19.3562C129.559 19.0278 129.424 18.6433 129.233 18.2316L126.29 18.3949ZM110.221 5.64676V6.9619H114.987V5.64676H110.221ZM114.987 8.93716H110.221V10.254H114.987V8.93716ZM110.221 13.3777H114.987V12.2259H110.221V13.3777ZM110.221 16.6136H114.987V15.3529H110.221V16.6136ZM116.73 19.8496C117.438 21.0558 118.173 22.6738 118.472 23.7695L116.267 24.7835C115.995 23.6861 115.313 21.9865 114.632 20.7258L116.73 19.8496ZM123.049 20.2052C122.287 22.3982 121.088 24.9757 119.753 26.6754C119.209 26.2092 118.229 25.5508 117.602 25.2497C118.827 23.715 119.89 21.357 120.38 19.5195L123.049 20.2052ZM128.986 19.3001C129.966 21.0814 131.165 23.4956 131.737 24.9213L129.231 26.1275C128.714 24.6474 127.57 22.1243 126.644 20.2885L128.986 19.3001Z" fill="#1A1A1A"/>
<path d="M65.0946 41.7255C64.5234 43.0423 63.9775 44.468 63.4333 45.6181H66.6191V48.5785H52.24V45.6181H55.7266C55.4545 44.4936 54.9373 42.9317 54.3644 41.7799L56.5699 41.2321H52.9211V38.299H58.069C57.851 37.5044 57.5248 36.6538 57.197 35.9137L60.1647 35.063C60.6548 36.077 61.1449 37.3105 61.4728 38.2973H66.0749V41.2304H62.8891L65.0946 41.7255ZM53.4923 50.5537H65.5847V60.7261H62.399V59.6287H56.5699V60.8622H53.4923V50.5537ZM56.5699 53.4596V56.8045H62.399V53.4596H56.5699ZM57.224 41.2321C57.878 42.4656 58.4493 44.0835 58.7214 45.152L57.0871 45.6181H60.3286C60.8999 44.3302 61.4999 42.5744 61.8531 41.2321H57.224ZM77.378 37.86C76.4519 40.492 75.3347 43.6446 74.3004 46.0027C76.4789 48.4696 76.8879 50.6354 76.8879 52.4184C76.8879 54.392 76.4519 55.736 75.4446 56.4489C74.9545 56.8045 74.3545 56.9967 73.6464 57.1073C73.0481 57.189 72.2571 57.2162 71.549 57.1618C71.4949 56.3111 71.2498 55.0232 70.7597 54.1453C71.3597 54.1997 71.9039 54.1997 72.2842 54.1997C72.6644 54.1997 72.9923 54.1181 73.2914 53.9258C73.7545 53.6519 73.9185 52.9662 73.9185 52.0339C73.9185 50.5537 73.3472 48.5802 71.2769 46.3855C72.0391 44.3847 72.8841 41.5877 73.5095 39.5035H70.4589V60.7788H67.6263V36.5721H74.6536L75.1167 36.4632L77.378 37.86Z" fill="#1A1A1A"/>
<path d="M83.7498 51.5694C82.7425 50.8021 80.6451 49.4581 79.1477 48.553L81.0541 46.3599C82.4704 47.1545 84.6218 48.3607 85.7119 49.1297L83.7498 51.5694ZM79.6378 58.3408C81.1352 56.8879 83.2867 54.4481 85.1119 52.1445L86.9913 54.5026C85.4669 56.6139 83.6686 58.8614 81.9532 60.8639L79.6378 58.3408ZM85.2472 39.6702H79.8271V36.8188H85.2472V35.3114H88.4059V36.8188H91.2114V39.6702H88.4059V41.4805H85.2472V39.6702ZM82.7154 40.9854C84.1047 41.7799 86.2832 42.9589 87.4003 43.6446L85.4939 46.0843C84.4325 45.3987 82.2794 44.0835 80.8631 43.2056L82.7154 40.9854ZM103.059 43.8096C101.915 45.5637 100.336 47.0728 98.4837 48.3879C100.498 49.128 102.76 49.6758 105.048 50.0331C104.394 50.6916 103.551 51.8978 103.169 52.7196C102.76 52.6379 102.324 52.5545 101.916 52.4456V60.8622H98.7305V59.7648H91.4852V60.8622H88.4346V52.8284C88.0814 52.9373 87.6994 53.0207 87.3445 53.1024C87.0454 52.3351 86.3372 51.1016 85.7643 50.4976C88.0797 50.0587 90.5033 49.3186 92.6818 48.3862C91.9466 47.8656 91.2384 47.2889 90.5844 46.6594C89.7951 47.4539 88.923 48.2229 87.9969 48.9358C87.4797 48.3318 86.4724 47.4012 85.7643 46.9894C88.46 45.1792 90.5573 42.7667 91.7826 40.8204L94.8873 41.4516C94.6152 41.8633 94.3161 42.2733 94.0152 42.685H100.47L100.987 42.5472L103.059 43.8096ZM101.424 52.3095C99.3812 51.7617 97.3937 51.0488 95.5954 50.1165C93.88 51.0216 92.0547 51.7073 90.2024 52.3095H101.424ZM98.7288 57.2707V54.7765H91.4835V57.2707H98.7288ZM92.5736 45.0431C93.3358 45.756 94.316 46.4144 95.4332 47.0167C96.4675 46.4144 97.4207 45.756 98.2116 45.0431H92.5736ZM95.298 39.643H92.6023V36.7916H95.298V35.3114H98.4567V36.7916H103.958V39.643H98.4567V41.4805H95.298V39.643Z" fill="#1A1A1A"/>
<path d="M126.072 49.2386C125.445 51.2394 124.602 52.939 123.539 54.3375C126.453 55.571 129.15 56.8606 131.056 58.0669L128.66 60.9456C126.808 59.6849 124.058 58.2591 121.007 56.8606C118.202 59.0264 114.362 60.2327 109.214 60.9728C108.915 60.0949 107.879 58.5058 107.199 57.6824C111.502 57.2979 114.771 56.5578 117.194 55.2427C114.852 54.2559 112.428 53.378 110.277 52.6923C110.985 51.7056 111.747 50.5265 112.483 49.2386H107.172V46.1677H114.117C114.852 44.7147 115.452 43.2618 115.915 41.9177L119.701 42.6306C119.265 43.7552 118.748 44.9614 118.176 46.1677H122.969C123.106 45.4004 123.187 44.5497 123.269 43.6735L127.191 43.9202V41.261H110.987V44.3319H107.691V38.2445H117.36C117.061 37.45 116.706 36.5993 116.407 35.8592L120.056 35.0086C120.519 35.9953 121.09 37.2288 121.472 38.2428H130.651V44.3302H127.22C127.112 44.9614 127.002 45.5637 126.894 46.1677H131.17V49.2386H126.072ZM116.622 49.2386C116.213 49.9515 115.832 50.6099 115.423 51.2666C116.948 51.76 118.501 52.3351 120.108 52.939C120.98 51.925 121.661 50.6916 122.178 49.2386H116.622Z" fill="#1A1A1A"/>
<path d="M147.967 57.2996H158.043V60.2055H134.867V57.2996H144.59V53.982H137.536V51.1577H144.59V48.0324H138.871V45.6743C137.7 46.4688 136.529 47.1545 135.412 47.7312C134.949 46.9367 134.159 45.8121 133.424 45.0992C136.448 43.8658 139.824 41.5894 142.385 39.1496H138.763V36.1332H148.077C150.419 39.5869 154.776 43.0423 159.407 44.742C158.726 45.4548 157.719 46.7989 157.229 47.7312C156.057 47.1834 154.913 46.525 153.798 45.7849V48.0324H147.969V51.1577H155.104V53.982H147.969V57.2996H147.967ZM152.87 45.1537C150.364 43.3724 148.104 41.261 146.333 39.1496C144.535 41.261 142.111 43.3996 139.633 45.1537H152.87Z" fill="#1A1A1A"/>
<path d="M171.145 37.6133C170.41 40.0258 169.456 43.0695 168.638 45.2353C170.381 47.4012 170.709 49.293 170.709 50.8838C170.709 52.694 170.327 53.8169 169.429 54.4753C169.02 54.8037 168.476 54.996 167.849 55.0776C167.332 55.1593 166.651 55.1593 166.024 55.1593C165.997 54.3086 165.752 53.0479 165.289 52.2262C165.779 52.2806 166.188 52.2806 166.487 52.2534C166.786 52.2534 167.058 52.1989 167.303 52.0339C167.629 51.7872 167.766 51.2394 167.766 50.4432C167.766 49.1825 167.384 47.4267 165.806 45.5637C166.406 43.8096 167.004 41.2865 167.44 39.3674H165.044V60.8894H162.02V36.4615H168.474L168.937 36.3237L171.145 37.6133ZM177.244 42.685C177.19 43.8096 177.163 44.8781 177.08 45.9482H184.571C184.571 45.9482 184.544 46.9078 184.544 47.3195C184.271 55.2971 183.999 58.4514 183.181 59.4926C182.554 60.3144 181.929 60.59 181.03 60.7261C180.241 60.8639 178.905 60.8639 177.516 60.8077C177.462 59.8482 177.08 58.5041 176.536 57.5718C177.761 57.7096 178.851 57.7368 179.396 57.7368C179.832 57.7368 180.104 57.6262 180.322 57.3251C180.812 56.7773 181.084 54.5281 181.248 48.9085H176.808C176.127 54.0619 174.439 58.1485 169.673 60.8077C169.264 60.0132 168.337 58.8886 167.602 58.2847C173.458 55.1865 173.866 49.7847 174.03 42.685H170.543V39.6685H177.161C176.943 38.6273 176.48 37.0638 176.071 35.8575L179.041 35.1447C179.531 36.3509 180.104 38.0233 180.32 39.0101L178.087 39.6685H186.041V42.685H177.244Z" fill="#1A1A1A"/>
<path d="M192.414 47.9218C191.515 47.0439 189.582 45.8938 188.057 45.2081L189.828 42.7956C191.38 43.3979 193.342 44.4136 194.322 45.2898L192.414 47.9218ZM194.348 51.2938C193.421 54.3103 192.25 57.5718 191.133 60.3144L188.192 58.6964C189.227 56.5033 190.699 52.8846 191.733 49.5942L194.348 51.2938ZM193.721 40.6842C192.821 39.7791 190.888 38.5457 189.308 37.8328L191.133 35.4203C192.658 36.0787 194.674 37.1744 195.654 38.0523L193.721 40.6842ZM213.085 44.468C212.269 48.0324 211.098 51.1849 209.545 53.8714C209.981 55.7905 210.444 56.9423 210.934 56.9695C211.316 56.9967 211.588 55.5982 211.723 53.0768C212.24 53.708 213.493 54.5026 214.011 54.7493C213.33 59.7393 211.997 60.8077 210.88 60.8077C209.382 60.7805 208.238 59.4365 207.393 56.9967C206.222 58.4225 204.887 59.6559 203.416 60.6972C202.98 60.1493 201.919 59.1064 201.292 58.613C203.389 57.3251 205.105 55.6527 206.494 53.5957C205.896 50.552 205.514 46.6594 205.296 42.1627H198.133V46.9333C198.133 51.0454 197.751 57.0223 195.465 60.8605C194.948 60.3399 193.722 59.5164 193.041 59.2153C195.111 55.6782 195.302 50.6337 195.302 46.9333V39.284H205.161C205.107 38.0778 205.079 36.8443 205.052 35.5836H208.022C208.022 36.8443 208.049 38.0778 208.103 39.284H211.181C210.391 38.5167 209.22 37.6116 208.157 36.9804L209.9 35.3352C211.125 36.0209 212.678 37.1165 213.386 37.9672L212.051 39.284H213.168V42.1627H208.238C208.375 44.713 208.564 47.0694 208.809 49.1263C209.436 47.5356 209.927 45.8087 210.307 43.944L213.085 44.468ZM201.02 55.2971V56.7773H198.896V47.6206H205.051V55.2971H201.02ZM204.833 46.086H199.032V43.7007H204.833V46.086ZM201.02 49.9787V52.9118H202.899V49.9787H201.02Z" fill="#1A1A1A"/>
<path d="M229.616 45.7832C229.562 46.5777 229.508 47.3467 229.425 48.0868C230.569 54.1742 233.347 57.2162 241 57.9291C240.319 58.6419 239.503 60.0677 239.121 61C233.02 60.1493 229.888 57.9563 228.063 53.8986C226.565 57.1618 223.569 59.5471 217.25 60.9166C216.923 60.0115 216.132 58.6692 215.424 57.9291C225.093 56.0644 225.61 52.1717 225.992 45.7832H229.616ZM220.981 46.0571C220.136 44.5497 218.502 42.3839 216.651 40.4359C218.095 38.7362 219.621 36.6521 220.437 35.2536L223.76 36.1042C222.698 37.695 221.527 39.0935 220.41 40.3814C221.88 41.8888 223.379 43.6174 224.169 44.8781L220.981 46.0571ZM220.273 46.7427C221.226 48.6074 222.479 51.1288 223.025 52.6923L219.783 54.1453C219.293 52.5818 218.149 49.9498 217.223 47.9762L220.273 46.7427ZM228.609 45.6471C227.736 44.1941 225.967 42.1372 224.061 40.2453C225.558 38.6001 227.192 36.6265 228.037 35.2553L231.414 36.1332C230.297 37.6405 229.045 38.9846 227.873 40.2181C229.427 41.6166 230.978 43.289 231.796 44.468L228.609 45.6471ZM236.452 46.1132C235.472 44.5786 233.511 42.4128 231.304 40.4648C233.02 38.7651 234.764 36.6538 235.771 35.2553L239.121 36.2148C237.922 37.7494 236.506 39.1479 235.281 40.4103C236.942 41.8633 238.685 43.5901 239.638 44.8525L236.452 46.1132ZM232.666 52.8301C233.784 51.2394 235.09 48.8813 235.798 47.0456L239.312 47.9235C238.14 50.0621 236.697 52.2279 235.607 53.708L232.666 52.8301Z" fill="#1A1A1A"/>
<path d="M168.026 17.1479H163.99V21.7415H168.026V17.1479Z" fill="#1A1A1A"/>
<path d="M176.977 11.7597H172.941V23.2438H176.977V11.7597Z" fill="#1A1A1A"/>
<path d="M188.912 11.7597H187.596H184.525H180.487V15.8242V23.2438H184.525V15.8242H187.596V23.2438H191.632V11.7597H188.912Z" fill="#1A1A1A"/>
<path d="M231.559 12.8196V20.2409H228.487V12.8196H224.451V20.2409V24.3037H228.487H231.559H232.874H235.595V12.8196H231.559Z" fill="#1A1A1A"/>
<path d="M218.659 13.3504H217.343H214.272V6.72541H210.236V13.3504V17.4133V24.8345H214.272V17.4133H217.343V24.8345H221.38V13.3504H218.659Z" fill="#1A1A1A"/>
<path d="M168.028 12.2905V8.226H159.603V12.2905V13.7026V16.8841V17.7671H168.028V13.7026H163.639V12.2905H168.028Z" fill="#1A1A1A"/>
<path d="M168.026 19.0925H159.603V23.1553H168.026V19.0925Z" fill="#1A1A1A"/>
</g>
<defs>
<clipPath id="clip0_1176_2443">
<rect width="241" height="61" fill="white"/>
</clipPath>
</defs>
</svg>
