<svg id="圖層_1" data-name="圖層 1" xmlns="http://www.w3.org/2000/svg" width="241" height="61"  viewBox="0 0 238 62">
<defs>
<style>.cls-1{fill:#2d3e7a;}.cls-2{fill:#a93349;}</style>
</defs>
<rect class="cls-1" x="143.64" y="17" width="5.07" height="5.1" transform="translate(28.99 109.09) rotate(-45)"/>
<rect class="cls-2" x="170.2" y="9.63" width="4.06" height="4.09" transform="translate(42.19 125.21) rotate(-45)"/>
<rect x="138.75" y="12.81" width="3.85" height="13.5"/>
<rect x="149.8" y="12.81" width="3.85" height="13.5"/><polygon class="cls-1" points="201.26 17.31 196.63 13.62 190.05 21.88 198.54 28.64 202.09 24.17 198.24 21.1 201.26 17.31"/><circle class="cls-1" cx="23.76" cy="9.01" r="6.02"/><path class="cls-2" d="M17.46,31.48,12,26,7.93,30.11a8.34,8.34,0,0,0,0,11.8L12,46l5.4-5.4-4.53-4.53Z"/><polygon class="cls-2" points="19.14 42.33 13.74 47.73 23.72 57.71 33.7 47.73 28.25 42.28 23.67 46.86 19.14 42.33"/><path class="cls-2" d="M28.2,29.8l5.4-5.4-3.74-3.74a8.82,8.82,0,0,0-12.48,0L13.64,24.4l5.45,5.45,4.58-4.58Z"/><rect class="cls-2" x="7.99" y="57.82" width="31.7" height="1.86"/><polygon class="cls-2" points="12.01 26.03 17.46 31.48 7.59 30.47 12.01 26.03"/><polygon class="cls-1" points="12.88 36.06 17.46 31.48 7.59 30.47 12.88 36.06"/><path class="cls-2" d="M7.59,30.47l5.29,5.59L5.66,37.7S4.46,34.2,7.59,30.47Z"/><path class="cls-1" d="M5.66,37.7C5.44,40.33,12,46,12,46l.87-9.93Z"/><polygon class="cls-2" points="12.88 36.06 17.41 40.59 12.01 45.99 12.88 36.06"/><path class="cls-2" d="M29.18,31.36l5.45-5.45L38.7,30a8.34,8.34,0,0,1,0,11.81l-4.07,4.08-5.4-5.4,4.53-4.53Z"/><polygon class="cls-1" points="34.63 25.91 29.18 31.36 39.04 30.34 34.63 25.91"/><polygon class="cls-2" points="33.76 35.94 29.18 31.36 39.04 30.34 33.76 35.94"/><path class="cls-1" d="M39,30.34l-5.28,5.6L41,37.58S42.17,34.07,39,30.34Z"/><path class="cls-2" d="M41,37.58c.21,2.63-6.35,8.29-6.35,8.29l-.87-9.93Z"/><polygon class="cls-1" points="33.76 35.94 29.23 40.47 34.63 45.87 33.76 35.94"/><path d="M59.45,24.19a24.65,24.65,0,0,1-2.62,5.32,18.14,18.14,0,0,0-2-1.4,18.58,18.58,0,0,0,2.29-4.59Zm3.63-1.5V31.3h-3V22.69H55.27v-2.6H60.1v-2h-5V15.55h2.51a15.85,15.85,0,0,0-.75-2.7L59,12.33h-3.5V9.82h4.43c-.23-.7-.52-1.43-.78-2.05L62.25,7c.39.85.86,1.92,1.17,2.8h3.71v2.51H63.88l2.11.42c-.39,1-.78,2-1.17,2.8h2.7v2.54H63.08v2h4v2.6ZM59.34,12.33A13,13,0,0,1,60.2,15l-1.87.52h3.74a29.17,29.17,0,0,0,1.11-3.22Zm19.75,6.31H76.67V31.38h-3V18.64H71.25V19c0,3.81-.33,9.16-2.54,12.48a11.3,11.3,0,0,0-2.39-1.84,9.84,9.84,0,0,0,1.17-2.52l-1.84,1.14a32.46,32.46,0,0,0-2-3.89l2-1.09a25.42,25.42,0,0,1,1.94,3.4A27.91,27.91,0,0,0,68.4,19V9.71a36.92,36.92,0,0,0,7.86-2.2l2.36,2.26a41.08,41.08,0,0,1-7.37,1.94v4.07h7.84Z"/><path d="M105.11,15.34h-3.38V27.77c0,1.69-.31,2.57-1.37,3.06a11.58,11.58,0,0,1-4.7.57,13.17,13.17,0,0,0-1-3.24c1.35.08,2.85.08,3.29.08s.6-.13.6-.52V15.34H95.69a22.29,22.29,0,0,1-2.44,4.34,19.7,19.7,0,0,0-2.62-1.87,16.8,16.8,0,0,0,1.64-2.47H89.13V31.45H86V15.34h-.26a24.11,24.11,0,0,1-2.43,4.44,22.11,22.11,0,0,0-2.83-1.89c2-2.47,3.6-6.57,4.46-10.62l3.24.65A39,39,0,0,1,87,12.28h5.89v1.84A31.73,31.73,0,0,0,95,7.27l3.09.63a44.19,44.19,0,0,1-1.25,4.38h8.23Z"/><path d="M110.84,24.45a24.83,24.83,0,0,1-2.23,5.66,18.59,18.59,0,0,0-2.13-1.25,18,18,0,0,0,2-5Zm14.89-2.05v6.87c0,1.07-.21,1.48-.93,1.79a8.06,8.06,0,0,1-2.93.32,7,7,0,0,0-.7-1.9c.7,0,1.42,0,1.63,0s.34-.08.34-.31V22.58c-2.75.18-3.45.29-3.92.49a19.25,19.25,0,0,0-.78-2.33v2.41h-4.25v8h-2.6v-8H106.9V20.71h1V8.13h9.63V20.71h.88v0a6.39,6.39,0,0,0,2.49-1.38,27.34,27.34,0,0,0,3-2.44c-3.35.21-4.07.37-4.57.55a15.05,15.05,0,0,0-.72-2.23,4.37,4.37,0,0,0,1.61-.75A22.1,22.1,0,0,0,124.3,11c-1.79.67-3.63,1.22-5.34,1.69a9.27,9.27,0,0,0-.93-2.21,34.57,34.57,0,0,0,8.27-3.5l2,2.25a26,26,0,0,1-3.84,1.72L126.59,12a30.25,30.25,0,0,1-3.22,2.62l2.93-.1c.6-.65,1.2-1.32,1.74-2l2.08,1.51a48.18,48.18,0,0,1-6.78,6.14l4-.15c-.36-.68-.72-1.38-1.09-1.95l2.08-1a48.57,48.57,0,0,1,2.8,5L129,23.31c-.13-.31-.26-.68-.44-1.07ZM110.42,10.34v1.24H115V10.34ZM115,13.45h-4.54v1.24H115Zm-4.54,4.2H115V16.56h-4.54Zm0,3.06H115V19.52h-4.54Zm6.21,3.06a18.5,18.5,0,0,1,1.66,3.71l-2.11,1a19.18,19.18,0,0,0-1.55-3.84Zm6,.34a22.11,22.11,0,0,1-3.14,6.12,11.21,11.21,0,0,0-2-1.34,16.49,16.49,0,0,0,2.64-5.43Zm5.66-.85a58.46,58.46,0,0,1,2.62,5.31l-2.39,1.15a54.82,54.82,0,0,0-2.46-5.53Z"/><rect x="161.64" y="21.22" width="3.85" height="4.35"/><rect x="170.17" y="16.12" width="3.85" height="10.87"/><polygon points="185.38 16.12 184.13 16.12 181.2 16.12 177.36 16.12 177.36 19.97 177.36 26.99 181.2 26.99 181.2 19.97 184.13 19.97 184.13 26.99 187.97 26.99 187.97 16.12 185.38 16.12"/><polygon points="226.01 17.12 226.01 24.14 223.08 24.14 223.08 17.12 219.24 17.12 219.24 24.14 219.24 27.99 223.08 27.99 226.01 27.99 227.26 27.99 229.85 27.99 229.85 17.12 226.01 17.12"/><polygon points="213.72 17.63 212.47 17.63 209.54 17.63 209.54 11.36 205.69 11.36 205.69 17.63 205.69 21.47 205.69 28.49 209.54 28.49 209.54 21.47 212.47 21.47 212.47 28.49 216.31 28.49 216.31 17.63 213.72 17.63"/><polygon points="165.49 16.62 165.49 12.78 157.47 12.78 157.47 16.62 157.47 17.96 157.47 20.97 157.47 21.8 165.49 21.8 165.49 17.96 161.31 17.96 161.31 16.62 165.49 16.62"/><rect x="157.46" y="23.06" width="8.02" height="3.85"/><path d="M61.87,43.31c-.32.72-.62,1.45-.92,2.07h1.77v2.19H53.78V45.38h1.91a11.76,11.76,0,0,0-.74-2l1.26-.3h-2V40.9h3c-.15-.45-.3-.92-.47-1.32L58.93,39a17.74,17.74,0,0,1,.77,1.94h2.67v2.16H60.69Zm-7.43,5.28h7.72V55H59.75V54.3h-3V55H54.44Zm2.29,2.15v1.47h3V50.74Zm.41-7.68A12.37,12.37,0,0,1,58,45.15l-.87.23h1.57a16.22,16.22,0,0,0,.78-2.32Zm12.4-2.24c-.53,1.65-1.2,3.59-1.79,5a5.56,5.56,0,0,1,1.44,3.87,3,3,0,0,1-.94,2.63,2.57,2.57,0,0,1-1.17.43,6.51,6.51,0,0,1-1.21.05,5.69,5.69,0,0,0-.56-2.24,5.37,5.37,0,0,0,.76,0,1.07,1.07,0,0,0,.56-.15c.25-.15.35-.51.35-1.06a4.85,4.85,0,0,0-1.45-3.29c.39-1.12.85-2.77,1.19-4H65.3V54.89H63.17v-15h4.35l.33-.09Z"/><path d="M74.76,49.51c-.62-.5-1.92-1.36-2.81-1.92L73.35,46c.86.48,2.21,1.25,2.88,1.74Zm-2.54,3.62a39.71,39.71,0,0,0,3.39-3.54L77,51.36c-1,1.22-2,2.47-3.09,3.66Zm3.37-11.07H72.42V39.93h3.17v-.8H78v.8H79.5v2.13H78V43H75.59Zm-1.25.56c.84.45,2.21,1.17,2.91,1.61l-1.44,1.82c-.63-.45-2-1.25-2.86-1.79ZM87,44.56a10.26,10.26,0,0,1-2.64,2.66,26.21,26.21,0,0,0,3.79.75,8.93,8.93,0,0,0-1.4,2l-.59-.12V55H83.76v-.65h-4V55H77.48V50.16l-.42.1a8.3,8.3,0,0,0-1.17-1.92,22.63,22.63,0,0,0,4-1.1,10.22,10.22,0,0,1-.88-.72c-.45.43-.92.85-1.42,1.25a7.67,7.67,0,0,0-1.67-1.45,14,14,0,0,0,3.67-3.66l2.31.48c-.13.2-.29.39-.42.59h3.59l.37-.1Zm-1.89,5a19.41,19.41,0,0,1-3-1.07,23.54,23.54,0,0,1-2.69,1.07ZM83.76,52.5V51.41h-4V52.5ZM81.81,42H80.32V39.93h1.49v-.8h2.37v.8h3.23V42H84.18V43H81.81Zm-1.17,3.44a7.45,7.45,0,0,0,1.34.82,10,10,0,0,0,1.28-.82Z"/><path d="M96.67,46.45C95.9,50,94.26,52.63,92.26,54a9.83,9.83,0,0,0-2-1.82,8.34,8.34,0,0,0,3.3-4.06H90.74V45.85h3.87l.42-.09Zm9.15-.9a46.5,46.5,0,0,1-3.87,3,10.1,10.1,0,0,0,4.44,3.34,9.55,9.55,0,0,0-1.7,2.17,11.23,11.23,0,0,1-5-4.54v2.72c0,1.24-.25,1.89-1,2.29a8.06,8.06,0,0,1-3.31.42,8.47,8.47,0,0,0-.82-2.44c.76.05,1.84.05,2.14.05s.4-.1.4-.37V44.81h-4V42.49h5.17a34.72,34.72,0,0,0-4-1.3l1.22-2a29.78,29.78,0,0,1,6.17,2l-1.32,2.26a4.46,4.46,0,0,0-.66-.35v1a15.73,15.73,0,0,0,1,2.59,19.76,19.76,0,0,0,2.82-2.82Z"/><path d="M113.3,49.86c0-.2,0-.44-.1-.7-2.78.4-3.38.56-3.76.76a17.93,17.93,0,0,0-.67-1.92c.43-.11.77-.5,1.27-1.13a11.72,11.72,0,0,0,.85-1.22,5.23,5.23,0,0,0-1.59.33,17.41,17.41,0,0,0-.65-1.85c.32-.1.59-.42.89-.92a18.59,18.59,0,0,0,1.7-4.11l2,.77a24,24,0,0,1-1.89,3.84l.75-.05c.37-.72.73-1.5,1-2.26l1.81,1.11a25.06,25.06,0,0,1-2.19,3.71l1.42-.39a23.51,23.51,0,0,1,.84,3.49Zm-2.18.75a18,18,0,0,1-.68,4.31,10.48,10.48,0,0,0-1.74-.6,14.59,14.59,0,0,0,.62-4Zm1.62-.3a32.4,32.4,0,0,1,.34,3.86l-1.67.3a36.17,36.17,0,0,0-.24-3.88Zm.1-3c-.08-.33-.16-.65-.25-1-.25.37-.51.72-.78,1.07Zm1.41,2.47a26,26,0,0,1,.77,3l-1.52.52a23.62,23.62,0,0,0-.71-3Zm7.62,2.64c1,.32,2,.67,2.7.92L123.64,55c-.9-.39-2.39-1-3.69-1.41l.61-1.17h-2.25l1.08,1.14c-1.35.55-3.07,1.14-4.34,1.54a11.58,11.58,0,0,0-.82-1.66,25.07,25.07,0,0,0,2.88-1h-2V47.37h8.61v5.09Zm-3.6-11.21h-3.81v-1.5h3.81v-.62h2.38v.62h3.61v1.5h-3.61v.39h3.17V43H115v-1.4h3.25Zm-3.77,2.13h9.81V47H114.5Zm2,2.18h.81V44.8h-.81Zm.82,3.36h4.23v-.37h-4.23Zm0,1.19h4.23v-.39h-4.23Zm0,1.18h4.23v-.4h-4.23Zm2.48-5.73V44.8H119v.76Zm2.48-.76h-.73v.76h.73Z"/><path d="M132.66,45a22.78,22.78,0,0,1-1.22,6.18c1.48,1.13,3.43,1.37,5.7,1.38,1.12,0,4.51,0,5.85-.05a7.93,7.93,0,0,0-.85,2.21h-5.06c-2.7,0-4.9-.32-6.6-1.6A6.84,6.84,0,0,1,128.74,55,8.68,8.68,0,0,0,127,53.43a6.07,6.07,0,0,0,1.9-2,12.08,12.08,0,0,1-1.47-3.28l1.76-.58a8.62,8.62,0,0,0,.65,1.64,17.78,17.78,0,0,0,.49-2.38h-2.7c.67-1.28,1.48-3,2.16-4.76h-2.22V40H133c-.62,1.52-1.36,3.26-2,4.77l.33,0Zm3.13-2.84h-2.66V40.35h2.66v-1.2h2.27v1.2h3.71v2.26h.79v1.83h-.79v2.24h-3.71v.52h3.79v1.72h-3.79v.54h4.28v1.88h-4.28v.82h-2.27v-.82h-3.44V49.46h3.44v-.54H133V47.2h2.81v-.52h-2.72v-1.8h2.72v-.44h-3.46V42.61h3.46Zm2.27,0v.45h1.59v-.45Zm1.59,2.28h-1.59v.44h1.59Z"/><path d="M152.28,43.76h-6.65V41.87h2.56a20.38,20.38,0,0,0-.94-1.94l1.88-.88a15.9,15.9,0,0,1,1.2,2.29l-1,.53h2.95Zm-.68.52a2.81,2.81,0,0,0,1.67-2.86V39.63h6v3.54c0,.49,0,.71.22.71H160a2.74,2.74,0,0,0,.87-.14c0,.6.09,1.44.15,2a2.2,2.2,0,0,1-1,.15h-.75c-1.84,0-2.19-.83-2.19-2.74V41.87h-1.55a4.79,4.79,0,0,1-2.66,4.36,10.32,10.32,0,0,0-1.22-1.45v1.29h-5.25V44.26h5.25Zm.05,4.09h-5.3v-1.8h5.3Zm9.16-1.52a10.94,10.94,0,0,1-2.49,4.88,13.09,13.09,0,0,0,3.17,1A10.52,10.52,0,0,0,160,54.9a12.09,12.09,0,0,1-3.72-1.5A13.51,13.51,0,0,1,152.5,55a10,10,0,0,0-.88-1.77v.94h-3.2v.67h-2V48.92h5.23v3.81a12,12,0,0,0,2.69-.92,12.63,12.63,0,0,1-2-2.77l1.33-.47H152V46.32h6.91l.42-.09Zm-11.27,4h-1.12V52.2h1.12Zm5-2.26a7.27,7.27,0,0,0,1.72,1.92,7,7,0,0,0,1.49-1.92Z"/><path d="M179.79,52.55v2H163.92v-2h2v-3H178v3ZM167.21,41.74h-3V39.85h3v-.72h2.35v.72h1.88v1.89h-1.88v.63h-2.35Zm7.38,3.81a10.15,10.15,0,0,1-.87,1.3h5.22v2h-5.43V47.1a7.86,7.86,0,0,1-.64.65,17.19,17.19,0,0,0-1-1.52V47.3h-1.51v.47h2v1.37H165V42.59h7.26V44h-2v.43h1.51v1.17a7.5,7.5,0,0,0,1.75-3.27l2.14.52c-.07.25-.15.48-.23.73h3.89v2ZM167,44v.43h1.39V44Zm3,1.64h-3v.5h3Zm-1.59,1.7H167v.47h1.39Zm-.22,5.25h1.14V51.26h-1.14Zm3.15-1.29v1.29h1.17V51.26Zm2.85-9.54h-2.09V39.83h2.09v-.7h2.36v.7h2.94v1.89H176.5v.65h-2.36Zm.32,9.54v1.29h1.15V51.26Z"/><path d="M197.54,39.63V55h-2.36v-.53h-10V55H183V39.63ZM195.18,52.5V41.6h-10V52.5Zm-.37-7.44v1.26h-9.19V45.06h3.48v-.35h-2.31V42h6.75v2.72h-2.42v.35Zm-8.6,1.62h7.94v5.45h-7.94ZM188,50.86h4.18V47.94H188Zm.45-2.56h3.33v2.19h-3.33Zm.22-4.74h2.82v-.42H188.7Zm1,6h.77v-.32h-.77Z"/><path d="M216.29,49.64h-6.43V55h-2.54V49.64h-6.39V47.18h6.39V42.52h-5.48v-2.4H215.3v2.4h-5.44v4.66h6.43ZM205,42.91a13.34,13.34,0,0,1,1.22,3.21l-2.37.73a15.25,15.25,0,0,0-1.07-3.29Zm6,3.26a18.89,18.89,0,0,0,1.25-3.3l2.61.66a34.16,34.16,0,0,1-1.73,3.25Z"/><path d="M232.42,46.92a11.07,11.07,0,0,0-.79-1.19c-8.52.37-9.84.4-10.84.74a22.48,22.48,0,0,0-.8-2.33,3.11,3.11,0,0,0,1.42-.93,21.09,21.09,0,0,0,3.37-4.48l2.46,1.05a27.76,27.76,0,0,1-3.31,3.93l5.93-.15c-.57-.65-1.14-1.27-1.67-1.82l1.89-1.27a35.85,35.85,0,0,1,4.39,4.94Zm-11.28.5H232.8V55h-2.62v-.82h-6.55V55h-2.49Zm2.49,2.32v2.09h6.55V49.74Z"/>
</svg>