<svg width="446" height="113" viewBox="0 0 446 113" fill="none" xmlns="http://www.w3.org/2000/svg">
<g clip-path="url(#clip0_1176_5716)">
<path d="M273.411 21.4606L266.449 28.4761L273.458 35.5383L280.42 28.5229L273.411 21.4606Z" fill="#2D3E7A"/>
<path d="M324.035 7.44601L318.453 13.0709L324.072 18.7336L329.654 13.1087L324.035 7.44601Z" fill="#A93349"/>
<path d="M266.481 15.3014H259.009V41.7281H266.481V15.3014Z" fill="#1A1A1A"/>
<path d="M287.955 15.3014H280.483V41.7281H287.955V15.3014Z" fill="#1A1A1A"/>
<path d="M380.456 24.1166L371.452 16.8898L358.672 33.0611L375.161 46.2918L382.07 37.5459L374.589 31.5419L380.456 24.1166Z" fill="#2D3E7A"/>
<path d="M35.618 23.5682C42.0766 23.5682 47.3123 18.2923 47.3123 11.7841C47.3123 5.27592 42.0766 0 35.618 0C29.1593 0 23.9236 5.27592 23.9236 11.7841C23.9236 18.2923 29.1593 23.5682 35.618 23.5682Z" fill="#2D3E7A"/>
<path d="M23.3637 55.772L12.7734 45.1004L4.85098 53.0836C-1.48255 59.4657 -1.48255 69.8127 4.85098 76.1979L12.7734 84.1811L23.2605 73.6136L14.4592 64.7448L23.3637 55.772Z" fill="#A93349"/>
<path d="M26.6352 77.011L16.145 87.5786L35.5366 107.119L54.9282 87.5786L44.3379 76.907L35.4365 85.8798L26.6352 77.011Z" fill="#A93349"/>
<path d="M44.2378 52.4753L54.7249 41.9078L47.4593 34.5864C40.7629 27.8387 29.9068 27.8387 23.2104 34.5864L15.9448 41.9078L26.5351 52.5793L35.4396 43.6065L44.2378 52.4753Z" fill="#A93349"/>
<path d="M66.6221 103.738H5.55151V111.147H66.6221V103.738Z" fill="#A93349"/>
<path d="M12.7733 45.1004L23.3636 55.772L4.19409 53.7864L12.7733 45.1004Z" fill="#A93349"/>
<path d="M14.4591 64.7416L23.3636 55.7719L4.19409 53.7864L14.4591 64.7416Z" fill="#2D3E7A"/>
<path d="M4.19414 53.7864L14.4592 64.7416L0.434678 67.9468C0.434678 67.9468 -1.88606 61.0919 4.19414 53.7864Z" fill="#A93349"/>
<path d="M0.434568 67.9468C0.0123323 73.103 12.7732 84.1811 12.7732 84.1811L14.4591 64.7448L0.434568 67.9468Z" fill="#2D3E7A"/>
<path d="M14.4593 64.7416L23.2605 73.6136L12.7734 84.1811L14.4593 64.7416Z" fill="#A93349"/>
<path d="M46.1299 55.5293L56.7202 44.8577L64.6426 52.8409C70.9761 59.223 70.9761 69.57 64.6426 75.9553L56.7202 83.9384L46.2331 73.3709L55.0344 64.5021L46.1299 55.5293Z" fill="#A93349"/>
<path d="M56.7202 44.8577L46.1299 55.5293L65.2994 53.5437L56.7202 44.8577Z" fill="#2D3E7A"/>
<path d="M55.0312 64.499L46.1299 55.5293L65.2994 53.5438L55.0312 64.499Z" fill="#A93349"/>
<path d="M65.2994 53.5438L55.0344 64.499L69.0589 67.7011C69.0558 67.7042 71.3796 60.8462 65.2994 53.5438Z" fill="#2D3E7A"/>
<path d="M69.0557 67.7042C69.478 72.8603 56.7171 83.9384 56.7171 83.9384L55.0312 64.5021L69.0557 67.7042Z" fill="#A93349"/>
<path d="M55.0313 64.4989L46.23 73.3677L56.7202 83.9353L55.0313 64.4989Z" fill="#2D3E7A"/>
<path d="M104.943 37.5805C103.682 41.2365 101.615 45.403 99.8509 47.9937C98.9439 47.231 97.0298 45.9104 95.9194 45.2517C97.6334 42.8659 99.2973 39.4117 100.354 36.2631L104.943 37.5805ZM111.999 34.6369V51.4983H106.203V34.6369H96.8296V29.5564H106.203V25.6452H96.5262V20.6687H101.415C101.161 19.1464 100.558 16.9623 99.9541 15.3865L104.086 14.3716H97.2831V9.44558H105.903C105.449 8.0746 104.896 6.6532 104.392 5.4335L110.391 3.96167C111.148 5.63836 112.055 7.71846 112.659 9.44558H119.865V14.3716H113.566L117.647 15.1848C116.89 17.1136 116.137 19.096 115.38 20.6687H120.622V25.6452H112.002V29.5564H119.815V34.6369H111.999ZM104.739 14.3716C105.496 16.0483 106.15 18.2324 106.403 19.6538L102.775 20.6687H110.035C110.792 18.8407 111.699 16.25 112.202 14.3716H104.739ZM143.097 26.7136H138.409V51.6496H132.563V26.7136H127.875V27.3219C127.875 34.7882 127.221 45.2486 122.936 51.7505C121.929 50.6852 119.558 48.7532 118.298 48.1449C119.255 46.6731 120.012 44.9964 120.566 43.2189L116.987 45.4534C116.181 43.4206 114.467 40.1712 113.056 37.8358L116.987 35.7021C118.348 37.735 119.912 40.4265 120.769 42.3553C122.179 37.4797 122.333 31.9958 122.333 27.3219V9.24072C127.825 8.22588 133.924 6.65005 137.605 4.92293L142.193 9.34157C138.062 11.0183 132.82 12.238 127.878 13.1519V21.1257H143.1V26.7136H143.097Z" fill="#1A1A1A"/>
<path d="M193.647 20.2621H187.094V44.5899C187.094 47.8897 186.491 49.6168 184.423 50.5844C182.406 51.5992 179.281 51.7001 175.3 51.7001C175.1 49.9225 174.193 47.1806 173.386 45.3526C176.007 45.5039 178.931 45.5039 179.788 45.5039C180.645 45.4534 180.948 45.2486 180.948 44.489V20.2621H175.353C173.942 23.5115 172.328 26.4583 170.614 28.7433C169.557 27.7284 166.936 25.9509 165.523 25.0873C166.633 23.7164 167.69 22.0901 168.697 20.2621H162.598V51.8009H156.549V20.2621H156.046C154.585 23.5619 153.021 26.6096 151.307 28.9481C150.097 27.8829 147.326 26.1053 145.812 25.2418C149.743 20.4166 152.818 12.3924 154.482 4.46912L160.781 5.73924C160.127 8.63562 159.32 11.5289 158.36 14.2708H169.801V17.8763C171.665 13.8138 173.129 9.13989 174.086 4.46912L180.085 5.68881C179.378 8.5852 178.624 11.5289 177.664 14.2708H193.64V20.2621H193.647Z" fill="#1A1A1A"/>
<path d="M204.784 38.088C203.777 41.9992 202.063 46.3674 200.45 49.1598C199.492 48.4475 197.425 47.2814 196.318 46.7204C197.882 44.2306 199.292 40.4738 200.149 37.0196L204.784 38.088ZM233.715 34.0759V47.5335C233.715 49.6168 233.312 50.4299 231.901 51.0382C230.591 51.596 228.727 51.6465 226.206 51.6465C226.006 50.4268 225.399 48.9549 224.845 47.9401C226.206 47.9905 227.616 47.9905 228.02 47.9905C228.524 47.9401 228.674 47.8392 228.674 47.3822V34.432C223.332 34.7882 221.971 34.9899 221.064 35.3964C220.811 34.4825 220.157 32.1471 219.553 30.8265V35.5509H211.287V51.243H206.245V35.5509H197.122V30.7761H199.139V6.14264H217.839V30.7761H219.553V30.7257C220.964 30.4704 222.375 29.5564 224.392 28.0341C225.449 27.3219 227.617 25.5947 230.137 23.2594C223.635 23.6659 222.224 23.9716 221.267 24.3246C221.067 23.3602 220.36 21.1257 219.857 19.9564C220.814 19.8051 221.771 19.2946 222.981 18.4846C224.242 17.7219 228.123 14.8791 230.944 11.6801C227.466 13.0007 223.888 14.0659 220.56 14.9799C220.257 13.7602 219.453 11.781 218.746 10.6621C224.542 8.98545 230.944 6.34435 234.826 3.80725L238.657 8.22589C236.39 9.49602 233.869 10.6117 231.198 11.5793L235.383 13.7634C233.418 15.6418 231.251 17.3689 229.133 18.8943L234.829 18.6926C235.989 17.4225 237.147 16.1019 238.207 14.7814L242.238 17.7282C238.207 22.1468 233.669 26.3638 229.083 29.7644L236.946 29.4587C236.24 28.1381 235.536 26.7672 234.829 25.6483L238.86 23.6691C240.775 26.7167 243.195 30.9841 244.303 33.5212L240.018 35.8566C239.764 35.2483 239.514 34.536 239.161 33.7733L233.715 34.0759ZM203.978 10.4604V12.8967H212.798V10.4604H203.978ZM212.798 16.5558H203.978V18.9952H212.798V16.5558ZM203.978 24.7816H212.798V22.6479H203.978V24.7816ZM203.978 30.7761H212.798V28.4407H203.978V30.7761ZM216.022 36.7706C217.333 39.0051 218.693 42.0023 219.247 44.032L215.165 45.9104C214.662 43.8776 213.401 40.7291 212.141 38.3937L216.022 36.7706ZM227.717 37.4293C226.306 41.4918 224.088 46.2666 221.618 49.4151C220.611 48.5515 218.796 47.3318 217.636 46.774C219.904 43.9312 221.871 39.563 222.778 36.1591L227.717 37.4293ZM238.704 35.7526C240.518 39.0524 242.736 43.5246 243.796 46.1657L239.158 48.4002C238.201 45.6583 236.083 40.9844 234.369 37.5837L238.704 35.7526Z" fill="#1A1A1A"/>
<path d="M120.465 77.2948C119.408 79.7342 118.398 82.3753 117.391 84.5058H123.287V89.9897H96.6763V84.5058H103.129C102.625 82.4225 101.668 79.5293 100.608 77.3956L104.689 76.3808H97.9367V70.9473H107.464C107.06 69.4755 106.457 67.8996 105.85 66.5287L111.342 64.9528C112.249 66.8312 113.156 69.1162 113.763 70.9441H122.279V76.3776H116.384L120.465 77.2948ZM98.9939 93.6488H121.372V112.493H115.477V110.46H104.689V112.745H98.9939V93.6488ZM104.689 99.0318V105.228H115.477V99.0318H104.689ZM105.9 76.3808C107.11 78.6657 108.167 81.663 108.671 83.6422L105.646 84.5058H111.645C112.702 82.12 113.813 78.8674 114.466 76.3808H105.9ZM143.197 70.1342C141.483 75.0098 139.416 80.8499 137.502 85.2181C141.533 89.788 142.29 93.8001 142.29 97.103C142.29 100.759 141.483 103.249 139.619 104.569C138.712 105.228 137.602 105.584 136.291 105.789C135.184 105.94 133.72 105.991 132.41 105.89C132.31 104.314 131.856 101.928 130.949 100.302C132.06 100.403 133.067 100.403 133.77 100.403C134.474 100.403 135.081 100.252 135.635 99.8954C136.492 99.388 136.795 98.1178 136.795 96.3907C136.795 93.6488 135.738 89.9928 131.906 85.9272C133.317 82.2208 134.881 77.0395 136.038 73.1787H130.393V112.59H125.151V67.7484H138.155L139.012 67.5466L143.197 70.1342Z" fill="#1A1A1A"/>
<path d="M154.989 95.5303C153.124 94.1089 149.243 91.6191 146.472 89.9424L150 85.8799C152.621 87.3517 156.602 89.5863 158.62 91.0108L154.989 95.5303ZM147.379 108.074C150.15 105.382 154.132 100.863 157.509 96.5956L160.987 100.964C158.166 104.875 154.838 109.038 151.664 112.748L147.379 108.074ZM157.76 73.4875H147.729V68.2053H157.76V65.413H163.605V68.2053H168.797V73.4875H163.605V76.8409H157.76V73.4875ZM153.074 75.9238C155.645 77.3956 159.677 79.5797 161.744 80.8498L158.216 85.3693C156.252 84.0992 152.268 81.663 149.647 80.0367L153.074 75.9238ZM190.722 81.1556C188.605 84.4049 185.684 87.2005 182.256 89.6367C185.984 91.0077 190.169 92.0225 194.404 92.6844C193.193 93.9041 191.632 96.1386 190.926 97.6609C190.169 97.5096 189.362 97.3551 188.608 97.1534V112.745H182.712V110.712H169.304V112.745H163.658V97.8626C163.005 98.0643 162.298 98.2187 161.641 98.37C161.088 96.9486 159.777 94.6636 158.717 93.5448C163.002 92.7316 167.487 91.3607 171.518 89.6336C170.158 88.6691 168.847 87.6007 167.637 86.4346C166.176 87.9064 164.562 89.331 162.848 90.6515C161.891 89.5327 160.027 87.8087 158.717 87.046C163.705 83.6927 167.587 79.2236 169.854 75.6181L175.6 76.7873C175.096 77.55 174.543 78.3096 173.986 79.0723H185.931L186.888 78.817L190.722 81.1556ZM187.698 96.9013C183.916 95.8865 180.238 94.5659 176.91 92.8388C173.736 94.5155 170.358 95.7856 166.93 96.9013H187.698ZM182.709 106.092V101.471H169.301V106.092H182.709ZM171.318 83.4405C172.729 84.7611 174.543 85.9808 176.61 87.0965C178.524 85.9808 180.288 84.7611 181.752 83.4405H171.318ZM176.36 73.4371H171.371V68.1549H176.36V65.413H182.206V68.1549H192.386V73.4371H182.206V76.8409H176.36V73.4371Z" fill="#1A1A1A"/>
<path d="M233.312 91.2125C232.152 94.9189 230.591 98.0674 228.624 100.658C234.016 102.943 239.007 105.332 242.535 107.567L238.1 112.899C234.673 110.564 229.584 107.923 223.938 105.332C218.746 109.344 211.64 111.579 202.113 112.95C201.56 111.323 199.643 108.38 198.385 106.854C206.348 106.142 212.397 104.771 216.882 102.335C212.547 100.507 208.062 98.8805 204.081 97.6104C205.391 95.7824 206.802 93.5983 208.162 91.2125H198.335V85.5237H211.187C212.547 82.8322 213.658 80.1407 214.515 77.6509L221.521 78.9714C220.714 81.0547 219.757 83.2892 218.699 85.5237H227.57C227.823 84.1023 227.973 82.5265 228.123 80.9034L235.383 81.3604V76.4343H205.394V82.1231H199.295V70.8464H217.189C216.635 69.3746 215.978 67.7987 215.425 66.4278L222.177 64.8519C223.034 66.6799 224.092 68.9649 224.798 70.8433H241.785V82.1199H235.436C235.235 83.2892 235.032 84.4049 234.832 85.5237H242.745V91.2125H233.312ZM215.822 91.2125C215.065 92.5331 214.361 93.7527 213.605 94.9693C216.426 95.8833 219.3 96.9485 222.274 98.0674C223.888 96.189 225.149 93.904 226.106 91.2125H215.822Z" fill="#1A1A1A"/>
<path d="M273.831 106.145H292.478V111.528H249.588V106.145H267.582V99.9994H254.527V94.7676H267.582V88.978H256.998V84.6098C254.83 86.0816 252.663 87.3518 250.595 88.4202C249.738 86.9483 248.278 84.8651 246.917 83.5445C252.513 81.2596 258.762 77.0426 263.5 72.5232H256.798V66.9352H274.034C278.369 73.3331 286.432 79.7342 295.002 82.8827C293.742 84.2032 291.878 86.6931 290.971 88.4202C288.803 87.4053 286.686 86.1856 284.621 84.8147V88.978H273.834V94.7676H287.039V99.9994H273.834V106.145H273.831ZM282.904 83.6454C278.266 80.3456 274.084 76.4344 270.806 72.5232C267.479 76.4344 262.993 80.396 258.408 83.6454H282.904Z" fill="#1A1A1A"/>
<path d="M316.724 69.6772C315.363 74.1463 313.599 79.7846 312.085 83.7967C315.31 87.8088 315.917 91.3134 315.917 94.2602C315.917 97.6136 315.21 99.6937 313.549 100.913C312.792 101.522 311.785 101.878 310.625 102.029C309.668 102.18 308.407 102.18 307.247 102.18C307.197 100.605 306.743 98.2691 305.886 96.7469C306.793 96.8477 307.55 96.8477 308.104 96.7973C308.657 96.7973 309.161 96.6965 309.615 96.3908C310.218 95.9338 310.471 94.9189 310.471 93.4439C310.471 91.1086 309.765 87.856 306.843 84.405C307.954 81.1556 309.061 76.4817 309.868 72.9266H305.433V112.795H299.837V67.5435H311.782L312.639 67.2882L316.724 69.6772ZM328.011 79.0723C327.911 81.1556 327.861 83.1348 327.708 85.1172H341.57C341.57 85.1172 341.52 86.8948 341.52 87.6575C341.016 102.436 340.513 108.279 338.999 110.208C337.839 111.73 336.681 112.241 335.017 112.493C333.557 112.748 331.086 112.748 328.515 112.644C328.415 110.866 327.708 108.377 326.701 106.649C328.969 106.905 330.986 106.955 331.993 106.955C332.8 106.955 333.304 106.75 333.707 106.192C334.614 105.178 335.118 101.011 335.421 90.6011H327.205C325.944 100.148 322.82 107.718 314 112.644C313.243 111.172 311.529 109.089 310.168 107.97C321.006 102.231 321.759 92.2242 322.063 79.0723H315.61V73.4844H327.858C327.455 71.5556 326.598 68.6592 325.841 66.4247L331.336 65.1041C332.243 67.3387 333.304 70.4367 333.704 72.2647L329.572 73.4844H344.291V79.0723H328.011Z" fill="#1A1A1A"/>
<path d="M356.086 88.7732C354.422 87.1469 350.844 85.0164 348.022 83.7462L351.3 79.2772C354.171 80.3929 357.803 82.2744 359.617 83.8975L356.086 88.7732ZM359.664 95.0198C357.95 100.608 355.782 106.649 353.715 111.73L348.273 108.733C350.187 104.67 352.911 97.9666 354.825 91.8712L359.664 95.0198ZM358.503 75.3659C356.839 73.6893 353.261 71.4043 350.337 70.0837L353.715 65.6147C356.536 66.8344 360.267 68.864 362.081 70.4903L358.503 75.3659ZM394.34 82.3753C392.83 88.978 390.662 94.8181 387.788 99.7945C388.595 103.35 389.452 105.483 390.359 105.534C391.066 105.584 391.569 102.993 391.819 98.3227C392.776 99.492 395.094 100.964 396.054 101.421C394.794 110.665 392.326 112.644 390.259 112.644C387.487 112.593 385.37 110.104 383.806 105.584C381.639 108.225 379.168 110.51 376.447 112.439C375.64 111.424 373.676 109.492 372.515 108.578C376.397 106.192 379.571 103.094 382.142 99.284C381.035 93.6456 380.328 86.4346 379.925 78.1047H366.67V86.942C366.67 94.5596 365.963 105.631 361.731 112.742C360.774 111.777 358.506 110.252 357.246 109.694C361.077 103.142 361.431 93.7969 361.431 86.942V72.7721H379.675C379.574 70.5376 379.524 68.2526 379.474 65.9172H384.97C384.97 68.2526 385.02 70.5376 385.12 72.7721H390.815C389.355 71.3507 387.187 69.674 385.22 68.5048L388.445 65.4571C390.712 66.7272 393.586 68.7569 394.897 70.3327L392.426 72.7721H394.493V78.1047H385.37C385.623 82.8291 385.974 87.1942 386.427 91.0045C387.588 88.0577 388.495 84.8588 389.198 81.4045L394.34 82.3753ZM372.012 102.436V105.178H368.08V88.2153H379.471V102.436H372.012ZM379.068 85.3725H368.334V80.9539H379.068V85.3725ZM372.012 92.5835V98.017H375.49V92.5835H372.012Z" fill="#1A1A1A"/>
<path d="M424.932 84.8115C424.832 86.2833 424.732 87.7079 424.579 89.0788C426.696 100.356 431.838 105.991 446 107.311C444.74 108.632 443.229 111.273 442.522 113C431.231 111.424 425.436 107.362 422.058 99.8449C419.287 105.89 413.741 110.308 402.047 112.846C401.443 111.169 399.979 108.682 398.669 107.311C416.562 103.857 417.519 96.646 418.226 84.8115H424.932ZM408.953 85.3189C407.389 82.5265 404.364 78.5144 400.94 74.9058C403.611 71.7573 406.435 67.8965 407.946 65.3058L414.095 66.8816C412.13 69.8284 409.963 72.4191 407.896 74.8049C410.617 77.5973 413.391 80.7994 414.852 83.1348L408.953 85.3189ZM407.642 86.589C409.406 90.0432 411.724 94.714 412.734 97.6104L406.735 100.302C405.828 97.4056 403.711 92.5299 401.997 88.874L407.642 86.589ZM423.068 84.5593C421.454 81.8678 418.179 78.0574 414.651 74.5528C417.422 71.5051 420.447 67.8492 422.011 65.3089L428.26 66.9352C426.192 69.7276 423.875 72.2174 421.707 74.5024C424.582 77.093 427.453 80.1911 428.967 82.3752L423.068 84.5593ZM437.583 85.4229C435.769 82.5801 432.141 78.568 428.057 74.9594C431.231 71.8108 434.459 67.8996 436.323 65.3089L442.522 67.0865C440.305 69.9293 437.684 72.52 435.416 74.8585C438.49 77.55 441.715 80.749 443.479 83.0875L437.583 85.4229ZM430.577 97.8657C432.645 94.9189 435.063 90.5507 436.373 87.15L442.875 88.7763C440.708 92.7379 438.037 96.75 436.02 99.492L430.577 97.8657Z" fill="#1A1A1A"/>
<path d="M310.953 31.7657H303.484V40.2752H310.953V31.7657Z" fill="#1A1A1A"/>
<path d="M327.517 21.7844H320.049V43.0581H327.517V21.7844Z" fill="#1A1A1A"/>
<path d="M349.605 21.7844H347.169H341.486H334.014V29.3137V43.0581H341.486V29.3137H347.169V43.0581H354.638V21.7844H349.605Z" fill="#1A1A1A"/>
<path d="M428.529 23.7479V37.4955H422.843V23.7479H415.374V37.4955V45.0216H422.843H428.529H430.962H435.998V23.7479H428.529Z" fill="#1A1A1A"/>
<path d="M404.655 24.7312H402.219H396.536V12.4586H389.067V24.7312V32.2574V46.0049H396.536V32.2574H402.219V46.0049H409.691V24.7312H404.655Z" fill="#1A1A1A"/>
<path d="M310.956 22.7677V15.2383H295.365V22.7677V25.3836V31.2772V32.9129H310.956V25.3836H302.834V22.7677H310.956Z" fill="#1A1A1A"/>
<path d="M310.953 35.368H295.365V42.8942H310.953V35.368Z" fill="#1A1A1A"/>
</g>
<defs>
<clipPath id="clip0_1176_5716">
<rect width="446" height="113" fill="white"/>
</clipPath>
</defs>
</svg>
