<svg width="318" height="63" viewBox="0 0 318 63" fill="none" xmlns="http://www.w3.org/2000/svg">
<g filter="url(#filter0_d_391_1293)">
<rect x="4" y="4" width="310" height="55" rx="10" fill="white"/>
<path d="M77.06 24.26H74.04C73.78 23.6 73.38 22.76 73.04 22.08L71.2 22.56C71.44 23.06 71.7 23.7 71.92 24.26H68.26V25.8H77.06V24.26ZM69.66 34.54C69.24 35.82 68.56 37.18 67.82 38.12C68.2 38.32 68.8 38.76 69.1 39C69.82 37.98 70.62 36.38 71.12 34.98L69.66 34.54ZM77.1 33.68V32.1H73.7V30.28H77.38V28.72H75.04C75.38 27.98 75.72 27.06 76.06 26.18L74.34 25.82C74.14 26.66 73.72 27.88 73.36 28.72H70.2L71.68 28.3C71.58 27.64 71.26 26.62 70.94 25.84L69.42 26.22C69.76 27 70.04 28.04 70.12 28.72H67.94V30.28H71.9V32.1H68.06V33.68H71.9V40.46H73.7V33.68H77.1ZM74.4 35.06C75 36.02 75.68 37.32 76 38.16L77.3 37.38C76.98 36.58 76.3 35.32 75.64 34.38L74.4 35.06ZM86.16 28.86H79.96V25.36C82 25 84.16 24.52 85.8 23.88L84.34 22.52C82.9 23.14 80.44 23.76 78.22 24.14V31.06C78.22 33.68 78.08 37.06 76.5 39.38C76.88 39.58 77.64 40.14 77.92 40.48C79.7 37.94 79.96 33.94 79.96 31.06V30.58H82.3V40.48H84.12V30.58H86.16V28.86ZM108.18 26.16H101.56C101.96 25 102.3 23.8 102.6 22.6L100.72 22.22C100.3 24.14 99.72 26.04 98.96 27.66V26.16H93.96C94.36 25.02 94.72 23.82 95.02 22.62L93.06 22.22C92.36 25.38 91.14 28.54 89.54 30.52C90 30.76 90.86 31.34 91.24 31.66C91.96 30.66 92.62 29.4 93.24 28H93.84V40.58H95.72V28H98.8C98.34 28.94 97.84 29.76 97.26 30.46C97.72 30.72 98.54 31.28 98.86 31.6C99.58 30.62 100.26 29.38 100.84 28H103.46V38.22C103.46 38.52 103.36 38.62 103.02 38.64C102.68 38.64 101.52 38.64 100.36 38.6C100.64 39.16 100.92 40 101 40.56C102.56 40.56 103.72 40.52 104.42 40.2C105.14 39.9 105.36 39.34 105.36 38.24V28H108.18V26.16ZM126.72 22C125.28 23.06 122.76 24.1 120.5 24.82C120.72 25.18 120.98 25.78 121.08 26.14C123.44 25.48 126.1 24.54 127.96 23.38L126.72 22ZM113.3 34.84C112.92 36.18 112.32 37.68 111.68 38.68C112.04 38.84 112.7 39.22 113 39.44C113.64 38.36 114.34 36.7 114.78 35.2L113.3 34.84ZM114.3 31.38H118.26V32.58H114.3V31.38ZM118.26 24.28V25.52H114.3V24.28H118.26ZM114.3 29.08H118.26V30.18H114.3V29.08ZM118.26 27.9H114.3V26.72H118.26V27.9ZM120.66 34.06V32.58H119.84V22.9H112.78V32.58H111.92V34.06H115.62V40.42H117.18V34.06H120.66ZM117.8 35.26C118.34 36.22 118.92 37.5 119.16 38.32L120.46 37.72C120.2 36.9 119.6 35.66 119.04 34.72L117.8 35.26ZM122.1 34.4C121.72 35.78 120.98 37.56 120.1 38.74C120.46 38.92 121.06 39.3 121.38 39.54C122.32 38.28 123.14 36.38 123.7 34.8L122.1 34.4ZM128.48 33.36C128.64 33.7 128.76 34 128.86 34.28L130.2 33.58C129.8 32.54 128.86 30.86 128.04 29.64L126.78 30.24C127.12 30.76 127.46 31.38 127.8 32L123.9 32.2C125.8 30.76 127.7 29.02 129.4 27.12L128.12 26.22C127.68 26.74 127.2 27.26 126.74 27.76L123.98 27.9C124.92 27.26 125.86 26.46 126.72 25.64L125.34 24.94C124.24 26.22 122.64 27.38 122.14 27.7C121.68 28 121.3 28.2 120.94 28.26C121.12 28.64 121.32 29.36 121.38 29.68C121.74 29.54 122.28 29.44 125.26 29.22C124.14 30.3 123.12 31.14 122.64 31.48C121.88 32.06 121.3 32.46 120.8 32.52C120.98 32.94 121.2 33.7 121.28 34.02C121.64 33.88 122.12 33.8 124.44 33.62V39.1C124.44 39.28 124.4 39.34 124.2 39.34H122.9C123.06 39.68 123.26 40.14 123.34 40.54C124.28 40.54 124.94 40.52 125.42 40.32C125.9 40.14 126.02 39.84 126.02 39.14V33.54L128.48 33.36ZM126.6 34.84C127.34 36.2 128.22 38.08 128.62 39.18L130.08 38.48C129.66 37.44 128.72 35.62 127.98 34.24L126.6 34.84ZM141.78 34.84V37.94H136.84V34.84H141.78ZM135.08 40.48H136.84V39.56H141.78V40.34H143.62V33.16H135.08V40.48ZM144.02 24.5H140.48C140.26 23.8 139.86 22.86 139.48 22.1L137.8 22.58C138.06 23.16 138.34 23.88 138.54 24.5H134.58V26.16H144.02V24.5ZM141.38 26.16C141.1 27.26 140.56 28.78 140.06 29.84H137.1L138.56 29.42C138.36 28.54 137.88 27.22 137.32 26.22L135.72 26.64C136.2 27.64 136.68 28.96 136.86 29.84H134.04V31.52H144.48V29.84H141.84C142.28 28.88 142.78 27.68 143.22 26.58L141.38 26.16ZM150.74 23.14L150.46 23.22H145.38V40.5H147.02V24.9H149.78C149.3 26.44 148.56 28.52 147.9 30.12C149.56 31.82 150.04 33.24 150.04 34.42C150.04 35.1 149.92 35.66 149.54 35.9C149.34 36.02 149.06 36.08 148.76 36.1C148.42 36.1 147.94 36.1 147.42 36.04C147.7 36.54 147.86 37.32 147.88 37.8C148.46 37.82 149.06 37.82 149.54 37.76C150 37.7 150.44 37.56 150.78 37.32C151.46 36.84 151.74 35.88 151.74 34.6C151.74 33.28 151.36 31.72 149.66 29.9C150.46 28.1 151.34 25.82 152.04 23.96L150.74 23.14ZM167.7 26.66H169.5V25.1H173.74V23.48H169.5V22.22H167.7V23.48H165.52V25.1H167.7V26.66ZM160.42 26.64H162.24V25.14H164.52V23.48H162.24V22.22H160.42V23.48H156.28V25.14H160.42V26.64ZM157.14 27.64C158.18 28.3 159.74 29.24 160.5 29.74L161.6 28.34C160.8 27.86 159.24 26.98 158.2 26.4L157.14 27.64ZM160.34 32.2C159.54 31.66 157.98 30.8 156.92 30.26L155.84 31.5C156.94 32.14 158.46 33.06 159.2 33.62L160.34 32.2ZM157.56 40.52C158.8 39.08 160.16 37.26 161.3 35.68L160.18 34.32C158.92 36.08 157.3 37.96 156.22 39.08L157.56 40.52ZM170.2 28.92C169.54 29.6 168.7 30.26 167.76 30.8C166.74 30.24 165.84 29.6 165.18 28.92H170.2ZM170.44 36V38.28H164.58V36H170.44ZM171.76 27.42L171.44 27.5H166.28C166.52 27.14 166.76 26.8 167 26.44L165.18 26.08C164.3 27.54 162.76 29.36 160.74 30.72C161.16 30.96 161.74 31.46 162.06 31.84C162.82 31.26 163.52 30.64 164.14 30C164.74 30.58 165.42 31.14 166.18 31.64C164.46 32.44 162.58 33.06 160.8 33.4C161.14 33.78 161.54 34.46 161.74 34.92C162.1 34.82 162.46 34.74 162.82 34.62V40.56H164.58V39.74H170.44V40.56H172.26V34.54H163.1C164.7 34.08 166.32 33.42 167.78 32.62C169.52 33.56 171.46 34.28 173.38 34.72C173.62 34.24 174.1 33.54 174.48 33.18C172.76 32.88 170.98 32.32 169.42 31.64C170.86 30.66 172.08 29.5 172.92 28.16L171.76 27.42ZM180.7 26.18H193.24V28.64H195.22V24.44H188.44C188.14 23.74 187.66 22.8 187.28 22.06L185.24 22.56C185.5 23.12 185.82 23.84 186.08 24.44H178.82V28.64H180.7V26.18ZM189.58 31.92C189.14 33.24 188.54 34.32 187.7 35.2C186.38 34.68 185.02 34.2 183.72 33.76C184.08 33.2 184.44 32.58 184.82 31.92H189.58ZM195.7 31.92V30.16H192.28C192.4 29.62 192.5 29.04 192.6 28.44L190.34 28.26C190.26 28.94 190.16 29.58 190.04 30.16H185.78C186.28 29.18 186.74 28.18 187.1 27.24L184.98 26.86C184.6 27.9 184.08 29.04 183.48 30.16H178.36V31.92H182.48C181.9 32.92 181.28 33.84 180.74 34.6C182.42 35.14 184.28 35.8 186.1 36.54C184.26 37.72 181.76 38.38 178.46 38.76C178.86 39.24 179.44 40.14 179.62 40.62C183.38 40.04 186.18 39.1 188.22 37.46C190.58 38.5 192.7 39.62 194.1 40.58L195.5 38.94C194.04 38.02 191.94 36.98 189.68 36.02C190.6 34.9 191.28 33.56 191.8 31.92H195.7ZM208.98 24.52C210.4 26.3 212.32 28.08 214.38 29.46H203.52C205.54 28.04 207.54 26.26 208.98 24.52ZM209.92 35.44H215.36V33.82H209.92V31.1H214.5V29.54C215.34 30.1 216.22 30.6 217.08 31C217.36 30.48 217.96 29.7 218.34 29.32C215.1 28.04 211.76 25.44 209.98 22.78H203.6V24.52H206.78C204.84 26.54 202.1 28.52 199.72 29.56C200.14 29.96 200.62 30.6 200.88 31.08C201.72 30.64 202.6 30.1 203.48 29.48V31.1H207.96V33.82H202.58V35.44H207.96V38.38H200.62V40.06H217.5V38.38H209.92V35.44ZM227.72 23L227.46 23.08H222.66V40.6H224.4V24.74H226.8C226.42 26.12 225.86 28 225.34 29.4C226.7 30.9 227.04 32.2 227.04 33.24C227.04 33.84 226.92 34.32 226.64 34.52C226.48 34.64 226.26 34.7 226 34.72C225.72 34.72 225.36 34.72 224.92 34.68C225.2 35.14 225.34 35.88 225.36 36.36C225.82 36.38 226.36 36.38 226.76 36.32C227.18 36.26 227.56 36.14 227.86 35.92C228.48 35.5 228.72 34.66 228.72 33.46C228.72 32.24 228.42 30.82 227 29.2C227.66 27.58 228.4 25.44 229 23.74L227.72 23ZM240 27.22V25.48H234.06L235.6 25.06C235.42 24.32 234.98 23.12 234.62 22.2L232.92 22.62C233.24 23.52 233.64 24.74 233.78 25.48H228.6V27.22H231.5C231.36 32.48 231 36.82 226.66 39.14C227.1 39.46 227.64 40.1 227.88 40.54C231.36 38.6 232.58 35.46 233.04 31.66H236.98C236.8 36.3 236.58 38.1 236.22 38.54C236.02 38.74 235.84 38.82 235.5 38.8C235.1 38.8 234.16 38.8 233.18 38.7C233.5 39.22 233.72 39.98 233.74 40.54C234.76 40.58 235.8 40.6 236.38 40.5C237.02 40.44 237.44 40.26 237.84 39.76C238.42 39.02 238.64 36.78 238.86 30.78V29.98H233.2C233.26 29.1 233.3 28.16 233.34 27.22H240ZM249.04 24.32C248.34 23.66 246.9 22.86 245.76 22.38L244.7 23.7C245.86 24.26 247.26 25.16 247.94 25.8L249.04 24.32ZM248.1 29.54C247.38 28.9 245.94 28.16 244.8 27.7L243.76 29.06C244.92 29.56 246.34 30.42 247.02 31.04L248.1 29.54ZM246.7 32.62C245.9 34.98 244.78 37.64 243.98 39.24L245.66 40.2C246.54 38.26 247.48 35.78 248.2 33.58L246.7 32.62ZM254.74 32.48V35.12H252.8V32.48H254.74ZM256.04 36.5V31.08H251.52V37.66H252.8V36.5H256.04ZM256.02 28.3H251.5V29.7H256.02V28.3ZM260.1 28.5C259.76 30.14 259.28 31.64 258.66 33C258.42 31.26 258.24 29.18 258.1 26.92H261.92V25.28H260.98L261.96 24.32C261.4 23.66 260.28 22.82 259.34 22.28L258.34 23.22C259.24 23.8 260.3 24.64 260.84 25.28H258.02C257.98 24.34 257.96 23.38 257.94 22.42H256.24C256.26 23.4 256.3 24.36 256.34 25.28H249.1V30.68C249.1 33.38 248.92 37.04 247.26 39.62C247.64 39.8 248.38 40.3 248.66 40.58C250.46 37.82 250.74 33.62 250.74 30.68V26.92H256.4C256.58 30.24 256.86 33.16 257.32 35.42C256.26 36.98 254.96 38.26 253.34 39.22C253.68 39.5 254.34 40.12 254.58 40.44C255.82 39.6 256.9 38.6 257.84 37.44C258.46 39.4 259.3 40.52 260.46 40.54C261.22 40.56 262.06 39.74 262.48 36.36C262.2 36.22 261.44 35.76 261.16 35.4C261.04 37.32 260.8 38.36 260.46 38.36C259.96 38.34 259.5 37.3 259.12 35.58C260.26 33.66 261.12 31.4 261.72 28.78L260.1 28.5ZM283.24 29.18C282.54 28.28 281.24 26.94 279.98 25.88C280.92 24.94 282.02 23.84 282.88 22.78L280.98 22.22C280.26 23.2 278.92 24.7 277.68 25.92C279.26 27.3 280.74 28.86 281.46 29.94L283.24 29.18ZM280.18 35.46C281.04 34.4 282.12 32.8 283 31.32L281 30.78C280.4 32.08 279.36 33.82 278.52 34.92L280.18 35.46ZM277.4 28.88C276.8 28.04 275.6 26.76 274.48 25.74C275.36 24.82 276.36 23.76 277.16 22.72L275.26 22.22C274.58 23.16 273.38 24.6 272.26 25.76C273.66 27.08 274.98 28.58 275.62 29.6L277.4 28.88ZM271.78 29.14C271.2 28.26 270.04 26.92 268.94 25.84C269.78 24.9 270.76 23.8 271.5 22.72L269.62 22.22C269 23.18 267.84 24.66 266.76 25.88C268.1 27.26 269.36 28.8 269.98 29.86L271.78 29.14ZM267.44 31.32C268.16 32.74 269.08 34.62 269.48 35.74L271.32 34.9C270.86 33.82 269.88 31.98 269.12 30.62L267.44 31.32ZM273.82 29.78C273.48 34.54 272.88 37.54 265.88 38.9C266.28 39.3 266.74 40.1 266.92 40.58C271.84 39.52 273.98 37.6 274.98 34.88C276.28 38.2 278.58 39.98 283.22 40.66C283.44 40.12 283.92 39.3 284.3 38.9C278.62 38.3 276.56 35.92 275.76 31.12C275.8 30.68 275.84 30.24 275.88 29.78H273.82Z" fill="#4D4D4D"/>
<g clip-path="url(#clip0_391_1293)">
<path d="M38.9327 23.5244C38.9907 23.6117 39.0415 23.6698 39.0778 23.7353C39.5638 24.4623 40.0499 25.1821 40.5215 25.9164C40.623 26.0691 40.7246 26.1346 40.9132 26.1346C41.4283 26.12 41.9434 26.1273 42.4658 26.1346C42.5456 26.1346 42.6617 26.1854 42.7052 26.2509C44.6713 29.1955 46.6301 32.1473 48.5889 35.0992C48.6034 35.1137 48.6034 35.1355 48.5889 35.1937C46.2238 33.3906 43.866 31.5875 41.4864 29.7771C40.6231 30.4169 39.767 31.0495 38.9036 31.6893C37.6268 30.9113 36.3572 30.1406 35.0658 29.3554C36.3572 27.4069 37.6413 25.4802 38.9327 23.5244Z" fill="#247BA0"/>
<path d="M36.7853 23.7352C36.0671 23.9461 35.3489 24.1497 34.6306 24.3678C34.5726 24.3823 34.5146 24.4405 34.471 24.4914C34.1155 24.964 33.7601 25.4438 33.4046 25.9164C33.1869 25.8364 32.9765 25.7492 32.7589 25.6692C32.7081 25.6474 32.6355 25.6547 32.5848 25.6692C31.4022 26.0182 30.2197 26.3672 29.0371 26.7162C29.5232 26.0691 30.0093 25.4293 30.4881 24.7822C30.5244 24.7386 30.5461 24.6949 30.5897 24.6295C30.5534 24.6295 30.5389 24.6295 30.5244 24.6295C29.8061 24.8404 29.0879 25.0439 28.3697 25.2621C28.3116 25.2766 28.2536 25.3348 28.2101 25.3857C26.8751 27.1669 25.533 28.9482 24.1981 30.7368C24.1763 30.7659 24.1401 30.7877 24.1183 30.8168C24.1328 30.8313 24.1473 30.8386 24.1691 30.8531C24.8728 30.6496 25.5838 30.446 26.2875 30.2279C26.3818 30.1988 26.4834 30.1333 26.5487 30.0534C27.0928 29.3336 27.6369 28.6065 28.181 27.8795C28.3551 27.9449 28.522 28.0103 28.6961 28.0758C28.7759 28.1049 28.8848 28.1121 28.9718 28.0903C30.1761 27.734 31.3877 27.3778 32.592 27.0215C31.8883 27.9667 31.1773 28.9046 30.4736 29.8498C30.4518 29.8789 30.4155 29.9007 30.3938 29.9298C30.4083 29.9443 30.4228 29.9516 30.4446 29.9661C31.1483 29.7625 31.8593 29.559 32.563 29.3408C32.6573 29.3118 32.7589 29.2463 32.8242 29.1664C34.1446 27.4141 35.4577 25.6547 36.7708 23.9025C36.8071 23.8588 36.8289 23.8152 36.8724 23.7498C36.8144 23.7352 36.7999 23.7352 36.7853 23.7352Z" fill="#247BA0" stroke="#247BA0" stroke-width="1.11" stroke-miterlimit="10" stroke-linecap="round" stroke-linejoin="round"/>
<path d="M43.4816 33.9067C42.5965 33.2087 41.2906 33.0997 40.4853 33.8994C40.108 34.2702 39.5422 34.2921 39.1141 33.994L37.0537 32.5689C35.7914 31.6965 34.0647 32.06 33.2231 33.3832L32.8314 34.0012C32.8169 34.023 32.7951 34.023 32.7806 34.0085L32.4977 33.7831C31.6416 33.1142 30.5098 33.2378 29.6465 33.8994C29.2184 34.2266 28.6453 34.2412 28.2028 33.9358L25.8159 32.2854C24.7784 31.5656 23.371 31.8709 22.6818 32.9543L21.3541 35.0337C21.862 36.4805 22.5729 37.8183 23.4508 39.0179C26.0843 42.6096 30.2051 44.9289 34.8482 44.9289C39.3608 44.9289 43.3873 42.7405 46.028 39.3306C46.5794 38.6181 47.0655 37.8619 47.4863 37.0549L43.4816 33.9067Z" fill="#247BA0"/>
<path d="M42.1176 18.7622C42.6835 18.1951 43.2567 17.6208 43.8225 17.0536C43.9024 16.9737 43.9749 16.8864 44.062 16.7992C42.7271 15.8322 40.0355 14.7416 38.0476 14.3708C37.2278 14.2181 36.4008 14.1236 35.581 14C34.8627 14 34.1373 14 33.419 14C33.3247 14.0218 33.2304 14.0509 33.1433 14.0582C31.0539 14.2108 29.0588 14.7343 27.158 15.5995C26.4035 15.9412 25.6708 16.3557 24.9308 16.7337C24.9816 16.8283 24.9888 16.8501 25.0106 16.8646C25.6418 17.4899 26.2657 18.1224 26.8969 18.7477C29.1531 17.4899 31.7431 16.7701 34.5 16.7701C37.2641 16.7774 39.8614 17.4972 42.1176 18.7622Z" fill="#247BA0"/>
<path d="M52.942 31.1076C52.7824 29.0355 52.2673 27.0506 51.404 25.1676C51.0557 24.4114 50.6495 23.6844 50.2577 22.9282C50.1634 22.9937 50.1271 23.0155 50.1053 23.0373C49.4814 23.6626 48.8575 24.2878 48.2336 24.9131C49.4742 27.167 50.1851 29.748 50.1851 32.5036C50.1851 35.2664 49.4742 37.8547 48.2263 40.1086C48.7922 40.6757 49.3581 41.2356 49.924 41.8027C50.011 41.8899 50.0473 42.0353 50.1053 42.1516C51.4547 40.065 52.2963 37.942 52.7026 35.6517C52.8259 34.9683 52.8985 34.2776 52.9928 33.5869C52.9928 32.8671 52.9928 32.1401 52.9928 31.4203C52.9783 31.3185 52.9493 31.2094 52.942 31.1076Z" fill="#247BA0"/>
<path d="M20.7665 24.8986C20.2006 24.3315 19.6347 23.7644 19.0688 23.1973C18.9818 23.1101 18.8875 23.0228 18.7786 22.921C17.538 24.9422 16.6965 27.0653 16.2902 29.3482C16.1669 30.0317 16.0943 30.7224 16 31.4131C16 32.1329 16 32.8599 16 33.5797C16.0218 33.6815 16.0508 33.7833 16.058 33.8923C16.1959 35.7318 16.6094 37.5058 17.3059 39.2071C17.7049 40.1814 18.191 41.1193 18.6553 42.1081C18.7859 41.999 18.8439 41.9554 18.8875 41.9045C19.5041 41.2865 20.1208 40.6685 20.7375 40.0505C19.5114 37.8039 18.8076 35.2301 18.8076 32.4964C18.8149 29.7408 19.5259 27.1525 20.7665 24.8986Z" fill="#247BA0"/>
<path d="M26.897 46.2451C26.3311 46.8122 25.7652 47.3793 25.1993 47.9392C25.1122 48.0264 25.0397 48.1137 24.9526 48.2009C30.6622 51.9234 38.3452 51.9307 44.0403 48.2082C44.0185 48.1791 44.0113 48.1427 43.9822 48.1209C43.3583 47.4957 42.7344 46.8704 42.1032 46.2451C39.847 47.5029 37.257 48.2227 34.5001 48.2227C31.736 48.2227 29.146 47.5029 26.897 46.2451Z" fill="#247BA0"/>
<path d="M25.0396 19.9764C24.3939 19.3293 23.7482 18.6895 23.1026 18.0424C22.4641 17.4026 21.7024 17.1626 20.8245 17.4389C19.2502 17.9188 18.8004 19.8455 19.9902 21.0451C20.6504 21.714 21.3179 22.3756 21.9853 23.0445C22.8631 21.8885 23.8861 20.8561 25.0396 19.9764Z" fill="#247BA0"/>
<path d="M47.0148 23.052C47.6822 22.3904 48.3497 21.7215 49.0026 21.0526C49.8659 20.1729 49.9022 18.9005 49.1042 18.0208C48.2626 17.0974 46.8552 17.0974 45.9193 18.0208C45.2663 18.6751 44.6134 19.3222 43.9604 19.9766C45.114 20.8563 46.1442 21.8887 47.0148 23.052Z" fill="#247BA0"/>
<path d="M21.9852 41.9554C21.325 42.6171 20.6648 43.2787 20.0046 43.933C19.3589 44.5801 19.1413 45.3435 19.4387 46.2087C19.9756 47.7865 21.8691 48.1791 23.0952 46.9576C23.7482 46.3105 24.3938 45.6634 25.0395 45.0164C23.886 44.1512 22.8631 43.1187 21.9852 41.9554Z" fill="#247BA0"/>
<path d="M43.9604 45.0236C44.6134 45.678 45.2663 46.3323 45.9193 46.9794C46.4852 47.5465 47.1599 47.8083 47.9506 47.6338C48.7632 47.4593 49.3363 46.9649 49.583 46.1651C49.8442 45.3217 49.6265 44.5729 49.0026 43.9476C48.3424 43.2787 47.675 42.6171 47.0148 41.9554C46.1369 43.1187 45.114 44.1439 43.9604 45.0236Z" fill="#247BA0"/>
</g>
</g>
<defs>
<filter id="filter0_d_391_1293" x="0" y="0" width="318" height="63" filterUnits="userSpaceOnUse" color-interpolation-filters="sRGB">
<feFlood flood-opacity="0" result="BackgroundImageFix"/>
<feColorMatrix in="SourceAlpha" type="matrix" values="0 0 0 0 0 0 0 0 0 0 0 0 0 0 0 0 0 0 127 0" result="hardAlpha"/>
<feOffset/>
<feGaussianBlur stdDeviation="2"/>
<feComposite in2="hardAlpha" operator="out"/>
<feColorMatrix type="matrix" values="0 0 0 0 0 0 0 0 0 0 0 0 0 0 0 0 0 0 0.25 0"/>
<feBlend mode="normal" in2="BackgroundImageFix" result="effect1_dropShadow_391_1293"/>
<feBlend mode="normal" in="SourceGraphic" in2="effect1_dropShadow_391_1293" result="shape"/>
</filter>
<clipPath id="clip0_391_1293">
<rect width="37" height="37" fill="white" transform="translate(16 14)"/>
</clipPath>
</defs>
</svg>
