<svg width="1920" height="135" viewBox="0 0 1920 135" fill="none" xmlns="http://www.w3.org/2000/svg">
<g clip-path="url(#clip0_692_1896)">
<rect width="1920" height="135" fill="#841613"/>
<g clip-path="url(#clip1_692_1896)">
<path d="M1918.14 32H-2.52979V34H1918.14V32Z" fill="white"/>
<path d="M1918.14 98H-2.52979V100H1918.14V98Z" fill="white"/>
<path d="M32.7998 67.7L15.8698 91.04L-0.930176 67.76L15.9498 44.43L32.7998 67.7Z" fill="white"/>
<path d="M16.4297 53.58C17.0597 54.45 17.7197 55.36 18.4197 56.32C17.0897 58.14 15.7397 59.97 14.3997 61.8C15.0897 62.74 15.7497 63.64 16.4197 64.55C17.7397 62.73 19.0697 60.89 20.3697 59.09C22.4197 61.89 24.4297 64.65 26.4297 67.4C25.7697 68.3 25.1097 69.19 24.4597 70.08C23.1597 68.29 21.8297 66.46 20.4997 64.63C19.7997 65.61 19.1497 66.53 18.4597 67.5C19.7697 69.29 21.1097 71.12 22.4397 72.94C20.3897 75.75 18.3797 78.51 16.3797 81.26C15.7597 80.4 15.0997 79.5 14.4297 78.56C15.7597 76.75 17.0997 74.93 18.4997 73.03C18.1497 72.57 17.8597 72.19 17.5797 71.81C17.2497 71.37 16.9297 70.93 16.6197 70.47C16.4597 70.23 16.3697 70.26 16.2097 70.48C15.0197 72.15 13.8097 73.81 12.6097 75.47C12.5397 75.56 12.4697 75.65 12.4297 75.71C10.4097 72.93 8.39967 70.17 6.40967 67.43C7.05967 66.54 7.71967 65.64 8.37967 64.73C9.66967 66.52 10.9997 68.35 12.3097 70.15C12.9997 69.19 13.6597 68.28 14.3397 67.34C13.0397 65.57 11.6997 63.74 10.3597 61.92C12.4197 59.09 14.4297 56.33 16.4297 53.58Z" fill="#1A1A1A"/>
<path d="M70.4199 67.7L53.4899 91.04L36.6899 67.76L53.5699 44.43L70.4199 67.7Z" fill="white"/>
<path d="M54.0498 53.58C54.6798 54.45 55.3398 55.36 56.0398 56.32C54.7098 58.14 53.3598 59.97 52.0198 61.8C52.7098 62.74 53.3698 63.64 54.0398 64.55C55.3598 62.73 56.6898 60.89 57.9898 59.09C60.0398 61.89 62.0498 64.65 64.0498 67.4C63.3898 68.3 62.7298 69.19 62.0798 70.08C60.7798 68.29 59.4498 66.46 58.1198 64.63C57.4198 65.61 56.7698 66.53 56.0798 67.5C57.3898 69.29 58.7298 71.12 60.0598 72.94C58.0098 75.75 55.9998 78.51 53.9998 81.26C53.3798 80.4 52.7198 79.5 52.0498 78.56C53.3798 76.75 54.7198 74.93 56.1198 73.03C55.7698 72.57 55.4798 72.19 55.1998 71.81C54.8698 71.37 54.5498 70.93 54.2398 70.47C54.0798 70.23 53.9898 70.26 53.8298 70.48C52.6398 72.15 51.4298 73.81 50.2298 75.47C50.1598 75.56 50.0898 75.65 50.0498 75.71C48.0298 72.93 46.0198 70.17 44.0298 67.43C44.6798 66.54 45.3398 65.64 45.9998 64.73C47.2898 66.52 48.6198 68.35 49.9298 70.15C50.6198 69.19 51.2798 68.28 51.9598 67.34C50.6598 65.57 49.3198 63.74 47.9798 61.92C50.0398 59.09 52.0498 56.33 54.0498 53.58Z" fill="#1A1A1A"/>
<path d="M108.04 67.7L91.1101 91.04L74.3101 67.76L91.1901 44.43L108.04 67.7Z" fill="white"/>
<path d="M91.6699 53.58C92.2999 54.45 92.9599 55.36 93.6599 56.32C92.3299 58.14 90.9799 59.97 89.6399 61.8C90.3299 62.74 90.9899 63.64 91.6599 64.55C92.9799 62.73 94.3099 60.89 95.6099 59.09C97.6599 61.89 99.6699 64.65 101.67 67.4C101.01 68.3 100.35 69.19 99.6999 70.08C98.3999 68.29 97.0699 66.46 95.7399 64.63C95.0399 65.61 94.3899 66.53 93.6999 67.5C95.0099 69.29 96.3499 71.12 97.6799 72.94C95.6299 75.75 93.6199 78.51 91.6199 81.26C90.9999 80.4 90.3399 79.5 89.6699 78.56C90.9999 76.75 92.3399 74.93 93.7399 73.03C93.3899 72.57 93.0999 72.19 92.8199 71.81C92.4899 71.37 92.1699 70.93 91.8599 70.47C91.6999 70.23 91.6099 70.26 91.4499 70.48C90.2599 72.15 89.0499 73.81 87.8499 75.47C87.7799 75.56 87.7099 75.65 87.6699 75.71C85.6499 72.93 83.6399 70.17 81.6499 67.43C82.2999 66.54 82.9599 65.64 83.6199 64.73C84.9099 66.52 86.2399 68.35 87.5499 70.15C88.2399 69.19 88.8999 68.28 89.5799 67.34C88.2799 65.57 86.9399 63.74 85.5999 61.92C87.6599 59.09 89.6699 56.33 91.6699 53.58Z" fill="#1A1A1A"/>
<path d="M145.66 67.7L128.73 91.04L111.93 67.76L128.81 44.43L145.66 67.7Z" fill="white"/>
<path d="M129.29 53.58C129.92 54.45 130.58 55.36 131.28 56.32C129.95 58.14 128.6 59.97 127.26 61.8C127.95 62.74 128.61 63.64 129.28 64.55C130.6 62.73 131.93 60.89 133.23 59.09C135.28 61.89 137.29 64.65 139.29 67.4C138.63 68.3 137.97 69.19 137.32 70.08C136.02 68.29 134.69 66.46 133.36 64.63C132.66 65.61 132.01 66.53 131.32 67.5C132.63 69.29 133.97 71.12 135.3 72.94C133.25 75.75 131.24 78.51 129.24 81.26C128.62 80.4 127.96 79.5 127.29 78.56C128.62 76.75 129.96 74.93 131.36 73.03C131.01 72.57 130.72 72.19 130.44 71.81C130.11 71.37 129.79 70.93 129.48 70.47C129.32 70.23 129.23 70.26 129.07 70.48C127.88 72.15 126.67 73.81 125.47 75.47C125.4 75.56 125.33 75.65 125.29 75.71C123.27 72.93 121.26 70.17 119.27 67.43C119.92 66.54 120.58 65.64 121.24 64.73C122.53 66.52 123.86 68.35 125.17 70.15C125.86 69.19 126.52 68.28 127.2 67.34C125.9 65.57 124.56 63.74 123.22 61.92C125.28 59.09 127.29 56.33 129.29 53.58Z" fill="#1A1A1A"/>
<path d="M183.28 67.7L166.35 91.04L149.55 67.76L166.43 44.43L183.28 67.7Z" fill="white"/>
<path d="M166.91 53.58C167.54 54.45 168.2 55.36 168.9 56.32C167.57 58.14 166.22 59.97 164.88 61.8C165.57 62.74 166.23 63.64 166.9 64.55C168.22 62.73 169.55 60.89 170.85 59.09C172.9 61.89 174.91 64.65 176.91 67.4C176.25 68.3 175.59 69.19 174.94 70.08C173.64 68.29 172.31 66.46 170.98 64.63C170.28 65.61 169.63 66.53 168.94 67.5C170.25 69.29 171.59 71.12 172.92 72.94C170.87 75.75 168.86 78.51 166.86 81.26C166.24 80.4 165.58 79.5 164.91 78.56C166.24 76.75 167.58 74.93 168.98 73.03C168.63 72.57 168.34 72.19 168.06 71.81C167.73 71.37 167.41 70.93 167.1 70.47C166.94 70.23 166.85 70.26 166.69 70.48C165.5 72.15 164.29 73.81 163.09 75.47C163.02 75.56 162.95 75.65 162.91 75.71C160.89 72.93 158.88 70.17 156.89 67.43C157.54 66.54 158.2 65.64 158.86 64.73C160.15 66.52 161.48 68.35 162.79 70.15C163.48 69.19 164.14 68.28 164.82 67.34C163.52 65.57 162.18 63.74 160.84 61.92C162.9 59.09 164.91 56.33 166.91 53.58Z" fill="#1A1A1A"/>
<path d="M220.9 67.7L203.97 91.04L187.17 67.76L204.05 44.43L220.9 67.7Z" fill="white"/>
<path d="M204.53 53.58C205.16 54.45 205.82 55.36 206.52 56.32C205.19 58.14 203.84 59.97 202.5 61.8C203.19 62.74 203.85 63.64 204.52 64.55C205.84 62.73 207.17 60.89 208.47 59.09C210.52 61.89 212.53 64.65 214.53 67.4C213.87 68.3 213.21 69.19 212.56 70.08C211.26 68.29 209.93 66.46 208.6 64.63C207.9 65.61 207.25 66.53 206.56 67.5C207.87 69.29 209.21 71.12 210.54 72.94C208.49 75.75 206.48 78.51 204.48 81.26C203.86 80.4 203.2 79.5 202.53 78.56C203.86 76.75 205.2 74.93 206.6 73.03C206.25 72.57 205.96 72.19 205.68 71.81C205.35 71.37 205.03 70.93 204.72 70.47C204.56 70.23 204.47 70.26 204.31 70.48C203.12 72.15 201.91 73.81 200.71 75.47C200.64 75.56 200.57 75.65 200.53 75.71C198.51 72.93 196.5 70.17 194.51 67.43C195.16 66.54 195.82 65.64 196.48 64.73C197.77 66.52 199.1 68.35 200.41 70.15C201.1 69.19 201.76 68.28 202.44 67.34C201.14 65.57 199.8 63.74 198.46 61.92C200.52 59.09 202.53 56.33 204.53 53.58Z" fill="#1A1A1A"/>
<path d="M258.52 67.7L241.59 91.04L224.79 67.76L241.67 44.43L258.52 67.7Z" fill="white"/>
<path d="M242.15 53.58C242.78 54.45 243.44 55.36 244.14 56.32C242.81 58.14 241.46 59.97 240.12 61.8C240.81 62.74 241.47 63.64 242.14 64.55C243.46 62.73 244.79 60.89 246.09 59.09C248.14 61.89 250.15 64.65 252.15 67.4C251.49 68.3 250.83 69.19 250.18 70.08C248.88 68.29 247.55 66.46 246.22 64.63C245.52 65.61 244.87 66.53 244.18 67.5C245.49 69.29 246.83 71.12 248.16 72.94C246.11 75.75 244.1 78.51 242.1 81.26C241.48 80.4 240.82 79.5 240.15 78.56C241.48 76.75 242.82 74.93 244.22 73.03C243.87 72.57 243.58 72.19 243.3 71.81C242.97 71.37 242.65 70.93 242.34 70.47C242.18 70.23 242.09 70.26 241.93 70.48C240.74 72.15 239.53 73.81 238.33 75.47C238.26 75.56 238.19 75.65 238.15 75.71C236.13 72.93 234.12 70.17 232.13 67.43C232.78 66.54 233.44 65.64 234.1 64.73C235.39 66.52 236.72 68.35 238.03 70.15C238.72 69.19 239.38 68.28 240.06 67.34C238.76 65.57 237.42 63.74 236.08 61.92C238.14 59.09 240.15 56.33 242.15 53.58Z" fill="#1A1A1A"/>
<path d="M296.14 67.7L279.21 91.04L262.41 67.76L279.29 44.43L296.14 67.7Z" fill="white"/>
<path d="M279.77 53.58C280.4 54.45 281.06 55.36 281.76 56.32C280.43 58.14 279.08 59.97 277.74 61.8C278.43 62.74 279.09 63.64 279.76 64.55C281.08 62.73 282.41 60.89 283.71 59.09C285.76 61.89 287.77 64.65 289.77 67.4C289.11 68.3 288.449 69.19 287.799 70.08C286.5 68.29 285.17 66.46 283.84 64.63C283.14 65.61 282.489 66.53 281.799 67.5C283.109 69.29 284.45 71.12 285.78 72.94C283.73 75.75 281.72 78.51 279.72 81.26C279.1 80.4 278.44 79.5 277.77 78.56C279.1 76.75 280.44 74.93 281.84 73.03C281.49 72.57 281.2 72.19 280.92 71.81C280.59 71.37 280.27 70.93 279.96 70.47C279.8 70.23 279.709 70.26 279.549 70.48C278.359 72.15 277.15 73.81 275.95 75.47C275.88 75.56 275.81 75.65 275.77 75.71C273.75 72.93 271.74 70.17 269.75 67.43C270.4 66.54 271.06 65.64 271.72 64.73C273.01 66.52 274.34 68.35 275.65 70.15C276.34 69.19 277 68.28 277.68 67.34C276.38 65.57 275.04 63.74 273.7 61.92C275.76 59.09 277.77 56.33 279.77 53.58Z" fill="#1A1A1A"/>
<path d="M333.76 67.7L316.83 91.04L300.03 67.76L316.91 44.43L333.76 67.7Z" fill="white"/>
<path d="M317.39 53.58C318.02 54.45 318.68 55.36 319.38 56.32C318.05 58.14 316.7 59.97 315.36 61.8C316.05 62.74 316.71 63.64 317.38 64.55C318.7 62.73 320.03 60.89 321.33 59.09C323.38 61.89 325.39 64.65 327.39 67.4C326.73 68.3 326.07 69.19 325.42 70.08C324.12 68.29 322.79 66.46 321.46 64.63C320.76 65.61 320.11 66.53 319.42 67.5C320.73 69.29 322.07 71.12 323.4 72.94C321.35 75.75 319.34 78.51 317.34 81.26C316.72 80.4 316.06 79.5 315.39 78.56C316.72 76.75 318.06 74.93 319.46 73.03C319.11 72.57 318.82 72.19 318.54 71.81C318.21 71.37 317.89 70.93 317.58 70.47C317.42 70.23 317.33 70.26 317.17 70.48C315.98 72.15 314.77 73.81 313.57 75.47C313.5 75.56 313.43 75.65 313.39 75.71C311.37 72.93 309.36 70.17 307.37 67.43C308.02 66.54 308.68 65.64 309.34 64.73C310.63 66.52 311.96 68.35 313.27 70.15C313.96 69.19 314.62 68.28 315.3 67.34C314 65.57 312.66 63.74 311.32 61.92C313.38 59.09 315.39 56.33 317.39 53.58Z" fill="#1A1A1A"/>
<path d="M371.38 67.7L354.45 91.04L337.65 67.76L354.53 44.43L371.38 67.7Z" fill="white"/>
<path d="M355.01 53.58C355.64 54.45 356.3 55.36 357 56.32C355.67 58.14 354.32 59.97 352.98 61.8C353.67 62.74 354.33 63.64 355 64.55C356.32 62.73 357.65 60.89 358.95 59.09C361 61.89 363.01 64.65 365.01 67.4C364.35 68.3 363.69 69.19 363.04 70.08C361.74 68.29 360.41 66.46 359.08 64.63C358.38 65.61 357.73 66.53 357.04 67.5C358.35 69.29 359.69 71.12 361.02 72.94C358.97 75.75 356.96 78.51 354.96 81.26C354.34 80.4 353.68 79.5 353.01 78.56C354.34 76.75 355.68 74.93 357.08 73.03C356.73 72.57 356.44 72.19 356.16 71.81C355.83 71.37 355.51 70.93 355.2 70.47C355.04 70.23 354.95 70.26 354.79 70.48C353.6 72.15 352.39 73.81 351.19 75.47C351.12 75.56 351.05 75.65 351.01 75.71C348.99 72.93 346.98 70.17 344.99 67.43C345.64 66.54 346.3 65.64 346.96 64.73C348.25 66.52 349.58 68.35 350.89 70.15C351.58 69.19 352.24 68.28 352.92 67.34C351.62 65.57 350.28 63.74 348.94 61.92C351 59.09 353.01 56.33 355.01 53.58Z" fill="#1A1A1A"/>
<path d="M409 67.7L392.07 91.04L375.27 67.76L392.15 44.43L409 67.7Z" fill="white"/>
<path d="M392.63 53.58C393.26 54.45 393.92 55.36 394.62 56.32C393.29 58.14 391.94 59.97 390.6 61.8C391.29 62.74 391.95 63.64 392.62 64.55C393.94 62.73 395.27 60.89 396.57 59.09C398.62 61.89 400.63 64.65 402.63 67.4C401.97 68.3 401.31 69.19 400.66 70.08C399.36 68.29 398.03 66.46 396.7 64.63C396 65.61 395.35 66.53 394.66 67.5C395.97 69.29 397.31 71.12 398.64 72.94C396.59 75.75 394.58 78.51 392.58 81.26C391.96 80.4 391.3 79.5 390.63 78.56C391.96 76.75 393.3 74.93 394.7 73.03C394.35 72.57 394.06 72.19 393.78 71.81C393.45 71.37 393.13 70.93 392.82 70.47C392.66 70.23 392.57 70.26 392.41 70.48C391.22 72.15 390.01 73.81 388.81 75.47C388.74 75.56 388.67 75.65 388.63 75.71C386.61 72.93 384.6 70.17 382.61 67.43C383.26 66.54 383.92 65.64 384.58 64.73C385.87 66.52 387.2 68.35 388.51 70.15C389.2 69.19 389.86 68.28 390.54 67.34C389.24 65.57 387.9 63.74 386.56 61.92C388.62 59.09 390.63 56.33 392.63 53.58Z" fill="#1A1A1A"/>
<path d="M446.62 67.7L429.69 91.04L412.89 67.76L429.77 44.43L446.62 67.7Z" fill="white"/>
<path d="M430.249 53.58C430.879 54.45 431.539 55.36 432.239 56.32C430.909 58.14 429.559 59.97 428.219 61.8C428.909 62.74 429.569 63.64 430.239 64.55C431.559 62.73 432.889 60.89 434.189 59.09C436.239 61.89 438.249 64.65 440.249 67.4C439.589 68.3 438.929 69.19 438.279 70.08C436.979 68.29 435.649 66.46 434.319 64.63C433.619 65.61 432.969 66.53 432.279 67.5C433.589 69.29 434.929 71.12 436.259 72.94C434.209 75.75 432.199 78.51 430.199 81.26C429.579 80.4 428.919 79.5 428.249 78.56C429.579 76.75 430.919 74.93 432.319 73.03C431.969 72.57 431.679 72.19 431.399 71.81C431.069 71.37 430.749 70.93 430.439 70.47C430.279 70.23 430.189 70.26 430.029 70.48C428.839 72.15 427.629 73.81 426.429 75.47C426.359 75.56 426.289 75.65 426.249 75.71C424.229 72.93 422.219 70.17 420.229 67.43C420.879 66.54 421.539 65.64 422.199 64.73C423.489 66.52 424.819 68.35 426.129 70.15C426.819 69.19 427.479 68.28 428.159 67.34C426.859 65.57 425.519 63.74 424.179 61.92C426.239 59.09 428.249 56.33 430.249 53.58Z" fill="#1A1A1A"/>
<path d="M484.24 67.7L467.31 91.04L450.51 67.76L467.39 44.43L484.24 67.7Z" fill="white"/>
<path d="M467.87 53.58C468.5 54.45 469.16 55.36 469.86 56.32C468.53 58.14 467.18 59.97 465.84 61.8C466.53 62.74 467.19 63.64 467.86 64.55C469.18 62.73 470.51 60.89 471.81 59.09C473.86 61.89 475.87 64.65 477.87 67.4C477.21 68.3 476.55 69.19 475.9 70.08C474.6 68.29 473.27 66.46 471.94 64.63C471.24 65.61 470.59 66.53 469.9 67.5C471.21 69.29 472.55 71.12 473.88 72.94C471.83 75.75 469.82 78.51 467.82 81.26C467.2 80.4 466.54 79.5 465.87 78.56C467.2 76.75 468.54 74.93 469.94 73.03C469.59 72.57 469.3 72.19 469.02 71.81C468.69 71.37 468.37 70.93 468.06 70.47C467.9 70.23 467.81 70.26 467.65 70.48C466.46 72.15 465.25 73.81 464.05 75.47C463.98 75.56 463.91 75.65 463.87 75.71C461.85 72.93 459.84 70.17 457.85 67.43C458.5 66.54 459.16 65.64 459.82 64.73C461.11 66.52 462.44 68.35 463.75 70.15C464.44 69.19 465.1 68.28 465.78 67.34C464.48 65.57 463.14 63.74 461.8 61.92C463.86 59.09 465.87 56.33 467.87 53.58Z" fill="#1A1A1A"/>
<path d="M521.86 67.7L504.93 91.04L488.13 67.76L505.01 44.43L521.86 67.7Z" fill="white"/>
<path d="M505.49 53.58C506.12 54.45 506.78 55.36 507.48 56.32C506.15 58.14 504.8 59.97 503.46 61.8C504.15 62.74 504.81 63.64 505.48 64.55C506.8 62.73 508.13 60.89 509.43 59.09C511.48 61.89 513.49 64.65 515.49 67.4C514.83 68.3 514.17 69.19 513.52 70.08C512.22 68.29 510.89 66.46 509.56 64.63C508.86 65.61 508.21 66.53 507.52 67.5C508.83 69.29 510.17 71.12 511.5 72.94C509.45 75.75 507.44 78.51 505.44 81.26C504.82 80.4 504.16 79.5 503.49 78.56C504.82 76.75 506.16 74.93 507.56 73.03C507.21 72.57 506.92 72.19 506.64 71.81C506.31 71.37 505.99 70.93 505.68 70.47C505.52 70.23 505.43 70.26 505.27 70.48C504.08 72.15 502.87 73.81 501.67 75.47C501.6 75.56 501.53 75.65 501.49 75.71C499.47 72.93 497.46 70.17 495.47 67.43C496.12 66.54 496.78 65.64 497.44 64.73C498.73 66.52 500.06 68.35 501.37 70.15C502.06 69.19 502.72 68.28 503.4 67.34C502.1 65.57 500.76 63.74 499.42 61.92C501.48 59.09 503.49 56.33 505.49 53.58Z" fill="#1A1A1A"/>
<path d="M559.48 67.7L542.55 91.04L525.75 67.76L542.63 44.43L559.48 67.7Z" fill="white"/>
<path d="M543.11 53.58C543.74 54.45 544.4 55.36 545.1 56.32C543.77 58.14 542.42 59.97 541.08 61.8C541.77 62.74 542.43 63.64 543.1 64.55C544.42 62.73 545.75 60.89 547.05 59.09C549.1 61.89 551.11 64.65 553.11 67.4C552.45 68.3 551.79 69.19 551.14 70.08C549.84 68.29 548.51 66.46 547.18 64.63C546.48 65.61 545.83 66.53 545.14 67.5C546.45 69.29 547.79 71.12 549.12 72.94C547.07 75.75 545.06 78.51 543.06 81.26C542.44 80.4 541.78 79.5 541.11 78.56C542.44 76.75 543.78 74.93 545.18 73.03C544.83 72.57 544.54 72.19 544.26 71.81C543.93 71.37 543.61 70.93 543.3 70.47C543.14 70.23 543.05 70.26 542.89 70.48C541.7 72.15 540.49 73.81 539.29 75.47C539.22 75.56 539.15 75.65 539.11 75.71C537.09 72.93 535.08 70.17 533.09 67.43C533.74 66.54 534.4 65.64 535.06 64.73C536.35 66.52 537.68 68.35 538.99 70.15C539.68 69.19 540.34 68.28 541.02 67.34C539.72 65.57 538.38 63.74 537.04 61.92C539.1 59.09 541.11 56.33 543.11 53.58Z" fill="#1A1A1A"/>
<path d="M597.1 67.7L580.17 91.04L563.37 67.76L580.25 44.43L597.1 67.7Z" fill="white"/>
<path d="M580.729 53.58C581.359 54.45 582.019 55.36 582.719 56.32C581.389 58.14 580.039 59.97 578.699 61.8C579.389 62.74 580.049 63.64 580.719 64.55C582.039 62.73 583.369 60.89 584.669 59.09C586.719 61.89 588.729 64.65 590.729 67.4C590.069 68.3 589.409 69.19 588.759 70.08C587.459 68.29 586.129 66.46 584.799 64.63C584.099 65.61 583.449 66.53 582.759 67.5C584.069 69.29 585.409 71.12 586.739 72.94C584.689 75.75 582.679 78.51 580.679 81.26C580.059 80.4 579.399 79.5 578.729 78.56C580.059 76.75 581.399 74.93 582.799 73.03C582.449 72.57 582.159 72.19 581.879 71.81C581.549 71.37 581.229 70.93 580.919 70.47C580.759 70.23 580.669 70.26 580.509 70.48C579.319 72.15 578.109 73.81 576.909 75.47C576.839 75.56 576.769 75.65 576.729 75.71C574.709 72.93 572.699 70.17 570.709 67.43C571.359 66.54 572.019 65.64 572.679 64.73C573.969 66.52 575.299 68.35 576.609 70.15C577.299 69.19 577.959 68.28 578.639 67.34C577.339 65.57 575.999 63.74 574.659 61.92C576.719 59.09 578.729 56.33 580.729 53.58Z" fill="#1A1A1A"/>
<path d="M634.72 67.7L617.79 91.04L600.99 67.76L617.87 44.43L634.72 67.7Z" fill="white"/>
<path d="M618.35 53.58C618.98 54.45 619.64 55.36 620.34 56.32C619.01 58.14 617.66 59.97 616.32 61.8C617.01 62.74 617.67 63.64 618.34 64.55C619.66 62.73 620.99 60.89 622.29 59.09C624.34 61.89 626.35 64.65 628.35 67.4C627.69 68.3 627.03 69.19 626.38 70.08C625.08 68.29 623.75 66.46 622.42 64.63C621.72 65.61 621.07 66.53 620.38 67.5C621.69 69.29 623.03 71.12 624.36 72.94C622.31 75.75 620.3 78.51 618.3 81.26C617.68 80.4 617.02 79.5 616.35 78.56C617.68 76.75 619.02 74.93 620.42 73.03C620.07 72.57 619.78 72.19 619.5 71.81C619.17 71.37 618.85 70.93 618.54 70.47C618.38 70.23 618.29 70.26 618.13 70.48C616.94 72.15 615.73 73.81 614.53 75.47C614.46 75.56 614.39 75.65 614.35 75.71C612.33 72.93 610.32 70.17 608.33 67.43C608.98 66.54 609.64 65.64 610.3 64.73C611.59 66.52 612.92 68.35 614.23 70.15C614.92 69.19 615.58 68.28 616.26 67.34C614.96 65.57 613.62 63.74 612.28 61.92C614.34 59.09 616.35 56.33 618.35 53.58Z" fill="#1A1A1A"/>
<path d="M672.34 67.7L655.41 91.04L638.61 67.76L655.49 44.43L672.34 67.7Z" fill="white"/>
<path d="M655.97 53.58C656.6 54.45 657.26 55.36 657.96 56.32C656.63 58.14 655.28 59.97 653.94 61.8C654.63 62.74 655.29 63.64 655.96 64.55C657.28 62.73 658.61 60.89 659.91 59.09C661.96 61.89 663.97 64.65 665.97 67.4C665.31 68.3 664.65 69.19 664 70.08C662.7 68.29 661.37 66.46 660.04 64.63C659.34 65.61 658.69 66.53 658 67.5C659.31 69.29 660.65 71.12 661.98 72.94C659.93 75.75 657.92 78.51 655.92 81.26C655.3 80.4 654.64 79.5 653.97 78.56C655.3 76.75 656.64 74.93 658.04 73.03C657.69 72.57 657.4 72.19 657.12 71.81C656.79 71.37 656.47 70.93 656.16 70.47C656 70.23 655.91 70.26 655.75 70.48C654.56 72.15 653.35 73.81 652.15 75.47C652.08 75.56 652.01 75.65 651.97 75.71C649.95 72.93 647.94 70.17 645.95 67.43C646.6 66.54 647.26 65.64 647.92 64.73C649.21 66.52 650.54 68.35 651.85 70.15C652.54 69.19 653.2 68.28 653.88 67.34C652.58 65.57 651.24 63.74 649.9 61.92C651.96 59.09 653.97 56.33 655.97 53.58Z" fill="#1A1A1A"/>
<path d="M709.96 67.7L693.03 91.04L676.23 67.76L693.11 44.43L709.96 67.7Z" fill="white"/>
<path d="M693.59 53.58C694.22 54.45 694.88 55.36 695.58 56.32C694.25 58.14 692.9 59.97 691.56 61.8C692.25 62.74 692.91 63.64 693.58 64.55C694.9 62.73 696.23 60.89 697.53 59.09C699.58 61.89 701.59 64.65 703.59 67.4C702.93 68.3 702.27 69.19 701.62 70.08C700.32 68.29 698.99 66.46 697.66 64.63C696.96 65.61 696.31 66.53 695.62 67.5C696.93 69.29 698.27 71.12 699.6 72.94C697.55 75.75 695.54 78.51 693.54 81.26C692.92 80.4 692.26 79.5 691.59 78.56C692.92 76.75 694.26 74.93 695.66 73.03C695.31 72.57 695.02 72.19 694.74 71.81C694.41 71.37 694.09 70.93 693.78 70.47C693.62 70.23 693.53 70.26 693.37 70.48C692.18 72.15 690.97 73.81 689.77 75.47C689.7 75.56 689.63 75.65 689.59 75.71C687.57 72.93 685.56 70.17 683.57 67.43C684.22 66.54 684.88 65.64 685.54 64.73C686.83 66.52 688.16 68.35 689.47 70.15C690.16 69.19 690.82 68.28 691.5 67.34C690.2 65.57 688.86 63.74 687.52 61.92C689.58 59.09 691.59 56.33 693.59 53.58Z" fill="#1A1A1A"/>
<path d="M747.58 67.7L730.65 91.04L713.85 67.76L730.73 44.43L747.58 67.7Z" fill="white"/>
<path d="M731.209 53.58C731.839 54.45 732.499 55.36 733.199 56.32C731.869 58.14 730.519 59.97 729.179 61.8C729.869 62.74 730.529 63.64 731.199 64.55C732.519 62.73 733.849 60.89 735.149 59.09C737.199 61.89 739.209 64.65 741.209 67.4C740.549 68.3 739.889 69.19 739.239 70.08C737.939 68.29 736.609 66.46 735.279 64.63C734.579 65.61 733.929 66.53 733.239 67.5C734.549 69.29 735.889 71.12 737.219 72.94C735.169 75.75 733.159 78.51 731.159 81.26C730.539 80.4 729.879 79.5 729.209 78.56C730.539 76.75 731.879 74.93 733.279 73.03C732.929 72.57 732.639 72.19 732.359 71.81C732.029 71.37 731.709 70.93 731.399 70.47C731.239 70.23 731.149 70.26 730.989 70.48C729.799 72.15 728.589 73.81 727.389 75.47C727.319 75.56 727.249 75.65 727.209 75.71C725.189 72.93 723.179 70.17 721.189 67.43C721.839 66.54 722.499 65.64 723.159 64.73C724.449 66.52 725.779 68.35 727.089 70.15C727.779 69.19 728.439 68.28 729.119 67.34C727.819 65.57 726.479 63.74 725.139 61.92C727.199 59.09 729.209 56.33 731.209 53.58Z" fill="#1A1A1A"/>
<path d="M785.2 67.7L768.27 91.04L751.47 67.76L768.35 44.43L785.2 67.7Z" fill="white"/>
<path d="M768.83 53.58C769.46 54.45 770.12 55.36 770.82 56.32C769.49 58.14 768.14 59.97 766.8 61.8C767.49 62.74 768.15 63.64 768.82 64.55C770.14 62.73 771.47 60.89 772.77 59.09C774.82 61.89 776.83 64.65 778.83 67.4C778.17 68.3 777.51 69.19 776.86 70.08C775.56 68.29 774.23 66.46 772.9 64.63C772.2 65.61 771.55 66.53 770.86 67.5C772.17 69.29 773.51 71.12 774.84 72.94C772.79 75.75 770.78 78.51 768.78 81.26C768.16 80.4 767.5 79.5 766.83 78.56C768.16 76.75 769.5 74.93 770.9 73.03C770.55 72.57 770.26 72.19 769.98 71.81C769.65 71.37 769.33 70.93 769.02 70.47C768.86 70.23 768.77 70.26 768.61 70.48C767.42 72.15 766.21 73.81 765.01 75.47C764.94 75.56 764.87 75.65 764.83 75.71C762.81 72.93 760.8 70.17 758.81 67.43C759.46 66.54 760.12 65.64 760.78 64.73C762.07 66.52 763.4 68.35 764.71 70.15C765.4 69.19 766.06 68.28 766.74 67.34C765.44 65.57 764.1 63.74 762.76 61.92C764.82 59.09 766.83 56.33 768.83 53.58Z" fill="#1A1A1A"/>
<path d="M822.82 67.7L805.89 91.04L789.09 67.76L805.97 44.43L822.82 67.7Z" fill="white"/>
<path d="M806.45 53.58C807.08 54.45 807.74 55.36 808.44 56.32C807.11 58.14 805.76 59.97 804.42 61.8C805.11 62.74 805.77 63.64 806.44 64.55C807.76 62.73 809.09 60.89 810.39 59.09C812.44 61.89 814.45 64.65 816.45 67.4C815.79 68.3 815.13 69.19 814.48 70.08C813.18 68.29 811.85 66.46 810.52 64.63C809.82 65.61 809.17 66.53 808.48 67.5C809.79 69.29 811.13 71.12 812.46 72.94C810.41 75.75 808.4 78.51 806.4 81.26C805.78 80.4 805.12 79.5 804.45 78.56C805.78 76.75 807.12 74.93 808.52 73.03C808.17 72.57 807.88 72.19 807.6 71.81C807.27 71.37 806.95 70.93 806.64 70.47C806.48 70.23 806.39 70.26 806.23 70.48C805.04 72.15 803.83 73.81 802.63 75.47C802.56 75.56 802.49 75.65 802.45 75.71C800.43 72.93 798.42 70.17 796.43 67.43C797.08 66.54 797.74 65.64 798.4 64.73C799.69 66.52 801.02 68.35 802.33 70.15C803.02 69.19 803.68 68.28 804.36 67.34C803.06 65.57 801.72 63.74 800.38 61.92C802.44 59.09 804.45 56.33 806.45 53.58Z" fill="#1A1A1A"/>
<path d="M860.44 67.7L843.51 91.04L826.71 67.76L843.59 44.43L860.44 67.7Z" fill="white"/>
<path d="M844.07 53.58C844.7 54.45 845.36 55.36 846.06 56.32C844.73 58.14 843.38 59.97 842.04 61.8C842.73 62.74 843.39 63.64 844.06 64.55C845.38 62.73 846.71 60.89 848.01 59.09C850.06 61.89 852.07 64.65 854.07 67.4C853.41 68.3 852.75 69.19 852.1 70.08C850.8 68.29 849.47 66.46 848.14 64.63C847.44 65.61 846.79 66.53 846.1 67.5C847.41 69.29 848.75 71.12 850.08 72.94C848.03 75.75 846.02 78.51 844.02 81.26C843.4 80.4 842.74 79.5 842.07 78.56C843.4 76.75 844.74 74.93 846.14 73.03C845.79 72.57 845.5 72.19 845.22 71.81C844.89 71.37 844.57 70.93 844.26 70.47C844.1 70.23 844.01 70.26 843.85 70.48C842.66 72.15 841.45 73.81 840.25 75.47C840.18 75.56 840.11 75.65 840.07 75.71C838.05 72.93 836.04 70.17 834.05 67.43C834.7 66.54 835.36 65.64 836.02 64.73C837.31 66.52 838.64 68.35 839.95 70.15C840.64 69.19 841.3 68.28 841.98 67.34C840.68 65.57 839.34 63.74 838 61.92C840.06 59.09 842.07 56.33 844.07 53.58Z" fill="#1A1A1A"/>
<path d="M898.06 67.7L881.13 91.04L864.33 67.76L881.21 44.43L898.06 67.7Z" fill="white"/>
<path d="M881.69 53.58C882.32 54.45 882.98 55.36 883.68 56.32C882.35 58.14 881 59.97 879.66 61.8C880.35 62.74 881.01 63.64 881.68 64.55C883 62.73 884.33 60.89 885.63 59.09C887.68 61.89 889.69 64.65 891.69 67.4C891.03 68.3 890.37 69.19 889.72 70.08C888.42 68.29 887.09 66.46 885.76 64.63C885.06 65.61 884.41 66.53 883.72 67.5C885.03 69.29 886.37 71.12 887.7 72.94C885.65 75.75 883.64 78.51 881.64 81.26C881.02 80.4 880.36 79.5 879.69 78.56C881.02 76.75 882.36 74.93 883.76 73.03C883.41 72.57 883.12 72.19 882.84 71.81C882.51 71.37 882.19 70.93 881.88 70.47C881.72 70.23 881.63 70.26 881.47 70.48C880.28 72.15 879.07 73.81 877.87 75.47C877.8 75.56 877.73 75.65 877.69 75.71C875.67 72.93 873.66 70.17 871.67 67.43C872.32 66.54 872.98 65.64 873.64 64.73C874.93 66.52 876.26 68.35 877.57 70.15C878.26 69.19 878.92 68.28 879.6 67.34C878.3 65.57 876.96 63.74 875.62 61.92C877.68 59.09 879.69 56.33 881.69 53.58Z" fill="#1A1A1A"/>
<path d="M935.68 67.7L918.75 91.04L901.95 67.76L918.83 44.43L935.68 67.7Z" fill="white"/>
<path d="M919.31 53.58C919.94 54.45 920.6 55.36 921.3 56.32C919.97 58.14 918.62 59.97 917.28 61.8C917.97 62.74 918.63 63.64 919.3 64.55C920.62 62.73 921.95 60.89 923.25 59.09C925.3 61.89 927.31 64.65 929.31 67.4C928.65 68.3 927.99 69.19 927.34 70.08C926.04 68.29 924.71 66.46 923.38 64.63C922.68 65.61 922.03 66.53 921.34 67.5C922.65 69.29 923.99 71.12 925.32 72.94C923.27 75.75 921.26 78.51 919.26 81.26C918.64 80.4 917.98 79.5 917.31 78.56C918.64 76.75 919.98 74.93 921.38 73.03C921.03 72.57 920.74 72.19 920.46 71.81C920.13 71.37 919.81 70.93 919.5 70.47C919.34 70.23 919.25 70.26 919.09 70.48C917.9 72.15 916.69 73.81 915.49 75.47C915.42 75.56 915.35 75.65 915.31 75.71C913.29 72.93 911.28 70.17 909.29 67.43C909.94 66.54 910.6 65.64 911.26 64.73C912.55 66.52 913.88 68.35 915.19 70.15C915.88 69.19 916.54 68.28 917.22 67.34C915.92 65.57 914.58 63.74 913.24 61.92C915.3 59.09 917.31 56.33 919.31 53.58Z" fill="#1A1A1A"/>
<path d="M973.3 67.7L956.37 91.04L939.57 67.76L956.45 44.43L973.3 67.7Z" fill="white"/>
<path d="M956.93 53.58C957.56 54.45 958.22 55.36 958.92 56.32C957.59 58.14 956.24 59.97 954.9 61.8C955.59 62.74 956.25 63.64 956.92 64.55C958.24 62.73 959.57 60.89 960.87 59.09C962.92 61.89 964.93 64.65 966.93 67.4C966.27 68.3 965.61 69.19 964.96 70.08C963.66 68.29 962.33 66.46 961 64.63C960.3 65.61 959.65 66.53 958.96 67.5C960.27 69.29 961.61 71.12 962.94 72.94C960.89 75.75 958.88 78.51 956.88 81.26C956.26 80.4 955.6 79.5 954.93 78.56C956.26 76.75 957.6 74.93 959 73.03C958.65 72.57 958.36 72.19 958.08 71.81C957.75 71.37 957.43 70.93 957.12 70.47C956.96 70.23 956.87 70.26 956.71 70.48C955.52 72.15 954.31 73.81 953.11 75.47C953.04 75.56 952.97 75.65 952.93 75.71C950.91 72.93 948.9 70.17 946.91 67.43C947.56 66.54 948.22 65.64 948.88 64.73C950.17 66.52 951.5 68.35 952.81 70.15C953.5 69.19 954.16 68.28 954.84 67.34C953.54 65.57 952.2 63.74 950.86 61.92C952.92 59.09 954.93 56.33 956.93 53.58Z" fill="#1A1A1A"/>
<path d="M1010.92 67.7L993.99 91.04L977.19 67.76L994.07 44.43L1010.92 67.7Z" fill="white"/>
<path d="M994.55 53.58C995.18 54.45 995.84 55.36 996.54 56.32C995.21 58.14 993.86 59.97 992.52 61.8C993.21 62.74 993.87 63.64 994.54 64.55C995.86 62.73 997.19 60.89 998.49 59.09C1000.54 61.89 1002.55 64.65 1004.55 67.4C1003.89 68.3 1003.23 69.19 1002.58 70.08C1001.28 68.29 999.95 66.46 998.62 64.63C997.92 65.61 997.27 66.53 996.58 67.5C997.89 69.29 999.23 71.12 1000.56 72.94C998.51 75.75 996.5 78.51 994.5 81.26C993.88 80.4 993.22 79.5 992.55 78.56C993.88 76.75 995.22 74.93 996.62 73.03C996.27 72.57 995.98 72.19 995.7 71.81C995.37 71.37 995.05 70.93 994.74 70.47C994.58 70.23 994.49 70.26 994.33 70.48C993.14 72.15 991.93 73.81 990.73 75.47C990.66 75.56 990.59 75.65 990.55 75.71C988.53 72.93 986.52 70.17 984.53 67.43C985.18 66.54 985.84 65.64 986.5 64.73C987.79 66.52 989.12 68.35 990.43 70.15C991.12 69.19 991.78 68.28 992.46 67.34C991.16 65.57 989.82 63.74 988.48 61.92C990.54 59.09 992.55 56.33 994.55 53.58Z" fill="#1A1A1A"/>
<path d="M1048.54 67.7L1031.61 91.04L1014.81 67.76L1031.69 44.43L1048.54 67.7Z" fill="white"/>
<path d="M1032.17 53.58C1032.8 54.45 1033.46 55.36 1034.16 56.32C1032.83 58.14 1031.48 59.97 1030.14 61.8C1030.83 62.74 1031.49 63.64 1032.16 64.55C1033.48 62.73 1034.81 60.89 1036.11 59.09C1038.16 61.89 1040.17 64.65 1042.17 67.4C1041.51 68.3 1040.85 69.19 1040.2 70.08C1038.9 68.29 1037.57 66.46 1036.24 64.63C1035.54 65.61 1034.89 66.53 1034.2 67.5C1035.51 69.29 1036.85 71.12 1038.18 72.94C1036.13 75.75 1034.12 78.51 1032.12 81.26C1031.5 80.4 1030.84 79.5 1030.17 78.56C1031.5 76.75 1032.84 74.93 1034.24 73.03C1033.89 72.57 1033.6 72.19 1033.32 71.81C1032.99 71.37 1032.67 70.93 1032.36 70.47C1032.2 70.23 1032.11 70.26 1031.95 70.48C1030.76 72.15 1029.55 73.81 1028.35 75.47C1028.28 75.56 1028.21 75.65 1028.17 75.71C1026.15 72.93 1024.14 70.17 1022.15 67.43C1022.8 66.54 1023.46 65.64 1024.12 64.73C1025.41 66.52 1026.74 68.35 1028.05 70.15C1028.74 69.19 1029.4 68.28 1030.08 67.34C1028.78 65.57 1027.44 63.74 1026.1 61.92C1028.16 59.09 1030.17 56.33 1032.17 53.58Z" fill="#1A1A1A"/>
<path d="M1086.16 67.7L1069.23 91.04L1052.43 67.76L1069.31 44.43L1086.16 67.7Z" fill="white"/>
<path d="M1069.79 53.58C1070.42 54.45 1071.08 55.36 1071.78 56.32C1070.45 58.14 1069.1 59.97 1067.76 61.8C1068.45 62.74 1069.11 63.64 1069.78 64.55C1071.1 62.73 1072.43 60.89 1073.73 59.09C1075.78 61.89 1077.79 64.65 1079.79 67.4C1079.13 68.3 1078.47 69.19 1077.82 70.08C1076.52 68.29 1075.19 66.46 1073.86 64.63C1073.16 65.61 1072.51 66.53 1071.82 67.5C1073.13 69.29 1074.47 71.12 1075.8 72.94C1073.75 75.75 1071.74 78.51 1069.74 81.26C1069.12 80.4 1068.46 79.5 1067.79 78.56C1069.12 76.75 1070.46 74.93 1071.86 73.03C1071.51 72.57 1071.22 72.19 1070.94 71.81C1070.61 71.37 1070.29 70.93 1069.98 70.47C1069.82 70.23 1069.73 70.26 1069.57 70.48C1068.38 72.15 1067.17 73.81 1065.97 75.47C1065.9 75.56 1065.83 75.65 1065.79 75.71C1063.77 72.93 1061.76 70.17 1059.77 67.43C1060.42 66.54 1061.08 65.64 1061.74 64.73C1063.03 66.52 1064.36 68.35 1065.67 70.15C1066.36 69.19 1067.02 68.28 1067.7 67.34C1066.4 65.57 1065.06 63.74 1063.72 61.92C1065.78 59.09 1067.79 56.33 1069.79 53.58Z" fill="#1A1A1A"/>
<path d="M1123.78 67.7L1106.85 91.04L1090.05 67.76L1106.93 44.43L1123.78 67.7Z" fill="white"/>
<path d="M1107.41 53.58C1108.04 54.45 1108.7 55.36 1109.4 56.32C1108.07 58.14 1106.72 59.97 1105.38 61.8C1106.07 62.74 1106.73 63.64 1107.4 64.55C1108.72 62.73 1110.05 60.89 1111.35 59.09C1113.4 61.89 1115.41 64.65 1117.41 67.4C1116.75 68.3 1116.09 69.19 1115.44 70.08C1114.14 68.29 1112.81 66.46 1111.48 64.63C1110.78 65.61 1110.13 66.53 1109.44 67.5C1110.75 69.29 1112.09 71.12 1113.42 72.94C1111.37 75.75 1109.36 78.51 1107.36 81.26C1106.74 80.4 1106.08 79.5 1105.41 78.56C1106.74 76.75 1108.08 74.93 1109.48 73.03C1109.13 72.57 1108.84 72.19 1108.56 71.81C1108.23 71.37 1107.91 70.93 1107.6 70.47C1107.44 70.23 1107.35 70.26 1107.19 70.48C1106 72.15 1104.79 73.81 1103.59 75.47C1103.52 75.56 1103.45 75.65 1103.41 75.71C1101.39 72.93 1099.38 70.17 1097.39 67.43C1098.04 66.54 1098.7 65.64 1099.36 64.73C1100.65 66.52 1101.98 68.35 1103.29 70.15C1103.98 69.19 1104.64 68.28 1105.32 67.34C1104.02 65.57 1102.68 63.74 1101.34 61.92C1103.4 59.09 1105.41 56.33 1107.41 53.58Z" fill="#1A1A1A"/>
<path d="M1161.4 67.7L1144.47 91.04L1127.67 67.76L1144.55 44.43L1161.4 67.7Z" fill="white"/>
<path d="M1145.03 53.58C1145.66 54.45 1146.32 55.36 1147.02 56.32C1145.69 58.14 1144.34 59.97 1143 61.8C1143.69 62.74 1144.35 63.64 1145.02 64.55C1146.34 62.73 1147.67 60.89 1148.97 59.09C1151.02 61.89 1153.03 64.65 1155.03 67.4C1154.37 68.3 1153.71 69.19 1153.06 70.08C1151.76 68.29 1150.43 66.46 1149.1 64.63C1148.4 65.61 1147.75 66.53 1147.06 67.5C1148.37 69.29 1149.71 71.12 1151.04 72.94C1148.99 75.75 1146.98 78.51 1144.98 81.26C1144.36 80.4 1143.7 79.5 1143.03 78.56C1144.36 76.75 1145.7 74.93 1147.1 73.03C1146.75 72.57 1146.46 72.19 1146.18 71.81C1145.85 71.37 1145.53 70.93 1145.22 70.47C1145.06 70.23 1144.97 70.26 1144.81 70.48C1143.62 72.15 1142.41 73.81 1141.21 75.47C1141.14 75.56 1141.07 75.65 1141.03 75.71C1139.01 72.93 1137 70.17 1135.01 67.43C1135.66 66.54 1136.32 65.64 1136.98 64.73C1138.27 66.52 1139.6 68.35 1140.91 70.15C1141.6 69.19 1142.26 68.28 1142.94 67.34C1141.64 65.57 1140.3 63.74 1138.96 61.92C1141.02 59.09 1143.03 56.33 1145.03 53.58Z" fill="#1A1A1A"/>
<path d="M1199.02 67.7L1182.09 91.04L1165.29 67.76L1182.17 44.43L1199.02 67.7Z" fill="white"/>
<path d="M1182.65 53.58C1183.28 54.45 1183.94 55.36 1184.64 56.32C1183.31 58.14 1181.96 59.97 1180.62 61.8C1181.31 62.74 1181.97 63.64 1182.64 64.55C1183.96 62.73 1185.29 60.89 1186.59 59.09C1188.64 61.89 1190.65 64.65 1192.65 67.4C1191.99 68.3 1191.33 69.19 1190.68 70.08C1189.38 68.29 1188.05 66.46 1186.72 64.63C1186.02 65.61 1185.37 66.53 1184.68 67.5C1185.99 69.29 1187.33 71.12 1188.66 72.94C1186.61 75.75 1184.6 78.51 1182.6 81.26C1181.98 80.4 1181.32 79.5 1180.65 78.56C1181.98 76.75 1183.32 74.93 1184.72 73.03C1184.37 72.57 1184.08 72.19 1183.8 71.81C1183.47 71.37 1183.15 70.93 1182.84 70.47C1182.68 70.23 1182.59 70.26 1182.43 70.48C1181.24 72.15 1180.03 73.81 1178.83 75.47C1178.76 75.56 1178.69 75.65 1178.65 75.71C1176.63 72.93 1174.62 70.17 1172.63 67.43C1173.28 66.54 1173.94 65.64 1174.6 64.73C1175.89 66.52 1177.22 68.35 1178.53 70.15C1179.22 69.19 1179.88 68.28 1180.56 67.34C1179.26 65.57 1177.92 63.74 1176.58 61.92C1178.64 59.09 1180.65 56.33 1182.65 53.58Z" fill="#1A1A1A"/>
<path d="M1236.64 67.7L1219.71 91.04L1202.91 67.76L1219.79 44.43L1236.64 67.7Z" fill="white"/>
<path d="M1220.27 53.58C1220.9 54.45 1221.56 55.36 1222.26 56.32C1220.93 58.14 1219.58 59.97 1218.24 61.8C1218.93 62.74 1219.59 63.64 1220.26 64.55C1221.58 62.73 1222.91 60.89 1224.21 59.09C1226.26 61.89 1228.27 64.65 1230.27 67.4C1229.61 68.3 1228.95 69.19 1228.3 70.08C1227 68.29 1225.67 66.46 1224.34 64.63C1223.64 65.61 1222.99 66.53 1222.3 67.5C1223.61 69.29 1224.95 71.12 1226.28 72.94C1224.23 75.75 1222.22 78.51 1220.22 81.26C1219.6 80.4 1218.94 79.5 1218.27 78.56C1219.6 76.75 1220.94 74.93 1222.34 73.03C1221.99 72.57 1221.7 72.19 1221.42 71.81C1221.09 71.37 1220.77 70.93 1220.46 70.47C1220.3 70.23 1220.21 70.26 1220.05 70.48C1218.86 72.15 1217.65 73.81 1216.45 75.47C1216.38 75.56 1216.31 75.65 1216.27 75.71C1214.25 72.93 1212.24 70.17 1210.25 67.43C1210.9 66.54 1211.56 65.64 1212.22 64.73C1213.51 66.52 1214.84 68.35 1216.15 70.15C1216.84 69.19 1217.5 68.28 1218.18 67.34C1216.88 65.57 1215.54 63.74 1214.2 61.92C1216.26 59.09 1218.27 56.33 1220.27 53.58Z" fill="#1A1A1A"/>
<path d="M1274.26 67.7L1257.33 91.04L1240.53 67.76L1257.41 44.43L1274.26 67.7Z" fill="white"/>
<path d="M1257.89 53.58C1258.52 54.45 1259.18 55.36 1259.88 56.32C1258.55 58.14 1257.2 59.97 1255.86 61.8C1256.55 62.74 1257.21 63.64 1257.88 64.55C1259.2 62.73 1260.53 60.89 1261.83 59.09C1263.88 61.89 1265.89 64.65 1267.89 67.4C1267.23 68.3 1266.57 69.19 1265.92 70.08C1264.62 68.29 1263.29 66.46 1261.96 64.63C1261.26 65.61 1260.61 66.53 1259.92 67.5C1261.23 69.29 1262.57 71.12 1263.9 72.94C1261.85 75.75 1259.84 78.51 1257.84 81.26C1257.22 80.4 1256.56 79.5 1255.89 78.56C1257.22 76.75 1258.56 74.93 1259.96 73.03C1259.61 72.57 1259.32 72.19 1259.04 71.81C1258.71 71.37 1258.39 70.93 1258.08 70.47C1257.92 70.23 1257.83 70.26 1257.67 70.48C1256.48 72.15 1255.27 73.81 1254.07 75.47C1254 75.56 1253.93 75.65 1253.89 75.71C1251.87 72.93 1249.86 70.17 1247.87 67.43C1248.52 66.54 1249.18 65.64 1249.84 64.73C1251.13 66.52 1252.46 68.35 1253.77 70.15C1254.46 69.19 1255.12 68.28 1255.8 67.34C1254.5 65.57 1253.16 63.74 1251.82 61.92C1253.88 59.09 1255.89 56.33 1257.89 53.58Z" fill="#1A1A1A"/>
<path d="M1311.88 67.7L1294.95 91.04L1278.15 67.76L1295.03 44.43L1311.88 67.7Z" fill="white"/>
<path d="M1295.51 53.58C1296.14 54.45 1296.8 55.36 1297.5 56.32C1296.17 58.14 1294.82 59.97 1293.48 61.8C1294.17 62.74 1294.83 63.64 1295.5 64.55C1296.82 62.73 1298.15 60.89 1299.45 59.09C1301.5 61.89 1303.51 64.65 1305.51 67.4C1304.85 68.3 1304.19 69.19 1303.54 70.08C1302.24 68.29 1300.91 66.46 1299.58 64.63C1298.88 65.61 1298.23 66.53 1297.54 67.5C1298.85 69.29 1300.19 71.12 1301.52 72.94C1299.47 75.75 1297.46 78.51 1295.46 81.26C1294.84 80.4 1294.18 79.5 1293.51 78.56C1294.84 76.75 1296.18 74.93 1297.58 73.03C1297.23 72.57 1296.94 72.19 1296.66 71.81C1296.33 71.37 1296.01 70.93 1295.7 70.47C1295.54 70.23 1295.45 70.26 1295.29 70.48C1294.1 72.15 1292.89 73.81 1291.69 75.47C1291.62 75.56 1291.55 75.65 1291.51 75.71C1289.49 72.93 1287.48 70.17 1285.49 67.43C1286.14 66.54 1286.8 65.64 1287.46 64.73C1288.75 66.52 1290.08 68.35 1291.39 70.15C1292.08 69.19 1292.74 68.28 1293.42 67.34C1292.12 65.57 1290.78 63.74 1289.44 61.92C1291.5 59.09 1293.51 56.33 1295.51 53.58Z" fill="#1A1A1A"/>
<path d="M1349.5 67.7L1332.57 91.04L1315.77 67.76L1332.65 44.43L1349.5 67.7Z" fill="white"/>
<path d="M1333.13 53.58C1333.76 54.45 1334.42 55.36 1335.12 56.32C1333.79 58.14 1332.44 59.97 1331.1 61.8C1331.79 62.74 1332.45 63.64 1333.12 64.55C1334.44 62.73 1335.77 60.89 1337.07 59.09C1339.12 61.89 1341.13 64.65 1343.13 67.4C1342.47 68.3 1341.81 69.19 1341.16 70.08C1339.86 68.29 1338.53 66.46 1337.2 64.63C1336.5 65.61 1335.85 66.53 1335.16 67.5C1336.47 69.29 1337.81 71.12 1339.14 72.94C1337.09 75.75 1335.08 78.51 1333.08 81.26C1332.46 80.4 1331.8 79.5 1331.13 78.56C1332.46 76.75 1333.8 74.93 1335.2 73.03C1334.85 72.57 1334.56 72.19 1334.28 71.81C1333.95 71.37 1333.63 70.93 1333.32 70.47C1333.16 70.23 1333.07 70.26 1332.91 70.48C1331.72 72.15 1330.51 73.81 1329.31 75.47C1329.24 75.56 1329.17 75.65 1329.13 75.71C1327.11 72.93 1325.1 70.17 1323.11 67.43C1323.76 66.54 1324.42 65.64 1325.08 64.73C1326.37 66.52 1327.7 68.35 1329.01 70.15C1329.7 69.19 1330.36 68.28 1331.04 67.34C1329.74 65.57 1328.4 63.74 1327.06 61.92C1329.12 59.09 1331.13 56.33 1333.13 53.58Z" fill="#1A1A1A"/>
<path d="M1387.12 67.7L1370.19 91.04L1353.39 67.76L1370.27 44.43L1387.12 67.7Z" fill="white"/>
<path d="M1370.75 53.58C1371.38 54.45 1372.04 55.36 1372.74 56.32C1371.41 58.14 1370.06 59.97 1368.72 61.8C1369.41 62.74 1370.07 63.64 1370.74 64.55C1372.06 62.73 1373.39 60.89 1374.69 59.09C1376.74 61.89 1378.75 64.65 1380.75 67.4C1380.09 68.3 1379.43 69.19 1378.78 70.08C1377.48 68.29 1376.15 66.46 1374.82 64.63C1374.12 65.61 1373.47 66.53 1372.78 67.5C1374.09 69.29 1375.43 71.12 1376.76 72.94C1374.71 75.75 1372.7 78.51 1370.7 81.26C1370.08 80.4 1369.42 79.5 1368.75 78.56C1370.08 76.75 1371.42 74.93 1372.82 73.03C1372.47 72.57 1372.18 72.19 1371.9 71.81C1371.57 71.37 1371.25 70.93 1370.94 70.47C1370.78 70.23 1370.69 70.26 1370.53 70.48C1369.34 72.15 1368.13 73.81 1366.93 75.47C1366.86 75.56 1366.79 75.65 1366.75 75.71C1364.73 72.93 1362.72 70.17 1360.73 67.43C1361.38 66.54 1362.04 65.64 1362.7 64.73C1363.99 66.52 1365.32 68.35 1366.63 70.15C1367.32 69.19 1367.98 68.28 1368.66 67.34C1367.36 65.57 1366.02 63.74 1364.68 61.92C1366.74 59.09 1368.75 56.33 1370.75 53.58Z" fill="#1A1A1A"/>
<path d="M1424.74 67.7L1407.81 91.04L1391.01 67.76L1407.89 44.43L1424.74 67.7Z" fill="white"/>
<path d="M1408.37 53.58C1409 54.45 1409.66 55.36 1410.36 56.32C1409.03 58.14 1407.68 59.97 1406.34 61.8C1407.03 62.74 1407.69 63.64 1408.36 64.55C1409.68 62.73 1411.01 60.89 1412.31 59.09C1414.36 61.89 1416.37 64.65 1418.37 67.4C1417.71 68.3 1417.05 69.19 1416.4 70.08C1415.1 68.29 1413.77 66.46 1412.44 64.63C1411.74 65.61 1411.09 66.53 1410.4 67.5C1411.71 69.29 1413.05 71.12 1414.38 72.94C1412.33 75.75 1410.32 78.51 1408.32 81.26C1407.7 80.4 1407.04 79.5 1406.37 78.56C1407.7 76.75 1409.04 74.93 1410.44 73.03C1410.09 72.57 1409.8 72.19 1409.52 71.81C1409.19 71.37 1408.87 70.93 1408.56 70.47C1408.4 70.23 1408.31 70.26 1408.15 70.48C1406.96 72.15 1405.75 73.81 1404.55 75.47C1404.48 75.56 1404.41 75.65 1404.37 75.71C1402.35 72.93 1400.34 70.17 1398.35 67.43C1399 66.54 1399.66 65.64 1400.32 64.73C1401.61 66.52 1402.94 68.35 1404.25 70.15C1404.94 69.19 1405.6 68.28 1406.28 67.34C1404.98 65.57 1403.64 63.74 1402.3 61.92C1404.36 59.09 1406.37 56.33 1408.37 53.58Z" fill="#1A1A1A"/>
<path d="M1462.36 67.7L1445.43 91.04L1428.63 67.76L1445.51 44.43L1462.36 67.7Z" fill="white"/>
<path d="M1445.99 53.58C1446.62 54.45 1447.28 55.36 1447.98 56.32C1446.65 58.14 1445.3 59.97 1443.96 61.8C1444.65 62.74 1445.31 63.64 1445.98 64.55C1447.3 62.73 1448.63 60.89 1449.93 59.09C1451.98 61.89 1453.99 64.65 1455.99 67.4C1455.33 68.3 1454.67 69.19 1454.02 70.08C1452.72 68.29 1451.39 66.46 1450.06 64.63C1449.36 65.61 1448.71 66.53 1448.02 67.5C1449.33 69.29 1450.67 71.12 1452 72.94C1449.95 75.75 1447.94 78.51 1445.94 81.26C1445.32 80.4 1444.66 79.5 1443.99 78.56C1445.32 76.75 1446.66 74.93 1448.06 73.03C1447.71 72.57 1447.42 72.19 1447.14 71.81C1446.81 71.37 1446.49 70.93 1446.18 70.47C1446.02 70.23 1445.93 70.26 1445.77 70.48C1444.58 72.15 1443.37 73.81 1442.17 75.47C1442.1 75.56 1442.03 75.65 1441.99 75.71C1439.97 72.93 1437.96 70.17 1435.97 67.43C1436.62 66.54 1437.28 65.64 1437.94 64.73C1439.23 66.52 1440.56 68.35 1441.87 70.15C1442.56 69.19 1443.22 68.28 1443.9 67.34C1442.6 65.57 1441.26 63.74 1439.92 61.92C1441.98 59.09 1443.99 56.33 1445.99 53.58Z" fill="#1A1A1A"/>
<path d="M1499.98 67.7L1483.05 91.04L1466.25 67.76L1483.13 44.43L1499.98 67.7Z" fill="white"/>
<path d="M1483.61 53.58C1484.24 54.45 1484.9 55.36 1485.6 56.32C1484.27 58.14 1482.92 59.97 1481.58 61.8C1482.27 62.74 1482.93 63.64 1483.6 64.55C1484.92 62.73 1486.25 60.89 1487.55 59.09C1489.6 61.89 1491.61 64.65 1493.61 67.4C1492.95 68.3 1492.29 69.19 1491.64 70.08C1490.34 68.29 1489.01 66.46 1487.68 64.63C1486.98 65.61 1486.33 66.53 1485.64 67.5C1486.95 69.29 1488.29 71.12 1489.62 72.94C1487.57 75.75 1485.56 78.51 1483.56 81.26C1482.94 80.4 1482.28 79.5 1481.61 78.56C1482.94 76.75 1484.28 74.93 1485.68 73.03C1485.33 72.57 1485.04 72.19 1484.76 71.81C1484.43 71.37 1484.11 70.93 1483.8 70.47C1483.64 70.23 1483.55 70.26 1483.39 70.48C1482.2 72.15 1480.99 73.81 1479.79 75.47C1479.72 75.56 1479.65 75.65 1479.61 75.71C1477.59 72.93 1475.58 70.17 1473.59 67.43C1474.24 66.54 1474.9 65.64 1475.56 64.73C1476.85 66.52 1478.18 68.35 1479.49 70.15C1480.18 69.19 1480.84 68.28 1481.52 67.34C1480.22 65.57 1478.88 63.74 1477.54 61.92C1479.6 59.09 1481.61 56.33 1483.61 53.58Z" fill="#1A1A1A"/>
<path d="M1537.6 67.7L1520.67 91.04L1503.87 67.76L1520.75 44.43L1537.6 67.7Z" fill="white"/>
<path d="M1521.23 53.58C1521.86 54.45 1522.52 55.36 1523.22 56.32C1521.89 58.14 1520.54 59.97 1519.2 61.8C1519.89 62.74 1520.55 63.64 1521.22 64.55C1522.54 62.73 1523.87 60.89 1525.17 59.09C1527.22 61.89 1529.23 64.65 1531.23 67.4C1530.57 68.3 1529.91 69.19 1529.26 70.08C1527.96 68.29 1526.63 66.46 1525.3 64.63C1524.6 65.61 1523.95 66.53 1523.26 67.5C1524.57 69.29 1525.91 71.12 1527.24 72.94C1525.19 75.75 1523.18 78.51 1521.18 81.26C1520.56 80.4 1519.9 79.5 1519.23 78.56C1520.56 76.75 1521.9 74.93 1523.3 73.03C1522.95 72.57 1522.66 72.19 1522.38 71.81C1522.05 71.37 1521.73 70.93 1521.42 70.47C1521.26 70.23 1521.17 70.26 1521.01 70.48C1519.82 72.15 1518.61 73.81 1517.41 75.47C1517.34 75.56 1517.27 75.65 1517.23 75.71C1515.21 72.93 1513.2 70.17 1511.21 67.43C1511.86 66.54 1512.52 65.64 1513.18 64.73C1514.47 66.52 1515.8 68.35 1517.11 70.15C1517.8 69.19 1518.46 68.28 1519.14 67.34C1517.84 65.57 1516.5 63.74 1515.16 61.92C1517.22 59.09 1519.23 56.33 1521.23 53.58Z" fill="#1A1A1A"/>
<path d="M1575.22 67.7L1558.29 91.04L1541.49 67.76L1558.37 44.43L1575.22 67.7Z" fill="white"/>
<path d="M1558.85 53.58C1559.48 54.45 1560.14 55.36 1560.84 56.32C1559.51 58.14 1558.16 59.97 1556.82 61.8C1557.51 62.74 1558.17 63.64 1558.84 64.55C1560.16 62.73 1561.49 60.89 1562.79 59.09C1564.84 61.89 1566.85 64.65 1568.85 67.4C1568.19 68.3 1567.53 69.19 1566.88 70.08C1565.58 68.29 1564.25 66.46 1562.92 64.63C1562.22 65.61 1561.57 66.53 1560.88 67.5C1562.19 69.29 1563.53 71.12 1564.86 72.94C1562.81 75.75 1560.8 78.51 1558.8 81.26C1558.18 80.4 1557.52 79.5 1556.85 78.56C1558.18 76.75 1559.52 74.93 1560.92 73.03C1560.57 72.57 1560.28 72.19 1560 71.81C1559.67 71.37 1559.35 70.93 1559.04 70.47C1558.88 70.23 1558.79 70.26 1558.63 70.48C1557.44 72.15 1556.23 73.81 1555.03 75.47C1554.96 75.56 1554.89 75.65 1554.85 75.71C1552.83 72.93 1550.82 70.17 1548.83 67.43C1549.48 66.54 1550.14 65.64 1550.8 64.73C1552.09 66.52 1553.42 68.35 1554.73 70.15C1555.42 69.19 1556.08 68.28 1556.76 67.34C1555.46 65.57 1554.12 63.74 1552.78 61.92C1554.84 59.09 1556.85 56.33 1558.85 53.58Z" fill="#1A1A1A"/>
<path d="M1612.84 67.7L1595.91 91.04L1579.11 67.76L1595.99 44.43L1612.84 67.7Z" fill="white"/>
<path d="M1596.47 53.58C1597.1 54.45 1597.76 55.36 1598.46 56.32C1597.13 58.14 1595.78 59.97 1594.44 61.8C1595.13 62.74 1595.79 63.64 1596.46 64.55C1597.78 62.73 1599.11 60.89 1600.41 59.09C1602.46 61.89 1604.47 64.65 1606.47 67.4C1605.81 68.3 1605.15 69.19 1604.5 70.08C1603.2 68.29 1601.87 66.46 1600.54 64.63C1599.84 65.61 1599.19 66.53 1598.5 67.5C1599.81 69.29 1601.15 71.12 1602.48 72.94C1600.43 75.75 1598.42 78.51 1596.42 81.26C1595.8 80.4 1595.14 79.5 1594.47 78.56C1595.8 76.75 1597.14 74.93 1598.54 73.03C1598.19 72.57 1597.9 72.19 1597.62 71.81C1597.29 71.37 1596.97 70.93 1596.66 70.47C1596.5 70.23 1596.41 70.26 1596.25 70.48C1595.06 72.15 1593.85 73.81 1592.65 75.47C1592.58 75.56 1592.51 75.65 1592.47 75.71C1590.45 72.93 1588.44 70.17 1586.45 67.43C1587.1 66.54 1587.76 65.64 1588.42 64.73C1589.71 66.52 1591.04 68.35 1592.35 70.15C1593.04 69.19 1593.7 68.28 1594.38 67.34C1593.08 65.57 1591.74 63.74 1590.4 61.92C1592.46 59.09 1594.47 56.33 1596.47 53.58Z" fill="#1A1A1A"/>
<path d="M1650.46 67.7L1633.53 91.04L1616.73 67.76L1633.61 44.43L1650.46 67.7Z" fill="white"/>
<path d="M1634.09 53.58C1634.72 54.45 1635.38 55.36 1636.08 56.32C1634.75 58.14 1633.4 59.97 1632.06 61.8C1632.75 62.74 1633.41 63.64 1634.08 64.55C1635.4 62.73 1636.73 60.89 1638.03 59.09C1640.08 61.89 1642.09 64.65 1644.09 67.4C1643.43 68.3 1642.77 69.19 1642.12 70.08C1640.82 68.29 1639.49 66.46 1638.16 64.63C1637.46 65.61 1636.81 66.53 1636.12 67.5C1637.43 69.29 1638.77 71.12 1640.1 72.94C1638.05 75.75 1636.04 78.51 1634.04 81.26C1633.42 80.4 1632.76 79.5 1632.09 78.56C1633.42 76.75 1634.76 74.93 1636.16 73.03C1635.81 72.57 1635.52 72.19 1635.24 71.81C1634.91 71.37 1634.59 70.93 1634.28 70.47C1634.12 70.23 1634.03 70.26 1633.87 70.48C1632.68 72.15 1631.47 73.81 1630.27 75.47C1630.2 75.56 1630.13 75.65 1630.09 75.71C1628.07 72.93 1626.06 70.17 1624.07 67.43C1624.72 66.54 1625.38 65.64 1626.04 64.73C1627.33 66.52 1628.66 68.35 1629.97 70.15C1630.66 69.19 1631.32 68.28 1632 67.34C1630.7 65.57 1629.36 63.74 1628.02 61.92C1630.08 59.09 1632.09 56.33 1634.09 53.58Z" fill="#1A1A1A"/>
<path d="M1688.08 67.7L1671.15 91.04L1654.35 67.76L1671.23 44.43L1688.08 67.7Z" fill="white"/>
<path d="M1671.71 53.58C1672.34 54.45 1673 55.36 1673.7 56.32C1672.37 58.14 1671.02 59.97 1669.68 61.8C1670.37 62.74 1671.03 63.64 1671.7 64.55C1673.02 62.73 1674.35 60.89 1675.65 59.09C1677.7 61.89 1679.71 64.65 1681.71 67.4C1681.05 68.3 1680.39 69.19 1679.74 70.08C1678.44 68.29 1677.11 66.46 1675.78 64.63C1675.08 65.61 1674.43 66.53 1673.74 67.5C1675.05 69.29 1676.39 71.12 1677.72 72.94C1675.67 75.75 1673.66 78.51 1671.66 81.26C1671.04 80.4 1670.38 79.5 1669.71 78.56C1671.04 76.75 1672.38 74.93 1673.78 73.03C1673.43 72.57 1673.14 72.19 1672.86 71.81C1672.53 71.37 1672.21 70.93 1671.9 70.47C1671.74 70.23 1671.65 70.26 1671.49 70.48C1670.3 72.15 1669.09 73.81 1667.89 75.47C1667.82 75.56 1667.75 75.65 1667.71 75.71C1665.69 72.93 1663.68 70.17 1661.69 67.43C1662.34 66.54 1663 65.64 1663.66 64.73C1664.95 66.52 1666.28 68.35 1667.59 70.15C1668.28 69.19 1668.94 68.28 1669.62 67.34C1668.32 65.57 1666.98 63.74 1665.64 61.92C1667.7 59.09 1669.71 56.33 1671.71 53.58Z" fill="#1A1A1A"/>
<path d="M1725.7 67.7L1708.77 91.04L1691.97 67.76L1708.85 44.43L1725.7 67.7Z" fill="white"/>
<path d="M1709.33 53.58C1709.96 54.45 1710.62 55.36 1711.32 56.32C1709.99 58.14 1708.64 59.97 1707.3 61.8C1707.99 62.74 1708.65 63.64 1709.32 64.55C1710.64 62.73 1711.97 60.89 1713.27 59.09C1715.32 61.89 1717.33 64.65 1719.33 67.4C1718.67 68.3 1718.01 69.19 1717.36 70.08C1716.06 68.29 1714.73 66.46 1713.4 64.63C1712.7 65.61 1712.05 66.53 1711.36 67.5C1712.67 69.29 1714.01 71.12 1715.34 72.94C1713.29 75.75 1711.28 78.51 1709.28 81.26C1708.66 80.4 1708 79.5 1707.33 78.56C1708.66 76.75 1710 74.93 1711.4 73.03C1711.05 72.57 1710.76 72.19 1710.48 71.81C1710.15 71.37 1709.83 70.93 1709.52 70.47C1709.36 70.23 1709.27 70.26 1709.11 70.48C1707.92 72.15 1706.71 73.81 1705.51 75.47C1705.44 75.56 1705.37 75.65 1705.33 75.71C1703.31 72.93 1701.3 70.17 1699.31 67.43C1699.96 66.54 1700.62 65.64 1701.28 64.73C1702.57 66.52 1703.9 68.35 1705.21 70.15C1705.9 69.19 1706.56 68.28 1707.24 67.34C1705.94 65.57 1704.6 63.74 1703.26 61.92C1705.32 59.09 1707.33 56.33 1709.33 53.58Z" fill="#1A1A1A"/>
<path d="M1763.32 67.7L1746.39 91.04L1729.59 67.76L1746.47 44.43L1763.32 67.7Z" fill="white"/>
<path d="M1746.95 53.58C1747.58 54.45 1748.24 55.36 1748.94 56.32C1747.61 58.14 1746.26 59.97 1744.92 61.8C1745.61 62.74 1746.27 63.64 1746.94 64.55C1748.26 62.73 1749.59 60.89 1750.89 59.09C1752.94 61.89 1754.95 64.65 1756.95 67.4C1756.29 68.3 1755.63 69.19 1754.98 70.08C1753.68 68.29 1752.35 66.46 1751.02 64.63C1750.32 65.61 1749.67 66.53 1748.98 67.5C1750.29 69.29 1751.63 71.12 1752.96 72.94C1750.91 75.75 1748.9 78.51 1746.9 81.26C1746.28 80.4 1745.62 79.5 1744.95 78.56C1746.28 76.75 1747.62 74.93 1749.02 73.03C1748.67 72.57 1748.38 72.19 1748.1 71.81C1747.77 71.37 1747.45 70.93 1747.14 70.47C1746.98 70.23 1746.89 70.26 1746.73 70.48C1745.54 72.15 1744.33 73.81 1743.13 75.47C1743.06 75.56 1742.99 75.65 1742.95 75.71C1740.93 72.93 1738.92 70.17 1736.93 67.43C1737.58 66.54 1738.24 65.64 1738.9 64.73C1740.19 66.52 1741.52 68.35 1742.83 70.15C1743.52 69.19 1744.18 68.28 1744.86 67.34C1743.56 65.57 1742.22 63.74 1740.88 61.92C1742.94 59.09 1744.95 56.33 1746.95 53.58Z" fill="#1A1A1A"/>
<path d="M1800.94 67.7L1784.01 91.04L1767.21 67.76L1784.09 44.43L1800.94 67.7Z" fill="white"/>
<path d="M1784.57 53.58C1785.2 54.45 1785.86 55.36 1786.56 56.32C1785.23 58.14 1783.88 59.97 1782.54 61.8C1783.23 62.74 1783.89 63.64 1784.56 64.55C1785.88 62.73 1787.21 60.89 1788.51 59.09C1790.56 61.89 1792.57 64.65 1794.57 67.4C1793.91 68.3 1793.25 69.19 1792.6 70.08C1791.3 68.29 1789.97 66.46 1788.64 64.63C1787.94 65.61 1787.29 66.53 1786.6 67.5C1787.91 69.29 1789.25 71.12 1790.58 72.94C1788.53 75.75 1786.52 78.51 1784.52 81.26C1783.9 80.4 1783.24 79.5 1782.57 78.56C1783.9 76.75 1785.24 74.93 1786.64 73.03C1786.29 72.57 1786 72.19 1785.72 71.81C1785.39 71.37 1785.07 70.93 1784.76 70.47C1784.6 70.23 1784.51 70.26 1784.35 70.48C1783.16 72.15 1781.95 73.81 1780.75 75.47C1780.68 75.56 1780.61 75.65 1780.57 75.71C1778.55 72.93 1776.54 70.17 1774.55 67.43C1775.2 66.54 1775.86 65.64 1776.52 64.73C1777.81 66.52 1779.14 68.35 1780.45 70.15C1781.14 69.19 1781.8 68.28 1782.48 67.34C1781.18 65.57 1779.84 63.74 1778.5 61.92C1780.56 59.09 1782.57 56.33 1784.57 53.58Z" fill="#1A1A1A"/>
<path d="M1838.56 67.7L1821.63 91.04L1804.83 67.76L1821.71 44.43L1838.56 67.7Z" fill="white"/>
<path d="M1822.19 53.58C1822.82 54.45 1823.48 55.36 1824.18 56.32C1822.85 58.14 1821.5 59.97 1820.16 61.8C1820.85 62.74 1821.51 63.64 1822.18 64.55C1823.5 62.73 1824.83 60.89 1826.13 59.09C1828.18 61.89 1830.19 64.65 1832.19 67.4C1831.53 68.3 1830.87 69.19 1830.22 70.08C1828.92 68.29 1827.59 66.46 1826.26 64.63C1825.56 65.61 1824.91 66.53 1824.22 67.5C1825.53 69.29 1826.87 71.12 1828.2 72.94C1826.15 75.75 1824.14 78.51 1822.14 81.26C1821.52 80.4 1820.86 79.5 1820.19 78.56C1821.52 76.75 1822.86 74.93 1824.26 73.03C1823.91 72.57 1823.62 72.19 1823.34 71.81C1823.01 71.37 1822.69 70.93 1822.38 70.47C1822.22 70.23 1822.13 70.26 1821.97 70.48C1820.78 72.15 1819.57 73.81 1818.37 75.47C1818.3 75.56 1818.23 75.65 1818.19 75.71C1816.17 72.93 1814.16 70.17 1812.17 67.43C1812.82 66.54 1813.48 65.64 1814.14 64.73C1815.43 66.52 1816.76 68.35 1818.07 70.15C1818.76 69.19 1819.42 68.28 1820.1 67.34C1818.8 65.57 1817.46 63.74 1816.12 61.92C1818.18 59.09 1820.19 56.33 1822.19 53.58Z" fill="#1A1A1A"/>
<path d="M1876.18 67.7L1859.25 91.04L1842.45 67.76L1859.33 44.43L1876.18 67.7Z" fill="white"/>
<path d="M1859.81 53.58C1860.44 54.45 1861.1 55.36 1861.8 56.32C1860.47 58.14 1859.12 59.97 1857.78 61.8C1858.47 62.74 1859.13 63.64 1859.8 64.55C1861.12 62.73 1862.45 60.89 1863.75 59.09C1865.8 61.89 1867.81 64.65 1869.81 67.4C1869.15 68.3 1868.49 69.19 1867.84 70.08C1866.54 68.29 1865.21 66.46 1863.88 64.63C1863.18 65.61 1862.53 66.53 1861.84 67.5C1863.15 69.29 1864.49 71.12 1865.82 72.94C1863.77 75.75 1861.76 78.51 1859.76 81.26C1859.14 80.4 1858.48 79.5 1857.81 78.56C1859.14 76.75 1860.48 74.93 1861.88 73.03C1861.53 72.57 1861.24 72.19 1860.96 71.81C1860.63 71.37 1860.31 70.93 1860 70.47C1859.84 70.23 1859.75 70.26 1859.59 70.48C1858.4 72.15 1857.19 73.81 1855.99 75.47C1855.92 75.56 1855.85 75.65 1855.81 75.71C1853.79 72.93 1851.78 70.17 1849.79 67.43C1850.44 66.54 1851.1 65.64 1851.76 64.73C1853.05 66.52 1854.38 68.35 1855.69 70.15C1856.38 69.19 1857.04 68.28 1857.72 67.34C1856.42 65.57 1855.08 63.74 1853.74 61.92C1855.8 59.09 1857.81 56.33 1859.81 53.58Z" fill="#1A1A1A"/>
<path d="M1913.8 67.7L1896.87 91.04L1880.07 67.76L1896.95 44.43L1913.8 67.7Z" fill="white"/>
<path d="M1897.43 53.58C1898.06 54.45 1898.72 55.36 1899.42 56.32C1898.09 58.14 1896.74 59.97 1895.4 61.8C1896.09 62.74 1896.75 63.64 1897.42 64.55C1898.74 62.73 1900.07 60.89 1901.37 59.09C1903.42 61.89 1905.43 64.65 1907.43 67.4C1906.77 68.3 1906.11 69.19 1905.46 70.08C1904.16 68.29 1902.83 66.46 1901.5 64.63C1900.8 65.61 1900.15 66.53 1899.46 67.5C1900.77 69.29 1902.11 71.12 1903.44 72.94C1901.39 75.75 1899.38 78.51 1897.38 81.26C1896.76 80.4 1896.1 79.5 1895.43 78.56C1896.76 76.75 1898.1 74.93 1899.5 73.03C1899.15 72.57 1898.86 72.19 1898.58 71.81C1898.25 71.37 1897.93 70.93 1897.62 70.47C1897.46 70.23 1897.37 70.26 1897.21 70.48C1896.02 72.15 1894.81 73.81 1893.61 75.47C1893.54 75.56 1893.47 75.65 1893.43 75.71C1891.41 72.93 1889.4 70.17 1887.41 67.43C1888.06 66.54 1888.72 65.64 1889.38 64.73C1890.67 66.52 1892 68.35 1893.31 70.15C1894 69.19 1894.66 68.28 1895.34 67.34C1894.04 65.57 1892.7 63.74 1891.36 61.92C1893.42 59.09 1895.43 56.33 1897.43 53.58Z" fill="#1A1A1A"/>
<path d="M33.61 92H26L29.81 86.84L33.61 81.69L37.42 86.84L41.22 92H33.61Z" fill="white"/>
<path d="M2.61 92H-5L-1.19 86.84L2.61 81.69L6.42 86.84L10.22 92H2.61Z" fill="white"/>
<path d="M71.2501 92H63.6401L67.4501 87.34L71.2501 82.69L75.0601 87.34L78.8601 92H71.2501Z" fill="white"/>
<path d="M108.89 92H101.28L105.09 86.84L108.89 81.69L112.7 86.84L116.5 92H108.89Z" fill="white"/>
<path d="M146.53 92H138.92L142.73 87.34L146.53 82.69L150.34 87.34L154.14 92H146.53Z" fill="white"/>
<path d="M184.17 92H176.56L180.37 86.84L184.17 81.69L187.98 86.84L191.78 92H184.17Z" fill="white"/>
<path d="M221.81 92H214.2L218.01 87.34L221.81 82.69L225.62 87.34L229.42 92H221.81Z" fill="white"/>
<path d="M259.45 92H251.84L255.65 86.84L259.45 81.69L263.26 86.84L267.06 92H259.45Z" fill="white"/>
<path d="M297.09 92H289.48L293.29 87.34L297.09 82.69L300.9 87.34L304.7 92H297.09Z" fill="white"/>
<path d="M334.73 93H327.12L330.93 87.84L334.73 82.69L338.54 87.84L342.34 93H334.73Z" fill="white"/>
<path d="M372.37 93H364.76L368.57 88.34L372.37 83.69L376.18 88.34L379.98 93H372.37Z" fill="white"/>
<path d="M410.01 93H402.4L406.21 87.84L410.01 82.69L413.82 87.84L417.62 93H410.01Z" fill="white"/>
<path d="M447.65 93H440.04L443.85 88.34L447.65 83.69L451.46 88.34L455.26 93H447.65Z" fill="white"/>
<path d="M485.29 93H477.68L481.49 87.84L485.29 82.69L489.1 87.84L492.9 93H485.29Z" fill="white"/>
<path d="M522.93 93H515.32L519.13 88.34L522.93 83.69L526.74 88.34L530.54 93H522.93Z" fill="white"/>
<path d="M560.57 93H552.96L556.77 87.84L560.57 82.69L564.38 87.84L568.18 93H560.57Z" fill="white"/>
<path d="M598.21 93H590.6L594.41 88.34L598.21 83.69L602.02 88.34L605.82 93H598.21Z" fill="white"/>
<path d="M635.85 92H628.24L632.05 86.84L635.85 81.69L639.66 86.84L643.46 92H635.85Z" fill="white"/>
<path d="M673.49 92H665.88L669.69 87.34L673.49 82.69L677.3 87.34L681.1 92H673.49Z" fill="white"/>
<path d="M711.13 92H703.52L707.33 86.84L711.13 81.69L714.94 86.84L718.74 92H711.13Z" fill="white"/>
<path d="M748.77 92H741.16L744.97 87.34L748.77 82.69L752.58 87.34L756.38 92H748.77Z" fill="white"/>
<path d="M786.41 92H778.8L782.61 86.84L786.41 81.69L790.22 86.84L794.02 92H786.41Z" fill="white"/>
<path d="M824.05 92H816.44L820.25 87.34L824.05 82.69L827.86 87.34L831.66 92H824.05Z" fill="white"/>
<path d="M861.69 92H854.08L857.89 86.84L861.69 81.69L865.5 86.84L869.3 92H861.69Z" fill="white"/>
<path d="M899.33 92H891.72L895.53 87.34L899.33 82.69L903.14 87.34L906.94 92H899.33Z" fill="white"/>
<path d="M936.97 92H929.36L933.17 86.84L936.97 81.69L940.78 86.84L944.58 92H936.97Z" fill="white"/>
<path d="M974.61 92H967L970.81 87.34L974.61 82.69L978.42 87.34L982.22 92H974.61Z" fill="white"/>
<path d="M1012.25 92H1004.64L1008.45 86.84L1012.25 81.69L1016.06 86.84L1019.86 92H1012.25Z" fill="white"/>
<path d="M1049.89 92H1042.28L1046.09 87.34L1049.89 82.69L1053.7 87.34L1057.5 92H1049.89Z" fill="white"/>
<path d="M1087.53 93H1079.92L1083.73 87.84L1087.53 82.69L1091.34 87.84L1095.14 93H1087.53Z" fill="white"/>
<path d="M1125.17 93H1117.56L1121.37 88.34L1125.17 83.69L1128.98 88.34L1132.78 93H1125.17Z" fill="white"/>
<path d="M1162.81 93H1155.2L1159.01 87.84L1162.81 82.69L1166.62 87.84L1170.42 93H1162.81Z" fill="white"/>
<path d="M1200.45 93H1192.84L1196.65 88.34L1200.45 83.69L1204.26 88.34L1208.06 93H1200.45Z" fill="white"/>
<path d="M1238.09 92H1230.48L1234.29 86.84L1238.09 81.69L1241.9 86.84L1245.7 92H1238.09Z" fill="white"/>
<path d="M1275.73 92H1268.12L1271.93 87.34L1275.73 82.69L1279.54 87.34L1283.34 92H1275.73Z" fill="white"/>
<path d="M1313.37 92H1305.76L1309.57 86.84L1313.37 81.69L1317.18 86.84L1320.98 92H1313.37Z" fill="white"/>
<path d="M1351.01 92H1343.4L1347.21 87.34L1351.01 82.69L1354.82 87.34L1358.62 92H1351.01Z" fill="white"/>
<path d="M1388.65 92H1381.04L1384.85 86.84L1388.65 81.69L1392.46 86.84L1396.26 92H1388.65Z" fill="white"/>
<path d="M1426.29 92H1418.68L1422.49 87.34L1426.29 82.69L1430.1 87.34L1433.9 92H1426.29Z" fill="white"/>
<path d="M1463.93 92H1456.32L1460.13 86.84L1463.93 81.69L1467.74 86.84L1471.54 92H1463.93Z" fill="white"/>
<path d="M1501.57 92H1493.96L1497.77 87.34L1501.57 82.69L1505.38 87.34L1509.18 92H1501.57Z" fill="white"/>
<path d="M1539.21 92H1531.6L1535.41 86.84L1539.21 81.69L1543.02 86.84L1546.82 92H1539.21Z" fill="white"/>
<path d="M1576.85 92H1569.24L1573.05 87.34L1576.85 82.69L1580.66 87.34L1584.46 92H1576.85Z" fill="white"/>
<path d="M1614.49 92H1606.88L1610.69 86.84L1614.49 81.69L1618.3 86.84L1622.1 92H1614.49Z" fill="white"/>
<path d="M1652.13 92H1644.52L1648.33 87.34L1652.13 82.69L1655.94 87.34L1659.74 92H1652.13Z" fill="white"/>
<path d="M1689.77 92H1682.16L1685.97 86.84L1689.77 81.69L1693.58 86.84L1697.38 92H1689.77Z" fill="white"/>
<path d="M1727.41 92H1719.8L1723.61 87.34L1727.41 82.69L1731.22 87.34L1735.02 92H1727.41Z" fill="white"/>
<path d="M1765.05 92H1757.44L1761.25 86.84L1765.05 81.69L1768.86 86.84L1772.66 92H1765.05Z" fill="white"/>
<path d="M1802.69 92H1795.08L1798.89 87.34L1802.69 82.69L1806.5 87.34L1810.3 92H1802.69Z" fill="white"/>
<path d="M1840.33 92H1832.72L1836.53 86.84L1840.33 81.69L1844.14 86.84L1847.94 92H1840.33Z" fill="white"/>
<path d="M1877.97 92H1870.36L1874.17 87.34L1877.97 82.69L1881.78 87.34L1885.58 92H1877.97Z" fill="white"/>
<path d="M1915.61 92H1908L1911.81 86.84L1915.61 81.69L1919.42 86.84L1923.22 92H1915.61Z" fill="white"/>
<path d="M34.61 41H27L30.81 46.16L34.61 51.31L38.42 46.16L42.22 41H34.61Z" fill="white"/>
<path d="M3.61 41H-4L-0.19 46.16L3.61 51.31L7.42 46.16L11.22 41H3.61Z" fill="white"/>
<path d="M72.2501 41H64.6401L68.4501 45.66L72.2501 50.31L76.0601 45.66L79.8601 41H72.2501Z" fill="white"/>
<path d="M109.89 41H102.28L106.09 46.16L109.89 51.31L113.7 46.16L117.5 41H109.89Z" fill="white"/>
<path d="M147.53 41H139.92L143.73 45.66L147.53 50.31L151.34 45.66L155.14 41H147.53Z" fill="white"/>
<path d="M185.17 41H177.56L181.37 46.16L185.17 51.31L188.98 46.16L192.78 41H185.17Z" fill="white"/>
<path d="M222.81 41H215.2L219.01 45.66L222.81 50.31L226.62 45.66L230.42 41H222.81Z" fill="white"/>
<path d="M260.45 41H252.84L256.65 46.16L260.45 51.31L264.26 46.16L268.06 41H260.45Z" fill="white"/>
<path d="M298.09 41H290.48L294.29 45.66L298.09 50.31L301.9 45.66L305.7 41H298.09Z" fill="white"/>
<path d="M335.73 40H328.12L331.93 45.16L335.73 50.31L339.54 45.16L343.34 40H335.73Z" fill="white"/>
<path d="M373.37 40H365.76L369.57 44.66L373.37 49.31L377.18 44.66L380.98 40H373.37Z" fill="white"/>
<path d="M411.01 40H403.4L407.21 45.16L411.01 50.31L414.82 45.16L418.62 40H411.01Z" fill="white"/>
<path d="M448.65 40H441.04L444.85 44.66L448.65 49.31L452.46 44.66L456.26 40H448.65Z" fill="white"/>
<path d="M486.29 40H478.68L482.49 45.16L486.29 50.31L490.1 45.16L493.9 40H486.29Z" fill="white"/>
<path d="M523.93 40H516.32L520.13 44.66L523.93 49.31L527.74 44.66L531.54 40H523.93Z" fill="white"/>
<path d="M561.57 40H553.96L557.77 45.16L561.57 50.31L565.38 45.16L569.18 40H561.57Z" fill="white"/>
<path d="M599.21 40H591.6L595.41 44.66L599.21 49.31L603.02 44.66L606.82 40H599.21Z" fill="white"/>
<path d="M636.85 41H629.24L633.05 46.16L636.85 51.31L640.66 46.16L644.46 41H636.85Z" fill="white"/>
<path d="M674.49 41H666.88L670.69 45.66L674.49 50.31L678.3 45.66L682.1 41H674.49Z" fill="white"/>
<path d="M712.13 41H704.52L708.33 46.16L712.13 51.31L715.94 46.16L719.74 41H712.13Z" fill="white"/>
<path d="M749.77 41H742.16L745.97 45.66L749.77 50.31L753.58 45.66L757.38 41H749.77Z" fill="white"/>
<path d="M787.41 41H779.8L783.61 46.16L787.41 51.31L791.22 46.16L795.02 41H787.41Z" fill="white"/>
<path d="M825.05 41H817.44L821.25 45.66L825.05 50.31L828.86 45.66L832.66 41H825.05Z" fill="white"/>
<path d="M862.69 41H855.08L858.89 46.16L862.69 51.31L866.5 46.16L870.3 41H862.69Z" fill="white"/>
<path d="M900.33 41H892.72L896.53 45.66L900.33 50.31L904.14 45.66L907.94 41H900.33Z" fill="white"/>
<path d="M937.97 41H930.36L934.17 46.16L937.97 51.31L941.78 46.16L945.58 41H937.97Z" fill="white"/>
<path d="M975.61 41H968L971.81 45.66L975.61 50.31L979.42 45.66L983.22 41H975.61Z" fill="white"/>
<path d="M1013.25 41H1005.64L1009.45 46.16L1013.25 51.31L1017.06 46.16L1020.86 41H1013.25Z" fill="white"/>
<path d="M1050.89 41H1043.28L1047.09 45.66L1050.89 50.31L1054.7 45.66L1058.5 41H1050.89Z" fill="white"/>
<path d="M1088.53 40H1080.92L1084.73 45.16L1088.53 50.31L1092.34 45.16L1096.14 40H1088.53Z" fill="white"/>
<path d="M1126.17 40H1118.56L1122.37 44.66L1126.17 49.31L1129.98 44.66L1133.78 40H1126.17Z" fill="white"/>
<path d="M1163.81 40H1156.2L1160.01 45.16L1163.81 50.31L1167.62 45.16L1171.42 40H1163.81Z" fill="white"/>
<path d="M1201.45 40H1193.84L1197.65 44.66L1201.45 49.31L1205.26 44.66L1209.06 40H1201.45Z" fill="white"/>
<path d="M1239.09 41H1231.48L1235.29 46.16L1239.09 51.31L1242.9 46.16L1246.7 41H1239.09Z" fill="white"/>
<path d="M1276.73 41H1269.12L1272.93 45.66L1276.73 50.31L1280.54 45.66L1284.34 41H1276.73Z" fill="white"/>
<path d="M1314.37 41H1306.76L1310.57 46.16L1314.37 51.31L1318.18 46.16L1321.98 41H1314.37Z" fill="white"/>
<path d="M1352.01 41H1344.4L1348.21 45.66L1352.01 50.31L1355.82 45.66L1359.62 41H1352.01Z" fill="white"/>
<path d="M1389.65 41H1382.04L1385.85 46.16L1389.65 51.31L1393.46 46.16L1397.26 41H1389.65Z" fill="white"/>
<path d="M1427.29 41H1419.68L1423.49 45.66L1427.29 50.31L1431.1 45.66L1434.9 41H1427.29Z" fill="white"/>
<path d="M1464.93 41H1457.32L1461.13 46.16L1464.93 51.31L1468.74 46.16L1472.54 41H1464.93Z" fill="white"/>
<path d="M1502.57 41H1494.96L1498.77 45.66L1502.57 50.31L1506.38 45.66L1510.18 41H1502.57Z" fill="white"/>
<path d="M1540.21 41H1532.6L1536.41 46.16L1540.21 51.31L1544.02 46.16L1547.82 41H1540.21Z" fill="white"/>
<path d="M1577.85 41H1570.24L1574.05 45.66L1577.85 50.31L1581.66 45.66L1585.46 41H1577.85Z" fill="white"/>
<path d="M1615.49 41H1607.88L1611.69 46.16L1615.49 51.31L1619.3 46.16L1623.1 41H1615.49Z" fill="white"/>
<path d="M1653.13 41H1645.52L1649.33 45.66L1653.13 50.31L1656.94 45.66L1660.74 41H1653.13Z" fill="white"/>
<path d="M1690.77 41H1683.16L1686.97 46.16L1690.77 51.31L1694.58 46.16L1698.38 41H1690.77Z" fill="white"/>
<path d="M1728.41 41H1720.8L1724.61 45.66L1728.41 50.31L1732.22 45.66L1736.02 41H1728.41Z" fill="white"/>
<path d="M1766.05 41H1758.44L1762.25 46.16L1766.05 51.31L1769.86 46.16L1773.66 41H1766.05Z" fill="white"/>
<path d="M1803.69 41H1796.08L1799.89 45.66L1803.69 50.31L1807.5 45.66L1811.3 41H1803.69Z" fill="white"/>
<path d="M1841.33 41H1833.72L1837.53 46.16L1841.33 51.31L1845.14 46.16L1848.94 41H1841.33Z" fill="white"/>
<path d="M1878.97 41H1871.36L1875.17 45.66L1878.97 50.31L1882.78 45.66L1886.58 41H1878.97Z" fill="white"/>
<path d="M1916.61 41H1909L1912.81 46.16L1916.61 51.31L1920.42 46.16L1924.22 41H1916.61Z" fill="white"/>
</g>
<g clip-path="url(#clip2_692_1896)">
<path d="M10.47 141.94C16.2524 141.94 20.94 137.252 20.94 131.47C20.94 125.688 16.2524 121 10.47 121C4.68758 121 0 125.688 0 131.47C0 137.252 4.68758 141.94 10.47 141.94Z" fill="white"/>
<path d="M10.4699 133.08C11.359 133.08 12.0799 132.359 12.0799 131.47C12.0799 130.581 11.359 129.86 10.4699 129.86C9.58069 129.86 8.85986 130.581 8.85986 131.47C8.85986 132.359 9.58069 133.08 10.4699 133.08Z" fill="#1A1A1A"/>
<path d="M36.8201 141.94C42.6025 141.94 47.2901 137.252 47.2901 131.47C47.2901 125.688 42.6025 121 36.8201 121C31.0377 121 26.3501 125.688 26.3501 131.47C26.3501 137.252 31.0377 141.94 36.8201 141.94Z" fill="white"/>
<path d="M36.82 133.08C37.7091 133.08 38.43 132.359 38.43 131.47C38.43 130.581 37.7091 129.86 36.82 129.86C35.9308 129.86 35.21 130.581 35.21 131.47C35.21 132.359 35.9308 133.08 36.82 133.08Z" fill="#1A1A1A"/>
<path d="M63.1702 141.94C68.9526 141.94 73.6402 137.252 73.6402 131.47C73.6402 125.688 68.9526 121 63.1702 121C57.3878 121 52.7002 125.688 52.7002 131.47C52.7002 137.252 57.3878 141.94 63.1702 141.94Z" fill="white"/>
<path d="M63.1701 133.08C64.0592 133.08 64.7801 132.359 64.7801 131.47C64.7801 130.581 64.0592 129.86 63.1701 129.86C62.2809 129.86 61.5601 130.581 61.5601 131.47C61.5601 132.359 62.2809 133.08 63.1701 133.08Z" fill="#1A1A1A"/>
<path d="M89.5198 141.94C95.3022 141.94 99.9898 137.252 99.9898 131.47C99.9898 125.688 95.3022 121 89.5198 121C83.7374 121 79.0498 125.688 79.0498 131.47C79.0498 137.252 83.7374 141.94 89.5198 141.94Z" fill="white"/>
<path d="M89.5197 133.08C90.4088 133.08 91.1297 132.359 91.1297 131.47C91.1297 130.581 90.4088 129.86 89.5197 129.86C88.6305 129.86 87.9097 130.581 87.9097 131.47C87.9097 132.359 88.6305 133.08 89.5197 133.08Z" fill="#1A1A1A"/>
<path d="M115.87 141.94C121.652 141.94 126.34 137.252 126.34 131.47C126.34 125.688 121.652 121 115.87 121C110.087 121 105.4 125.688 105.4 131.47C105.4 137.252 110.087 141.94 115.87 141.94Z" fill="white"/>
<path d="M115.87 133.08C116.759 133.08 117.48 132.359 117.48 131.47C117.48 130.581 116.759 129.86 115.87 129.86C114.981 129.86 114.26 130.581 114.26 131.47C114.26 132.359 114.981 133.08 115.87 133.08Z" fill="#1A1A1A"/>
<path d="M142.22 141.94C148.002 141.94 152.69 137.252 152.69 131.47C152.69 125.688 148.002 121 142.22 121C136.438 121 131.75 125.688 131.75 131.47C131.75 137.252 136.438 141.94 142.22 141.94Z" fill="white"/>
<path d="M142.22 133.08C143.109 133.08 143.83 132.359 143.83 131.47C143.83 130.581 143.109 129.86 142.22 129.86C141.331 129.86 140.61 130.581 140.61 131.47C140.61 132.359 141.331 133.08 142.22 133.08Z" fill="#1A1A1A"/>
<path d="M168.58 141.94C174.362 141.94 179.05 137.252 179.05 131.47C179.05 125.688 174.362 121 168.58 121C162.797 121 158.11 125.688 158.11 131.47C158.11 137.252 162.797 141.94 168.58 141.94Z" fill="white"/>
<path d="M168.58 133.08C169.469 133.08 170.19 132.359 170.19 131.47C170.19 130.581 169.469 129.86 168.58 129.86C167.691 129.86 166.97 130.581 166.97 131.47C166.97 132.359 167.691 133.08 168.58 133.08Z" fill="#1A1A1A"/>
<path d="M194.93 141.94C200.712 141.94 205.4 137.252 205.4 131.47C205.4 125.688 200.712 121 194.93 121C189.148 121 184.46 125.688 184.46 131.47C184.46 137.252 189.148 141.94 194.93 141.94Z" fill="white"/>
<path d="M194.93 133.08C195.819 133.08 196.54 132.359 196.54 131.47C196.54 130.581 195.819 129.86 194.93 129.86C194.041 129.86 193.32 130.581 193.32 131.47C193.32 132.359 194.041 133.08 194.93 133.08Z" fill="#1A1A1A"/>
<path d="M221.28 141.94C227.062 141.94 231.75 137.252 231.75 131.47C231.75 125.688 227.062 121 221.28 121C215.498 121 210.81 125.688 210.81 131.47C210.81 137.252 215.498 141.94 221.28 141.94Z" fill="white"/>
<path d="M221.28 133.08C222.169 133.08 222.89 132.359 222.89 131.47C222.89 130.581 222.169 129.86 221.28 129.86C220.391 129.86 219.67 130.581 219.67 131.47C219.67 132.359 220.391 133.08 221.28 133.08Z" fill="#1A1A1A"/>
<path d="M247.63 141.94C253.413 141.94 258.1 137.252 258.1 131.47C258.1 125.688 253.413 121 247.63 121C241.848 121 237.16 125.688 237.16 131.47C237.16 137.252 241.848 141.94 247.63 141.94Z" fill="white"/>
<path d="M247.63 133.08C248.519 133.08 249.24 132.359 249.24 131.47C249.24 130.581 248.519 129.86 247.63 129.86C246.741 129.86 246.02 130.581 246.02 131.47C246.02 132.359 246.741 133.08 247.63 133.08Z" fill="#1A1A1A"/>
<path d="M273.98 141.94C279.762 141.94 284.45 137.252 284.45 131.47C284.45 125.688 279.762 121 273.98 121C268.197 121 263.51 125.688 263.51 131.47C263.51 137.252 268.197 141.94 273.98 141.94Z" fill="white"/>
<path d="M273.98 133.08C274.869 133.08 275.59 132.359 275.59 131.47C275.59 130.581 274.869 129.86 273.98 129.86C273.09 129.86 272.37 130.581 272.37 131.47C272.37 132.359 273.09 133.08 273.98 133.08Z" fill="#1A1A1A"/>
<path d="M300.33 141.94C306.112 141.94 310.8 137.252 310.8 131.47C310.8 125.688 306.112 121 300.33 121C294.547 121 289.86 125.688 289.86 131.47C289.86 137.252 294.547 141.94 300.33 141.94Z" fill="white"/>
<path d="M300.33 133.08C301.219 133.08 301.94 132.359 301.94 131.47C301.94 130.581 301.219 129.86 300.33 129.86C299.441 129.86 298.72 130.581 298.72 131.47C298.72 132.359 299.441 133.08 300.33 133.08Z" fill="#1A1A1A"/>
<path d="M326.69 141.94C332.473 141.94 337.16 137.252 337.16 131.47C337.16 125.688 332.473 121 326.69 121C320.908 121 316.22 125.688 316.22 131.47C316.22 137.252 320.908 141.94 326.69 141.94Z" fill="white"/>
<path d="M326.69 133.08C327.579 133.08 328.3 132.359 328.3 131.47C328.3 130.581 327.579 129.86 326.69 129.86C325.801 129.86 325.08 130.581 325.08 131.47C325.08 132.359 325.801 133.08 326.69 133.08Z" fill="#1A1A1A"/>
<path d="M353.04 141.94C358.822 141.94 363.51 137.252 363.51 131.47C363.51 125.688 358.822 121 353.04 121C347.257 121 342.57 125.688 342.57 131.47C342.57 137.252 347.257 141.94 353.04 141.94Z" fill="white"/>
<path d="M353.04 133.08C353.929 133.08 354.65 132.359 354.65 131.47C354.65 130.581 353.929 129.86 353.04 129.86C352.151 129.86 351.43 130.581 351.43 131.47C351.43 132.359 352.151 133.08 353.04 133.08Z" fill="#1A1A1A"/>
<path d="M379.39 141.94C385.172 141.94 389.86 137.252 389.86 131.47C389.86 125.688 385.172 121 379.39 121C373.608 121 368.92 125.688 368.92 131.47C368.92 137.252 373.608 141.94 379.39 141.94Z" fill="white"/>
<path d="M379.39 133.08C380.279 133.08 381 132.359 381 131.47C381 130.581 380.279 129.86 379.39 129.86C378.501 129.86 377.78 130.581 377.78 131.47C377.78 132.359 378.501 133.08 379.39 133.08Z" fill="#1A1A1A"/>
<path d="M405.74 141.94C411.522 141.94 416.21 137.252 416.21 131.47C416.21 125.688 411.522 121 405.74 121C399.958 121 395.27 125.688 395.27 131.47C395.27 137.252 399.958 141.94 405.74 141.94Z" fill="white"/>
<path d="M405.74 133.08C406.629 133.08 407.35 132.359 407.35 131.47C407.35 130.581 406.629 129.86 405.74 129.86C404.851 129.86 404.13 130.581 404.13 131.47C404.13 132.359 404.851 133.08 405.74 133.08Z" fill="#1A1A1A"/>
<path d="M432.09 141.94C437.873 141.94 442.56 137.252 442.56 131.47C442.56 125.688 437.873 121 432.09 121C426.308 121 421.62 125.688 421.62 131.47C421.62 137.252 426.308 141.94 432.09 141.94Z" fill="white"/>
<path d="M432.09 133.08C432.979 133.08 433.7 132.359 433.7 131.47C433.7 130.581 432.979 129.86 432.09 129.86C431.201 129.86 430.48 130.581 430.48 131.47C430.48 132.359 431.201 133.08 432.09 133.08Z" fill="#1A1A1A"/>
<path d="M458.44 141.94C464.223 141.94 468.91 137.252 468.91 131.47C468.91 125.688 464.223 121 458.44 121C452.658 121 447.97 125.688 447.97 131.47C447.97 137.252 452.658 141.94 458.44 141.94Z" fill="white"/>
<path d="M458.44 133.08C459.329 133.08 460.05 132.359 460.05 131.47C460.05 130.581 459.329 129.86 458.44 129.86C457.551 129.86 456.83 130.581 456.83 131.47C456.83 132.359 457.551 133.08 458.44 133.08Z" fill="#1A1A1A"/>
<path d="M484.8 141.94C490.583 141.94 495.27 137.252 495.27 131.47C495.27 125.688 490.583 121 484.8 121C479.018 121 474.33 125.688 474.33 131.47C474.33 137.252 479.018 141.94 484.8 141.94Z" fill="white"/>
<path d="M484.8 133.08C485.689 133.08 486.41 132.359 486.41 131.47C486.41 130.581 485.689 129.86 484.8 129.86C483.911 129.86 483.19 130.581 483.19 131.47C483.19 132.359 483.911 133.08 484.8 133.08Z" fill="#1A1A1A"/>
<path d="M511.15 141.94C516.933 141.94 521.62 137.252 521.62 131.47C521.62 125.688 516.933 121 511.15 121C505.368 121 500.68 125.688 500.68 131.47C500.68 137.252 505.368 141.94 511.15 141.94Z" fill="white"/>
<path d="M511.15 133.08C512.039 133.08 512.76 132.359 512.76 131.47C512.76 130.581 512.039 129.86 511.15 129.86C510.261 129.86 509.54 130.581 509.54 131.47C509.54 132.359 510.261 133.08 511.15 133.08Z" fill="#1A1A1A"/>
<path d="M537.5 141.94C543.283 141.94 547.97 137.252 547.97 131.47C547.97 125.688 543.283 121 537.5 121C531.718 121 527.03 125.688 527.03 131.47C527.03 137.252 531.718 141.94 537.5 141.94Z" fill="white"/>
<path d="M537.5 133.08C538.389 133.08 539.11 132.359 539.11 131.47C539.11 130.581 538.389 129.86 537.5 129.86C536.611 129.86 535.89 130.581 535.89 131.47C535.89 132.359 536.611 133.08 537.5 133.08Z" fill="#1A1A1A"/>
<path d="M563.85 141.94C569.632 141.94 574.32 137.252 574.32 131.47C574.32 125.688 569.632 121 563.85 121C558.067 121 553.38 125.688 553.38 131.47C553.38 137.252 558.067 141.94 563.85 141.94Z" fill="white"/>
<path d="M563.85 133.08C564.739 133.08 565.46 132.359 565.46 131.47C565.46 130.581 564.739 129.86 563.85 129.86C562.961 129.86 562.24 130.581 562.24 131.47C562.24 132.359 562.961 133.08 563.85 133.08Z" fill="#1A1A1A"/>
<path d="M590.2 141.94C595.982 141.94 600.67 137.252 600.67 131.47C600.67 125.688 595.982 121 590.2 121C584.418 121 579.73 125.688 579.73 131.47C579.73 137.252 584.418 141.94 590.2 141.94Z" fill="white"/>
<path d="M590.2 133.08C591.089 133.08 591.81 132.359 591.81 131.47C591.81 130.581 591.089 129.86 590.2 129.86C589.311 129.86 588.59 130.581 588.59 131.47C588.59 132.359 589.311 133.08 590.2 133.08Z" fill="#1A1A1A"/>
<path d="M616.55 141.94C622.332 141.94 627.02 137.252 627.02 131.47C627.02 125.688 622.332 121 616.55 121C610.768 121 606.08 125.688 606.08 131.47C606.08 137.252 610.768 141.94 616.55 141.94Z" fill="white"/>
<path d="M616.55 133.08C617.439 133.08 618.16 132.359 618.16 131.47C618.16 130.581 617.439 129.86 616.55 129.86C615.661 129.86 614.94 130.581 614.94 131.47C614.94 132.359 615.661 133.08 616.55 133.08Z" fill="#1A1A1A"/>
<path d="M642.91 141.94C648.692 141.94 653.38 137.252 653.38 131.47C653.38 125.688 648.692 121 642.91 121C637.127 121 632.44 125.688 632.44 131.47C632.44 137.252 637.127 141.94 642.91 141.94Z" fill="white"/>
<path d="M642.91 133.08C643.799 133.08 644.52 132.359 644.52 131.47C644.52 130.581 643.799 129.86 642.91 129.86C642.021 129.86 641.3 130.581 641.3 131.47C641.3 132.359 642.021 133.08 642.91 133.08Z" fill="#1A1A1A"/>
<path d="M669.26 141.94C675.042 141.94 679.73 137.252 679.73 131.47C679.73 125.688 675.042 121 669.26 121C663.478 121 658.79 125.688 658.79 131.47C658.79 137.252 663.478 141.94 669.26 141.94Z" fill="white"/>
<path d="M669.26 133.08C670.149 133.08 670.87 132.359 670.87 131.47C670.87 130.581 670.149 129.86 669.26 129.86C668.371 129.86 667.65 130.581 667.65 131.47C667.65 132.359 668.371 133.08 669.26 133.08Z" fill="#1A1A1A"/>
<path d="M695.61 141.94C701.393 141.94 706.08 137.252 706.08 131.47C706.08 125.688 701.393 121 695.61 121C689.828 121 685.14 125.688 685.14 131.47C685.14 137.252 689.828 141.94 695.61 141.94Z" fill="white"/>
<path d="M695.61 133.08C696.499 133.08 697.22 132.359 697.22 131.47C697.22 130.581 696.499 129.86 695.61 129.86C694.721 129.86 694 130.581 694 131.47C694 132.359 694.721 133.08 695.61 133.08Z" fill="#1A1A1A"/>
<path d="M721.96 141.94C727.743 141.94 732.43 137.252 732.43 131.47C732.43 125.688 727.743 121 721.96 121C716.178 121 711.49 125.688 711.49 131.47C711.49 137.252 716.178 141.94 721.96 141.94Z" fill="white"/>
<path d="M721.96 133.08C722.849 133.08 723.57 132.359 723.57 131.47C723.57 130.581 722.849 129.86 721.96 129.86C721.071 129.86 720.35 130.581 720.35 131.47C720.35 132.359 721.071 133.08 721.96 133.08Z" fill="#1A1A1A"/>
<path d="M748.31 141.94C754.092 141.94 758.78 137.252 758.78 131.47C758.78 125.688 754.092 121 748.31 121C742.527 121 737.84 125.688 737.84 131.47C737.84 137.252 742.527 141.94 748.31 141.94Z" fill="white"/>
<path d="M748.31 133.08C749.199 133.08 749.92 132.359 749.92 131.47C749.92 130.581 749.199 129.86 748.31 129.86C747.421 129.86 746.7 130.581 746.7 131.47C746.7 132.359 747.421 133.08 748.31 133.08Z" fill="#1A1A1A"/>
<path d="M774.66 141.94C780.442 141.94 785.13 137.252 785.13 131.47C785.13 125.688 780.442 121 774.66 121C768.877 121 764.19 125.688 764.19 131.47C764.19 137.252 768.877 141.94 774.66 141.94Z" fill="white"/>
<path d="M774.66 133.08C775.549 133.08 776.27 132.359 776.27 131.47C776.27 130.581 775.549 129.86 774.66 129.86C773.771 129.86 773.05 130.581 773.05 131.47C773.05 132.359 773.771 133.08 774.66 133.08Z" fill="#1A1A1A"/>
<path d="M801.02 141.94C806.802 141.94 811.49 137.252 811.49 131.47C811.49 125.688 806.802 121 801.02 121C795.237 121 790.55 125.688 790.55 131.47C790.55 137.252 795.237 141.94 801.02 141.94Z" fill="white"/>
<path d="M801.02 133.08C801.909 133.08 802.63 132.359 802.63 131.47C802.63 130.581 801.909 129.86 801.02 129.86C800.131 129.86 799.41 130.581 799.41 131.47C799.41 132.359 800.131 133.08 801.02 133.08Z" fill="#1A1A1A"/>
<path d="M827.37 141.94C833.152 141.94 837.84 137.252 837.84 131.47C837.84 125.688 833.152 121 827.37 121C821.587 121 816.9 125.688 816.9 131.47C816.9 137.252 821.587 141.94 827.37 141.94Z" fill="white"/>
<path d="M827.37 133.08C828.259 133.08 828.98 132.359 828.98 131.47C828.98 130.581 828.259 129.86 827.37 129.86C826.481 129.86 825.76 130.581 825.76 131.47C825.76 132.359 826.481 133.08 827.37 133.08Z" fill="#1A1A1A"/>
<path d="M853.72 141.94C859.502 141.94 864.19 137.252 864.19 131.47C864.19 125.688 859.502 121 853.72 121C847.938 121 843.25 125.688 843.25 131.47C843.25 137.252 847.938 141.94 853.72 141.94Z" fill="white"/>
<path d="M853.72 133.08C854.609 133.08 855.33 132.359 855.33 131.47C855.33 130.581 854.609 129.86 853.72 129.86C852.831 129.86 852.11 130.581 852.11 131.47C852.11 132.359 852.831 133.08 853.72 133.08Z" fill="#1A1A1A"/>
<path d="M880.07 141.94C885.853 141.94 890.54 137.252 890.54 131.47C890.54 125.688 885.853 121 880.07 121C874.288 121 869.6 125.688 869.6 131.47C869.6 137.252 874.288 141.94 880.07 141.94Z" fill="white"/>
<path d="M880.07 133.08C880.959 133.08 881.68 132.359 881.68 131.47C881.68 130.581 880.959 129.86 880.07 129.86C879.181 129.86 878.46 130.581 878.46 131.47C878.46 132.359 879.181 133.08 880.07 133.08Z" fill="#1A1A1A"/>
<path d="M906.42 141.94C912.203 141.94 916.89 137.252 916.89 131.47C916.89 125.688 912.203 121 906.42 121C900.638 121 895.95 125.688 895.95 131.47C895.95 137.252 900.638 141.94 906.42 141.94Z" fill="white"/>
<path d="M906.42 133.08C907.309 133.08 908.03 132.359 908.03 131.47C908.03 130.581 907.309 129.86 906.42 129.86C905.531 129.86 904.81 130.581 904.81 131.47C904.81 132.359 905.531 133.08 906.42 133.08Z" fill="#1A1A1A"/>
<path d="M932.77 141.94C938.552 141.94 943.24 137.252 943.24 131.47C943.24 125.688 938.552 121 932.77 121C926.987 121 922.3 125.688 922.3 131.47C922.3 137.252 926.987 141.94 932.77 141.94Z" fill="white"/>
<path d="M932.77 133.08C933.659 133.08 934.38 132.359 934.38 131.47C934.38 130.581 933.659 129.86 932.77 129.86C931.881 129.86 931.16 130.581 931.16 131.47C931.16 132.359 931.881 133.08 932.77 133.08Z" fill="#1A1A1A"/>
<path d="M959.12 141.94C964.902 141.94 969.59 137.252 969.59 131.47C969.59 125.688 964.902 121 959.12 121C953.337 121 948.65 125.688 948.65 131.47C948.65 137.252 953.337 141.94 959.12 141.94Z" fill="white"/>
<path d="M959.12 133.08C960.009 133.08 960.73 132.359 960.73 131.47C960.73 130.581 960.009 129.86 959.12 129.86C958.231 129.86 957.51 130.581 957.51 131.47C957.51 132.359 958.231 133.08 959.12 133.08Z" fill="#1A1A1A"/>
<path d="M985.48 141.94C991.262 141.94 995.95 137.252 995.95 131.47C995.95 125.688 991.262 121 985.48 121C979.697 121 975.01 125.688 975.01 131.47C975.01 137.252 979.697 141.94 985.48 141.94Z" fill="white"/>
<path d="M985.48 133.08C986.369 133.08 987.09 132.359 987.09 131.47C987.09 130.581 986.369 129.86 985.48 129.86C984.59 129.86 983.87 130.581 983.87 131.47C983.87 132.359 984.59 133.08 985.48 133.08Z" fill="#1A1A1A"/>
<path d="M1011.83 141.94C1017.61 141.94 1022.3 137.252 1022.3 131.47C1022.3 125.688 1017.61 121 1011.83 121C1006.05 121 1001.36 125.688 1001.36 131.47C1001.36 137.252 1006.05 141.94 1011.83 141.94Z" fill="white"/>
<path d="M1011.83 133.08C1012.72 133.08 1013.44 132.359 1013.44 131.47C1013.44 130.581 1012.72 129.86 1011.83 129.86C1010.94 129.86 1010.22 130.581 1010.22 131.47C1010.22 132.359 1010.94 133.08 1011.83 133.08Z" fill="#1A1A1A"/>
<path d="M1038.18 141.94C1043.96 141.94 1048.65 137.252 1048.65 131.47C1048.65 125.688 1043.96 121 1038.18 121C1032.4 121 1027.71 125.688 1027.71 131.47C1027.71 137.252 1032.4 141.94 1038.18 141.94Z" fill="white"/>
<path d="M1038.18 133.08C1039.07 133.08 1039.79 132.359 1039.79 131.47C1039.79 130.581 1039.07 129.86 1038.18 129.86C1037.29 129.86 1036.57 130.581 1036.57 131.47C1036.57 132.359 1037.29 133.08 1038.18 133.08Z" fill="#1A1A1A"/>
<path d="M1064.53 141.94C1070.31 141.94 1075 137.252 1075 131.47C1075 125.688 1070.31 121 1064.53 121C1058.75 121 1054.06 125.688 1054.06 131.47C1054.06 137.252 1058.75 141.94 1064.53 141.94Z" fill="white"/>
<path d="M1064.53 133.08C1065.42 133.08 1066.14 132.359 1066.14 131.47C1066.14 130.581 1065.42 129.86 1064.53 129.86C1063.64 129.86 1062.92 130.581 1062.92 131.47C1062.92 132.359 1063.64 133.08 1064.53 133.08Z" fill="#1A1A1A"/>
<path d="M1090.88 141.94C1096.66 141.94 1101.35 137.252 1101.35 131.47C1101.35 125.688 1096.66 121 1090.88 121C1085.1 121 1080.41 125.688 1080.41 131.47C1080.41 137.252 1085.1 141.94 1090.88 141.94Z" fill="white"/>
<path d="M1090.88 133.08C1091.77 133.08 1092.49 132.359 1092.49 131.47C1092.49 130.581 1091.77 129.86 1090.88 129.86C1089.99 129.86 1089.27 130.581 1089.27 131.47C1089.27 132.359 1089.99 133.08 1090.88 133.08Z" fill="#1A1A1A"/>
<path d="M1117.23 141.94C1123.01 141.94 1127.7 137.252 1127.7 131.47C1127.7 125.688 1123.01 121 1117.23 121C1111.45 121 1106.76 125.688 1106.76 131.47C1106.76 137.252 1111.45 141.94 1117.23 141.94Z" fill="white"/>
<path d="M1117.23 133.08C1118.12 133.08 1118.84 132.359 1118.84 131.47C1118.84 130.581 1118.12 129.86 1117.23 129.86C1116.34 129.86 1115.62 130.581 1115.62 131.47C1115.62 132.359 1116.34 133.08 1117.23 133.08Z" fill="#1A1A1A"/>
<path d="M1143.59 141.94C1149.37 141.94 1154.06 137.252 1154.06 131.47C1154.06 125.688 1149.37 121 1143.59 121C1137.81 121 1133.12 125.688 1133.12 131.47C1133.12 137.252 1137.81 141.94 1143.59 141.94Z" fill="white"/>
<path d="M1143.59 133.08C1144.48 133.08 1145.2 132.359 1145.2 131.47C1145.2 130.581 1144.48 129.86 1143.59 129.86C1142.7 129.86 1141.98 130.581 1141.98 131.47C1141.98 132.359 1142.7 133.08 1143.59 133.08Z" fill="#1A1A1A"/>
<path d="M1169.94 141.94C1175.72 141.94 1180.41 137.252 1180.41 131.47C1180.41 125.688 1175.72 121 1169.94 121C1164.16 121 1159.47 125.688 1159.47 131.47C1159.47 137.252 1164.16 141.94 1169.94 141.94Z" fill="white"/>
<path d="M1169.94 133.08C1170.83 133.08 1171.55 132.359 1171.55 131.47C1171.55 130.581 1170.83 129.86 1169.94 129.86C1169.05 129.86 1168.33 130.581 1168.33 131.47C1168.33 132.359 1169.05 133.08 1169.94 133.08Z" fill="#1A1A1A"/>
<path d="M1196.29 141.94C1202.07 141.94 1206.76 137.252 1206.76 131.47C1206.76 125.688 1202.07 121 1196.29 121C1190.51 121 1185.82 125.688 1185.82 131.47C1185.82 137.252 1190.51 141.94 1196.29 141.94Z" fill="white"/>
<path d="M1196.29 133.08C1197.18 133.08 1197.9 132.359 1197.9 131.47C1197.9 130.581 1197.18 129.86 1196.29 129.86C1195.4 129.86 1194.68 130.581 1194.68 131.47C1194.68 132.359 1195.4 133.08 1196.29 133.08Z" fill="#1A1A1A"/>
<path d="M1222.64 141.94C1228.42 141.94 1233.11 137.252 1233.11 131.47C1233.11 125.688 1228.42 121 1222.64 121C1216.86 121 1212.17 125.688 1212.17 131.47C1212.17 137.252 1216.86 141.94 1222.64 141.94Z" fill="white"/>
<path d="M1222.64 133.08C1223.53 133.08 1224.25 132.359 1224.25 131.47C1224.25 130.581 1223.53 129.86 1222.64 129.86C1221.75 129.86 1221.03 130.581 1221.03 131.47C1221.03 132.359 1221.75 133.08 1222.64 133.08Z" fill="#1A1A1A"/>
<path d="M1248.99 141.94C1254.77 141.94 1259.46 137.252 1259.46 131.47C1259.46 125.688 1254.77 121 1248.99 121C1243.21 121 1238.52 125.688 1238.52 131.47C1238.52 137.252 1243.21 141.94 1248.99 141.94Z" fill="white"/>
<path d="M1248.99 133.08C1249.88 133.08 1250.6 132.359 1250.6 131.47C1250.6 130.581 1249.88 129.86 1248.99 129.86C1248.1 129.86 1247.38 130.581 1247.38 131.47C1247.38 132.359 1248.1 133.08 1248.99 133.08Z" fill="#1A1A1A"/>
<path d="M1275.34 141.94C1281.12 141.94 1285.81 137.252 1285.81 131.47C1285.81 125.688 1281.12 121 1275.34 121C1269.56 121 1264.87 125.688 1264.87 131.47C1264.87 137.252 1269.56 141.94 1275.34 141.94Z" fill="white"/>
<path d="M1275.34 133.08C1276.23 133.08 1276.95 132.359 1276.95 131.47C1276.95 130.581 1276.23 129.86 1275.34 129.86C1274.45 129.86 1273.73 130.581 1273.73 131.47C1273.73 132.359 1274.45 133.08 1275.34 133.08Z" fill="#1A1A1A"/>
<path d="M1301.7 141.94C1307.48 141.94 1312.17 137.252 1312.17 131.47C1312.17 125.688 1307.48 121 1301.7 121C1295.92 121 1291.23 125.688 1291.23 131.47C1291.23 137.252 1295.92 141.94 1301.7 141.94Z" fill="white"/>
<path d="M1301.7 133.08C1302.59 133.08 1303.31 132.359 1303.31 131.47C1303.31 130.581 1302.59 129.86 1301.7 129.86C1300.81 129.86 1300.09 130.581 1300.09 131.47C1300.09 132.359 1300.81 133.08 1301.7 133.08Z" fill="#1A1A1A"/>
<path d="M1328.05 141.94C1333.83 141.94 1338.52 137.252 1338.52 131.47C1338.52 125.688 1333.83 121 1328.05 121C1322.27 121 1317.58 125.688 1317.58 131.47C1317.58 137.252 1322.27 141.94 1328.05 141.94Z" fill="white"/>
<path d="M1328.05 133.08C1328.94 133.08 1329.66 132.359 1329.66 131.47C1329.66 130.581 1328.94 129.86 1328.05 129.86C1327.16 129.86 1326.44 130.581 1326.44 131.47C1326.44 132.359 1327.16 133.08 1328.05 133.08Z" fill="#1A1A1A"/>
<path d="M1354.4 141.94C1360.18 141.94 1364.87 137.252 1364.87 131.47C1364.87 125.688 1360.18 121 1354.4 121C1348.62 121 1343.93 125.688 1343.93 131.47C1343.93 137.252 1348.62 141.94 1354.4 141.94Z" fill="white"/>
<path d="M1354.4 133.08C1355.29 133.08 1356.01 132.359 1356.01 131.47C1356.01 130.581 1355.29 129.86 1354.4 129.86C1353.51 129.86 1352.79 130.581 1352.79 131.47C1352.79 132.359 1353.51 133.08 1354.4 133.08Z" fill="#1A1A1A"/>
<path d="M1380.75 141.94C1386.53 141.94 1391.22 137.252 1391.22 131.47C1391.22 125.688 1386.53 121 1380.75 121C1374.97 121 1370.28 125.688 1370.28 131.47C1370.28 137.252 1374.97 141.94 1380.75 141.94Z" fill="white"/>
<path d="M1380.75 133.08C1381.64 133.08 1382.36 132.359 1382.36 131.47C1382.36 130.581 1381.64 129.86 1380.75 129.86C1379.86 129.86 1379.14 130.581 1379.14 131.47C1379.14 132.359 1379.86 133.08 1380.75 133.08Z" fill="#1A1A1A"/>
<path d="M1407.1 141.94C1412.88 141.94 1417.57 137.252 1417.57 131.47C1417.57 125.688 1412.88 121 1407.1 121C1401.32 121 1396.63 125.688 1396.63 131.47C1396.63 137.252 1401.32 141.94 1407.1 141.94Z" fill="white"/>
<path d="M1407.1 133.08C1407.99 133.08 1408.71 132.359 1408.71 131.47C1408.71 130.581 1407.99 129.86 1407.1 129.86C1406.21 129.86 1405.49 130.581 1405.49 131.47C1405.49 132.359 1406.21 133.08 1407.1 133.08Z" fill="#1A1A1A"/>
<path d="M1433.45 141.94C1439.23 141.94 1443.92 137.252 1443.92 131.47C1443.92 125.688 1439.23 121 1433.45 121C1427.67 121 1422.98 125.688 1422.98 131.47C1422.98 137.252 1427.67 141.94 1433.45 141.94Z" fill="white"/>
<path d="M1433.45 133.08C1434.34 133.08 1435.06 132.359 1435.06 131.47C1435.06 130.581 1434.34 129.86 1433.45 129.86C1432.56 129.86 1431.84 130.581 1431.84 131.47C1431.84 132.359 1432.56 133.08 1433.45 133.08Z" fill="#1A1A1A"/>
<path d="M1459.81 141.94C1465.59 141.94 1470.28 137.252 1470.28 131.47C1470.28 125.688 1465.59 121 1459.81 121C1454.03 121 1449.34 125.688 1449.34 131.47C1449.34 137.252 1454.03 141.94 1459.81 141.94Z" fill="white"/>
<path d="M1459.81 133.08C1460.7 133.08 1461.42 132.359 1461.42 131.47C1461.42 130.581 1460.7 129.86 1459.81 129.86C1458.92 129.86 1458.2 130.581 1458.2 131.47C1458.2 132.359 1458.92 133.08 1459.81 133.08Z" fill="#1A1A1A"/>
<path d="M1486.16 141.94C1491.94 141.94 1496.63 137.252 1496.63 131.47C1496.63 125.688 1491.94 121 1486.16 121C1480.38 121 1475.69 125.688 1475.69 131.47C1475.69 137.252 1480.38 141.94 1486.16 141.94Z" fill="white"/>
<path d="M1486.16 133.08C1487.05 133.08 1487.77 132.359 1487.77 131.47C1487.77 130.581 1487.05 129.86 1486.16 129.86C1485.27 129.86 1484.55 130.581 1484.55 131.47C1484.55 132.359 1485.27 133.08 1486.16 133.08Z" fill="#1A1A1A"/>
<path d="M1512.51 141.94C1518.29 141.94 1522.98 137.252 1522.98 131.47C1522.98 125.688 1518.29 121 1512.51 121C1506.73 121 1502.04 125.688 1502.04 131.47C1502.04 137.252 1506.73 141.94 1512.51 141.94Z" fill="white"/>
<path d="M1512.51 133.08C1513.4 133.08 1514.12 132.359 1514.12 131.47C1514.12 130.581 1513.4 129.86 1512.51 129.86C1511.62 129.86 1510.9 130.581 1510.9 131.47C1510.9 132.359 1511.62 133.08 1512.51 133.08Z" fill="#1A1A1A"/>
<path d="M1538.86 141.94C1544.64 141.94 1549.33 137.252 1549.33 131.47C1549.33 125.688 1544.64 121 1538.86 121C1533.08 121 1528.39 125.688 1528.39 131.47C1528.39 137.252 1533.08 141.94 1538.86 141.94Z" fill="white"/>
<path d="M1538.86 133.08C1539.75 133.08 1540.47 132.359 1540.47 131.47C1540.47 130.581 1539.75 129.86 1538.86 129.86C1537.97 129.86 1537.25 130.581 1537.25 131.47C1537.25 132.359 1537.97 133.08 1538.86 133.08Z" fill="#1A1A1A"/>
<path d="M1565.21 141.94C1570.99 141.94 1575.68 137.252 1575.68 131.47C1575.68 125.688 1570.99 121 1565.21 121C1559.43 121 1554.74 125.688 1554.74 131.47C1554.74 137.252 1559.43 141.94 1565.21 141.94Z" fill="white"/>
<path d="M1565.21 133.08C1566.1 133.08 1566.82 132.359 1566.82 131.47C1566.82 130.581 1566.1 129.86 1565.21 129.86C1564.32 129.86 1563.6 130.581 1563.6 131.47C1563.6 132.359 1564.32 133.08 1565.21 133.08Z" fill="#1A1A1A"/>
<path d="M1591.56 141.94C1597.34 141.94 1602.03 137.252 1602.03 131.47C1602.03 125.688 1597.34 121 1591.56 121C1585.78 121 1581.09 125.688 1581.09 131.47C1581.09 137.252 1585.78 141.94 1591.56 141.94Z" fill="white"/>
<path d="M1591.56 133.08C1592.45 133.08 1593.17 132.359 1593.17 131.47C1593.17 130.581 1592.45 129.86 1591.56 129.86C1590.67 129.86 1589.95 130.581 1589.95 131.47C1589.95 132.359 1590.67 133.08 1591.56 133.08Z" fill="#1A1A1A"/>
<path d="M1617.92 141.94C1623.7 141.94 1628.39 137.252 1628.39 131.47C1628.39 125.688 1623.7 121 1617.92 121C1612.14 121 1607.45 125.688 1607.45 131.47C1607.45 137.252 1612.14 141.94 1617.92 141.94Z" fill="white"/>
<path d="M1617.92 133.08C1618.81 133.08 1619.53 132.359 1619.53 131.47C1619.53 130.581 1618.81 129.86 1617.92 129.86C1617.03 129.86 1616.31 130.581 1616.31 131.47C1616.31 132.359 1617.03 133.08 1617.92 133.08Z" fill="#1A1A1A"/>
<path d="M1644.27 141.94C1650.05 141.94 1654.74 137.252 1654.74 131.47C1654.74 125.688 1650.05 121 1644.27 121C1638.49 121 1633.8 125.688 1633.8 131.47C1633.8 137.252 1638.49 141.94 1644.27 141.94Z" fill="white"/>
<path d="M1644.27 133.08C1645.16 133.08 1645.88 132.359 1645.88 131.47C1645.88 130.581 1645.16 129.86 1644.27 129.86C1643.38 129.86 1642.66 130.581 1642.66 131.47C1642.66 132.359 1643.38 133.08 1644.27 133.08Z" fill="#1A1A1A"/>
<path d="M1670.62 141.94C1676.4 141.94 1681.09 137.252 1681.09 131.47C1681.09 125.688 1676.4 121 1670.62 121C1664.84 121 1660.15 125.688 1660.15 131.47C1660.15 137.252 1664.84 141.94 1670.62 141.94Z" fill="white"/>
<path d="M1670.62 133.08C1671.51 133.08 1672.23 132.359 1672.23 131.47C1672.23 130.581 1671.51 129.86 1670.62 129.86C1669.73 129.86 1669.01 130.581 1669.01 131.47C1669.01 132.359 1669.73 133.08 1670.62 133.08Z" fill="#1A1A1A"/>
<path d="M1696.97 141.94C1702.75 141.94 1707.44 137.252 1707.44 131.47C1707.44 125.688 1702.75 121 1696.97 121C1691.19 121 1686.5 125.688 1686.5 131.47C1686.5 137.252 1691.19 141.94 1696.97 141.94Z" fill="white"/>
<path d="M1696.97 133.08C1697.86 133.08 1698.58 132.359 1698.58 131.47C1698.58 130.581 1697.86 129.86 1696.97 129.86C1696.08 129.86 1695.36 130.581 1695.36 131.47C1695.36 132.359 1696.08 133.08 1696.97 133.08Z" fill="#1A1A1A"/>
<path d="M1723.32 141.94C1729.1 141.94 1733.79 137.252 1733.79 131.47C1733.79 125.688 1729.1 121 1723.32 121C1717.54 121 1712.85 125.688 1712.85 131.47C1712.85 137.252 1717.54 141.94 1723.32 141.94Z" fill="white"/>
<path d="M1723.32 133.08C1724.21 133.08 1724.93 132.359 1724.93 131.47C1724.93 130.581 1724.21 129.86 1723.32 129.86C1722.43 129.86 1721.71 130.581 1721.71 131.47C1721.71 132.359 1722.43 133.08 1723.32 133.08Z" fill="#1A1A1A"/>
<path d="M1776.03 141.94C1781.81 141.94 1786.5 137.252 1786.5 131.47C1786.5 125.688 1781.81 121 1776.03 121C1770.25 121 1765.56 125.688 1765.56 131.47C1765.56 137.252 1770.25 141.94 1776.03 141.94Z" fill="white"/>
<path d="M1776.03 133.08C1776.92 133.08 1777.64 132.359 1777.64 131.47C1777.64 130.581 1776.92 129.86 1776.03 129.86C1775.14 129.86 1774.42 130.581 1774.42 131.47C1774.42 132.359 1775.14 133.08 1776.03 133.08Z" fill="#1A1A1A"/>
<path d="M1802.38 141.94C1808.16 141.94 1812.85 137.252 1812.85 131.47C1812.85 125.688 1808.16 121 1802.38 121C1796.6 121 1791.91 125.688 1791.91 131.47C1791.91 137.252 1796.6 141.94 1802.38 141.94Z" fill="white"/>
<path d="M1802.38 133.08C1803.27 133.08 1803.99 132.359 1803.99 131.47C1803.99 130.581 1803.27 129.86 1802.38 129.86C1801.49 129.86 1800.77 130.581 1800.77 131.47C1800.77 132.359 1801.49 133.08 1802.38 133.08Z" fill="#1A1A1A"/>
<path d="M1828.73 141.94C1834.51 141.94 1839.2 137.252 1839.2 131.47C1839.2 125.688 1834.51 121 1828.73 121C1822.95 121 1818.26 125.688 1818.26 131.47C1818.26 137.252 1822.95 141.94 1828.73 141.94Z" fill="white"/>
<path d="M1828.73 133.08C1829.62 133.08 1830.34 132.359 1830.34 131.47C1830.34 130.581 1829.62 129.86 1828.73 129.86C1827.84 129.86 1827.12 130.581 1827.12 131.47C1827.12 132.359 1827.84 133.08 1828.73 133.08Z" fill="#1A1A1A"/>
<path d="M1855.08 141.94C1860.86 141.94 1865.55 137.252 1865.55 131.47C1865.55 125.688 1860.86 121 1855.08 121C1849.3 121 1844.61 125.688 1844.61 131.47C1844.61 137.252 1849.3 141.94 1855.08 141.94Z" fill="white"/>
<path d="M1855.08 133.08C1855.97 133.08 1856.69 132.359 1856.69 131.47C1856.69 130.581 1855.97 129.86 1855.08 129.86C1854.19 129.86 1853.47 130.581 1853.47 131.47C1853.47 132.359 1854.19 133.08 1855.08 133.08Z" fill="#1A1A1A"/>
<path d="M1881.43 141.94C1887.21 141.94 1891.9 137.252 1891.9 131.47C1891.9 125.688 1887.21 121 1881.43 121C1875.65 121 1870.96 125.688 1870.96 131.47C1870.96 137.252 1875.65 141.94 1881.43 141.94Z" fill="white"/>
<path d="M1881.43 133.08C1882.32 133.08 1883.04 132.359 1883.04 131.47C1883.04 130.581 1882.32 129.86 1881.43 129.86C1880.54 129.86 1879.82 130.581 1879.82 131.47C1879.82 132.359 1880.54 133.08 1881.43 133.08Z" fill="#1A1A1A"/>
<path d="M1907.78 141.94C1913.56 141.94 1918.25 137.252 1918.25 131.47C1918.25 125.688 1913.56 121 1907.78 121C1902 121 1897.31 125.688 1897.31 131.47C1897.31 137.252 1902 141.94 1907.78 141.94Z" fill="white"/>
<path d="M1907.78 133.08C1908.67 133.08 1909.39 132.359 1909.39 131.47C1909.39 130.581 1908.67 129.86 1907.78 129.86C1906.89 129.86 1906.17 130.581 1906.17 131.47C1906.17 132.359 1906.89 133.08 1907.78 133.08Z" fill="#1A1A1A"/>
<path d="M1749.67 141.94C1755.45 141.94 1760.14 137.252 1760.14 131.47C1760.14 125.688 1755.45 121 1749.67 121C1743.89 121 1739.2 125.688 1739.2 131.47C1739.2 137.252 1743.89 141.94 1749.67 141.94Z" fill="white"/>
<path d="M1749.67 133.08C1750.56 133.08 1751.28 132.359 1751.28 131.47C1751.28 130.581 1750.56 129.86 1749.67 129.86C1748.78 129.86 1748.06 130.581 1748.06 131.47C1748.06 132.359 1748.78 133.08 1749.67 133.08Z" fill="#1A1A1A"/>
</g>
<path d="M1920 -1.02271H0V9.20457H1920V-1.02271Z" fill="#1A1A1A"/>
</g>
<defs>
<clipPath id="clip0_692_1896">
<rect width="1920" height="135" fill="white"/>
</clipPath>
<clipPath id="clip1_692_1896">
<rect width="1929.22" height="68" fill="white" transform="translate(-5 32)"/>
</clipPath>
<clipPath id="clip2_692_1896">
<rect width="1918.25" height="20.93" fill="white" transform="translate(0 121)"/>
</clipPath>
</defs>
</svg>
