<svg width="15" height="16" viewBox="0 0 15 16" fill="none" xmlns="http://www.w3.org/2000/svg">
<path d="M5.71413 15.6866L3.49653 13.1733C3.4667 13.3157 3.39545 13.4426 3.29431 13.5333C3.19317 13.624 3.06806 13.6734 2.9392 13.6733C2.78375 13.6728 2.6348 13.6023 2.52488 13.4774C2.41496 13.3525 2.353 13.1833 2.35253 13.0066C2.35359 12.8605 2.39741 12.719 2.47708 12.6043C2.55674 12.4896 2.66773 12.4084 2.79253 12.3733L0.733334 10.0333C1.39489 9.29276 2.28715 8.8793 3.21575 8.88296C4.14435 8.88662 5.03406 9.30712 5.69108 10.0528C6.34809 10.7986 6.71917 11.8091 6.72349 12.8643C6.72781 13.9196 6.36501 14.934 5.71413 15.6866V15.6866Z" fill="white"/>
<path d="M13.1765 8.29997L11.4517 6.33997L11.9563 5.76664C12.1704 5.52226 12.2906 5.19147 12.2906 4.84664C12.2906 4.50181 12.1704 4.17102 11.9563 3.92664L11.088 2.93997C10.8718 2.6966 10.5798 2.56007 10.2755 2.56007C9.97115 2.56007 9.67913 2.6966 9.46293 2.93997L8.96427 3.50664L7.2336 1.54664C7.04975 1.33853 6.80083 1.22168 6.54133 1.22168C6.28184 1.22168 6.03291 1.33853 5.84907 1.54664L3.63733 4.05997C3.45419 4.26889 3.35137 4.55176 3.35137 4.84664C3.35137 5.14152 3.45419 5.42439 3.63733 5.63331L5.368 7.59997L5.28 7.69331C5.17269 7.81417 5.0875 7.95799 5.02937 8.11647C4.97124 8.27495 4.94131 8.44494 4.94131 8.61664C4.94131 8.78833 4.97124 8.95833 5.02937 9.11681C5.0875 9.27529 5.17269 9.41911 5.28 9.53997L5.71413 10.0333L6.14827 10.5266C6.36324 10.7701 6.65437 10.9068 6.95787 10.9068C7.26136 10.9068 7.55249 10.7701 7.76747 10.5266L7.85547 10.4266L9.58027 12.3866C9.76481 12.5958 10.0148 12.7133 10.2755 12.7133C10.5361 12.7133 10.7861 12.5958 10.9707 12.3866L13.1765 9.87997C13.2685 9.77667 13.3416 9.65365 13.3914 9.51804C13.4412 9.38244 13.4669 9.23693 13.4669 9.08997C13.4669 8.94301 13.4412 8.79751 13.3914 8.6619C13.3416 8.52629 13.2685 8.40327 13.1765 8.29997ZM4.3296 4.84664L6.54133 2.33331L8.26613 4.29997L6.06027 6.80664L4.3296 4.84664ZM10.2784 11.6L8.54773 9.63997L10.7595 7.12664L12.4843 9.08664L10.2784 11.6Z" fill="white"/>
</svg>
