<svg width="69" height="51" viewBox="0 0 69 51" fill="none" xmlns="http://www.w3.org/2000/svg">
<path d="M5.872 45.344H11.568C13.264 45.344 13.52 44.864 13.728 42.4C14.144 42.656 14.816 42.912 15.248 42.992C14.928 45.952 14.336 46.816 11.584 46.816H5.92C3.152 46.816 2.288 46.304 2.288 44.128V36.416H3.824V38.832H11.664V34.992H1.552V33.536H13.2V41.056H11.664V40.288H3.824V44.144C3.824 45.136 4.144 45.344 5.872 45.344ZM31.056 34.128H29.12V35.04H31.056V34.128ZM31.504 38H29.472C28.24 38 27.936 37.536 27.936 36.336V33.168H32.32V36.016H29.12V36.368C29.12 36.8 29.184 36.96 29.536 36.96H31.472C31.776 36.96 32.272 36.928 32.528 36.864C32.56 37.184 32.608 37.632 32.64 37.904C32.4 37.984 31.952 38 31.504 38ZM25.952 34.112H24.08V35.024H25.952V34.112ZM24.08 37.024L27.296 36.528C27.216 36.864 27.152 37.328 27.136 37.584C23.744 38.16 23.232 38.272 22.96 38.416C22.88 38.112 22.624 37.552 22.464 37.28C22.672 37.184 22.912 36.928 22.912 36.336V33.152H27.216V36H24.08V37.024ZM26.496 40.384V41.648H28.656V40.384H26.496ZM32.736 42.768H22.416V41.648H25.136V40.384H23.04V39.264H25.136V38.256H26.496V39.264H28.656V38.256H30.032V39.264H32.176V40.384H30.032V41.648H32.736V42.768ZM32.448 44.56L31.12 45.2C30.48 44.672 29.376 43.952 28.304 43.424L29.28 42.768C30.416 43.28 31.696 44 32.448 44.56ZM25.648 42.784L26.976 43.248C26.16 44.016 24.864 44.784 23.808 45.264C23.536 45.008 23.024 44.56 22.672 44.368C23.792 43.968 24.96 43.392 25.648 42.784ZM21.824 35.04L20.704 35.872C20.256 35.2 19.36 34.112 18.656 33.328L19.76 32.64C20.496 33.408 21.392 34.416 21.824 35.04ZM21.648 40.128L22.368 40.384C22.192 41.648 21.904 42.768 21.552 43.744C22.512 45.472 24.448 45.728 27.296 45.728C28.992 45.728 31.44 45.648 33.136 45.488C32.912 45.808 32.736 46.48 32.656 46.88C31.088 46.976 29.072 47.024 27.28 47.024C24.176 47.024 22.24 46.704 20.992 44.976C20.464 45.968 19.808 46.72 19.072 47.296C18.864 46.992 18.4 46.496 18.096 46.288C19.456 45.328 20.416 43.648 20.896 41.328H19.632C19.28 41.328 18.832 41.44 18.704 41.568C18.624 41.232 18.368 40.576 18.208 40.32C18.448 40.24 18.688 40.144 18.944 39.824C19.216 39.52 19.872 38.416 20.4 37.472H18.416V36.272H21.2L21.392 36.192L22.336 36.56C21.792 37.456 20.88 39.072 20.144 40.16H21.408L21.648 40.128ZM42.368 41.776V42.528H43.92V41.776H42.368ZM41.504 43.232V41.072H44.816V43.232H41.504ZM40.656 40.496V43.824H45.664V40.496H40.656ZM39.504 44.704V39.632H46.88V44.704H39.504ZM41.232 35.872V36.736H45.088V35.872H41.232ZM43.776 38.176H47.872V39.04H38.56V38.176H42.512V37.552H40.016V35.056H46.352V37.552H43.776V38.176ZM37.92 45.424H48.48V34.416H37.92V45.424ZM36.528 33.168H49.92V47.248H48.48V46.656H37.92V47.248H36.528V33.168ZM64.944 43.44H59.232V44.192H64.944V43.44ZM59.232 45.824H64.944V45.04H59.232V45.824ZM57.808 47.264V42.48H66.448V47.248H64.944V46.784H59.232V47.264H57.808ZM58.896 39.168L59.808 38.72C60.224 39.168 60.672 39.824 60.864 40.272L59.92 40.8C59.744 40.368 59.312 39.68 58.896 39.168ZM63.92 40.784L63.088 40.336C63.424 39.888 63.888 39.152 64.144 38.688L65.088 39.184C64.704 39.776 64.288 40.4 63.92 40.784ZM65.552 35.536V34.416H56.48V35.536H65.552ZM60.656 37.664H63.488C63.728 37.344 63.984 36.992 64.144 36.704H60.016C60.272 37.008 60.512 37.36 60.656 37.664ZM65.584 40.992V38.528H62.672V40.992H65.584ZM58.48 38.528V40.992H61.296V38.528H58.48ZM67.04 33.248V36.704H64.576L65.488 36.976C65.296 37.2 65.12 37.44 64.928 37.664H67.024V41.872H57.104V37.664H59.264C59.104 37.408 58.928 37.168 58.768 36.96L59.536 36.704H56.48V37.904C56.48 40.592 56.24 44.592 54.64 47.168C54.368 46.944 53.728 46.56 53.328 46.4C54.864 43.952 54.992 40.432 54.992 37.904V33.248H67.04Z" fill="#4D4D4D"/>
<g clip-path="url(#clip0_942_1117)">
<path d="M23.0559 7.44503C23.1803 7.15907 23.4151 7.00783 23.6886 6.88137C27.3974 5.16119 31.103 3.43782 34.8073 1.70874C35.0891 1.5772 35.3436 1.57466 35.6235 1.70493C39.3634 3.44926 43.1058 5.18978 46.8482 6.92776C47.1604 7.07265 47.3788 7.27854 47.3743 7.64392C47.3705 7.99787 47.156 8.19931 46.852 8.33911C45.8176 8.81507 44.7863 9.29675 43.7544 9.77716C43.6757 9.81338 43.5989 9.85341 43.4739 9.91569C43.5843 9.97224 43.6617 10.0155 43.741 10.0523C44.7806 10.5359 45.8195 11.0201 46.8609 11.4999C47.1293 11.6238 47.3261 11.7998 47.3711 12.1055C47.42 12.4353 47.2487 12.7155 46.8806 12.8877C45.8423 13.3745 44.8022 13.8562 43.7633 14.3397C43.6801 14.3785 43.5983 14.4211 43.4764 14.4815C43.5925 14.5412 43.6719 14.5857 43.7537 14.6238C44.8072 15.115 45.8607 15.6062 46.9148 16.0949C47.1985 16.2264 47.3705 16.4387 47.3737 16.7564C47.3775 17.0849 47.2055 17.3067 46.911 17.4395C46.8533 17.4656 46.7974 17.4948 46.7397 17.5215C45.1696 18.2516 43.6002 18.9824 42.0301 19.7126C39.9225 20.6931 37.8136 21.6691 35.7104 22.6592C35.3652 22.8218 35.065 22.8174 34.7191 22.6554C31.0529 20.9396 27.3822 19.2334 23.7102 17.5304C23.4297 17.4001 23.1847 17.2508 23.0552 16.9566C23.0552 16.8295 23.0552 16.703 23.0552 16.5759C23.179 16.2906 23.4119 16.1375 23.6867 16.0123C24.6996 15.5516 25.7067 15.0782 26.7158 14.6092C26.7894 14.5749 26.8599 14.5323 26.9582 14.4796C26.8472 14.4236 26.7716 14.3836 26.6942 14.3474C25.6921 13.8816 24.6926 13.4107 23.6867 12.9538C23.4119 12.8286 23.1809 12.6736 23.0552 12.3902C23.0552 12.2631 23.0552 12.1366 23.0552 12.0095C23.179 11.7242 23.4119 11.5711 23.6867 11.4459C24.6996 10.9852 25.7067 10.5117 26.7158 10.0428C26.7894 10.0085 26.8599 9.96589 26.9582 9.91315C26.8472 9.85723 26.7716 9.81719 26.6942 9.78097C25.6921 9.31518 24.6926 8.84431 23.6867 8.38741C23.4119 8.26223 23.1809 8.10717 23.0552 7.82376C23.0559 7.69857 23.0559 7.57148 23.0559 7.44503ZM44.9621 7.63884C44.8358 7.57529 44.7552 7.53272 44.6721 7.49396C41.6195 6.07243 38.5663 4.65282 35.5169 3.22495C35.303 3.12518 35.1329 3.12709 34.9216 3.22622C32.2009 4.49968 29.4771 5.76424 26.7539 7.03134C26.342 7.22325 25.9314 7.4177 25.4827 7.62867C25.583 7.68205 25.6407 7.71764 25.7023 7.74623C28.805 9.19063 31.9083 10.6338 35.0098 12.082C35.1589 12.1519 35.2789 12.1519 35.4305 12.0807C38.2737 10.7526 41.1194 9.4302 43.9644 8.10654C44.2824 7.95848 44.6003 7.80851 44.9621 7.63884ZM44.9722 12.2002C43.9378 11.7185 42.9624 11.2686 41.992 10.8072C41.8257 10.7284 41.6944 10.731 41.5281 10.8091C39.5963 11.7153 37.6581 12.6081 35.7282 13.5194C35.376 13.6859 35.0707 13.6903 34.7153 13.5225C32.7791 12.6069 30.8339 11.7109 28.8938 10.8022C28.7453 10.7323 28.6248 10.7227 28.4731 10.7958C27.8753 11.0837 27.2698 11.3575 26.6682 11.6378C26.2842 11.8163 25.9016 11.9974 25.4814 12.1944C25.5779 12.2465 25.6356 12.2821 25.6972 12.3107C28.7999 13.7551 31.9026 15.1983 35.0041 16.6452C35.1519 16.7138 35.2713 16.7208 35.4242 16.6496C38.2667 15.3215 41.1124 13.9991 43.9568 12.6755C44.2779 12.5268 44.5965 12.3762 44.9722 12.2002ZM44.9621 16.771C44.8485 16.7138 44.7863 16.6808 44.7228 16.6509C43.8128 16.2277 42.9008 15.8083 41.9939 15.3775C41.8295 15.2993 41.7007 15.2929 41.5306 15.373C39.5702 16.2938 37.6042 17.2019 35.6438 18.1214C35.3468 18.2605 35.0821 18.2574 34.7845 18.1175C32.8171 17.1936 30.8441 16.2823 28.8754 15.3616C28.7326 15.2948 28.6203 15.2917 28.4769 15.3597C27.556 15.7969 26.6301 16.2239 25.7061 16.6547C25.6407 16.6852 25.5773 16.7208 25.484 16.7697C25.5969 16.8269 25.6655 16.8651 25.7372 16.8981C28.8037 18.3253 31.8715 19.7507 34.9355 21.1843C35.1424 21.2809 35.3049 21.2783 35.5099 21.1824C38.3016 19.8752 41.0965 18.5763 43.8908 17.2756C44.2323 17.1154 44.5737 16.954 44.9621 16.771Z" fill="#4D4D4D"/>
<path d="M23.0558 7.82562C23.1815 8.10904 23.4125 8.26409 23.6873 8.38927C24.6932 8.84617 25.6927 9.31704 26.6948 9.78283C26.7722 9.81906 26.8478 9.85909 26.9588 9.91501C26.8598 9.96839 26.79 10.0103 26.7164 10.0446C25.7073 10.5142 24.7002 10.9877 23.6873 11.4477C23.4125 11.5729 23.1796 11.7261 23.0558 12.0114C23.0558 10.6159 23.0558 9.22045 23.0558 7.82562Z" fill="white"/>
<path d="M23.0558 12.392C23.1815 12.6754 23.4125 12.8305 23.6873 12.9557C24.6932 13.4126 25.6927 13.8835 26.6948 14.3492C26.7722 14.3855 26.8478 14.4255 26.9588 14.4814C26.8598 14.5348 26.79 14.5767 26.7164 14.611C25.7073 15.0807 24.7002 15.5541 23.6873 16.0141C23.4125 16.1393 23.1796 16.2925 23.0558 16.5778C23.0558 15.1823 23.0558 13.7869 23.0558 12.392Z" fill="white"/>
<path d="M45.9534 22.9514C45.9534 22.5346 45.9515 22.1546 45.954 21.7746C45.9572 21.3183 46.2605 20.9955 46.6762 21.0019C47.0824 21.0076 47.3756 21.3259 47.3781 21.7714C47.3813 22.3814 47.3813 22.9915 47.3781 23.6022C47.3756 24.0813 47.0855 24.3755 46.6115 24.3781C45.994 24.3812 45.3771 24.3819 44.7596 24.3781C44.3211 24.3749 44.0038 24.0679 44.007 23.66C44.0095 23.2539 44.3287 22.9559 44.7698 22.9527C45.1556 22.9489 45.5415 22.9514 45.9534 22.9514Z" fill="#4D4D4D"/>
<path d="M45.9534 1.4285C45.9534 1.84536 45.9515 2.22536 45.954 2.60537C45.9572 3.06163 46.2605 3.38444 46.6762 3.37808C47.0824 3.37237 47.3756 3.054 47.3781 2.60854C47.3813 1.9985 47.3813 1.38846 47.3781 0.777789C47.3756 0.298653 47.0855 0.00443607 46.6115 0.00189424C45.994 -0.00128305 45.3771 -0.00191851 44.7596 0.00189424C44.3211 0.00507153 44.0038 0.311998 44.007 0.719962C44.0095 1.12602 44.3287 1.42405 44.7698 1.42723C45.1556 1.43104 45.5415 1.4285 45.9534 1.4285Z" fill="#4D4D4D"/>
<path d="M24.4267 22.9514C24.4267 22.5346 24.4286 22.1546 24.426 21.7746C24.4229 21.3183 24.1195 20.9955 23.7038 21.0019C23.2977 21.0076 23.0045 21.3259 23.0019 21.7714C22.9987 22.3814 22.9987 22.9915 23.0019 23.6022C23.0045 24.0813 23.2945 24.3755 23.7686 24.3781C24.3861 24.3812 25.0029 24.3819 25.6204 24.3781C26.0589 24.3749 26.3763 24.0679 26.3731 23.66C26.3705 23.2539 26.0513 22.9559 25.6103 22.9527C25.2244 22.9489 24.8385 22.9514 24.4267 22.9514Z" fill="#4D4D4D"/>
<path d="M24.4267 1.42847C24.4267 1.84533 24.4286 2.22534 24.426 2.60534C24.4229 3.0616 24.1195 3.38441 23.7038 3.37806C23.2977 3.37234 23.0045 3.05398 23.0019 2.60852C22.9987 1.99848 22.9987 1.38844 23.0019 0.777764C23.0045 0.299264 23.2951 0.00504642 23.7686 0.00250459C24.3861 -0.000672703 25.0029 -0.00130816 25.6204 0.00250459C26.0589 0.00568188 26.3763 0.312608 26.3731 0.720573C26.3705 1.12663 26.0513 1.42466 25.6103 1.42784C25.2244 1.43102 24.8385 1.42847 24.4267 1.42847Z" fill="#4D4D4D"/>
<path d="M44.9722 12.2001C44.5972 12.3762 44.2779 12.5261 43.9581 12.6755C41.113 13.9991 38.268 15.3215 35.4255 16.6496C35.2725 16.7208 35.1526 16.7144 35.0053 16.6452C31.9045 15.1982 28.8012 13.7551 25.6985 12.3107C25.6369 12.2821 25.5792 12.2465 25.4827 12.1944C25.9028 11.9974 26.2855 11.8163 26.6695 11.6378C27.2711 11.3575 27.8759 11.0836 28.4743 10.7958C28.626 10.7227 28.7466 10.7322 28.8951 10.8021C30.8345 11.7108 32.7803 12.6068 34.7166 13.5225C35.0713 13.6903 35.3766 13.6858 35.7295 13.5194C37.6587 12.6081 39.5975 11.7153 41.5294 10.8091C41.6956 10.731 41.827 10.7284 41.9933 10.8072C42.9623 11.2692 43.9378 11.7185 44.9722 12.2001Z" fill="white"/>
<path d="M44.9621 16.771C44.573 16.954 44.2323 17.1154 43.8902 17.2743C41.0959 18.5757 38.3004 19.8739 35.5092 21.1811C35.3043 21.277 35.1418 21.2802 34.9349 21.183C31.8709 19.7494 28.8031 18.324 25.7366 16.8968C25.6655 16.8638 25.5963 16.8256 25.4833 16.7684C25.5766 16.7201 25.6401 16.6839 25.7055 16.6534C26.6295 16.2226 27.5554 15.7956 28.4763 15.3584C28.6197 15.2904 28.7326 15.2935 28.8748 15.3603C30.8434 16.281 32.8165 17.1923 34.7839 18.1163C35.0815 18.2561 35.3461 18.2592 35.6432 18.1201C37.6035 17.2006 39.5696 16.2925 41.53 15.3717C41.7001 15.2916 41.8289 15.2986 41.9933 15.3762C42.9002 15.807 43.8121 16.2258 44.7222 16.6496C44.7863 16.6808 44.8485 16.7138 44.9621 16.771Z" fill="white"/>
</g>
<defs>
<clipPath id="clip0_942_1117">
<rect width="24.38" height="24.38" fill="white" transform="translate(23)"/>
</clipPath>
</defs>
</svg>
