<svg width="68" height="68" viewBox="0 0 68 68" fill="none" xmlns="http://www.w3.org/2000/svg">
<rect width="68" height="68" rx="10" fill="#353535"/>
<circle cx="31.625" cy="28.75" r="0.75" fill="#D9D9D9"/>
<circle cx="34.625" cy="28.75" r="0.75" fill="#D9D9D9"/>
<circle cx="37.625" cy="28.75" r="0.75" fill="#D9D9D9"/>
<rect x="21.75" y="13.75" width="24.5" height="18.5" rx="3.25" stroke="white" stroke-width="1.5"/>
<path d="M19.412 44.72V53.12H20.49V44.72H19.412ZM16.234 47.086H23.85V48.304H16.234V47.086ZM16.234 45.084H23.85V46.274H16.234V45.084ZM15.212 44.23V49.144H24.914V44.23H15.212ZM13.798 50.222V51.146H26.216V50.222H13.798ZM15.786 41.5H18.474V42.83H15.786V41.5ZM14.834 40.8V43.53H19.454V40.8H14.834ZM21.54 41.5H24.256V42.83H21.54V41.5ZM20.588 40.8V43.53H25.25V40.8H20.588ZM36.87 48.542V51.734C36.87 52.728 37.094 53.022 38.074 53.022C38.27 53.022 39.18 53.022 39.39 53.022C40.188 53.022 40.454 52.588 40.552 50.824C40.286 50.754 39.88 50.614 39.684 50.446C39.642 51.93 39.586 52.126 39.264 52.126C39.082 52.126 38.354 52.126 38.214 52.126C37.892 52.126 37.836 52.07 37.836 51.734V48.542H36.87ZM34.588 44.132H38.48V45.616H34.588V44.132ZM34.588 46.442H38.48V47.94H34.588V46.442ZM34.588 41.836H38.48V43.292H34.588V41.836ZM33.608 40.968V48.808H39.488V40.968H33.608ZM34.756 48.514C34.56 50.306 34.042 51.622 31.956 52.322C32.166 52.518 32.46 52.896 32.572 53.134C34.896 52.252 35.54 50.698 35.778 48.514H34.756ZM27.77 42.872V43.838H32.138V42.872H27.77ZM29.814 47.058V53.12H30.836V45.826L29.814 47.058ZM29.814 40.254V43.348H30.836V40.254H29.814ZM30.836 45.966L30.22 46.526C30.78 47.03 32.054 48.374 32.53 49.004L33.174 48.122C32.81 47.758 31.284 46.33 30.836 45.966ZM31.788 42.872V43.096C30.976 45.224 29.072 47.352 27.266 48.472C27.434 48.654 27.7 49.144 27.798 49.41C29.716 48.122 31.774 45.784 32.768 43.222L32.18 42.83L31.998 42.872H31.788ZM42.848 45.714V53.106H43.856V46.526H52.186V53.036H53.222V45.714H42.848ZM46.978 44.286C46.782 44.79 46.418 45.504 46.11 45.98L47.02 46.218C47.342 45.784 47.762 45.154 48.112 44.51L46.978 44.286ZM43.478 51.762V52.56H52.578V51.762H43.478ZM50.072 47.436V47.59C49.26 49.354 47.076 50.586 45.046 51.09C45.214 51.258 45.424 51.538 45.522 51.734C47.692 51.104 49.946 49.802 50.926 47.674L50.38 47.408L50.226 47.436H50.072ZM47.706 46.82C47.09 47.702 45.914 48.71 44.318 49.424C44.5 49.55 44.738 49.774 44.864 49.956C46.544 49.13 47.748 48.052 48.532 46.974L47.706 46.82ZM47.51 47.436L46.992 48.052H50.352V47.436H47.51ZM44.752 48.052C46.782 48.892 49.288 50.264 50.534 51.23L51.08 50.642C49.792 49.676 47.272 48.36 45.256 47.548L44.752 48.052ZM47.44 40.24V41.822H48.518V40.24H47.44ZM45.83 42.018C45.508 43.418 44.654 44.174 41.798 44.552C41.994 44.762 42.246 45.168 42.33 45.406C45.48 44.888 46.53 43.88 46.922 42.018H45.83ZM48.714 41.948V43.67C48.714 44.594 49.008 44.832 50.198 44.832C50.436 44.832 51.822 44.832 52.074 44.832C52.97 44.832 53.25 44.524 53.348 43.32C53.068 43.25 52.662 43.124 52.452 42.984C52.41 43.88 52.34 44.006 51.948 44.006C51.654 44.006 50.534 44.006 50.31 44.006C49.834 44.006 49.75 43.95 49.75 43.67V41.948H48.714ZM41.994 41.318V43.558H43.002V42.158H53.11V43.446H54.16V41.318H41.994Z" fill="white"/>
</svg>
