<svg width="50" height="50" viewBox="0 0 50 50" fill="none" xmlns="http://www.w3.org/2000/svg">
<g clip-path="url(#clip0_309_243)">
<circle cx="22.625" cy="17.75" r="0.75" fill="#4D4D4D"/>
<circle cx="25.625" cy="17.75" r="0.75" fill="#4D4D4D"/>
<circle cx="28.625" cy="17.75" r="0.75" fill="#4D4D4D"/>
<rect x="12.75" y="2.75" width="24.5" height="18.5" rx="3.25" stroke="#4D4D4D" stroke-width="1.5"/>
<path d="M11.656 33.376V32.144H8.936V33.376H11.656ZM13.064 31.184V34.32H7.592V31.184H13.064ZM5.048 33.376V32.144H2.376V33.376H5.048ZM6.472 31.184V34.32H1.048V31.184H6.472ZM2.984 39.6H6.184V38.448H2.984V39.6ZM2.984 36.224V37.344H6.184V36.224H2.984ZM11.112 37.344V36.224H7.704V37.344H11.112ZM11.112 39.6V38.448H7.704V39.6H11.112ZM14.072 41.824V43.12H7.704V45.248H6.184V43.12H-0.0239999V41.824H6.184V40.784H1.528V35.04H12.632V40.784H7.704V41.824H14.072ZM23.528 39.248L22.6 40.48C22.28 40.032 21.672 39.312 21.128 38.688V45.264H19.688V39.056C19.032 39.68 18.328 40.24 17.656 40.672C17.544 40.272 17.224 39.488 17.032 39.2C18.712 38.24 20.408 36.48 21.432 34.624H17.48V33.28H20.44C20.136 32.704 19.592 31.92 19.096 31.344L20.216 30.64C20.792 31.232 21.4 32.064 21.672 32.624L20.712 33.28H22.216L22.488 33.216L23.288 33.776C22.808 34.976 22.136 36.112 21.352 37.152C21.992 37.744 23.208 38.928 23.528 39.248ZM25.512 37.408V38.768H29.672V37.408H25.512ZM25.512 34.928V36.272H29.672V34.928H25.512ZM25.512 32.464V33.776H29.672V32.464H25.512ZM29.624 43.904H30.456C30.744 43.904 30.808 43.68 30.856 41.984C31.128 42.224 31.704 42.448 32.088 42.544C31.96 44.672 31.608 45.2 30.6 45.2H29.4C28.2 45.2 27.912 44.784 27.912 43.456V39.968H26.744C26.504 42.576 25.816 44.32 22.936 45.312C22.792 44.976 22.424 44.464 22.152 44.224C24.696 43.44 25.208 42.064 25.4 39.968H24.152V31.264H31.096V39.968H29.304V43.44C29.304 43.84 29.336 43.904 29.624 43.904ZM46.344 37.6H38.152V43.52H39.384C39.192 43.2 38.824 42.832 38.552 42.608C40.008 42.16 41.24 41.584 42.28 40.96C41.928 40.704 41.576 40.464 41.208 40.224C40.632 40.56 39.976 40.88 39.256 41.168C39.064 40.864 38.648 40.48 38.376 40.272C39.016 40.048 39.608 39.808 40.136 39.552C39.688 39.264 39.224 38.992 38.776 38.768L39.64 38.048C40.136 38.32 40.68 38.624 41.208 38.944C41.768 38.592 42.232 38.208 42.568 37.84L43.944 38.08C43.448 38.624 42.888 39.104 42.232 39.584C42.584 39.808 42.952 40.048 43.288 40.288C43.976 39.776 44.52 39.248 44.92 38.752L46.344 39.024C45.768 39.712 45.064 40.384 44.248 40.992C44.904 41.488 45.48 41.984 45.896 42.416L44.952 43.216C44.536 42.768 43.944 42.24 43.256 41.696C42.184 42.368 40.936 43.008 39.496 43.52H46.344V37.6ZM41 35.088L42.52 35.36C42.296 35.712 42.04 36.048 41.784 36.384H47.8V45.248H46.344V44.688H38.152V45.28H36.76V36.384H40.264C40.552 35.952 40.824 35.456 41 35.088ZM49.24 34.096H47.736V32.832H44.344V34.144C44.344 34.496 44.392 34.64 44.808 34.64H46.952C47.32 34.64 48.072 34.608 48.36 34.528C48.392 34.912 48.408 35.184 48.472 35.52C48.184 35.616 47.576 35.632 47.064 35.632H44.424C43.16 35.632 42.92 35.12 42.92 34.128V32.832H41.128C40.76 34.704 39.688 35.616 36.184 36.08C36.072 35.76 35.736 35.216 35.496 34.96C38.504 34.672 39.368 34.096 39.672 32.832H36.792V34.256H35.368V31.664H41.56C41.448 31.344 41.336 31.024 41.24 30.752L42.776 30.512C42.936 30.864 43.112 31.28 43.24 31.664H49.24V34.096Z" fill="#4D4D4D"/>
</g>
<defs>
<clipPath id="clip0_309_243">
<rect width="50" height="50" fill="white"/>
</clipPath>
</defs>
</svg>
