<svg width="68" height="68" viewBox="0 0 68 68" fill="none" xmlns="http://www.w3.org/2000/svg">
<rect width="68" height="68" rx="10" fill="#1E1E1E" fill-opacity="0.9"/>
<path d="M40.0825 16.875C39.0537 12.7962 36.94 10 34.5 10C31.0488 10 28.25 15.5963 28.25 22.5C28.25 29.4037 31.0488 35 34.5 35C34.9275 35 35.3462 34.9137 35.75 34.75M38.4925 24.6337L43.26 26.9588L40.935 31.7263" stroke="#FCF7F7" stroke-width="2" stroke-linecap="round" stroke-linejoin="round"/>
<path d="M43.25 26.9625C40.995 28.0687 37.9075 28.75 34.5 28.75C27.5963 28.75 22 25.9512 22 22.5C22 19.0488 27.5963 16.25 34.5 16.25C40.5475 16.25 45.5912 18.3975 46.75 21.25" stroke="#FCF7F7" stroke-width="2" stroke-linecap="round" stroke-linejoin="round"/>
<path d="M28.5241 54.1392C27.8414 54.1392 27.2315 54.0215 26.6946 53.7862C26.161 53.5509 25.7384 53.2244 25.4268 52.8068C25.1186 52.3859 24.9529 51.8987 24.9297 51.3452H26.4908C26.5107 51.6468 26.6117 51.9086 26.794 52.1307C26.9796 52.3494 27.2216 52.5185 27.5199 52.6378C27.8182 52.7571 28.1496 52.8168 28.5142 52.8168C28.9152 52.8168 29.2699 52.7472 29.5781 52.608C29.8897 52.4687 30.1333 52.2749 30.3089 52.0263C30.4846 51.7744 30.5724 51.4844 30.5724 51.1562C30.5724 50.8149 30.4846 50.5149 30.3089 50.2564C30.1366 49.9946 29.883 49.7891 29.5483 49.6399C29.2169 49.4908 28.8158 49.4162 28.3452 49.4162H27.4851V48.1634H28.3452C28.723 48.1634 29.0545 48.0954 29.3395 47.9595C29.6278 47.8236 29.8532 47.6347 30.0156 47.3928C30.178 47.1475 30.2592 46.8608 30.2592 46.5327C30.2592 46.2178 30.188 45.9444 30.0455 45.7124C29.9063 45.477 29.7074 45.2931 29.4489 45.1605C29.1937 45.0279 28.892 44.9616 28.544 44.9616C28.2126 44.9616 27.9027 45.023 27.6143 45.1456C27.3293 45.2649 27.0973 45.4373 26.9183 45.6626C26.7393 45.8847 26.6432 46.1515 26.63 46.4631H25.1435C25.16 45.9129 25.3224 45.429 25.6307 45.0114C25.9422 44.5937 26.3532 44.2673 26.8636 44.032C27.3741 43.7966 27.9408 43.679 28.5639 43.679C29.2169 43.679 29.7803 43.8066 30.2543 44.0618C30.7315 44.3137 31.0994 44.6501 31.358 45.071C31.6198 45.492 31.7491 45.9527 31.7457 46.4531C31.7491 47.0232 31.59 47.5071 31.2685 47.9048C30.9503 48.3026 30.526 48.5694 29.9957 48.7053V48.7848C30.6719 48.8875 31.1955 49.156 31.5668 49.5902C31.9413 50.0244 32.1269 50.563 32.1236 51.206C32.1269 51.7661 31.9711 52.2682 31.6562 52.7124C31.3447 53.1565 30.9188 53.5062 30.3786 53.7614C29.8383 54.0133 29.2202 54.1392 28.5241 54.1392ZM37.4382 54H34.142V43.8182H37.5426C38.5402 43.8182 39.397 44.022 40.1129 44.4297C40.8288 44.834 41.3774 45.4157 41.7585 46.1747C42.143 46.9304 42.3352 47.8369 42.3352 48.8942C42.3352 49.9548 42.1413 50.8662 41.7536 51.6286C41.3691 52.3909 40.8123 52.9775 40.0831 53.3885C39.3539 53.7962 38.4723 54 37.4382 54ZM35.6783 52.6577H37.3537C38.1293 52.6577 38.7739 52.5118 39.2876 52.2202C39.8014 51.9252 40.1858 51.4993 40.4411 50.9425C40.6963 50.3823 40.8239 49.6996 40.8239 48.8942C40.8239 48.0954 40.6963 47.4176 40.4411 46.8608C40.1892 46.304 39.813 45.8814 39.3125 45.593C38.812 45.3047 38.1906 45.1605 37.4482 45.1605H35.6783V52.6577Z" fill="white"/>
</svg>
