<svg width="96" height="26" viewBox="0 0 96 26" fill="none" xmlns="http://www.w3.org/2000/svg">
<path fill-rule="evenodd" clip-rule="evenodd" d="M84.0002 25.52C83.0602 25.54 82.4102 24.83 82.5002 23.81C85.1702 20.45 89.8302 16.71 89.8302 13.33C89.8302 9.69 83.9402 4.17 82.5002 2.29C81.9302 1.66 82.9802 -0.0600037 84.0002 0.349996C88.0502 4.82 90.5502 7.45 95.6402 13.33C92.1002 17.36 87.8902 21.86 84.0002 25.52Z" fill="#212121"/>
<path fill-rule="evenodd" clip-rule="evenodd" d="M70.28 25.52C69.45 25.95 68.4 24.51 68.78 23.81C73.33 18.86 76.11 17.49 76.11 13.33C76.11 8.61 72.02 5.95 68.78 2.29C68.12 1.06 69.53 0.340002 70.28 0.350002C75.21 5.49 81.93 12.71 81.92 13.33C78 16.89 74.14 21.9 70.28 25.52Z" fill="#212121"/>
<path fill-rule="evenodd" clip-rule="evenodd" d="M56.5802 25.52C55.8202 26 54.2102 24.96 55.0802 23.81C58.8802 19.4 62.4202 18.33 62.4202 13.33C62.4202 8.9 59.1302 6.42 55.0802 2.29C54.2102 1.24 55.2002 -0.23 56.5802 0.35C61.6302 5.4 63.6302 8.28 68.2202 13.33C64.3702 17.85 60.3902 20.98 56.5802 25.52Z" fill="#212121"/>
<path fill-rule="evenodd" clip-rule="evenodd" d="M42.8704 25.52C42.0104 26.06 40.7404 25.18 41.3704 23.81C45.0404 19.95 48.7004 18.07 48.7004 13.33C48.7004 8.33 44.7904 6.2 41.3704 2.29C40.7904 1.59 41.4004 -0.229998 42.8704 0.350002C46.7604 4.1 54.5904 13.07 54.5104 13.33C54.4104 13.68 48.6704 19.58 42.8704 25.52Z" fill="#212121"/>
<path fill-rule="evenodd" clip-rule="evenodd" d="M40.8203 13.34C36.8503 17.49 34.1003 20.37 29.1803 25.53C27.8203 26.23 27.1603 24.52 27.6803 23.82C28.1303 23.27 35.0103 17.75 35.0103 13.34C35.0103 8.36 27.6803 2.7 27.6803 2.3C27.5403 1.57 28.2003 -0.38 29.1803 0.36C34.0903 5.3 35.9803 6.99 40.8203 13.34Z" fill="#212121"/>
<path fill-rule="evenodd" clip-rule="evenodd" d="M40.8203 13.34C36.8503 17.49 34.1003 20.37 29.1803 25.53C27.8203 26.23 27.1603 24.52 27.6803 23.82C28.1303 23.27 35.0103 17.75 35.0103 13.34C35.0103 8.36 27.6803 2.7 27.6803 2.3C27.5403 1.57 28.2003 -0.38 29.1803 0.36C34.0903 5.3 35.9803 6.99 40.8203 13.34Z" fill="#212121"/>
<path fill-rule="evenodd" clip-rule="evenodd" d="M15.4501 25.53C14.5001 25.84 13.7301 24.84 13.9501 23.82C14.0301 23.82 21.2801 17.47 21.2801 13.34C21.2801 9.54 17.9901 6.42 13.9501 2.3C13.4001 1.8 13.6201 0.890003 15.4501 0.370003C15.8001 0.540003 23.8601 9.86 27.0901 13.35C27.0101 13.93 21.1301 19.53 15.4501 25.53Z" fill="#212121"/>
<path fill-rule="evenodd" clip-rule="evenodd" d="M0.250142 23.81C3.40014 20.98 7.59014 18.09 7.59014 13.33C7.59014 9.07 2.88014 5.55 0.250142 2.29C-0.399858 1.43 0.480142 -0.33 1.75014 0.35C5.41014 4.61 13.4701 13.11 13.3901 13.33C13.3101 13.55 5.92014 21.93 1.75014 25.52C0.590142 26.45 -0.509858 24.9 0.250142 23.81Z" fill="#212121"/>
</svg>
