<svg width="97" height="26" viewBox="0 0 97 26" fill="none" xmlns="http://www.w3.org/2000/svg">
<path fill-rule="evenodd" clip-rule="evenodd" d="M12.28 25.52C13.22 25.54 13.87 24.83 13.78 23.81C11.11 20.45 6.45003 16.71 6.45003 13.33C6.45003 9.69 12.34 4.17 13.78 2.29C14.35 1.66 13.3 -0.0600037 12.28 0.349996C8.23003 4.82 5.73003 7.45 0.640035 13.33C4.18003 17.36 8.39003 21.86 12.28 25.52Z" fill="#212121"/>
<path fill-rule="evenodd" clip-rule="evenodd" d="M26.0003 25.52C26.8303 25.95 27.8803 24.51 27.5003 23.81C22.9503 18.86 20.1703 17.49 20.1703 13.33C20.1703 8.61 24.2603 5.95 27.5003 2.29C28.1603 1.06 26.7503 0.340002 26.0003 0.350002C21.0703 5.49 14.3503 12.71 14.3603 13.33C18.2803 16.89 22.1403 21.9 26.0003 25.52Z" fill="#212121"/>
<path fill-rule="evenodd" clip-rule="evenodd" d="M39.7001 25.52C40.4601 26 42.0701 24.96 41.2001 23.81C37.4001 19.4 33.8601 18.33 33.8601 13.33C33.8601 8.9 37.1501 6.42 41.2001 2.29C42.0701 1.24 41.0801 -0.23 39.7001 0.35C34.6501 5.4 32.6501 8.28 28.0601 13.33C31.9101 17.85 35.8901 20.98 39.7001 25.52Z" fill="#212121"/>
<path fill-rule="evenodd" clip-rule="evenodd" d="M53.4099 25.52C54.2699 26.06 55.5399 25.18 54.9099 23.81C51.2399 19.95 47.5799 18.07 47.5799 13.33C47.5799 8.33 51.4899 6.2 54.9099 2.29C55.4899 1.59 54.8799 -0.229998 53.4099 0.350002C49.5199 4.1 41.6899 13.07 41.7699 13.33C41.8699 13.68 47.6099 19.58 53.4099 25.52Z" fill="#212121"/>
<path fill-rule="evenodd" clip-rule="evenodd" d="M55.46 13.34C59.43 17.49 62.18 20.37 67.1 25.53C68.46 26.23 69.12 24.52 68.6 23.82C68.15 23.27 61.27 17.75 61.27 13.34C61.27 8.36 68.6 2.7 68.6 2.3C68.74 1.57 68.08 -0.38 67.1 0.36C62.19 5.3 60.3 6.99 55.46 13.34Z" fill="#212121"/>
<path fill-rule="evenodd" clip-rule="evenodd" d="M55.46 13.34C59.43 17.49 62.18 20.37 67.1 25.53C68.46 26.23 69.12 24.52 68.6 23.82C68.15 23.27 61.27 17.75 61.27 13.34C61.27 8.36 68.6 2.7 68.6 2.3C68.74 1.57 68.08 -0.38 67.1 0.36C62.19 5.3 60.3 6.99 55.46 13.34Z" fill="#212121"/>
<path fill-rule="evenodd" clip-rule="evenodd" d="M80.8302 25.53C81.7802 25.84 82.5502 24.84 82.3302 23.82C82.2502 23.82 75.0002 17.47 75.0002 13.34C75.0002 9.54 78.2902 6.42 82.3302 2.3C82.8802 1.8 82.6602 0.890003 80.8302 0.370003C80.4802 0.540003 72.4202 9.86 69.1902 13.35C69.2702 13.93 75.1502 19.53 80.8302 25.53Z" fill="#212121"/>
<path fill-rule="evenodd" clip-rule="evenodd" d="M96.0301 23.81C92.8801 20.98 88.6901 18.09 88.6901 13.33C88.6901 9.07 93.4001 5.55 96.0301 2.29C96.6801 1.43 95.8001 -0.33 94.5301 0.35C90.8701 4.61 82.8101 13.11 82.8901 13.33C82.9701 13.55 90.3601 21.93 94.5301 25.52C95.6901 26.45 96.7901 24.9 96.0301 23.81Z" fill="#212121"/>
</svg>
