<svg width="60" height="60" viewBox="0 0 60 60" fill="none" xmlns="http://www.w3.org/2000/svg">
<rect width="60" height="60" rx="30" fill="#1E1E1E" fill-opacity="0.9"/>
<g clip-path="url(#clip0_665_2406)">
<path fill-rule="evenodd" clip-rule="evenodd" d="M30.5396 14.4156C31.7206 13.5186 34.1091 11.0759 34.4521 11C36.3985 12.6837 40.6673 16.1959 41.9935 18.0313C41.8153 18.1762 41.624 18.2935 41.2347 18.4453C38.1337 15.913 37.0517 14.8917 34.4521 12.6561C33.4757 13.422 31.4699 15.7336 31.2522 15.8095C31.1928 18.121 31.1928 20.0531 31.2522 23.5446C31.1532 24.0621 30.0844 24.2208 29.9656 23.5446C29.893 20.6189 30.0448 19.0112 29.9656 15.8095C28.943 14.7261 27.9797 13.5393 26.7591 12.6561C24.3377 14.5812 22.6288 16.4374 20.2866 18.4453C19.6664 18.8524 18.9935 18.2383 19 18.0382C21.8503 15.3402 24.2123 13.0839 26.7591 11.0069C27.0824 11.2001 29.5566 13.5393 30.5396 14.4156Z" fill="white" fill-opacity="0.8"/>
</g>
<path d="M18.458 45H20.082V36.054H23.12V34.682H15.434V36.054H18.458V45ZM29.8264 45.182C32.4724 45.182 34.3204 43.124 34.3204 39.806C34.3204 36.488 32.4724 34.5 29.8264 34.5C27.1804 34.5 25.3464 36.488 25.3464 39.806C25.3464 43.124 27.1804 45.182 29.8264 45.182ZM29.8264 43.768C28.1184 43.768 27.0124 42.214 27.0124 39.806C27.0124 37.384 28.1184 35.914 29.8264 35.914C31.5344 35.914 32.6544 37.384 32.6544 39.806C32.6544 42.214 31.5344 43.768 29.8264 43.768ZM37.8611 45H39.4851V41.094H41.0391C43.2791 41.094 44.9171 40.058 44.9171 37.804C44.9171 35.48 43.2791 34.682 40.9831 34.682H37.8611V45ZM39.4851 39.792V35.998H40.8291C42.4671 35.998 43.3211 36.446 43.3211 37.804C43.3211 39.162 42.5371 39.792 40.8851 39.792H39.4851Z" fill="white" fill-opacity="0.8"/>
<defs>
<clipPath id="clip0_665_2406">
<rect width="13" height="23" fill="white" transform="matrix(0 -1 1 0 19 24)"/>
</clipPath>
</defs>
</svg>
