<svg width="68" height="68" viewBox="0 0 68 68" fill="none" xmlns="http://www.w3.org/2000/svg">
<rect width="68" height="68" rx="10" fill="#353535"/>
<g clip-path="url(#clip0_404_646)">
<path d="M22.0747 25.8297C21.2134 22.6779 21.5372 19.6458 23.1185 16.7873C25.9221 11.7166 31.9423 9.41368 37.4436 11.2684C38.5808 11.6526 39.6122 12.1814 40.544 12.8464L40.9134 12.3466C39.3632 11.2333 37.5619 10.5001 35.5075 10.1655C32.9052 9.74001 30.4066 10.1448 28.0326 11.3077C22.9193 13.8151 20.1281 19.4372 21.2425 24.9974C21.3234 25.4043 21.4396 25.805 21.5476 26.2056C21.5974 26.3895 21.7385 26.47 21.9211 26.4266C22.1099 26.3812 22.168 26.2325 22.1348 26.0507C22.1224 25.9764 22.0933 25.9041 22.0747 25.8297Z" fill="white" stroke="white"/>
<path d="M45.1097 17.9106C44.8648 17.2373 44.483 16.6135 44.1593 15.9712C44.0638 15.7812 43.8999 15.7171 43.7131 15.8266C43.5326 15.9319 43.5346 16.0992 43.6301 16.2707C43.6716 16.345 43.7173 16.4173 43.7588 16.4896C45.477 19.5444 45.8568 22.7603 44.7964 26.0959C43.0636 31.5445 37.6556 35.0165 31.955 34.304C29.6474 34.0148 27.5991 33.1308 25.7999 31.6705C25.5281 31.4495 25.277 31.2058 25.0155 30.9724C25.3434 30.9146 25.6401 30.9208 25.9348 30.9146C26.1859 30.9084 26.325 30.7927 26.3146 30.6006C26.3001 30.3548 26.134 30.3032 25.9224 30.3032C25.3932 30.3073 24.8661 30.3032 24.3369 30.3053C24.0256 30.3073 23.9385 30.392 23.9385 30.6977C23.9364 31.2244 23.9406 31.7511 23.9364 32.2778C23.9343 32.4864 23.9841 32.6557 24.229 32.6723C24.4345 32.6867 24.5465 32.5442 24.5507 32.2757C24.5548 31.9989 24.5507 31.7222 24.5507 31.3896C24.6316 31.4557 24.6586 31.4764 24.6835 31.4991C27.5846 34.1862 31.0046 35.3615 34.9433 34.905C38.2885 34.5188 41.0651 32.9945 43.1507 30.3734C46.139 26.6143 46.7512 22.4174 45.1097 17.9106Z" fill="white" stroke="white"/>
<path d="M33.5 30.5C29.0887 30.5 25.5 26.9113 25.5 22.5C25.5 18.0887 29.0887 14.5 33.5 14.5C37.9113 14.5 41.5 18.0887 41.5 22.5C41.5 26.9113 37.9113 30.5 33.5 30.5ZM33.5 14.9831C29.3548 14.9831 25.9831 18.3548 25.9831 22.5C25.9831 26.6452 29.3548 30.0169 33.5 30.0169C37.6452 30.0169 41.0169 26.6452 41.0169 22.5C41.0169 18.3548 37.6452 14.9831 33.5 14.9831Z" fill="white" stroke="white"/>
</g>
<path d="M24.9794 55V53.8864L28.4247 50.3168C28.7926 49.929 29.0959 49.5893 29.3345 49.2976C29.5765 49.0026 29.7571 48.7225 29.8764 48.4574C29.9957 48.1922 30.0554 47.9105 30.0554 47.6122C30.0554 47.2741 29.9759 46.9825 29.8168 46.7372C29.6577 46.4886 29.4406 46.2981 29.1655 46.1655C28.8904 46.0296 28.5805 45.9616 28.2358 45.9616C27.8712 45.9616 27.553 46.0362 27.2812 46.1854C27.0095 46.3345 26.8007 46.545 26.6548 46.8168C26.509 47.0885 26.4361 47.4067 26.4361 47.7713H24.9695C24.9695 47.1515 25.112 46.6096 25.397 46.1456C25.6821 45.6816 26.0732 45.322 26.5703 45.0668C27.0675 44.8082 27.6326 44.679 28.2656 44.679C28.9053 44.679 29.4688 44.8066 29.956 45.0618C30.4465 45.3137 30.8293 45.6584 31.1044 46.0959C31.3795 46.5301 31.517 47.0206 31.517 47.5675C31.517 47.9453 31.4458 48.3149 31.3033 48.6761C31.1641 49.0374 30.9205 49.4401 30.5724 49.8842C30.2244 50.325 29.7405 50.8603 29.1207 51.4901L27.0973 53.608V53.6825H31.6811V55H24.9794ZM37.0007 55H33.7045V44.8182H37.1051C38.1027 44.8182 38.9595 45.022 39.6754 45.4297C40.3913 45.834 40.9399 46.4157 41.321 47.1747C41.7055 47.9304 41.8977 48.8369 41.8977 49.8942C41.8977 50.9548 41.7038 51.8662 41.3161 52.6286C40.9316 53.3909 40.3748 53.9775 39.6456 54.3885C38.9164 54.7962 38.0348 55 37.0007 55ZM35.2408 53.6577H36.9162C37.6918 53.6577 38.3364 53.5118 38.8501 53.2202C39.3639 52.9252 39.7483 52.4993 40.0036 51.9425C40.2588 51.3823 40.3864 50.6996 40.3864 49.8942C40.3864 49.0954 40.2588 48.4176 40.0036 47.8608C39.7517 47.304 39.3755 46.8814 38.875 46.593C38.3745 46.3047 37.7531 46.1605 37.0107 46.1605H35.2408V53.6577Z" fill="white"/>
<defs>
<clipPath id="clip0_404_646">
<rect width="27" height="27" fill="white" transform="translate(20 9)"/>
</clipPath>
</defs>
</svg>
