<svg width="19" height="20" viewBox="0 0 19 20" fill="none" xmlns="http://www.w3.org/2000/svg">
<g clip-path="url(#clip0_1222_515)">
<g clip-path="url(#clip1_1222_515)">
<path d="M0.494995 12.2423C0.554229 11.9082 0.5874 11.5694 0.675066 11.2425C1.25556 9.0508 2.61557 7.56285 4.74088 6.77622C4.78353 6.75963 4.82855 6.75016 4.89726 6.7312C4.79064 8.94892 5.47064 10.8752 7.03916 12.4414C8.60767 14.0122 10.5316 14.6946 12.7777 14.5904C12.6877 14.8202 12.6214 15.0358 12.5242 15.2372C11.4888 17.4123 9.78287 18.6633 7.38508 18.9594C7.34007 18.9642 7.29505 18.9808 7.25003 18.9902C6.94438 18.9902 6.64111 18.9902 6.33546 18.9902C6.11037 18.9571 5.88528 18.9239 5.66256 18.886C3.26477 18.4879 1.20817 16.5451 0.675066 14.1686C0.599247 13.8322 0.556598 13.491 0.499734 13.1522C0.494995 12.8536 0.494995 12.548 0.494995 12.2423Z" fill="#808080"/>
<path d="M14.0998 13.2469C14.2041 11.0197 13.5193 9.09582 11.9485 7.5273C10.3823 5.96353 8.46077 5.28352 6.2549 5.39015C6.75246 3.45912 8.85171 1.0637 12.0503 0.99499C15.3461 0.923909 18.1183 3.3525 18.4618 6.56061C18.822 9.91088 16.5829 12.5243 14.0998 13.2469Z" fill="#808080"/>
<path d="M12.7564 10.8302C12.6711 10.8302 12.6143 10.8302 12.555 10.8302C10.7804 10.8302 9.00573 10.8278 7.23108 10.8326C7.0984 10.8326 7.01073 10.8041 6.9515 10.6809C6.73589 10.2402 6.51554 9.8019 6.3023 9.3612C6.27386 9.30434 6.26676 9.24037 6.24069 9.1527C6.31888 9.1527 6.38048 9.1527 6.44209 9.1527C8.21674 9.1527 9.99138 9.15507 11.766 9.15033C11.8987 9.15033 11.9864 9.17876 12.0456 9.30197C12.2636 9.75452 12.4863 10.2023 12.7067 10.6549C12.728 10.7023 12.7351 10.7544 12.7564 10.8302Z" fill="#808080"/>
<path d="M10.9723 8.0936C9.32085 8.0936 7.66941 8.0936 5.98006 8.0936C5.98006 7.56049 5.98006 7.03212 5.98006 6.48006C7.89213 6.28341 9.55305 6.80467 10.9723 8.0936Z" fill="#808080"/>
<path d="M8.02481 11.8846C8.08168 11.8846 8.13854 11.8846 8.1954 11.8846C9.73075 11.8846 11.2661 11.8869 12.8014 11.8798C12.9697 11.8798 13.0265 11.9272 13.0242 12.0907C13.017 12.5527 13.0218 13.0124 13.0218 13.5005C11.1097 13.7019 9.44879 13.1782 8.02481 11.8846Z" fill="#808080"/>
</g>
</g>
<defs>
<clipPath id="clip0_1222_515">
<rect width="18.01" height="18.01" fill="white" transform="translate(0.494995 0.994995)"/>
</clipPath>
<clipPath id="clip1_1222_515">
<rect width="18.0071" height="18" fill="white" transform="translate(0.494995 0.994995)"/>
</clipPath>
</defs>
</svg>
