<svg width="69" height="51" viewBox="0 0 69 51" fill="none" xmlns="http://www.w3.org/2000/svg">
<path d="M27.5362 10.375L22.3125 13.1875L27.5362 16M27.5362 10.375L34.5 14.125L41.4637 10.375M27.5362 10.375L22.3125 7.5625L34.5 1L46.6875 7.5625L41.4637 10.375M41.4637 10.375L46.6875 13.1875L41.4637 16M41.4637 16L46.6875 18.8125L34.5 25.375L22.3125 18.8125L27.5362 16M41.4637 16L34.5 19.75L27.5362 16" stroke="#4D4D4D" stroke-opacity="0.9" stroke-width="1.5" stroke-linecap="round" stroke-linejoin="round"/>
<path d="M5.312 38.559V39.519H10.752V38.559H5.312ZM10.752 34.575H5.312V35.471H10.752V34.575ZM5.312 36.559V37.471H10.752V36.559H5.312ZM15.28 40.751H12.096C12.992 41.679 14.24 42.495 15.472 42.927C15.168 43.199 14.72 43.727 14.512 44.079C12.976 43.407 11.44 42.143 10.464 40.751H5.696C5.312 41.311 4.816 41.871 4.288 42.367H7.216V41.167H8.72V42.367H11.888V43.551H8.72V44.975H14.096V46.207H2.048V44.975H7.216V43.551H4.16V42.495C3.36 43.215 2.432 43.823 1.52 44.255C1.312 43.903 0.88 43.375 0.56 43.119C1.824 42.639 3.104 41.743 4.016 40.751H0.72V39.519H3.824V34.575H1.504V33.359H3.824V31.967H5.312V33.359H10.752V31.983H12.272V33.359H14.56V34.575H12.272V39.519H15.28V40.751ZM29.76 38.671V36.511C29.312 37.263 28.8 37.935 28.272 38.399C28.128 38.143 27.84 37.679 27.616 37.439C28.384 36.863 29.136 35.791 29.584 34.687H28.208V33.535H29.76V31.967H30.96V33.535H32.848V34.687H31.232C31.776 35.311 32.848 36.623 33.104 37.007L32.256 38.015C32.016 37.503 31.44 36.559 30.96 35.807V38.671H29.76ZM25.264 38.671V36.159C24.8 36.959 24.256 37.727 23.696 38.255C23.568 37.951 23.264 37.487 23.04 37.263C23.696 36.687 24.432 35.695 24.864 34.703H23.472V33.535H25.264V31.967H26.432V33.535H27.856V34.703H26.432V34.799C26.8 35.119 27.776 36.191 28 36.479L27.264 37.359C27.088 37.087 26.768 36.575 26.432 36.127V38.671H25.264ZM21.984 43.359V38.943H20.464V43.359H21.984ZM23.024 44.671H20.464V45.919H19.36V40.271C19.104 40.719 18.848 41.135 18.544 41.503C18.464 41.151 18.176 40.287 17.984 39.919C19.04 38.495 19.744 36.367 20.16 34.095H18.432V32.751H23.216V34.095H21.472C21.216 35.311 20.928 36.527 20.544 37.631H23.024V44.671ZM28.736 43.215V45.007C29.072 45.039 29.408 45.055 29.776 45.055C30.208 45.055 32.48 45.055 33.088 45.039C32.912 45.343 32.72 45.951 32.672 46.303H29.696C27.6 46.303 26.112 45.903 25.12 44.239C24.784 45.215 24.304 46.047 23.488 46.687L22.464 45.759C23.824 44.767 24.272 42.991 24.464 40.959L25.696 41.183C25.648 41.647 25.584 42.095 25.536 42.511C25.936 43.679 26.56 44.335 27.36 44.671V40.351H23.44V39.135H31.632L31.872 39.055L32.8 39.375C32.544 40.175 32.176 41.135 31.888 41.743L30.752 41.327C30.88 41.071 31.008 40.719 31.12 40.351H28.736V42.015H32.336V43.215H28.736ZM42.368 41.151V41.903H43.92V41.151H42.368ZM41.504 42.607V40.447H44.816V42.607H41.504ZM40.656 39.871V43.199H45.664V39.871H40.656ZM39.504 44.079V39.007H46.88V44.079H39.504ZM41.232 35.247V36.111H45.088V35.247H41.232ZM43.776 37.551H47.872V38.415H38.56V37.551H42.512V36.927H40.016V34.431H46.352V36.927H43.776V37.551ZM37.92 44.799H48.48V33.791H37.92V44.799ZM36.528 32.543H49.92V46.623H48.48V46.031H37.92V46.623H36.528V32.543ZM64.944 42.815H59.232V43.567H64.944V42.815ZM59.232 45.199H64.944V44.415H59.232V45.199ZM57.808 46.639V41.855H66.448V46.623H64.944V46.159H59.232V46.639H57.808ZM58.896 38.543L59.808 38.095C60.224 38.543 60.672 39.199 60.864 39.647L59.92 40.175C59.744 39.743 59.312 39.055 58.896 38.543ZM63.92 40.159L63.088 39.711C63.424 39.263 63.888 38.527 64.144 38.063L65.088 38.559C64.704 39.151 64.288 39.775 63.92 40.159ZM65.552 34.911V33.791H56.48V34.911H65.552ZM60.656 37.039H63.488C63.728 36.719 63.984 36.367 64.144 36.079H60.016C60.272 36.383 60.512 36.735 60.656 37.039ZM65.584 40.367V37.903H62.672V40.367H65.584ZM58.48 37.903V40.367H61.296V37.903H58.48ZM67.04 32.623V36.079H64.576L65.488 36.351C65.296 36.575 65.12 36.815 64.928 37.039H67.024V41.247H57.104V37.039H59.264C59.104 36.783 58.928 36.543 58.768 36.335L59.536 36.079H56.48V37.279C56.48 39.967 56.24 43.967 54.64 46.543C54.368 46.319 53.728 45.935 53.328 45.775C54.864 43.327 54.992 39.807 54.992 37.279V32.623H67.04Z" fill="#4D4D4D"/>
</svg>
