<svg width="12" height="15" viewBox="0 0 12 15" fill="none" xmlns="http://www.w3.org/2000/svg">
<path d="M6.00002 1.66665C7.46669 1.66665 8.66669 2.86665 8.66669 4.33331C8.66669 5.73331 7.26669 7.99998 6.00002 9.59998C4.73335 7.93331 3.33335 5.73331 3.33335 4.33331C3.33335 2.86665 4.53335 1.66665 6.00002 1.66665ZM6.00002 0.333313C3.80002 0.333313 2.00002 2.13331 2.00002 4.33331C2.00002 7.33331 6.00002 11.6666 6.00002 11.6666C6.00002 11.6666 10 7.26665 10 4.33331C10 2.13331 8.20002 0.333313 6.00002 0.333313ZM6.00002 2.99998C5.26669 2.99998 4.66669 3.59998 4.66669 4.33331C4.66669 5.06665 5.26669 5.66665 6.00002 5.66665C6.73335 5.66665 7.33335 5.06665 7.33335 4.33331C7.33335 3.59998 6.73335 2.99998 6.00002 2.99998ZM11.3334 11.6666C11.3334 13.1333 8.93335 14.3333 6.00002 14.3333C3.06669 14.3333 0.666687 13.1333 0.666687 11.6666C0.666687 10.8 1.46669 10.0666 2.73335 9.53331L3.13335 10.1333C2.46669 10.4666 2.00002 10.8666 2.00002 11.3333C2.00002 12.2666 3.80002 13 6.00002 13C8.20002 13 10 12.2666 10 11.3333C10 10.8666 9.53335 10.4666 8.80002 10.1333L9.20002 9.53331C10.5334 10.0666 11.3334 10.8 11.3334 11.6666Z" fill="#F25F5C"/>
</svg>
